<svg xmlns="http://www.w3.org/2000/svg" id="a" data-name="Layer 1" viewBox="0 0 464.3568 742.9046" width="464.3568" height="742.9046"><metadata><rdf:RDF xmlns:rdf="http://www.w3.org/1999/02/22-rdf-syntax-ns#" xmlns:dc="http://purl.org/dc/elements/1.1/"><rdf:Description><dc:creator>RealFaviconGenerator</dc:creator><dc:source>https://realfavicongenerator.net</dc:source></rdf:Description></rdf:RDF></metadata><defs>
    <style>
      .b {
        fill: #666033;
      }

      .b, .c, .d, .e, .f {
        stroke-miterlimit: 10;
      }

      .b, .c, .e {
        stroke-width: 2px;
      }

      .b, .c, .f {
        stroke: #000;
      }

      .c, .e {
        fill: #693;
      }

      .g {
        fill: #903;
      }

      .d {
        stroke-width: 5px;
      }

      .d, .e {
        stroke: #470029;
      }

      .d, .f {
        fill: none;
      }

      .f {
        stroke-width: 3px;
      }

      .h {
        fill: #990074;
      }
    </style>
  </defs><g>
    <path class="g" d="M32.6264,375.0665c0,7.1296-19.8643,14.5715-19.6097,21.5951.2584,7.1276,20.6127,13.105,21.1257,20.1108.5211,7.1172-18.7404,16.0036-17.9645,22.9819.7891,7.0966,21.5352,11.5249,22.5794,18.464,1.0631,7.0649-17.454,17.4133-16.1352,24.3003,1.3447,7.0224,22.3769,9.7829,23.978,16.6048,1.6349,6.9662-15.9621,18.8116-14.0698,25.5522,1.9361,6.8964,23.1271,7.83,25.322,14.4727,2.2491,6.8068-14.1966,20.2045-11.6872,26.7259,2.5777,6.6988,23.7577,5.5826,26.5976,11.9597,2.9231,6.5637-12.0471,21.5915-8.8598,27.792,3.2892,6.3986,24.2072,2.9197,27.7631,8.907,3.6781,6.1931-9.3366,22.9413-5.3897,28.6671,4.0927,5.9372,24.3395-.3415,28.7031,5.0632,4.5344,5.6163-5.7847,24.1435-.9782,29.1508,5.0006,5.2095,23.8593-4.4424,29.1314.0698,5.4832,4.6928-1.0037,24.8747,4.7472,28.7702,5.9625,4.0389,22.169-9.5726,28.3903-6.4386,6.4021,3.2251,5.2728,24.376,11.9175,26.5905,6.7505,2.2498,18.4102-15.3888,25.3776-14.2374,6.9521,1.1489,12.3734,21.6034,19.508,21.6034s12.5575-20.4546,19.5104-21.6038c6.9681-1.1517,18.6289,16.4864,25.3799,14.2362,6.645-2.2149,5.5154-23.3659,11.9179-26.5915,6.2214-3.1344,22.4285,10.4764,28.391,6.4372,5.7509-3.8959-.7365-24.0777,4.7467-28.7708,5.2723-4.5126,24.1317,5.1381,29.1325-.0719,4.8063-5.0074-5.5135-23.5342-.9793-29.1506,4.363-5.4043,24.6096.8744,28.7018-5.0624,3.9466-5.7255-9.0687-22.473-5.391-28.6657,3.5555-5.9869,24.4732-2.5077,27.7621-8.9058,3.1871-6.2001-11.7834-21.2274-8.8606-27.7907,2.8396-6.3765,24.0193-5.2595,26.5967-11.9576,2.5093-6.5211-13.9365-19.9185-11.6875-26.725,2.1944-6.6411,23.385-7.573,25.3207-14.4677,1.8925-6.7406-15.7045-18.5862-14.0695-25.5524,1.6011-6.8216,22.6334-9.5816,23.9781-16.6037,1.3189-6.8874-17.198-17.2363-16.1347-24.3017,1.0443-6.9392,21.7905-11.3673,22.5796-18.464.776-6.9784-18.4855-15.865-17.9643-22.9823.5131-7.0069,20.8675-12.9852,21.126-20.1139.2547-7.0244-19.6096-14.4671-19.6096-21.5976s19.8643-14.5715,19.6097-21.5951c-.2584-7.1276-20.6127-13.105-21.1257-20.1108-.5211-7.1172,18.7404-16.0036,17.9645-22.9819-.7891-7.0966-21.5352-11.5249-22.5794-18.464-1.0631-7.0649,17.454-17.4133,16.1352-24.3003-1.3447-7.0224-22.3769-9.7829-23.978-16.6048-1.6349-6.9662,15.9621-18.8116,14.0698-25.5522-1.9361-6.8964-23.1271-7.83-25.322-14.4727-2.2491-6.8068,14.1966-20.2045,11.6872-26.7259-2.5777-6.6988-23.7577-5.5826-26.5976-11.9597-2.9231-6.5637,12.0471-21.5915,8.8598-27.792-3.2892-6.3986-24.2072-2.9197-27.7631-8.907-3.6781-6.1931,9.3366-22.9413,5.3897-28.6671-4.0927-5.9372-24.3395.3415-28.7031-5.0632-4.5344-5.6163,5.7847-24.1435.9782-29.1508-5.0006-5.2095-23.8593,4.4424-29.1314-.0698-5.4832-4.6928,1.0037-24.8747-4.7472-28.7702-5.9625-4.0389-22.169,9.5726-28.3903,6.4386-6.4021-3.2251-5.2728-24.376-11.9175-26.5905-6.7505-2.2498-18.4102,15.3888-25.3776,14.2374-6.9521-1.1489-12.3734-21.6034-19.508-21.6034s-12.5575,20.4546-19.5104,21.6038c-6.9681,1.1517-18.6289-16.4864-25.3799-14.2362-6.645,2.2149-5.5154,23.3659-11.9179,26.5915-6.2214,3.1344-22.4285-10.4764-28.391-6.4372-5.7509,3.8959.7365,24.0777-4.7467,28.7708-5.2723,4.5126-24.1317-5.1381-29.1325.0719-4.8063,5.0074,5.5135,23.5342.9793,29.1506-4.363,5.4043-24.6096-.8744-28.7018,5.0624-3.9466,5.7255,9.0687,22.473,5.391,28.6657-3.5555,5.9869-24.4732,2.5077-27.7621,8.9058-3.1871,6.2001,11.7834,21.2274,8.8606,27.7907-2.8396,6.3765-24.0193,5.2595-26.5967,11.9576-2.5093,6.5211,13.9365,19.9185,11.6875,26.725-2.1944,6.6411-23.385,7.573-25.3207,14.4677-1.8925,6.7406,15.7045,18.5862,14.0695,25.5524-1.6011,6.8216-22.6334,9.5816-23.9781,16.6037-1.3189,6.8874,17.198,17.2363,16.1347,24.3017-1.0443,6.9392-21.7905,11.3673-22.5796,18.464-.776,6.9784,18.4855,15.865,17.9643,22.9823-.5131,7.0069-20.8675,12.9852-21.126,20.1139-.2547,7.0244,19.6096,14.4671,19.6096,21.5976Z"></path>
    <path class="f" d="M32.6264,375.0665c0,7.1296-19.8643,14.5715-19.6097,21.5951.2584,7.1276,20.6127,13.105,21.1257,20.1108.5211,7.1172-18.7404,16.0036-17.9645,22.9819.7891,7.0966,21.5352,11.5249,22.5794,18.464,1.0631,7.0649-17.454,17.4133-16.1352,24.3003,1.3447,7.0224,22.3769,9.7829,23.978,16.6048,1.6349,6.9662-15.9621,18.8116-14.0698,25.5522,1.9361,6.8964,23.1271,7.83,25.322,14.4727,2.2491,6.8068-14.1966,20.2045-11.6872,26.7259,2.5777,6.6988,23.7577,5.5826,26.5976,11.9597,2.9231,6.5637-12.0471,21.5915-8.8598,27.792,3.2892,6.3986,24.2072,2.9197,27.7631,8.907,3.6781,6.1931-9.3366,22.9413-5.3897,28.6671,4.0927,5.9372,24.3395-.3415,28.7031,5.0632,4.5344,5.6163-5.7847,24.1435-.9782,29.1508,5.0006,5.2095,23.8593-4.4424,29.1314.0698,5.4832,4.6928-1.0037,24.8747,4.7472,28.7702,5.9625,4.0389,22.169-9.5726,28.3903-6.4386,6.4021,3.2251,5.2728,24.376,11.9175,26.5905,6.7505,2.2498,18.4102-15.3888,25.3776-14.2374,6.9521,1.1489,12.3734,21.6034,19.508,21.6034s12.5575-20.4546,19.5104-21.6038c6.9681-1.1517,18.6289,16.4864,25.3799,14.2362,6.645-2.2149,5.5154-23.3659,11.9179-26.5915,6.2214-3.1344,22.4285,10.4764,28.391,6.4372,5.7509-3.8959-.7365-24.0777,4.7467-28.7708,5.2723-4.5126,24.1317,5.1381,29.1325-.0719,4.8063-5.0074-5.5135-23.5342-.9793-29.1506,4.363-5.4043,24.6096.8744,28.7018-5.0624,3.9466-5.7255-9.0687-22.473-5.391-28.6657,3.5555-5.9869,24.4732-2.5077,27.7621-8.9058,3.1871-6.2001-11.7834-21.2274-8.8606-27.7907,2.8396-6.3765,24.0193-5.2595,26.5967-11.9576,2.5093-6.5211-13.9365-19.9185-11.6875-26.725,2.1944-6.6411,23.385-7.573,25.3207-14.4677,1.8925-6.7406-15.7045-18.5862-14.0695-25.5524,1.6011-6.8216,22.6334-9.5816,23.9781-16.6037,1.3189-6.8874-17.198-17.2363-16.1347-24.3017,1.0443-6.9392,21.7905-11.3673,22.5796-18.464.776-6.9784-18.4855-15.865-17.9643-22.9823.5131-7.0069,20.8675-12.9852,21.126-20.1139.2547-7.0244-19.6096-14.4671-19.6096-21.5976s19.8643-14.5715,19.6097-21.5951c-.2584-7.1276-20.6127-13.105-21.1257-20.1108-.5211-7.1172,18.7404-16.0036,17.9645-22.9819-.7891-7.0966-21.5352-11.5249-22.5794-18.464-1.0631-7.0649,17.454-17.4133,16.1352-24.3003-1.3447-7.0224-22.3769-9.7829-23.978-16.6048-1.6349-6.9662,15.9621-18.8116,14.0698-25.5522-1.9361-6.8964-23.1271-7.83-25.322-14.4727-2.2491-6.8068,14.1966-20.2045,11.6872-26.7259-2.5777-6.6988-23.7577-5.5826-26.5976-11.9597-2.9231-6.5637,12.0471-21.5915,8.8598-27.792-3.2892-6.3986-24.2072-2.9197-27.7631-8.907-3.6781-6.1931,9.3366-22.9413,5.3897-28.6671-4.0927-5.9372-24.3395.3415-28.7031-5.0632-4.5344-5.6163,5.7847-24.1435.9782-29.1508-5.0006-5.2095-23.8593,4.4424-29.1314-.0698-5.4832-4.6928,1.0037-24.8747-4.7472-28.7702-5.9625-4.0389-22.169,9.5726-28.3903,6.4386-6.4021-3.2251-5.2728-24.376-11.9175-26.5905-6.7505-2.2498-18.4102,15.3888-25.3776,14.2374-6.9521-1.1489-12.3734-21.6034-19.508-21.6034s-12.5575,20.4546-19.5104,21.6038c-6.9681,1.1517-18.6289-16.4864-25.3799-14.2362-6.645,2.2149-5.5154,23.3659-11.9179,26.5915-6.2214,3.1344-22.4285-10.4764-28.391-6.4372-5.7509,3.8959.7365,24.0777-4.7467,28.7708-5.2723,4.5126-24.1317-5.1381-29.1325.0719-4.8063,5.0074,5.5135,23.5342.9793,29.1506-4.363,5.4043-24.6096-.8744-28.7018,5.0624-3.9466,5.7255,9.0687,22.473,5.391,28.6657-3.5555,5.9869-24.4732,2.5077-27.7621,8.9058-3.1871,6.2001,11.7834,21.2274,8.8606,27.7907-2.8396,6.3765-24.0193,5.2595-26.5967,11.9576-2.5093,6.5211,13.9365,19.9185,11.6875,26.725-2.1944,6.6411-23.385,7.573-25.3207,14.4677-1.8925,6.7406,15.7045,18.5862,14.0695,25.5524-1.6011,6.8216-22.6334,9.5816-23.9781,16.6037-1.3189,6.8874,17.198,17.2363,16.1347,24.3017-1.0443,6.9392-21.7905,11.3673-22.5796,18.464-.776,6.9784,18.4855,15.865,17.9643,22.9823-.5131,7.0069-20.8675,12.9852-21.126,20.1139-.2547,7.0244,19.6096,14.4671,19.6096,21.5976Z"></path>
  </g><path class="f" d="M59.2539,375.0296c0,6.4997-19.8893,13.2794-19.6814,19.6851.211,6.4993,20.5008,11.969,20.9197,18.3606.4256,6.4926-18.9725,14.571-18.3386,20.941.6447,6.479,21.257,10.5672,22.1105,16.9073.8693,6.4573-17.9219,15.8615-16.843,22.1621,1.1006,6.4273,21.9519,9.0289,23.2631,15.2798,1.3402,6.389-16.6982,17.1676-15.1459,23.3579,1.5894,6.3385,22.5793,7.3081,24.3826,13.4229,1.8502,6.274-15.2396,18.5001-13.1734,24.5221,2.1257,6.1955,23.1175,5.3211,25.4618,11.2318,2.4182,6.0972-13.4402,19.8825-10.8004,25.6568,2.7314,5.9746,23.5187,2.9491,26.4751,8.5561,3.0689,5.8202-11.1242,21.3127-7.8264,26.7124,3.4357,5.6254,23.6661-.005,27.335,5.1364,3.8352,5.3744-7.9809,22.744-3.9084,27.5581,4.2705,5.048,23.2796-3.842,27.791.5535,4.738,4.6164-3.4961,23.9331,1.4844,27.788,5.225,4.0441,21.7004-8.9093,27.1653-5.7518,5.6956,3.2908,2.9303,24.0821,8.8561,26.355,6.0882,2.3351,17.7433-15.0418,24.0412-13.8413,6.3233,1.2053,10.8713,21.6465,17.3718,21.6465s11.0503-20.4414,17.3747-21.6471c6.2988-1.2009,17.9555,16.1752,24.0446,13.8394,5.9261-2.2733,3.16-23.0647,8.856-26.3561,5.4647-3.1578,21.9408,9.7947,27.1655,5.7504,4.9807-3.8554-3.2539-23.1722,1.4843-27.7892,4.5113-4.3959,23.5209,4.4931,27.7913-.5552,4.0722-4.814-7.7448-22.1829-3.91-27.5572,3.6684-5.141,23.8986.4894,27.3338-5.1355,3.2978-5.3999-10.8956-20.8922-7.8268-26.7126,2.9562-5.6068,23.7434-2.5814,26.4746-8.5558,2.6394-5.7737-13.2196-19.558-10.8017-25.6545,2.344-5.9103,23.3357-5.0357,25.4613-11.2308,2.066-6.0215-15.0241-18.2471-13.174-24.5207,1.8028-6.1132,22.7922-7.0812,24.3812-13.418,1.5521-6.1892-16.4865-16.9668-15.1465-23.3546,1.3113-6.2508,22.1626-8.8522,23.2633-15.2795,1.0789-6.3-17.7123-15.7039-16.843-22.1605.8537-6.3405,21.4661-10.4287,22.1109-16.9081.634-6.3705-18.7639-14.4498-18.3382-20.9429.4191-6.3927,20.709-11.8633,20.92-18.3637.208-6.4066-19.6813-13.1873-19.6813-19.688s19.8893-13.2794,19.6814-19.6851c-.211-6.4993-20.5008-11.969-20.9197-18.3606-.4256-6.4926,18.9725-14.571,18.3386-20.941-.6447-6.479-21.257-10.5672-22.1105-16.9073-.8693-6.4573,17.9219-15.8615,16.843-22.1621-1.1006-6.4273-21.9519-9.0289-23.2631-15.2798-1.3402-6.389,16.6982-17.1676,15.1459-23.3579-1.5894-6.3385-22.5793-7.3081-24.3826-13.4229-1.8502-6.274,15.2396-18.5001,13.1734-24.5221-2.1257-6.1955-23.1175-5.3211-25.4618-11.2318-2.4182-6.0972,13.4402-19.8825,10.8004-25.6568-2.7314-5.9746-23.5187-2.9491-26.4751-8.5561-3.0689-5.8202,11.1242-21.3127,7.8264-26.7124-3.4357-5.6254-23.6661.005-27.335-5.1364-3.8352-5.3744,7.9809-22.744,3.9084-27.5581-4.2705-5.048-23.2796,3.842-27.791-.5535-4.738-4.6164,3.4961-23.9331-1.4844-27.788-5.225-4.0441-21.7004,8.9093-27.1653,5.7518-5.6956-3.2908-2.9303-24.0821-8.8561-26.355-6.0882-2.3351-17.7433,15.0418-24.0412,13.8413-6.3233-1.2053-10.8713-21.6465-17.3718-21.6465s-11.0503,20.4414-17.3747,21.6471c-6.2988,1.2009-17.9555-16.1752-24.0446-13.8394-5.9261,2.2733-3.16,23.0647-8.856,26.3561-5.4647,3.1578-21.9408-9.7947-27.1655-5.7504-4.9807,3.8554,3.2539,23.1722-1.4843,27.7892-4.5113,4.3959-23.5209-4.4931-27.7913.5552-4.0722,4.814,7.7448,22.1829,3.91,27.5572-3.6684,5.141-23.8985-.4894-27.3338,5.1355-3.2978,5.3999,10.8956,20.8922,7.8268,26.7126-2.9562,5.6068-23.7434,2.5814-26.4746,8.5558-2.6394,5.7737,13.2196,19.558,10.8017,25.6545-2.344,5.9103-23.3357,5.0357-25.4613,11.2308-2.066,6.0215,15.0241,18.2471,13.174,24.5207-1.8028,6.1132-22.7922,7.0812-24.3812,13.418-1.5521,6.1892,16.4865,16.9668,15.1465,23.3546-1.3113,6.2508-22.1626,8.8522-23.2633,15.2795-1.0789,6.3,17.7123,15.7039,16.843,22.1605-.8537,6.3405-21.4661,10.4287-22.1109,16.9081-.634,6.3705,18.7639,14.4498,18.3382,20.9429-.4191,6.3927-20.709,11.8633-20.92,18.3637-.208,6.4066,19.6813,13.1873,19.6813,19.688Z"></path><g>
    <path class="h" d="M379.8025,373.9275c0,5.6338-20.0694,10.9728-20.2128,16.5291-.1455,5.6353,19.6193,12.0072,19.3303,17.5542-.2936,5.6331-20.6155,9.9099-21.053,15.443-.445,5.6275,18.949,13.0521,18.3595,18.5667-.6006,5.6191-21.1275,8.7681-21.8736,14.2601-.7613,5.604,18.1765,14.1252,17.2687,19.5862-.9284,5.5851-21.6055,7.5061-22.682,12.9303-1.1036,5.5609,17.2642,15.2501,16.0107,20.6298-1.2883,5.5288-22.0463,6.0775-23.4868,11.4017-1.4846,5.4871,16.1505,16.4522,14.5109,21.7075-1.6965,5.4375-22.4335,4.393-24.2886,9.5664-1.9264,5.372,14.7226,17.7829,12.6335,22.8523-2.18,5.2899-22.7239,2.3075-25.0717,7.2477-2.4627,5.1818,12.7704,19.2928,10.1338,24.0666-2.7826,5.0381-22.7954-.4447-25.7591,4.1118-3.1488,4.841,9.8612,21.0184,6.523,25.2832-3.572,4.5635-22.2796-4.3602-26.05-.4964-4.0574,4.1579,5.0512,22.7928.787,26.091-4.5888,3.5493-20.0168-10.1989-24.8166-7.7067-5.0994,2.6478-3.1827,23.2335-8.486,24.6137-5.4416,1.4163-13.4999-17.5325-19.1182-17.5325s-13.6797,18.9483-19.1225,17.5314c-5.3044-1.3809-3.3874-21.9669-8.4879-24.6159-4.8002-2.493-20.2303,11.2532-24.8195,7.7029-4.2639-3.2987,4.8463-21.9327.7893-26.0909-3.7704-3.8644-22.4789,5.0576-26.0509.4935-3.3383-4.2655,9.6724-20.4426,6.5235-25.2844-2.9629-4.5559-22.9755.9268-25.7573-4.1105-2.636-4.7732,12.5979-18.8829,10.1358-24.0639-2.3475-4.9399-22.8913-1.9575-25.071-7.2469-2.0891-5.0696,14.5601-17.4802,12.6338-22.8523-1.8547-5.1725-22.5914-4.1275-24.2876-9.564-1.6394-5.2545,15.9961-16.2187,14.5117-21.7049-1.4403-5.3232-22.198-5.871-23.4861-11.3988-1.2532-5.3783,17.1148-15.0663,16.0115-20.6258-1.0765-5.4241-21.7536-7.3448-22.6821-12.9297-.9077-5.4602,18.0301-13.9808,17.2688-19.584-.746-5.4906-21.2727-8.638-21.8733-14.2558-.5897-5.5155,18.804-12.9413,18.3589-18.5698-.4376-5.5331-20.7596-9.8096-21.0532-15.4427-.2892-5.5486,19.4755-11.9222,19.3299-17.5591-.1435-5.5579-20.2129-10.8985-20.2129-16.5339s20.0694-10.9728,20.2128-16.5291c.1455-5.6353-19.6193-12.0072-19.3303-17.5542.2936-5.6331,20.6155-9.9099,21.053-15.443.445-5.6275-18.949-13.0521-18.3595-18.5667.6006-5.6191,21.1275-8.7681,21.8736-14.2601.7613-5.604-18.1765-14.1252-17.2687-19.5862.9284-5.5851,21.6055-7.5061,22.682-12.9303,1.1036-5.5609-17.2642-15.2501-16.0107-20.6297,1.2883-5.5288,22.0463-6.0775,23.4868-11.4017,1.4846-5.4871-16.1505-16.4522-14.5109-21.7075,1.6965-5.4375,22.4335-4.393,24.2886-9.5664,1.9264-5.372-14.7226-17.7829-12.6335-22.8523,2.18-5.2899,22.7239-2.3075,25.0717-7.2477,2.4627-5.1818-12.7704-19.2928-10.1338-24.0666,2.7826-5.0381,22.7954.4447,25.7591-4.1118,3.1488-4.841-9.8612-21.0184-6.523-25.2832,3.572-4.5635,22.2796,4.3602,26.05.4964,4.0574-4.1579-5.0512-22.7928-.787-26.091,4.5888-3.5493,20.0168,10.1989,24.8166,7.7067,5.0994-2.6478,3.1827-23.2335,8.486-24.6137,5.4416-1.4163,13.4999,17.5325,19.1182,17.5325s13.6797-18.9483,19.1225-17.5314c5.3044,1.3809,3.3874,21.9669,8.4879,24.6159,4.8002,2.493,20.2303-11.2532,24.8195-7.7029,4.2639,3.2987-4.8463,21.9327-.7893,26.0909,3.7704,3.8644,22.4789-5.0576,26.0509-.4935,3.3383,4.2655-9.6724,20.4426-6.5235,25.2844,2.9629,4.5559,22.9755-.9268,25.7573,4.1105,2.636,4.7732-12.5979,18.8829-10.1358,24.0639,2.3475,4.9399,22.8913,1.9575,25.071,7.2469,2.0891,5.0696-14.5601,17.4802-12.6338,22.8523,1.8547,5.1725,22.5914,4.1275,24.2876,9.564,1.6394,5.2545-15.9961,16.2187-14.5117,21.7049,1.4403,5.3232,22.198,5.871,23.4861,11.3988,1.2532,5.3783-17.1148,15.0663-16.0115,20.6258,1.0765,5.4241,21.7536,7.3448,22.6821,12.9297.9077,5.4602-18.0301,13.9808-17.2688,19.584.746,5.4906,21.2727,8.638,21.8733,14.2558.5897,5.5155-18.804,12.9413-18.3589,18.5698.4376,5.5331,20.7596,9.8096,21.0532,15.4427.2892,5.5486-19.4755,11.9222-19.3299,17.5591.1435,5.5579,20.2129,10.8985,20.2129,16.5339Z"></path>
    <path class="d" d="M379.8025,373.9275c0,5.6338-20.0694,10.9728-20.2128,16.5291-.1455,5.6353,19.6193,12.0072,19.3303,17.5542-.2936,5.6331-20.6155,9.9099-21.053,15.443-.445,5.6275,18.949,13.0521,18.3595,18.5667-.6006,5.6191-21.1275,8.7681-21.8736,14.2601-.7613,5.604,18.1765,14.1252,17.2687,19.5862-.9284,5.5851-21.6055,7.5061-22.682,12.9303-1.1036,5.5609,17.2642,15.2501,16.0107,20.6298-1.2883,5.5288-22.0463,6.0775-23.4868,11.4017-1.4846,5.4871,16.1505,16.4522,14.5109,21.7075-1.6965,5.4375-22.4335,4.393-24.2886,9.5664-1.9264,5.372,14.7226,17.7829,12.6335,22.8523-2.18,5.2899-22.7239,2.3075-25.0717,7.2477-2.4627,5.1818,12.7704,19.2928,10.1338,24.0666-2.7826,5.0381-22.7954-.4447-25.7591,4.1118-3.1488,4.841,9.8612,21.0184,6.523,25.2832-3.572,4.5635-22.2796-4.3602-26.05-.4964-4.0574,4.1579,5.0512,22.7928.787,26.091-4.5888,3.5493-20.0168-10.1989-24.8166-7.7067-5.0994,2.6478-3.1827,23.2335-8.486,24.6137-5.4416,1.4163-13.4999-17.5325-19.1182-17.5325s-13.6797,18.9483-19.1225,17.5314c-5.3044-1.3809-3.3874-21.9669-8.4879-24.6159-4.8002-2.493-20.2303,11.2532-24.8195,7.7029-4.2639-3.2987,4.8463-21.9327.7893-26.0909-3.7704-3.8644-22.4789,5.0576-26.0509.4935-3.3383-4.2655,9.6724-20.4426,6.5235-25.2844-2.9629-4.5559-22.9755.9268-25.7573-4.1105-2.636-4.7732,12.5979-18.8829,10.1358-24.0639-2.3475-4.9399-22.8913-1.9575-25.071-7.2469-2.0891-5.0696,14.5601-17.4802,12.6338-22.8523-1.8547-5.1725-22.5914-4.1275-24.2876-9.564-1.6394-5.2545,15.9961-16.2187,14.5117-21.7049-1.4403-5.3232-22.198-5.871-23.4861-11.3988-1.2532-5.3783,17.1148-15.0663,16.0115-20.6258-1.0765-5.4241-21.7536-7.3448-22.6821-12.9297-.9077-5.4602,18.0301-13.9808,17.2688-19.584-.746-5.4906-21.2727-8.638-21.8733-14.2558-.5897-5.5155,18.804-12.9413,18.3589-18.5698-.4376-5.5331-20.7596-9.8096-21.0532-15.4427-.2892-5.5486,19.4755-11.9222,19.3299-17.5591-.1435-5.5579-20.2129-10.8985-20.2129-16.5339s20.0694-10.9728,20.2128-16.5291c.1455-5.6353-19.6193-12.0072-19.3303-17.5542.2936-5.6331,20.6155-9.9099,21.053-15.443.445-5.6275-18.949-13.0521-18.3595-18.5667.6006-5.6191,21.1275-8.7681,21.8736-14.2601.7613-5.604-18.1765-14.1252-17.2687-19.5862.9284-5.5851,21.6055-7.5061,22.682-12.9303,1.1036-5.5609-17.2642-15.2501-16.0107-20.6297,1.2883-5.5288,22.0463-6.0775,23.4868-11.4017,1.4846-5.4871-16.1505-16.4522-14.5109-21.7075,1.6965-5.4375,22.4335-4.393,24.2886-9.5664,1.9264-5.372-14.7226-17.7829-12.6335-22.8523,2.18-5.2899,22.7239-2.3075,25.0717-7.2477,2.4627-5.1818-12.7704-19.2928-10.1338-24.0666,2.7826-5.0381,22.7954.4447,25.7591-4.1118,3.1488-4.841-9.8612-21.0184-6.523-25.2832,3.572-4.5635,22.2796,4.3602,26.05.4964,4.0574-4.1579-5.0512-22.7928-.787-26.091,4.5888-3.5493,20.0168,10.1989,24.8166,7.7067,5.0994-2.6478,3.1827-23.2335,8.486-24.6137,5.4416-1.4163,13.4999,17.5325,19.1182,17.5325s13.6797-18.9483,19.1225-17.5314c5.3044,1.3809,3.3874,21.9669,8.4879,24.6159,4.8002,2.493,20.2303-11.2532,24.8195-7.7029,4.2639,3.2987-4.8463,21.9327-.7893,26.0909,3.7704,3.8644,22.4789-5.0576,26.0509-.4935,3.3383,4.2655-9.6724,20.4426-6.5235,25.2844,2.9629,4.5559,22.9755-.9268,25.7573,4.1105,2.636,4.7732-12.5979,18.8829-10.1358,24.0639,2.3475,4.9399,22.8913,1.9575,25.071,7.2469,2.0891,5.0696-14.5601,17.4802-12.6338,22.8523,1.8547,5.1725,22.5914,4.1275,24.2876,9.564,1.6394,5.2545-15.9961,16.2187-14.5117,21.7049,1.4403,5.3232,22.198,5.871,23.4861,11.3988,1.2532,5.3783-17.1148,15.0663-16.0115,20.6258,1.0765,5.4241,21.7536,7.3448,22.6821,12.9297.9077,5.4602-18.0301,13.9808-17.2688,19.584.746,5.4906,21.2727,8.638,21.8733,14.2558.5897,5.5155-18.804,12.9413-18.3589,18.5698.4376,5.5331,20.7596,9.8096,21.0532,15.4427.2892,5.5486-19.4755,11.9222-19.3299,17.5591.1435,5.5579,20.2129,10.8985,20.2129,16.5339Z"></path>
  </g><path class="e" d="M106.6932,459.3696c1.2014-2.4574,1.6522-5.6036,1.0225-8.4887-1.2083-5.5356-4.0877-6.6282-7.9952-6.9665-2.5778-.2232-7.3496-.1126-8.3278-3.3323,1.1715,11.7119,23.0497,6.7475,6.7294,29.3647,2.8741-3.5781,6.4061-6.149,8.5711-10.5773Z"></path><path class="e" d="M160.6474,159.0302c5.8754,3.0811,13.6739,1.4816,16.4767-6.7323,1.4747-4.3217,1.2726-9.6005,2.8615-13.8332,1.8301-4.8765,5.6645-7.3532,9.3769-8.3896,3.7125-1.037,7.5583-.9802,11.2029-2.4496s7.255-4.9637,8.2495-10.3409c.7732-4.1806-.2148-8.757-2.0143-12.1837-1.7995-3.4261-4.324-5.8606-6.9136-7.908-3.95-3.1234-8.1719-5.4923-12.5275-7.0481-1.7549-.7152-5.135.0331-7.2608,1.7319,4.3498,3.4057,10.4603,7.6112,15.273,9.8078,2.7169,1.2397,5.8523,3.8317,5.2287,8.4427-.2946,2.1793-1.3387,3.9856-2.7079,4.9107-3.1634,2.1361-6.5666,3.4936-10.0281,4.009-4.5497.6776-9.9066.3981-12.7101,5.7253-1.6914,3.2144-1.8755,7.5716-2.8238,11.3923-2.1437,8.6373-3.2202,13.186-9.7425,11.01-5.7709-1.9253-6.9008-4.1425-11.8538-8.8039-.0149-.0141-2.0418.3995-3.6706,1.2235-1.8353.6118-3.0022-.1719-3.9789,1.5134,1.0228.4803,2.0102,1.2819,2.9376,2.4809,4.6899,6.0637,8.75,12.3605,14.6254,15.4416Z"></path><path class="e" d="M216.8044,663.8761c-6.1176-1.8353-19.5366-21.6967-9.7882,1.2235,3.6706,8.5647,1.3525,17.8928,20.8,1.2235,4.2823-3.6706,10.6755,1.5316,15.2941,4.8941,2.5949,1.8892.5574-4.95-.0415-5.6496-2.17-2.5349-6.3676-7.7148-6.6879-7.8092-12.7923-3.7663-11.3349,8.5901-19.5764,6.1176Z"></path><path class="e" d="M108.5221,507.2645c-.1949-2.6348,3.4466-12.286,1.8353-13.4588-.4661-.3388-5.0445,7.4465-5.5059,7.3412.5159,2.5282-.1196,3.4594-.7055,4.4175-.7646,1.2501,3.1237,9.8021,4.3761,9.0413,2.2031-1.3383.1357-5.5065,0-7.3412Z"></path><path class="e" d="M101.7927,425.8999c.4228,1.6914,10.1332-1.562,10.8581-3.7206,1.2797-3.8099.904-8.3627-.2258-12.2271-2.1927-7.4998-7.1958-14.4766-5.64-22.3127.8173-4.1168,3.6058-7.1911,6.514-7.1823,2.9081.0094,5.6897,3.1015,6.4975,7.2228,1.6269,8.2998-1.6336,11.7276,4.2287,17.9657.9625,1.0245,5.3971,5.3465,6.3986,6.2857,4.6922,4.3998,8.3467,6.8404,11.0916,11.9433,2.2792,4.2372,3.9125,8.1788,1.2858,11.9489-1.1573,1.6614-4.4518,3.5783-5.9662,4.4059l-7.2445,5.6645c-.9163.5011-4.3881,6.5817-5.1117,7.5501-3.7054,4.9605,2.2897,6.9403.8598,12.5781-1.2761,5.0322-1.67,4.7646-3.8306,11.3229-.6829,2.0733-1.0376,8.3443-1.2726,11.3214-.3817,4.8376.858,9.4334,2.5638,10.0614,3.2057,1.1805,8.3978-5.0442,9.8054-.6345,1.6587,5.1963-1.6453,6.2528-2.1249,11.9509-.3,3.5649,1.3258,6.8081,2.6032,9.8992.9725,2.353.7781,5.3743-.4271,7.478l-3.0166,4.0068c-2.9815,5.0331-4.5747,7.231-6.3908,7.5508-1.8159.3204-8.6702-1.782-10.4441-1.1263-.4785.1772-1.5003,2.1963-1.8353,2.4471,2.362,7.6336,3.0588,4.2823,8.5647,7.9529,11.6235,4.8941,9.1388,7.2582,6.7294,12.847-1.4892,3.4543,5.0371,4.7559,7.6622,8.1263,3.4503,4.43,6.9799,10.3832,11.5328,9.7541,2.7467-.3793,2.5531-12.0076,5.0909-13.6016,5.7371-3.603,5.5747,12.8745,8.9653,21.3785,2.9999,7.5246,2.9894,8.8033,7.683,15.7189,4.5258,6.6681,3.28,3.6397,5.1196,6.2864.5229.7527,2.7527,2.6929,3.4125,3.1427,1.0179.6947,1.8747,1.6075,2.9854,1.8851,3.5533.8898,3.4349.627,7.2481.6248,4.6897-.0027,5.5424-.0032,8.9527-.634,5.4171-1.0018,18.7043,3.5302,15.3517,6.2806-3.8352,3.1468-20.0559.1711-28.9823,15.1108-1.7984,3.0099-3.0219,3.6217-3.6337,4.8452,1.5648,1.5843-.3727,8.3292,1.2235,9.7882,0-2.4471.362-4.8691,2.4148-6.4573,4.0833-3.1586-.0079-13.8364,28.1275-18.8839,7.2052-1.2921,2.5473-18.8693-17.4877-13.8265-19.4036,4.884-27.3043-19.6907-28.5778-23.2541-12.8105-35.8417-5.5563-24.5251,4.6797-17.6127,7.8891,5.3279,8.9701,10.9367,15.7852,18.8589,2.1508,2.5004,6.7942,1.886,6.8225,1.8829,32.3998-3.1631,28.1522,24.5122,41.7964,27.0202,7.2421,1.3311-.4792,7.3914-.8473,9.4344-1.7,9.4349-8.0588,1.7458-12.6139,11.4907-4.3758,9.3609-12.1179,1.8206-20.0729,2.0997-9.2204.3234-12.3147,6.3645-11.6148,12.9703.1934,1.8253.3473,4.0594.7647,5.454,2.8852-.5597,2.4471-.6118,4.8941-1.8353-2.5358-5.5459-4.0378-6.2833-1.8471-8.7726,5.5388-6.2924,13.4356-.4775,17.9065.6187,5.1168,1.2549,6.5718,3.3485,10.6559-4.4086,2.9811-5.6621,11.5473-10.9084,13.2118-8.1836,3.8406,6.2871,9.2676,9.4674,14.077,13.8284,5.5452,5.0283,3.98,4.4911,7.2527,8.8009,1.405,1.8504,1.1764.9942,1.7549,2.3991,1.2389-.5891,2.4445-3.6208,3.6706-4.2823-7.6625-8.4229-5.7566-4.3168-9.8614-8.7274-2.9255-3.1436-11.9167-7.4175-14.54-13.2908-2.0047-4.4873-.0278-11.6984,4.8308-11.9229,5.0759-.2351,7.4892,7.2696,19.0393-.754,5.5484-3.8547,12.3331-1.5529,18.1525,1.3114,1.9191.9448,3.8166,2.1788,5.3181,4.1796,2.5842,3.4435,2.1799,4.6052,3.9782,9.0159,3.0588-.6118,3.6706-.6118,6.3272-1.3671-5.3455-6.2555-10.4212-12.042-13.539-16.1983-8.9599-11.9446-17.9065-.6187-22.1727-5.6477-7.2068-8.495-13.6708-14.0743-13.2293-22.6339.0586-1.1357.2225-2.2112.4647-3.2229,1.685-7.0389,7.0357-10.573,11.8144-8.1109l7.3282,3.7755c2.1692-.5749,9.3155,1.5228,11.5118,1.2513,5.1157-.6318,4.477-4.7183,7.6719-3.7779,1.5616.4598,2.4389,4.2936,3.8029,8.5357.8859,2.7554,2.1826,5.1825,3.7977,7.0862l.9555,1.1265c.9822,1.1578,2.6193,1.413,3.8177.8546.2817-.131,1.9507-1.711,2.1306-1.888,2.3383-2.2959,2.5701-3.6436,3.9717-7.2343l5.2562-13.4672c3.5293-1.1524,12.5814,4.894,13.7377,10.7539,3.7506-7.4688,7.6093-5.4265,11.0118-12.847.4968-1.0835.6118-1.8353-.6118-6.7294-.3318-1.3271-1.0086-3.787-1.2235-4.2823-1.1198-2.5804-1.3242-2.876-2.1661-4.3677-5.2944-9.3787-9.4895-17.4081-14.9912-22.8393-3.8992-3.8487-11.2981-5.6939-15.371.228-2.2505,3.2718-2.8571,4.0086-4.6332,10.2909-.4348,1.5388-.9821,3.4001-1.9082,4.3545-2.1224,2.1877-1.7647,3.1149-3.7881,2.7427-.9462-.1739-2.0943-.9164-2.6869-2.0185l-1.6045-2.8022c-.5316-1.5966-1.1821-3.1919-.788-4.3842,2.9944-9.0591,7.0542-9.0707,12.4563-10.9998,2.982-1.0649,7.99-4.6134,9.7504-9.0415.738-1.8559,1.5238-8.535,1.0016-12.121-1.0188-6.9969-3.3485-9.4339-5.8579-15.578-2.5079-6.1411-7.9229-6.6515-15.0767-4.9406-5.1671,1.2362-8.255,6.4721-10.6049,18.5785-.9677,4.9853-8.089-.0894-5.63-6.8241,2.9957-8.2054,8.1815-9.5706,12.4657-12.9892,5.7711-4.6048,10.3074-6.176,11.2647-15.5878.7074-6.953-1.4099-15.33-3.6837-19.1342-.7645-1.2789-6.8738-8.7802-14.6353-12.6919-6.4559-3.2534-8.8201-.9752-18.0387-5.768-9.2187-4.7928-9.0052-5.8677-13.8472-8.3076-3.4247-1.7258-12.8695-1.8838-16.553-6.3487-2.8151-3.4121-2.3736-11.164,2.2215-13.4999,4.8008-2.4404,8.6113,3.6753,18.0326-9.0333,4.5257-6.1045,11.4674-6.8676,17.6001-6.6715,2.0223.0646,4.0823.4147,5.9176,1.6709,3.9268,2.6867,6.1647,8.9833,9.8435,12.3488,6.7766,6.1994,16.6829,1.1065,22.8468,8.5697,2.7045,3.2745,4.0662,8.3341,5.1573,13.2371,2.0742,9.3228,3.5667,18.926,4.452,28.65.4473,4.9139.7841,10.0526,2.5621,14.2606,5.0916,12.0524,18.9009,10.3629,23.7811,22.604,3.3906,8.5046.9779,20.6552,5.3621,28.1065.9507,1.616,1.2197,2.3775,1.2197.5422,1.2235-3.6706,3.6706-5.5059,6.1176-7.3412-.0047-.0897-.7864-2.043-.7907-2.1357-1.4257-31.1551-24.9889-39.62-29.0145-41.4928-8.1026-3.769-4.7144-43.3934-11.1152-53.4526-3.6418-5.7234-4.5774-16.2654-21.3369-14.4987-3.849.4057-8.6136-3.3418-10.6434-8.1848-6.088-14.5246-19.402-7.2898-23.0337-6.216-12.788,3.7809-14.0695-.6209-23.0292-11.9365-1.5109-1.908-3.5186-7.2939,1.2704-17.5776.7216-1.5494,2.1693-6.1493,3.4063-5.6955l7.3504,4.0611c2.0644,1.14,4.2816,1.5287,6.4687,1.127,2.1589-.3968,10.4576-5.8745,13.4651-7.7194,2.5433-1.5596,7.3135,6.5437,10.2208,11.805,2.4178,4.3753,6.954,4.3488,9.3493-.0502l6.751-19.0781c1.5909-3.9022,8.5266-6.3322,9.9154,3.529,2.5684,18.2375-.2686,24.9196,7.5614,26.2437,5.3248.9004,19.2099-11.1142,21.8684-4.2479l.3254,20.8048c.0668,4.2766,2.9912,7.3164,5.6853,5.7351,5.4209-3.1809,7.0706-18.012,12.7592-7.0538,10.4994,20.226,4.3556,38.1159,8.9706,30.8124,5.8356-9.2352,4.1952,2.0698,8.89-24.0727-1.2235-1.2235-2.4471-3.0588-3.6706-4.8941,0,5.5059-.9047,8.8503-2.6686,16.3868-2.2277,9.5187-4.6897.0027-6.404-15.7196l-2.9904-10.6901c-2.4002-4.3962-4.8559-9.6977-7.2688-5.3197-2.9013,5.2646-5.3559,15.9799-8.0729,16.6491-2.5577.6304-2.5598-3.0781-2.5616-6.2878-.0021-3.7736-.0029-5.0314-.0054-9.4339l-1.2851-10.6911c1.2754-6.29,3.0965-8.8694,3.4046-10.6937,2.1245-12.5798,2.4685-16.6613,2.973-19.4985,2.1251-11.9509,3.8312-10.694,8.0902-18.2435,2.369-4.1987,4.2432-36.7074,10.6713-22.5049,5.1225,11.3178-3.4402,23.634,2.9783,34.4468,1.7724,2.9858,8.538,3.2644,10.4805,3.4826-2.7322-1.8214-5.7304-4.9258-7.5391-7.6051-1.005-1.4888-1.2539-3.3607-.66-5.056.8445-2.4103,1.4558-3.868,1.6145-8.3459-.984-10.1231-9.3213-22.4283-1.9802-29.1577-3.9835,1.2141-11.5645,7.5281-15.157,3.2935-8.5325-10.058-10.4853-10.0827-16.2069-10.6826-5.9691-.6255-9.0133-3.9091-10.6656-12.5725-.5527-2.898-2.1363-8.1749-2.9947-18.2372l-1.5319-15.4662c.6497-21.8151-8.2939-19.7482-11.4373-5.6324-.9523,4.2765-4.09,11.0454-8.3516,14.1925-4.9698,3.6701-9.7365-8.4174-14.0867-30.8095-2.2775-11.7236-6.413-31.4428-17.4977-31.4365-8.278.0047-19.1809,7.5581-15.7734,1.8958l2.7034-3.1941c1.0228-1.2081,1.8311-2.7655,2.3554-4.5371l1.3809-4.6655c.6116-2.0665,1.8655-3.5683,3.363-4.0212,3.9444-1.1925,8.3556-.0944,15.3333-15.0428,5.9683-12.7853,10.2461,24.5224,12.8102,35.2127.8027,3.3469,3.4257,26.4131,5.9881,33.9588.8464,2.4925,3.1067,3.5974,5.5395-5.0346,2.1554-7.6473,3.4377-11.4209,6.5218-17.8913,1.3683-2.8703,3.7357-4.3272,6.0832-3.7512,7.1199,1.7458,13.2907,8.5315,16.1857,18.2856.4422,1.4904.8025,3.0293,1.0536,4.5978,3.4229,21.3816,2.6885,26.9227,3.4279,30.1866,1.2822,5.6596,3.8948,5.0028,8.952-1.8919,3.0737-4.1899,5.1256-4.0068,7.9343-10.5919-3.0588-4.8941-.6118-7.9529.6118-12.2353-1.962,6.334-7.1781,13.4281-11.5325,19.0553-3.4082,4.4044-3.1724-25.9292-5.1339-31.4435-4.6972-13.2048-9.3624-21.3193-18.3468-25.1467-5.1118-2.1775-9.3794.0053-17.0435,17.6197-2.4475,5.6255-6.3558-30.3127-7.2681-35.8448-3.4225-20.7527-11.519-29.9462-14.9354-23.8908-6.3886,11.3244-11.9153,4.9098-23.4478,1.2712-5.9698-1.8834-5.6488-4.621-5.5499-13.2044.0217-1.88,1.3327-8.2647,2.553-8.8065l7.9349-1.1125c2.1692-.5749,4.2093-1.9119,5.9499-3.9053,1.7183-1.9676,8.4037-11.8682,10.3497-15.7209.862-1.7067,6.1176-5.5059,8.5647-7.3412-1.8016-1.4137-6.906,1.5408-9.5179,1.3007-.7531-.0692-1.5028.1624-2.0356.6992-2.2101,2.2272-4.0345,5.8423-5.7841,8.9759-3.6726,6.577-8.884,12.3208-14.6489,11.7504-3.5888-.3554-6.9162,3.6663-8.1363,4.5115-9.7153,6.7297-14.1597,2.9359-14.423-2.2354-.2633-5.1719,2.9744-6.7522,7.0263-12.7054,2.8675-4.2125,4.6568-11.8915,4.0843-17.8028-.2405-2.4836,1.8353-1.8353,3.0588-3.0588-2.0989-.2058-4.6966,3.669-6.7294,3.0588-8.3997-2.5211-14.6823-11.6235-17.7412-10.4,2.7476.6802,2.5222.8658,4.8941,2.4471,1.8353,1.2235,2.8497,2.238,4.8941,4.2823q1.2235,1.2235,4.2823,3.6706c4.3478,3.4782.4376,10.9402-2.0547,15.7679-2.4924,4.8289-5.475,10.2582-4.6732,16.2123.6272,4.6564,3.5934,8.085,6.7486,9.0204,3.1552.9355,6.4364-.2217,9.4148-2.0174,3.9426-2.3767,1.8029,2.3962,1.874,8.6793.0668,5.9103-2.1375,11.8391,6.7239,13.9444,12.4373,2.9545,17.9691,2.0731,16.8438,7.0173-1.1252,4.9449-9.0364,6.0008-11.8753,9.109-2.1078,2.3075-.8221,12.8567-7.7607,11.6181-13.2967-7.2865-15.5704-14.4921-32.4746-3.7404-.9112.5797-5.6215,8.0368-6.5129,8.6791-1.0011.7216-6.0056,8.5142-7.0541,9.0707-5.1363,2.7281-7.5574,1.5078-10.1161.8828-3.0004-.7329-7.5288-4.459-14.2506-8.5107-2.8156-1.6972-20.348-5.4897-23.3034-4.4347-5.4021,1.9292-7.1462,9.0007-8.8247,12.8305-2.8625,6.5317-8.1399,1.0947-8.7517-1.3524-.8301-3.3203,1.8353-14.0706,1.2235-16.5176-.1701-.6802-4.4247,1.6928-5.5059,1.8353-1.2235,3.0588,11.4755,28.2459-9.7882,29.9764,4.6632-3.8628,10.4941,1.5085,19.8503-5.178,5.1061-3.6487,8.1179,30.8129,11.95,22.0057,5.3899-12.3876-9.3887-16.3468-3.8542-30.1864,5.906-14.7685,41.3134-4.5796,39.8939,14.1313-.674,8.8828-5.8702,1.1875-7.5378,12.7671-1.6019,11.1245-10.7122,8.5476-17.9828,13.3129-8.4273,5.5233-9.7108,12.855-7.3448,18.5588,4.0633,9.7946,10.3345,7.6924,14.1814,15.7145,2.438,5.0835,2.7272,7.7925-.3939,14.5755-2.965,6.4445-9.9102,6.126-12.6853-1.126-2.1516-5.6229-5.479-10.0677-9.6126-12.1899-4.8746-2.5019-8.5815-4.0574-15.0186-.5995-4.9928,2.6819-6.4701,7.2947-12.5199,14.6961-1.79,2.19-6.5334,4.4156-3.2079-18.3647,3.3974-23.2723,21.2465-18.5733,15.9059-25.6941-5.5059-7.3412-12.2353-15.2941-11.6235-4.8941-5.6773,19.7672-9.1765,20.1882-8.5647,30.5882.1241.1541-9.8777,18.622-9.7882,18.9647,2.1363,8.1749,12.5346,3.3654,11.0118,9.7882-.4466,1.884-4.9663,8.7563-6.002,14.8883-.8498,5.0319-1.7007,8.177-.4195,11.9499,1.3962,4.1118,12.7776-.0699,14.4976,3.7653,2.2297,4.9718,3.0741,11.8429,5.1257,16.9782,1.6884,4.2259,4.694,7.5445,5.5506,14.4622,1.2276,9.9141-.8673,21.0493,2.1485,29.5591,1.0665,3.0089,14.9243,4.3934,17.9122,10.681.8473,1.7831-8.5275-1.253-10.6595-1.8807-4.6486-1.3682-11.3319,1.6789-13.2147,3.1522-4.5209,3.5378-1.4583-7.429-3.4175-11.9477-2.4634-5.6817-4.2662-5.029-7.251-5.6562-4.3445-.9127-7.2474.6331-8.9506,4.4076-3.6011,7.981-2.2391,9.2878-.8419,18.8684,1.284,8.8043,5.977,14.462,5.1275,20.1228-.4296,2.8636-4.3524,3.3787-6.3936,2.5194-2.9851-1.2562-6.6708-2.7874-7.8943-3.3992M106.243,303.9497c1.5795-6.3872,6.698-9.7989,9.1582-15.5473,4.2607-9.956,10.8718-17.4602,18.7297-19.5308,5.7287-1.5092,11.9011,1.2486,16.1011,7.194,2.5905,3.6671,4.6249,8.6083,8.0072,10.3826,2.9382,1.5418,6.2969.2206,8.8532-2.4114,4.0655-4.1868,6.4332-12.4256,4.5027-19.1652-1.8919-6.6045-6.8903-9.6966-10.864-13.8253-1.6248-1.6887-3.2479-3.9763-3.3432-6.9102-.4579-14.4043,16.4843-11.1723,20.557-18.0781-1.2437,2.1092-1.2528,5.3343-.544,7.9283.7085,2.5939,2.0125,4.7171,3.2528,6.8322,2.216,3.7785,4.3448,7.8112,5.4677,12.5245s1.1028,10.26-.7941,14.3964c-1.1036,2.4064-2.7775,4.2346-3.6053,6.8711-.8286,2.6384-.6837,5.7449-.1188,8.5324,1.9307,9.5262,8.0332,15.5768,12.7809,22.636,2.0033,2.9783,3.9451,7.4399,1.9248,11.0764-.9545,1.7184-2.4522,2.5884-3.9556,2.4547-3.4735-.3088-6.9103-1.472-10.1305-3.4177-4.2324-2.5581-8.8722-6.5201-13.0451-3.7643-2.5175,1.6628-4.0688,5.3801-6.1238,8.0936-4.6454,6.1347-7.0454,9.4017-12.1098,2.9575-4.4807-5.702-8.1712-13.5966-11.0582-21.1445-1.2629-3.3012-2.543-6.9426-4.8619-8.5756-.6591-.4646-1.3646-.7326-2.0874-.8458-1.1151-.1744-2.2718.0191-3.3639.4263-7.5566,2.8185-5.4305,2.0428-9.0801,3.6713-4.7584,2.1229-4.1565,1.3726-7.0947,5.2222-4.0812,5.3476-7.2653,2.4615-7.1553,2.0168ZM138.5433,445.2598c9.9109-6.4043,10.7142-9.8822,10.2228-16.358-.4296-5.6601-4.201-9.8013-8.1083-13.8318-4.2659-4.4001-21.4213-15.5526-11.9493-20.7479,4.3219-2.3702,15.7727-3.1536,22.9487,1.6348,6.6146,4.4141,3.6686-10.3806-16.1607-16.9817-6.798-2.2631.8624-26.1668-5.1124-36.8552-2.3788-4.2556-7.8111-11.0743-7.6862-21.3792.1511-12.4534-20.4066-3.8498-16.6325-9.4245,4.2598-6.2917,22.1684-2.0652,22.171,2.5031.0064,11.3207-2.8733,7.6907,5.5531,18.8647,4.2666,5.6579,3.8233,25.7827,3.8517,25.7839,27.2782,1.5685,25.6279,38.7112,38.8103,23.8772,8.9473-10.068,25.321,1.1654,27.2888,5.6448,4.6958,10.6891-1.874,22.0609-8.9373,27.678-5.5399,4.4057-19.798-1.2902-27.7133-2.4999-9.1743-1.4019-8.3157,5.0153-6.8149,11.3246,2.9915,12.5769,8.1115,19.4922-.4138,22.0128-4.1378,1.2234-25.69,10.8145-31.1154,12.5963-7.6726,2.5201,2.979-9.4356,9.7979-13.842ZM163.2999,496.189c-.7185-1.2703-4.1121-1.8844-2.9854-1.8851-.3314.0002-2.6925.0015-5.9687.0034-3.837.0022-5.1164-.626-8.9524,1.263-5.1781,2.55-13.6424.6367-10.6613-5.0254,2.8268-5.3684,10.6505-13.8425,14.4858-16.9893,6.9751-5.7227,7.7889-6.7212,15.7705-6.9272,5.8189-.1501,10.8176,8.9628,14.3257,15.8158,2.1638,4.2262,3.6414,9.5799,6.7903,12.1233,2.7356,2.2095,6.1941,1.6904,9.0012-.3098,4.4643-3.1822,7.6879-10.7631,6.5061-17.8686-1.1582-6.9624-5.7614-11.1842-9.2412-16.1903-1.4229-2.0469-2.7796-4.6853-2.5584-7.604,1.0963-14.3284,17.4779-7.1745,22.2417-13.0396-1.4549,1.7912-1.8106,4.9735-1.3895,7.7003.4208,2.7268,1.4802,5.1276,2.4777,7.5058,1.7819,4.2486,3.4504,8.7281,4.0526,13.6443.6021,4.9156-.0139,10.3872-2.3316,14.0276-1.3484,2.1179-3.1977,3.5309-4.2985,5.9398-1.1018,2.4113-1.2926,5.5125-1.0344,8.3965.8824,9.8566,6.2577,17.2576,10.187,25.3375,1.658,3.409,3.0959,8.2683.71,11.386-1.1272,1.4729-2.6995,1.9817-4.1698,1.4979-3.3966-1.1177-6.6651-3.0696-9.6356-5.7439-3.9042-3.5152-8.0597-8.5124-12.4764-6.7674-2.6646,1.0524-4.303,5.8262-6.0978,8.9153-4.2942,7.3924-9.3338,9.4411-13.6417,1.8945-3.8115-6.6771-3.5135-10.1082-5.5528-18.2358-.8921-3.5544-.4278-2.5155-2.1371-9.4327-.2501-1.012-1.2822-5.6596-3.4161-9.432ZM146.2861,566.0098l-.4228,6.2895c.0021,3.7736-1.0991,5.446-3.8356,2.5179-.0101-.0104-3.4031-4.3895-3.4132-4.4006-2.9861-3.1429-4.6929-5.6577-7.6784-7.5428l-2.8273-8.4726-.0218-.039c-.0335-.045-.1591-.3124-.6003-1.8273-.7919-2.7179-6.3797-2.513-5.0863-5.3795,1.3131-2.9095,14.4854-17.6183,14.4822-23.2786-.0009-1.627-1.1231-4.2796-1.7086-5.6594l-1.2812-3.7728c-.5605-2.4736-1.2627-3.6961.4788-3.245,1.7999.4664,6.4909,4.123,8.0453,5.7117,1.3805,1.4112,2.0376,3.9217,1.7002,6.3479l.0153,4.3141c.0017.4735.0438.9477.1232,1.407.1652.955,1.7391,1.5713,2.8633,2.4379,1.3451,1.0372,4.3966,2.3185,2.9861,3.1429l-20.8837,11.9615c-3.4178,2.8266-3.1937,7.2357.4317,9.4337,1.931,1.1708,10.6638,9.4279,14.4998,7.5389,7.2068-3.5486-15.7806-10.6828-13.6503-13.1997l8.5235-5.6652c5.5413-1.8899,9.3899-5.767,11.5068-7.5537,5.9659-5.0348-2.2726-5.4945-3.841-10.6896,1.0817-5.6014-.925-11.4768-4.6083-13.5789-5.8874-3.3612-10.4942-3.8057-7.5415-7.1375,2.4753-2.7935,4.6901.6263,14.0713,3.7656,7.4962,2.5084.0064,11.3207,3.8463,16.35,7.5943,9.9468.7926,20.7579,5.757,28.2672,2.4777,3.7482-3.6842,6.2754-8.5224,7.552-.9475.2505-2.8882,3.2096-3.4082,4.4044ZM242.4205,582.2925c-2.3673,4.7681-6.5526,7.5257-.3512,17.1004,8.7041,13.439,13.4748,17.6668,10.5527,20.6025-2.9221,2.9356-9.6609-3.2737-13.1968-3.3281-2.6252-.0403-9.3452-4.9966-14.3688-12.1675-7.6149-17.6548-19.9371-22.4121-33.9639-19.3319-.9816.2155-1.9841.4894-2.9578.2068-1.0937-.3175-2.0424-1.3089-2.871-2.4091-4.2211-5.6015-6.2016-14.4483-10.9119-19.1245-2.5234-2.5051-5.5679-3.5303-8.3789-5.2435-2.8111-1.7132-5.6182-4.516-6.4872-8.8154-.8836-4.3719.4637-9.0737.0987-13.6037-.398-4.9391-2.7473-8.9969-5.0721-12.6009-2.3248-3.6033,2.0121-9.4296,1.1606-14.2425-.8516-4.8123-15.3897-3.6991-12.4078-8.1033,2.531-3.7382,17.2712-6.8838,19.2863,7.5829,1.2551,9.01,1.9127,17.6445,5.3343,25.3359,3.4215,7.6908,10.2929,13.3675,15.891,9.3223,2.9457-2.128,4.9465-6.5132,7.9466-8.4693,3.4557-2.253,7.5267-.8089,10.9106,1.6742,3.3839,2.4837,6.4261,5.9564,9.9331,8.0341,3.5072,2.0776,7.8163,2.5119,10.8113-.8851,2.3283-2.6405,3.4152-7.1671,3.384-11.5001-.0311-4.3331-1.0463-8.5225-2.2721-12.4618-2.0821-6.691-4.8114-12.9444-8.0794-18.5095-.4922-.8387-1.0158-1.7167-1.1635-2.8043-.121-.8911.0288-1.8131.2247-2.6755.7734-3.4043,2.2985-6.4269,4.2874-8.4973,1.1829-1.2309,2.5479-2.1665,3.4619-3.8228,1.9906-3.607,1.0805-8.9954-.2794-13.1938-3.0111-9.2959-7.9154-18.5851-6.5273-28.6789.2495-1.8151.862-3.7949,2.0693-4.3011.6135-.2571,1.269-.0769,1.8889.1445,6.8222,2.4363,12.7111,9.9825,15.3017,19.6066s1.8139,21.0705-2.018,29.742c-1.5372,3.479-3.6112,6.8687-3.643,11.0218-.0172,2.2479.5887,4.4065,1.3189,6.3801,2.2616,6.1123,5.8508,11.1356,10.1069,14.147,2.5945,1.8356,5.4289,2.9469,7.8722,5.1897,2.443,2.2435,4.5254,6.0717,4.3089,10.3036-.3095,6.053-4.8261,9.4336-8.7902,11.0579-3.9643,1.6249-8.5655,3.292-10.3649,8.7495-1.4072,4.2682-.4468,9.643,1.6852,13.1998,2.1319,3.5574,5.2214,5.5597,8.331,6.7845,4.1161,1.621.4558,3.516-2.0608,8.5838ZM237.1387,433.1362c.4103.4107,4.7422,2.4584,5.1963,2.7517,2.2606,1.458,3.4299,2.2945,5.2456,3.7018,6.4989,5.0394,12.2201,6.4776,19.4798,8.0864,7.2597,1.6093,15.1429,6.1044,18.0276,16.0643.887,3.0618,1.2165,6.5447.6327,9.7603-1.3165,7.25-6.5719,11.0468-11.2665,13.9405-4.6945,2.8937-9.9492,6.696-11.2606,13.9485-1.1488,6.3544,1.3587,13.0993,4.8192,17.2492,1.6213,1.9448,3.8582,3.5355,5.7383,2.1931,2.4128-1.7236,3.5016-2.6534,3.6405-6.6034.11-3.1244,1.6474-7.1605,2.3403-10.117.438-1.8692,2.6994-5.6072,3.8071-6.7202.8293-.8339,4.5804-1.0148,5.5303-.5356,4.035,2.0331,8.4735,4.2699,10.866,11.4564.537,1.6132-.1482,8.6614-.5887,10.3359-.8047,3.0603-4.7751,3.5128-6.8974,4.4986-3.9833,1.8491-6.0078,1.3123-9.5938,4.4682-3.5093,3.0883-5.8074,11.3928-6.4794,17.3398-.6973,6.1705,2.3475,12.6417,6.4563,14.1945,4.1089,1.5528,10.8282,2.3634,12.8307-3.1501,1.6273-4.4808,1.0524-12.8457,3.7169-16.0693,3.4467-4.1698,7.339-2.7631,10.8775,1.2412,6.3821,7.2217,11.1397,17.5158,13.3647,28.9164,1.0132,5.193-.9827,11.2007-.9827,11.8125,0,.721-.6383,1.3073-1.2235,1.2235-.5049-.0734.6118.6118-.6118-2.4471-1.7916-4.4791-3.8288-7.3877-7.318-9.6293-1.6443-1.0567-3.5804-.3345-5.1536.934-4.3412,3.5009-6.7245,10.4678-9.6643,16.3386-1.2376,2.471-3.1376,5.0486-5.1251,4.126-.9429-.438-1.6481-1.5984-2.1923-2.816-1.8516-4.1416-2.5047-9.6248-5.2001-12.5922-3.4657-3.8152-8.3071-1.5529-12.5134-.0813-5.6212,1.9655-12.1278,1.8961-16.4895-3.696-2.7151-3.4821-7.0148-3.2438-8.3335-3.6577-10.5005-3.2984-12.4895-10.2818-10.5812-14.6362,1.9082-4.3545,5.1362-2.7275,10.8042-3.8583,4.0111-.8001,8.3268-4.2138,10.2916-9.433,2.4098-6.4006,3.7036-15.4127-.2722-19.8007-3.6802-4.062-9.3531-6.1188-13.8115-9.3425-2.2408-1.6208-5.1535-3.4967-7.0882-5.8228-1.8957-2.2788-4.2866-6.8537-3.5612-10.5958.8956-4.6186,3.1861-7.4151,4.0271-9.9061,1.8057-5.3494,2.8205-8.7777,3.7244-13.5186.646-3.3895,1.1133-7.0165,1.0097-9.0205-.2459-4.7561-.4302-5.5109-2.0718-9.2411l-2.4542-4.5547c-1.997-3.2848-.9308-1.7124-4.1535-5.9012-1.4085-1.8313-2.3407-2.7085-4.4822-4.8256-2.1414-2.1165-5.5565-4.4773-4.46-7.9174,1.3085-4.1048,10.6016,1.1075,11.4033,1.9086ZM220.8402,414.589c-1.5707,8.6321-5.9239-.2012-8.8153,10.8411-2.7774,10.608-11.4961,5.9335-19.1876,8.9369-8.9149,3.4814-10.9704,10.4198-9.2471,16.6043,2.9592,10.6213,9.3776,10.0121,12.3139,18.832,1.8608,5.5893,1.8552,8.3316-1.9558,14.2982-3.6204,5.6686-10.4442,3.7298-12.4047-4.0791-1.5202-6.0544-4.3279-11.2212-8.1815-14.2826-4.5444-3.6107-8.0374-6.0132-14.7652-4.1054-5.2184,1.4795-7.1728,5.6884-13.9421,11.5805-2.0028,1.743-8.244,10.3869-12.2093,15.7762-9.7076,13.1922-10.7749-1.2523-4.1213-21.084,3.0712-9.1532,43.8693-13.4235,40.9155-22.6647-6.8336-21.3797-5.3433-24.4294,5.1024-23.9022,18.6495.9414,20.1018,11.0569,30.2638-10.709,9.9129-21.232,19.5571-14.3033,16.2343,3.9578ZM224.8577,361.6565c-1.8248,5.2616-5.6603,8.9636,1.4914,16.968,10.0378,11.2333,15.2022,14.2921,12.6329,17.8743-2.5693,3.5828-9.8898-.9728-13.3866-.1994-2.5961.5745-9.7633-2.7472-15.4939-8.6531-9.4157-15.6515-22.0926-17.4666-35.6098-11.1438-.9459.4421-1.9063.9475-2.898.8959-1.1139-.0577-2.157-.8144-3.0935-1.7069-4.7694-4.5435-7.6756-12.8162-12.8287-16.332-2.7607-1.8828-5.8766-2.1832-8.8359-3.217-2.9594-1.0345-6.0321-3.1449-7.3523-7.1874-1.3421-4.11-.5175-9.0682-1.3647-13.4555-.9239-4.784-3.6795-8.2415-6.362-11.2557-2.6826-3.0141.9729-9.7815-.3852-14.3349-1.358-4.5528-18.7245-6.1454-15.5368-7.7625,3.387-1.718,18.7272-8.1738,22.2718,5.6397,2.2076,8.6029,3.785,16.9752,7.9897,23.7688,4.2047,6.7942,10.7398,7.046,15.8319,1.742,2.6795-2.7906,6.62-11.2084,9.3715-13.8418,3.1697-3.0328,9.6109,2.1061,13.2186,3.7661,3.6077,1.6606,4.8431,2.5375,8.5289,3.7687,3.6859,1.2312,5.5076,2.1637,8.0993-1.8914,2.0149-3.1519,3.378-4.8448,2.8813-9.1168-.4964-4.2714-1.9491-8.1701-3.5826-11.7732-2.775-6.12-6.1416-11.6556-9.9663-16.387-.576-.7127-1.1874-1.4574-1.45-2.4965-.2154-.8524-.1665-1.7976-.066-2.6944.3977-3.5429,1.5785-6.8841,3.3195-9.3934,1.0355-1.4925,2.2826-2.7357,3.007-4.5848,1.5774-4.0269.0998-9.1343-1.6941-12.9621-3.972-8.4748-9.8123-16.5001-9.5271-26.7916.0513-1.8506.4431-3.9483,1.5808-4.7308.578-.3977,1.2446-.3729,1.8805-.299,6.9971.8098,13.6222,6.8828,17.2144,15.7804,3.5922,8.8969,4.0558,20.3808,1.2047,29.8397-1.1437,3.7951-2.8269,7.6268-2.4119,11.7354.2246,2.2238,1.0549,4.2133,1.9879,5.9915,2.8898,5.5058,6.9733,9.6271,11.4989,11.6047,2.7589,1.2059,5.6768,1.6397,8.3299,3.283s5.1204,4.9364,5.3617,9.1662c.345,6.0489-3.7508,10.4433-7.4898,12.9747-3.7392,2.532-8.1027,5.2541-9.2926,11.0638-.9305,4.5443.5953,9.6265,3.0825,12.6401,2.4872,3.0136,5.7527,4.2684,8.9542,4.75,4.2379.6376.8279,3.3653-1.1118,8.958ZM323.5277,364.6517c-3.3999,2.5109-13.2132,5.6679-18.3303,3.784-2.7751-1.0217-2.4108-10.6032-3.4207-17.6081-1.6454-11.4138-4.4878-15.354-7.8853-15.2335-1.7927.0637-3.5709.5075-4.9877,2.1279-3.9096,4.4723-5.5136,11.9092-7.7851,18.3938-.9562,2.7294-2.555,5.7189-4.6163,5.2724-.9779-.2113-1.7991-1.1923-2.4671-2.2668-2.2732-3.6568-3.5075-8.9185-6.4876-11.2175-3.8316-2.957-8.3683.4095-12.3629,2.8464-5.3383,3.2564-11.7696,4.7095-16.6769.2073-3.0549-2.8026-7.2741-1.5614-8.6206-1.662-10.7214-.8003-13.4357-7.2306-12.0198-11.9766,1.416-4.746,4.7777-3.8948,10.2521-6.3375,3.8739-1.7281,7.7679-6.1082,9.1467-11.7215,1.691-6.8842,1.9997-16.0849-2.3972-19.4881-4.0699-3.1497-9.8918-3.8539-14.64-5.9941-2.3865-1.0759-5.4639-2.2473-7.6238-4.0911-2.1166-1.807-4.9688-5.7656-4.6549-9.6303.3878-4.7694,2.3486-8.0662,2.911-10.7229,1.2077-5.7047,1.8412-9.3275,2.2239-14.2203.2736-3.4973.345-7.188.0273-9.1428-.7539-4.6392-1.017-5.341-3.0387-8.6405l-2.9126-3.923c-2.3247-2.776-1.103-1.4728-4.735-4.8555-1.5873-1.4781-2.602-2.1267-4.9438-3.7161-2.3416-1.5888-5.9671-3.121-5.2542-6.7746.8505-4.3594,10.5857-1.3861,11.4633-.7829.4491.3093,4.9461,1.3183,5.4259,1.5011,2.3887.9113,3.6328,1.4634,5.5767,2.429,6.958,3.4558,12.7609,3.5372,20.1012,3.428,7.3403-.1092,15.6063,2.4847,19.5249,11.6443,1.2048,2.8166,1.9045,6.1783,1.6738,9.4901-.5204,7.467-5.3008,12.4452-9.6246,16.4006-4.3238,3.9554-9.103,8.9386-9.618,16.4068-.4512,6.5432,2.7493,12.6169,6.6119,15.9049,1.8099,1.5412,4.1892,2.5889,5.901.8233,2.1968-2.2664,3.1718-3.4388,2.8845-7.3719-.2273-3.1107.8567-7.4555,1.2229-10.5377.2315-1.9477,2.0624-6.1676,3.0364-7.5262.7291-1.0169,4.413-2.0729,5.4023-1.8223,4.2023,1.0638,8.8248,2.2343,11.9593,8.7712.7034,1.4669.7847,8.5865.5299,10.3432-.4655,3.21-4.3368,4.5855-6.3261,6.0552-3.7338,2.758-5.7903,2.7014-8.9914,6.6562-3.1327,3.8706-4.5088,12.6082-4.5331,18.6377-.0252,6.2561,3.6765,11.9328,7.8999,12.5053,4.2235.5719,5.7353-1.5535,9.5705-4.7003,3.0115-2.4708,1.771-19.2835,4.6772-22.0152,4.6872-4.4052,7.9169,18.3874,12.3742,18.2319,18.3321-.6394,16.6382,19.4873,19.2049,34.5802.8913,5.241,19.614,4.3913,15.3524,7.5384ZM241.2345,181.475c7.3569,4.5365,16.5896-2.8095,23.4773,3.1178,3.0221,2.6006,4.9102,7.2778,6.5145,11.8643,3.05,8.7197,5.5557,17.8538,7.475,27.2479.97,4.7477,1.8546,9.743,4.0625,13.4822,6.3223,10.7097,14.9838,18.8704,22.3542-8.3737,4.2544-15.7256,5.0802,7.6321,5.9834,25.7827.5707,11.4684,5.3965,21.695,7.688,24.5239,4.6295,5.7148,9.757,4.4602,15.6957,6.0488,4.0777,1.0903,8.0176,4.5515,9.7924,10.1574,1.5853,5.0078.8236,10.8934-1.6603,15.0277-2.478,4.1251-2.7596,8.1678-6.1098,11.0644-4.1197,3.5622-7.6819,44.6-10.4241,38.8294-2.9879-6.2876-10.454-3.463-12.794-6.9109-2.1335-3.1434-3.5671-10.5786-3.8449-13.8343-.8584-10.0624-4.4536-16.8213-5.5528-18.2358-6.2351-8.0221-13.0134-3.1348-16.6336-11.3113-6.4033-14.4617-11.5168-10.0563-13.6467-6.9105-2.2329,3.2982-1.4713,8.4773-2.5494,15.0957-.264,1.621-.8911,3.2447-1.7028,4.4035-1.8602,2.6568-2.0326,1.1534-4.0703,1.2589-.9529.0497-2.1662-.4146-2.8697-1.3643l-1.8852-2.3918c-.6966-1.4522-1.5103-2.8754-1.2493-4.1444,1.9826-9.6457,3.6563-13.459,8.7823-16.628,2.8295-1.749,8.9647-4.6557,10.2267-9.4398.5291-2.0056,1.3478-7.7008.4469-11.1189-1.758-6.6703-4.32-8.5323-7.4578-14.0122-3.1361-5.4768-8.5369-4.714-15.4158-1.351-4.9685,2.4289-7.4544,8.3216-8.4729,20.8252-.4195,5.149-7.9957,1.8041-6.292-5.4215,2.0757-8.8031,7.0487-11.364,10.9109-15.7417,5.2027-5.8967,9.5124-8.5095,9.4459-18.0269-.0491-7.0312-3.0397-14.807-5.6936-18.0312-.8923-1.0841-7.73-7.0625-15.8133-9.1092-6.7235-1.7024-8.8128,1.1001-18.4293-1.4759s-9.5212-3.6871-14.5639-4.9642c-3.5666-.9027-12.9081,1.151-17.0249-2.3967-3.146-2.7105-3.5433-10.4681.7423-13.8498,4.4773-3.5323,8.8966,1.6152,16.8321-13.1372,3.812-7.0868,10.5833-9.4639,16.6589-10.705,2.0036-.4096,4.075-.5453,6.022.2656,4.1657,1.7346,7.0519,7.4283,11.0456,9.8907Z"></path><path class="e" d="M155.0162,600.2526c-2.1379-2.4942-10.7575,6.5927-13.4588,7.3412,17.7412,3.0588,16.4701,4.7812,16.5176,9.7882-3.6706,15.2941,7.3412,1.8353,4.8941-5.5059-1.5758-4.7273-5.1369-8.338-7.9529-11.6235Z"></path><path class="e" d="M350.5211,464.3524c-3.3914-.9439-6.0891-3.5253-7.221-6.8586l-2.3616-6.9544c-1.6774-4.9396-1.9376-10.6575-.7422-15.8917,1.689-7.3952,3.4032-17.4756.1731-19.0621-3.4672-1.7024-4.117,4.4055-4.9974,10.0903-.5485,3.5417-.961,8.1521-5.6525,5.0101l-2.9876-5.6587c-1.2815-4.4018-2.5283-7.8712-2.9901-10.0612-1.486-7.047-1.6727-11.8019-2.1403-15.0931-1.8604-13.0971-14.9948-11.5186-26.0166-17.5952-2.7564-1.5198-11.7862,2.5402-9.8025,5.6659l21.2879,8.7321c3.3842,2.4296,11.3691,11.8449,11.9745,17.1272,2.729,23.8159,9.1039,24.8187,12.8133,29.0907,1.0526,1.2123,1.6833,2.7339,1.9004,4.3247l1.091,7.9928c2.9912,11.948,1.785,15.9059,7.6844,18.2346,6.0411,2.3851,19.5326-2.3319,22.9291-2.2755-1.8353-3.6706-3.6706-6.1176-4.8941-7.3412-1.3022.4992-5.1284,1.8924-10.0478.5232Z"></path><path class="e" d="M105.4633,354.9353c0-1.8353-3.2753-4.0123-3.6706-4.2823-3.6874-2.5216-5.5059-2.4471-9.1765-3.6706,3.0588,4.8941,14.7016,6.7766-1.8353,22.6353,3.1163-3.2895,6.9445-3.6626,10.4-6.1176,2.2103-1.5699,4.2823-5.326,4.2823-8.5647Z"></path><path class="e" d="M363.016,359.2176c-.6118-1.8353.3945-4.7804.6118-4.8941,1.8353-2.4471,1.4767-3.098,1.3507-6.2468l-10.1497,4.1767c-1.9801,3.128,9.1826,9.9503,8.1873,6.9642Z"></path><path class="e" d="M102.4045,326.1823c-3.0588,3.0588-7.8957,5.2386-6.1176,6.7294,3.9697,3.3273,10.1802,11.4702,14.6386,9.9844.6548-.2184,1.5575-1.0032,1.9987-1.7497,1.108-1.8745.588-5.9346-1.9721-9.7067-6.22-9.1645-6.1614-9.0767-10.3828-12.5985l1.8353,7.3412Z"></path><path class="e" d="M288.5387,117.0858l9.3239-3.8761c.5158-.2144.392-.9862-.1657-1.0175-6.93-.3883-13.5984.4846-13.3167-9.6111l-2.1171,2.1428c-6.1176,4.2823.9708,14.9888,6.2756,12.362Z"></path><path class="e" d="M311.6622,164.6765l11.5891.6119c-1.2235-3.0588-1.8353-3.0588-1.8353-6.1176-4.3137-9.4209-5.4107-12.1483-9.6233-19.1362-.439-.7281-1.3077-1.8984-1.3885-1.052-2.0248,21.2138-3.4105,22.0344,1.258,25.6939Z"></path><g>
    <path class="b" d="M309.8273,304.4371c-4.5945,11.5097-14.802,16.6542-15.88,24.625-1.3955,10.3187,10.2479,21.6841,13.1625,31.6083,4.5446,15.4744-2.2094,21.392-7.6101,37.6878-7.2275,21.8077-.2654,29.428,1.178,30.1787,4.3861,2.2811,22.9086-12.6278,24.3921-13.1934,9.3558-3.567,8.569-23.0168,9.1617-33.1351.5927-10.1183,2.5168-21.9195,11.0871-27.1777,9.1033-5.5852,17.1803-8.2039,26.0768-14.1291,6.8325-4.5505,5.4002-11.0495,10.6143-17.452,11.4349-14.0411,35.2661-8.1659,45.8947,6.2196,5.8109,7.8648,8.9857,19.0358,4.1054,27.673-4.2006,7.4341-13.2089,11.0751-17.2956,18.5737-6.3421,11.637,1.7559,27.0332-4.0263,38.9634-7.2216,14.9001-30.2587,14.1219-39.4473,27.8717-8.6831,12.9933-1.3919,33.8114-13.1607,43.9883-7.7394,6.6925-20.4726,5.1427-27.2667,12.8271-8.7381,9.8832-1.8825,28.4748-12.0905,36.7662-3.3616,2.7304-7.7976,3.5175-12.0234,4.2128-14.1343,2.3256-28.2686,4.6511-42.4029,6.9767-5.8448.9617-12.3399,1.7891-17.1863-1.5855-8.8699-6.1762-5.2843-20.4553.6585-29.737,5.9429-9.2817,13.7423-19.7443,10.3306-30.1463-3.662-11.1653-18.2823-14.884-23.0947-25.5733-7.833-17.3984,15.3197-36.695,10.304-55.1733-3.6302-13.374-18.11-19.964-13.6361-35.4404,4.2592-14.7336,19.0344-23.5188,18.6686-40.871-.5389-25.5646-22.4042-29.8757-3.5972-63.2851,4.7475-8.4336,19.8694-11.5893,32.6572-2.6963l16.047,7.5123c4.7807,2.2381,13.99,5.8848,11.9899,10.0201h0c-3.0594,7.0928.2308,13.9698,2.5012,21.8176.0527.1823.0693.3754.049.5653l-.1608,1.5077Z"></path>
    <path class="b" d="M213.5158,219.1117c7.8523,18.4121-9.4508,32.382-5.0141,51.4427,3.9401,16.9275,19.7551,29.8217,19.0017,47.2791-.7483,17.3395-17.6763,29.2519-20.114,46.4013-1.6161,11.3696,3.4624,22.3958,6.4464,33.4232,2.984,11.0273,2.9938,25.1049-5.591,31.6375-7.4645,5.6801-17.905,2.6833-25.4772-2.8204-1.8003-1.3085-3.6365-2.7917-5.7823-3.0188-4.7732-.505-8.1346,5.3588-8.68,10.6167-.5454,5.2579.4497,10.7862-1.2277,15.744-3.1352,9.2665-14.4069,12.1217-22.8915,8.9356-8.4846-3.1862-15.0282-10.5249-21.9644-16.7889-6.9362-6.264-15.4379-11.8703-24.3124-10.4903-9.8841,1.5371-19.5088,11.4641-28.4981,6.6751-5.2559-2.8-7.597-9.7319-8.0884-16.1504-.4914-6.4184.3555-12.9614-.7993-19.2753-2.1742-11.8878-10.8959-20.7716-16.3738-31.2847-5.4779-10.5131-6.2234-26.7635,3.6231-32.1465,5.8076-3.175,13.5239-1.3236,18.44-5.9846,5.6801-5.3853,3.8377-15.263,2.8924-23.4614s2.0528-19.3512,9.5307-18.9203c8.082.4657,9.5432,13.383,15.8329,19.0037,7.8014,6.9716,20.7059.7922,28.8033,7.3396,8.0449,6.5049,5.7946,20.0923,3.2474,30.7341s-2.9941,25.055,6.1773,29.3782c3.3669,1.5871,7.2162,1.2156,10.8082.4337,4.6883-1.0206,9.7501-3.1449,11.7965-7.9109,4.3269-10.077-8.0879-22.1003-3.6559-32.1214,2.2441-5.0741,8.1204-7.3588,10.063-12.5822.9348-2.5136.7997-5.3538.3839-8.0319-2.5399-16.3585-14.8214-31.0469-11.9134-47.3306,1.3778-7.7154,6.1031-14.4328,6.884-22.2492.9251-9.2599-3.793-17.8945-6.423-26.7467-2.63-8.8523-2.0953-20.7442,5.4918-24.8271,4.8766-2.6243,10.7242-.8647,16.0592-1.9533,11.2055-2.2866,19.0026-16.736,30.3697-15.8501,10.0211.781,15.1719,13.399,16.4827,24.3919.7245,6.076-1.2311,9.1829-5.5277,16.5085"></path>
  </g><path class="c" d="M294.1325,303.9826c-4.5394,11.3433-14.7108,16.3789-15.7535,24.2433-1.3499,10.1811,10.3253,21.4506,13.2778,31.2603,4.6037,15.296-2.1158,21.1095-7.44,37.1744-7.125,21.4986-.1405,29.0511,1.304,29.7983,4.3896,2.2705,22.823-12.3696,24.302-12.9217,9.3275-3.4819,8.4595-22.6866,9.0086-32.6733.5491-9.9866,2.4205-21.6289,10.9566-26.7837,9.0669-5.4754,17.1215-8.0265,25.9804-13.8383,6.8037-4.4635,5.3459-10.8856,10.5256-17.1842,11.3595-13.8134,35.1821-7.9124,45.8567,6.3344,5.836,7.789,9.0537,18.8308,4.2168,27.337-4.1632,7.3214-13.1435,10.8777-17.1927,18.2633-6.284,11.4616,1.8678,26.6955-3.8557,38.4488-7.1484,14.6793-30.1565,13.8135-39.274,27.3488-8.616,12.7907-1.2469,33.3738-12.9561,43.3709-7.7002,6.5743-20.4222,4.9904-27.1741,12.5479-8.684,9.72-1.7594,28.1033-11.918,36.2456-3.3454,2.6814-7.7718,3.4396-11.9887,4.1081-14.1046,2.2361-28.2093,4.4721-42.3139,6.7082-5.8325.9246-12.315,1.714-17.1689-1.6379-8.8836-6.1349-5.3635-20.2165.5318-29.3545s13.6395-19.434,10.1885-29.7176c-3.7041-11.0382-18.3196-14.7713-23.1706-25.3445-7.8956-17.2094,15.1429-36.1616,10.0561-54.4251-3.6817-13.2186-18.169-19.7858-13.7669-35.0456,4.1908-14.5274,18.9082-23.138,18.4695-40.2701-.6464-25.2405-22.4992-29.589-3.86-62.4922,4.7052-8.3059,19.7925-11.3572,32.6-2.5236l16.0563,7.4843c4.7835,2.2297,13.9953,5.8689,12.0155,9.9429h0c-3.0251,6.9892.2896,13.7924,2.59,21.5496.0534.1802.0708.3709.0514.5583l-.1542,1.4878Z"></path><path class="c" d="M199.557,223.0159c7.8523,18.4121-9.4508,32.382-5.0141,51.4427,3.9401,16.9275,19.7551,29.8217,19.0017,47.2791-.7483,17.3395-17.6763,29.2519-20.114,46.4013-1.6161,11.3696,3.4624,22.3958,6.4464,33.4232,2.984,11.0273,2.9938,25.1049-5.591,31.6375-7.4645,5.6801-17.905,2.6833-25.4772-2.8204-1.8003-1.3085-3.6365-2.7917-5.7823-3.0188-4.7732-.505-8.1346,5.3588-8.68,10.6167-.5454,5.2579.4497,10.7862-1.2277,15.744-3.1352,9.2665-14.4069,12.1217-22.8915,8.9356-8.4846-3.1862-15.0282-10.5249-21.9644-16.7889-6.9362-6.264-15.4379-11.8703-24.3124-10.4903-9.8841,1.5371-19.5088,11.4641-28.4981,6.6751-5.2559-2.8-7.597-9.7319-8.0884-16.1504s.3555-12.9614-.7993-19.2753c-2.1742-11.8878-10.8959-20.7716-16.3738-31.2847-5.4779-10.5131-6.2234-26.7635,3.6231-32.1465,5.8076-3.175,13.5239-1.3236,18.44-5.9846,5.6801-5.3853,3.8377-15.263,2.8924-23.4614-.9453-8.1984,2.0528-19.3512,9.5307-18.9203,8.082.4657,9.5432,13.383,15.8329,19.0037,7.8014,6.9716,20.7059.7922,28.8033,7.3396,8.0449,6.5049,5.7946,20.0923,3.2474,30.7341-2.5472,10.6418-2.9941,25.055,6.1773,29.3782,3.3669,1.5871,7.2162,1.2156,10.8082.4337,4.6883-1.0206,9.7501-3.1449,11.7965-7.9109,4.3269-10.077-8.0879-22.1003-3.6559-32.1214,2.2441-5.0741,8.1204-7.3588,10.063-12.5822.9348-2.5136.7997-5.3538.3839-8.0319-2.5399-16.3585-14.8214-31.0469-11.9134-47.3306,1.3778-7.7154,6.1031-14.4328,6.884-22.2492.9251-9.2599-3.793-17.8945-6.423-26.7467s-2.0953-20.7442,5.4918-24.8271c4.8766-2.6243,10.7242-.8647,16.0592-1.9533,11.2055-2.2866,19.0026-16.736,30.3697-15.8501,10.0211.781,15.1719,13.399,16.4827,24.3919.7245,6.076-1.2311,9.1829-5.5277,16.5085"></path><ellipse cx="134.6231" cy="447.0446" rx="5.5765" ry="5.2496"></ellipse><ellipse cx="266.8576" cy="521.6138" rx="5.5765" ry="5.2496"></ellipse><ellipse cx="244.9255" cy="277.0706" rx="5.5765" ry="5.2496"></ellipse><ellipse cx="41.9599" cy="357.1229" rx="5.5765" ry="5.2496"></ellipse><ellipse cx="185.6153" cy="202.5014" rx="5.5765" ry="5.2496"></ellipse><ellipse cx="392.9673" cy="340.6738" rx="5.5765" ry="5.2496"></ellipse></svg>