<?xml version="1.0" encoding="UTF-8"?>
<svg id="a" data-name="Layer 1" xmlns="http://www.w3.org/2000/svg" viewBox="0 0 464.36 742.9">
  <defs>
    <style>
      .b {
        fill: #666033;
      }

      .b, .c, .d, .e, .f {
        stroke-miterlimit: 10;
      }

      .b, .c, .e {
        stroke-width: 2px;
      }

      .b, .c, .f {
        stroke: #000;
      }

      .c, .e {
        fill: #693;
      }

      .g {
        fill: #903;
      }

      .d {
        stroke-width: 5px;
      }

      .d, .e {
        stroke: #470029;
      }

      .d, .f {
        fill: none;
      }

      .f {
        stroke-width: 3px;
      }

      .h {
        fill: #990074;
      }
    </style>
  </defs>
  <g>
    <path class="g" d="M32.63,375.07c0,7.13-19.86,14.57-19.61,21.6s20.61,13.1,21.13,20.11-18.74,16-17.96,22.98,21.54,11.52,22.58,18.46-17.45,17.41-16.14,24.3,22.38,9.78,23.98,16.6-15.96,18.81-14.07,25.55,23.13,7.83,25.32,14.47-14.2,20.2-11.69,26.73,23.76,5.58,26.6,11.96-12.05,21.59-8.86,27.79,24.21,2.92,27.76,8.91-9.34,22.94-5.39,28.67c4.09,5.94,24.34-.34,28.7,5.06s-5.78,24.14-.98,29.15,23.86-4.44,29.13.07-1,24.87,4.75,28.77,22.17-9.57,28.39-6.44,5.27,24.38,11.92,26.59c6.75,2.25,18.41-15.39,25.38-14.24s12.37,21.6,19.51,21.6,12.56-20.45,19.51-21.6c6.97-1.15,18.63,16.49,25.38,14.24s5.52-23.37,11.92-26.59c6.22-3.13,22.43,10.48,28.39,6.44s-.74-24.08,4.75-28.77c5.27-4.51,24.13,5.14,29.13-.07s-5.51-23.53-.98-29.15,24.61.87,28.7-5.06-9.07-22.47-5.39-28.67,24.47-2.51,27.76-8.91-11.78-21.23-8.86-27.79,24.02-5.26,26.6-11.96-13.94-19.92-11.69-26.72,23.38-7.57,25.32-14.47-15.7-18.59-14.07-25.55,22.63-9.58,23.98-16.6-17.2-17.24-16.13-24.3,21.79-11.37,22.58-18.46-18.49-15.87-17.96-22.98,20.87-12.99,21.13-20.11-19.61-14.47-19.61-21.6,19.86-14.57,19.61-21.6-20.61-13.1-21.13-20.11,18.74-16,17.96-22.98-21.54-11.52-22.58-18.46,17.45-17.41,16.14-24.3-22.38-9.78-23.98-16.6,15.96-18.81,14.07-25.55-23.13-7.83-25.32-14.47,14.2-20.2,11.69-26.73-23.76-5.58-26.6-11.96,12.05-21.59,8.86-27.79-24.21-2.92-27.76-8.91,9.34-22.94,5.39-28.67-24.34.34-28.7-5.06,5.78-24.14.98-29.15-23.86,4.44-29.13-.07,1-24.87-4.75-28.77-22.17,9.57-28.39,6.44-5.27-24.38-11.92-26.59-18.41,15.39-25.38,14.24-12.37-21.6-19.51-21.6-12.56,20.45-19.51,21.6-18.63-16.49-25.38-14.24-5.52,23.37-11.92,26.59-22.43-10.48-28.39-6.44.74,24.08-4.75,28.77-24.13-5.14-29.13.07,5.51,23.53.98,29.15-24.61-.87-28.7,5.06,9.07,22.47,5.39,28.67-24.47,2.51-27.76,8.91,11.78,21.23,8.86,27.79-24.02,5.26-26.6,11.96,13.94,19.92,11.69,26.72-23.38,7.57-25.32,14.47,15.7,18.59,14.07,25.55-22.63,9.58-23.98,16.6,17.2,17.24,16.13,24.3-21.79,11.37-22.58,18.46,18.49,15.87,17.96,22.98-20.87,12.99-21.13,20.11,19.61,14.47,19.61,21.6Z"/>
    <path class="f" d="M32.63,375.07c0,7.13-19.86,14.57-19.61,21.6s20.61,13.1,21.13,20.11-18.74,16-17.96,22.98,21.54,11.52,22.58,18.46-17.45,17.41-16.14,24.3,22.38,9.78,23.98,16.6-15.96,18.81-14.07,25.55,23.13,7.83,25.32,14.47-14.2,20.2-11.69,26.73,23.76,5.58,26.6,11.96-12.05,21.59-8.86,27.79,24.21,2.92,27.76,8.91-9.34,22.94-5.39,28.67c4.09,5.94,24.34-.34,28.7,5.06s-5.78,24.14-.98,29.15,23.86-4.44,29.13.07-1,24.87,4.75,28.77,22.17-9.57,28.39-6.44,5.27,24.38,11.92,26.59c6.75,2.25,18.41-15.39,25.38-14.24s12.37,21.6,19.51,21.6,12.56-20.45,19.51-21.6c6.97-1.15,18.63,16.49,25.38,14.24s5.52-23.37,11.92-26.59c6.22-3.13,22.43,10.48,28.39,6.44s-.74-24.08,4.75-28.77c5.27-4.51,24.13,5.14,29.13-.07s-5.51-23.53-.98-29.15,24.61.87,28.7-5.06-9.07-22.47-5.39-28.67,24.47-2.51,27.76-8.91-11.78-21.23-8.86-27.79,24.02-5.26,26.6-11.96-13.94-19.92-11.69-26.72,23.38-7.57,25.32-14.47-15.7-18.59-14.07-25.55,22.63-9.58,23.98-16.6-17.2-17.24-16.13-24.3,21.79-11.37,22.58-18.46-18.49-15.87-17.96-22.98,20.87-12.99,21.13-20.11-19.61-14.47-19.61-21.6,19.86-14.57,19.61-21.6-20.61-13.1-21.13-20.11,18.74-16,17.96-22.98-21.54-11.52-22.58-18.46,17.45-17.41,16.14-24.3-22.38-9.78-23.98-16.6,15.96-18.81,14.07-25.55-23.13-7.83-25.32-14.47,14.2-20.2,11.69-26.73-23.76-5.58-26.6-11.96,12.05-21.59,8.86-27.79-24.21-2.92-27.76-8.91,9.34-22.94,5.39-28.67-24.34.34-28.7-5.06,5.78-24.14.98-29.15-23.86,4.44-29.13-.07,1-24.87-4.75-28.77-22.17,9.57-28.39,6.44-5.27-24.38-11.92-26.59-18.41,15.39-25.38,14.24-12.37-21.6-19.51-21.6-12.56,20.45-19.51,21.6-18.63-16.49-25.38-14.24-5.52,23.37-11.92,26.59-22.43-10.48-28.39-6.44.74,24.08-4.75,28.77-24.13-5.14-29.13.07,5.51,23.53.98,29.15-24.61-.87-28.7,5.06,9.07,22.47,5.39,28.67-24.47,2.51-27.76,8.91,11.78,21.23,8.86,27.79-24.02,5.26-26.6,11.96,13.94,19.92,11.69,26.72-23.38,7.57-25.32,14.47,15.7,18.59,14.07,25.55-22.63,9.58-23.98,16.6,17.2,17.24,16.13,24.3-21.79,11.37-22.58,18.46,18.49,15.87,17.96,22.98-20.87,12.99-21.13,20.11,19.61,14.47,19.61,21.6Z"/>
  </g>
  <path class="f" d="M59.25,375.03c0,6.5-19.89,13.28-19.68,19.69s20.5,11.97,20.92,18.36-18.97,14.57-18.34,20.94,21.26,10.57,22.11,16.91-17.92,15.86-16.84,22.16,21.95,9.03,23.26,15.28-16.7,17.17-15.15,23.36,22.58,7.31,24.38,13.42-15.24,18.5-13.17,24.52c2.13,6.2,23.12,5.32,25.46,11.23s-13.44,19.88-10.8,25.66,23.52,2.95,26.48,8.56c3.07,5.82-11.12,21.31-7.83,26.71s23.67,0,27.34,5.14-7.98,22.74-3.91,27.56c4.27,5.05,23.28-3.84,27.79.55,4.74,4.62-3.5,23.93,1.48,27.79,5.22,4.04,21.7-8.91,27.17-5.75s2.93,24.08,8.86,26.35,17.74-15.04,24.04-13.84c6.32,1.21,10.87,21.65,17.37,21.65s11.05-20.44,17.37-21.65,17.96,16.18,24.04,13.84,3.16-23.06,8.86-26.36,21.94,9.79,27.17,5.75-3.25-23.17,1.48-27.79,23.52,4.49,27.79-.56-7.74-22.18-3.91-27.56,23.9.49,27.33-5.14-10.9-20.89-7.83-26.71,23.74-2.58,26.47-8.56-13.22-19.56-10.8-25.65,23.34-5.04,25.46-11.23-15.02-18.25-13.17-24.52,22.79-7.08,24.38-13.42-16.49-16.97-15.15-23.35,22.16-8.85,23.26-15.28-17.71-15.7-16.84-22.16,21.47-10.43,22.11-16.91-18.76-14.45-18.34-20.94,20.71-11.86,20.92-18.36-19.68-13.19-19.68-19.69,19.89-13.28,19.68-19.69-20.5-11.97-20.92-18.36,18.97-14.57,18.34-20.94-21.26-10.57-22.11-16.91,17.92-15.86,16.84-22.16-21.95-9.03-23.26-15.28,16.7-17.17,15.15-23.36-22.58-7.31-24.38-13.42,15.24-18.5,13.17-24.52-23.12-5.32-25.46-11.23,13.44-19.88,10.8-25.66-23.52-2.95-26.48-8.56,11.12-21.31,7.83-26.71-23.67,0-27.34-5.14,7.98-22.74,3.91-27.56-23.28,3.84-27.79-.55c-4.74-4.62,3.5-23.93-1.48-27.79-5.22-4.04-21.7,8.91-27.17,5.75s-2.93-24.08-8.86-26.35-17.74,15.04-24.04,13.84-10.87-21.65-17.37-21.65-11.05,20.44-17.37,21.65-17.96-16.18-24.04-13.84-3.16,23.06-8.86,26.36-21.94-9.79-27.17-5.75,3.25,23.17-1.48,27.79-23.52-4.49-27.79.56,7.74,22.18,3.91,27.56-23.9-.49-27.33,5.14,10.9,20.89,7.83,26.71-23.74,2.58-26.47,8.56,13.22,19.56,10.8,25.65-23.34,5.04-25.46,11.23,15.02,18.25,13.17,24.52-22.79,7.08-24.38,13.42,16.49,16.97,15.15,23.35-22.16,8.85-23.26,15.28,17.71,15.7,16.84,22.16-21.47,10.43-22.11,16.91,18.76,14.45,18.34,20.94-20.71,11.86-20.92,18.36,19.68,13.19,19.68,19.69Z"/>
  <g>
    <g>
      <path class="h" d="M379.8,373.93c0,5.63-20.07,10.97-20.21,16.53s19.62,12.01,19.33,17.55-20.62,9.91-21.05,15.44,18.95,13.05,18.36,18.57-21.13,8.77-21.87,14.26,18.18,14.13,17.27,19.59-21.61,7.51-22.68,12.93,17.26,15.25,16.01,20.63-22.05,6.08-23.49,11.4,16.15,16.45,14.51,21.71c-1.7,5.44-22.43,4.39-24.29,9.57s14.72,17.78,12.63,22.85-22.72,2.31-25.07,7.25c-2.46,5.18,12.77,19.29,10.13,24.07-2.78,5.04-22.8-.44-25.76,4.11-3.15,4.84,9.86,21.02,6.52,25.28-3.57,4.56-22.28-4.36-26.05-.5-4.06,4.16,5.05,22.79.79,26.09-4.59,3.55-20.02-10.2-24.82-7.71-5.1,2.65-3.18,23.23-8.49,24.61s-13.5-17.53-19.12-17.53-13.68,18.95-19.12,17.53-3.39-21.97-8.49-24.62c-4.8-2.49-20.23,11.25-24.82,7.7-4.26-3.3,4.85-21.93.79-26.09-3.77-3.86-22.48,5.06-26.05.49-3.34-4.27,9.67-20.44,6.52-25.28-2.96-4.56-22.98.93-25.76-4.11-2.64-4.77,12.6-18.88,10.14-24.06s-22.89-1.96-25.07-7.25,14.56-17.48,12.63-22.85-22.59-4.13-24.29-9.56,16-16.22,14.51-21.7-22.2-5.87-23.49-11.4c-1.25-5.38,17.11-15.07,16.01-20.63s-21.75-7.34-22.68-12.93,18.03-13.98,17.27-19.58-21.27-8.64-21.87-14.26,18.8-12.94,18.36-18.57-20.76-9.81-21.05-15.44,19.48-11.92,19.33-17.56c-.14-5.56-20.21-10.9-20.21-16.53s20.07-10.97,20.21-16.53-19.62-12.01-19.33-17.55,20.62-9.91,21.05-15.44-18.95-13.05-18.36-18.57,21.13-8.77,21.87-14.26c.76-5.6-18.18-14.13-17.27-19.59s21.61-7.51,22.68-12.93-17.26-15.25-16.01-20.63,22.05-6.08,23.49-11.4-16.15-16.45-14.51-21.71,22.43-4.39,24.29-9.57c1.93-5.37-14.72-17.78-12.63-22.85s22.72-2.31,25.07-7.25c2.46-5.18-12.77-19.29-10.13-24.07,2.78-5.04,22.8.44,25.76-4.11,3.15-4.84-9.86-21.02-6.52-25.28,3.57-4.56,22.28,4.36,26.05.5,4.06-4.16-5.05-22.79-.79-26.09,4.59-3.55,20.02,10.2,24.82,7.71,5.1-2.65,3.18-23.23,8.49-24.61s13.5,17.53,19.12,17.53,13.68-18.95,19.12-17.53,3.39,21.97,8.49,24.62c4.8,2.49,20.23-11.25,24.82-7.7,4.26,3.3-4.85,21.93-.79,26.09,3.77,3.86,22.48-5.06,26.05-.49,3.34,4.27-9.67,20.44-6.52,25.28,2.96,4.56,22.98-.93,25.76,4.11,2.64,4.77-12.6,18.88-10.14,24.06s22.89,1.96,25.07,7.25-14.56,17.48-12.63,22.85,22.59,4.13,24.29,9.56-16,16.22-14.51,21.7,22.2,5.87,23.49,11.4-17.11,15.07-16.01,20.63c1.08,5.42,21.75,7.34,22.68,12.93s-18.03,13.98-17.27,19.58,21.27,8.64,21.87,14.26-18.8,12.94-18.36,18.57,20.76,9.81,21.05,15.44-19.48,11.92-19.33,17.56,20.21,10.9,20.21,16.53Z"/>
      <path class="d" d="M379.8,373.93c0,5.63-20.07,10.97-20.21,16.53s19.62,12.01,19.33,17.55-20.62,9.91-21.05,15.44,18.95,13.05,18.36,18.57-21.13,8.77-21.87,14.26,18.18,14.13,17.27,19.59-21.61,7.51-22.68,12.93,17.26,15.25,16.01,20.63-22.05,6.08-23.49,11.4,16.15,16.45,14.51,21.71c-1.7,5.44-22.43,4.39-24.29,9.57s14.72,17.78,12.63,22.85-22.72,2.31-25.07,7.25c-2.46,5.18,12.77,19.29,10.13,24.07-2.78,5.04-22.8-.44-25.76,4.11-3.15,4.84,9.86,21.02,6.52,25.28-3.57,4.56-22.28-4.36-26.05-.5-4.06,4.16,5.05,22.79.79,26.09-4.59,3.55-20.02-10.2-24.82-7.71-5.1,2.65-3.18,23.23-8.49,24.61s-13.5-17.53-19.12-17.53-13.68,18.95-19.12,17.53-3.39-21.97-8.49-24.62c-4.8-2.49-20.23,11.25-24.82,7.7-4.26-3.3,4.85-21.93.79-26.09-3.77-3.86-22.48,5.06-26.05.49-3.34-4.27,9.67-20.44,6.52-25.28-2.96-4.56-22.98.93-25.76-4.11-2.64-4.77,12.6-18.88,10.14-24.06s-22.89-1.96-25.07-7.25,14.56-17.48,12.63-22.85-22.59-4.13-24.29-9.56,16-16.22,14.51-21.7-22.2-5.87-23.49-11.4c-1.25-5.38,17.11-15.07,16.01-20.63s-21.75-7.34-22.68-12.93,18.03-13.98,17.27-19.58-21.27-8.64-21.87-14.26,18.8-12.94,18.36-18.57-20.76-9.81-21.05-15.44,19.48-11.92,19.33-17.56c-.14-5.56-20.21-10.9-20.21-16.53s20.07-10.97,20.21-16.53-19.62-12.01-19.33-17.55,20.62-9.91,21.05-15.44-18.95-13.05-18.36-18.57,21.13-8.77,21.87-14.26c.76-5.6-18.18-14.13-17.27-19.59s21.61-7.51,22.68-12.93-17.26-15.25-16.01-20.63,22.05-6.08,23.49-11.4-16.15-16.45-14.51-21.71,22.43-4.39,24.29-9.57c1.93-5.37-14.72-17.78-12.63-22.85s22.72-2.31,25.07-7.25c2.46-5.18-12.77-19.29-10.13-24.07,2.78-5.04,22.8.44,25.76-4.11,3.15-4.84-9.86-21.02-6.52-25.28,3.57-4.56,22.28,4.36,26.05.5,4.06-4.16-5.05-22.79-.79-26.09,4.59-3.55,20.02,10.2,24.82,7.71,5.1-2.65,3.18-23.23,8.49-24.61s13.5,17.53,19.12,17.53,13.68-18.95,19.12-17.53,3.39,21.97,8.49,24.62c4.8,2.49,20.23-11.25,24.82-7.7,4.26,3.3-4.85,21.93-.79,26.09,3.77,3.86,22.48-5.06,26.05-.49,3.34,4.27-9.67,20.44-6.52,25.28,2.96,4.56,22.98-.93,25.76,4.11,2.64,4.77-12.6,18.88-10.14,24.06s22.89,1.96,25.07,7.25-14.56,17.48-12.63,22.85,22.59,4.13,24.29,9.56-16,16.22-14.51,21.7,22.2,5.87,23.49,11.4-17.11,15.07-16.01,20.63c1.08,5.42,21.75,7.34,22.68,12.93s-18.03,13.98-17.27,19.58,21.27,8.64,21.87,14.26-18.8,12.94-18.36,18.57,20.76,9.81,21.05,15.44-19.48,11.92-19.33,17.56,20.21,10.9,20.21,16.53Z"/>
    </g>
    <g>
      <path class="e" d="M106.69,459.37c1.2-2.46,1.65-5.6,1.02-8.49-1.21-5.54-4.09-6.63-8-6.97-2.58-.22-7.35-.11-8.33-3.33,1.17,11.71,23.05,6.75,6.73,29.36,2.87-3.58,6.41-6.15,8.57-10.58Z"/>
      <path class="e" d="M160.65,159.03c5.88,3.08,13.67,1.48,16.48-6.73,1.47-4.32,1.27-9.6,2.86-13.83,1.83-4.88,5.66-7.35,9.38-8.39,3.71-1.04,7.56-.98,11.2-2.45s7.26-4.96,8.25-10.34c.77-4.18-.21-8.76-2.01-12.18-1.8-3.43-4.32-5.86-6.91-7.91-3.95-3.12-8.17-5.49-12.53-7.05-1.75-.72-5.13.03-7.26,1.73,4.35,3.41,10.46,7.61,15.27,9.81,2.72,1.24,5.85,3.83,5.23,8.44-.29,2.18-1.34,3.99-2.71,4.91-3.16,2.14-6.57,3.49-10.03,4.01-4.55.68-9.91.4-12.71,5.73-1.69,3.21-1.88,7.57-2.82,11.39-2.14,8.64-3.22,13.19-9.74,11.01-5.77-1.93-6.9-4.14-11.85-8.8-.01-.01-2.04.4-3.67,1.22-1.84.61-3-.17-3.98,1.51,1.02.48,2.01,1.28,2.94,2.48,4.69,6.06,8.75,12.36,14.63,15.44Z"/>
      <path class="e" d="M216.8,663.88c-6.12-1.84-19.54-21.7-9.79,1.22,3.67,8.56,1.35,17.89,20.8,1.22,4.28-3.67,10.68,1.53,15.29,4.89,2.59,1.89.56-4.95-.04-5.65-2.17-2.53-6.37-7.71-6.69-7.81-12.79-3.77-11.33,8.59-19.58,6.12Z"/>
      <path class="e" d="M108.52,507.26c-.19-2.63,3.45-12.29,1.84-13.46-.47-.34-5.04,7.45-5.51,7.34.52,2.53-.12,3.46-.71,4.42-.76,1.25,3.12,9.8,4.38,9.04,2.2-1.34.14-5.51,0-7.34Z"/>
      <path class="e" d="M101.79,425.9c.42,1.69,10.13-1.56,10.86-3.72,1.28-3.81.9-8.36-.23-12.23-2.19-7.5-7.2-14.48-5.64-22.31.82-4.12,3.61-7.19,6.51-7.18,2.91,0,5.69,3.1,6.5,7.22,1.63,8.3-1.63,11.73,4.23,17.97.96,1.02,5.4,5.35,6.4,6.29,4.69,4.4,8.35,6.84,11.09,11.94,2.28,4.24,3.91,8.18,1.29,11.95-1.16,1.66-4.45,3.58-5.97,4.41l-7.24,5.66c-.92.5-4.39,6.58-5.11,7.55-3.71,4.96,2.29,6.94.86,12.58-1.28,5.03-1.67,4.76-3.83,11.32-.68,2.07-1.04,8.34-1.27,11.32-.38,4.84.86,9.43,2.56,10.06,3.21,1.18,8.4-5.04,9.81-.63,1.66,5.2-1.65,6.25-2.12,11.95-.3,3.56,1.33,6.81,2.6,9.9.97,2.35.78,5.37-.43,7.48l-3.02,4.01c-2.98,5.03-4.57,7.23-6.39,7.55-1.82.32-8.67-1.78-10.44-1.13-.48.18-1.5,2.2-1.84,2.45,2.36,7.63,3.06,4.28,8.56,7.95,11.62,4.89,9.14,7.26,6.73,12.85-1.49,3.45,5.04,4.76,7.66,8.13,3.45,4.43,6.98,10.38,11.53,9.75,2.75-.38,2.55-12.01,5.09-13.6,5.74-3.6,5.57,12.87,8.97,21.38,3,7.52,2.99,8.8,7.68,15.72,4.53,6.67,3.28,3.64,5.12,6.29.52.75,2.75,2.69,3.41,3.14,1.02.69,1.87,1.61,2.99,1.89,3.55.89,3.43.63,7.25.62,4.69,0,5.54,0,8.95-.63,5.42-1,18.7,3.53,15.35,6.28-3.84,3.15-20.06.17-28.98,15.11-1.8,3.01-3.02,3.62-3.63,4.85,1.56,1.58-.37,8.33,1.22,9.79,0-2.45.36-4.87,2.41-6.46,4.08-3.16,0-13.84,28.13-18.88,7.21-1.29,2.55-18.87-17.49-13.83-19.4,4.88-27.3-19.69-28.58-23.25-12.81-35.84-5.56-24.53,4.68-17.61,7.89,5.33,8.97,10.94,15.79,18.86,2.15,2.5,6.79,1.89,6.82,1.88,32.4-3.16,28.15,24.51,41.8,27.02,7.24,1.33-.48,7.39-.85,9.43-1.7,9.43-8.06,1.75-12.61,11.49-4.38,9.36-12.12,1.82-20.07,2.1-9.22.32-12.31,6.36-11.61,12.97.19,1.83.35,4.06.76,5.45,2.89-.56,2.45-.61,4.89-1.84-2.54-5.55-4.04-6.28-1.85-8.77,5.54-6.29,13.44-.48,17.91.62,5.12,1.25,6.57,3.35,10.66-4.41,2.98-5.66,11.55-10.91,13.21-8.18,3.84,6.29,9.27,9.47,14.08,13.83,5.55,5.03,3.98,4.49,7.25,8.8,1.4,1.85,1.18.99,1.75,2.4,1.24-.59,2.44-3.62,3.67-4.28-7.66-8.42-5.76-4.32-9.86-8.73-2.93-3.14-11.92-7.42-14.54-13.29-2-4.49-.03-11.7,4.83-11.92,5.08-.24,7.49,7.27,19.04-.75,5.55-3.85,12.33-1.55,18.15,1.31,1.92.94,3.82,2.18,5.32,4.18,2.58,3.44,2.18,4.61,3.98,9.02,3.06-.61,3.67-.61,6.33-1.37-5.35-6.26-10.42-12.04-13.54-16.2-8.96-11.94-17.91-.62-22.17-5.65-7.21-8.5-13.67-14.07-13.23-22.63.06-1.14.22-2.21.46-3.22,1.68-7.04,7.04-10.57,11.81-8.11l7.33,3.78c2.17-.57,9.32,1.52,11.51,1.25,5.12-.63,4.48-4.72,7.67-3.78,1.56.46,2.44,4.29,3.8,8.54.89,2.76,2.18,5.18,3.8,7.09l.96,1.13c.98,1.16,2.62,1.41,3.82.85.28-.13,1.95-1.71,2.13-1.89,2.34-2.3,2.57-3.64,3.97-7.23l5.26-13.47c3.53-1.15,12.58,4.89,13.74,10.75,3.75-7.47,7.61-5.43,11.01-12.85.5-1.08.61-1.84-.61-6.73-.33-1.33-1.01-3.79-1.22-4.28-1.12-2.58-1.32-2.88-2.17-4.37-5.29-9.38-9.49-17.41-14.99-22.84-3.9-3.85-11.3-5.69-15.37.23-2.25,3.27-2.86,4.01-4.63,10.29-.43,1.54-.98,3.4-1.91,4.35-2.12,2.19-1.76,3.11-3.79,2.74-.95-.17-2.09-.92-2.69-2.02l-1.6-2.8c-.53-1.6-1.18-3.19-.79-4.38,2.99-9.06,7.05-9.07,12.46-11,2.98-1.06,7.99-4.61,9.75-9.04.74-1.86,1.52-8.54,1-12.12-1.02-7-3.35-9.43-5.86-15.58-2.51-6.14-7.92-6.65-15.08-4.94-5.17,1.24-8.26,6.47-10.6,18.58-.97,4.99-8.09-.09-5.63-6.82,3-8.21,8.18-9.57,12.47-12.99,5.77-4.6,10.31-6.18,11.26-15.59.71-6.95-1.41-15.33-3.68-19.13-.76-1.28-6.87-8.78-14.64-12.69-6.46-3.25-8.82-.98-18.04-5.77-9.22-4.79-9.01-5.87-13.85-8.31-3.42-1.73-12.87-1.88-16.55-6.35-2.82-3.41-2.37-11.16,2.22-13.5,4.8-2.44,8.61,3.68,18.03-9.03,4.53-6.1,11.47-6.87,17.6-6.67,2.02.06,4.08.41,5.92,1.67,3.93,2.69,6.16,8.98,9.84,12.35,6.78,6.2,16.68,1.11,22.85,8.57,2.7,3.27,4.07,8.33,5.16,13.24,2.07,9.32,3.57,18.93,4.45,28.65.45,4.91.78,10.05,2.56,14.26,5.09,12.05,18.9,10.36,23.78,22.6,3.39,8.5.98,20.66,5.36,28.11.95,1.62,1.22,2.38,1.22.54,1.22-3.67,3.67-5.51,6.12-7.34,0-.09-.79-2.04-.79-2.14-1.43-31.16-24.99-39.62-29.01-41.49-8.1-3.77-4.71-43.39-11.12-53.45-3.64-5.72-4.58-16.27-21.34-14.5-3.85.41-8.61-3.34-10.64-8.18-6.09-14.52-19.4-7.29-23.03-6.22-12.79,3.78-14.07-.62-23.03-11.94-1.51-1.91-3.52-7.29,1.27-17.58.72-1.55,2.17-6.15,3.41-5.7l7.35,4.06c2.06,1.14,4.28,1.53,6.47,1.13,2.16-.4,10.46-5.87,13.47-7.72,2.54-1.56,7.31,6.54,10.22,11.81,2.42,4.38,6.95,4.35,9.35-.05l6.75-19.08c1.59-3.9,8.53-6.33,9.92,3.53,2.57,18.24-.27,24.92,7.56,26.24,5.32.9,19.21-11.11,21.87-4.25l.33,20.8c.07,4.28,2.99,7.32,5.69,5.74,5.42-3.18,7.07-18.01,12.76-7.05,10.5,20.23,4.36,38.12,8.97,30.81,5.84-9.24,4.2,2.07,8.89-24.07-1.22-1.22-2.45-3.06-3.67-4.89,0,5.51-.9,8.85-2.67,16.39-2.23,9.52-4.69,0-6.4-15.72l-2.99-10.69c-2.4-4.4-4.86-9.7-7.27-5.32-2.9,5.26-5.36,15.98-8.07,16.65-2.56.63-2.56-3.08-2.56-6.29,0-3.77,0-5.03,0-9.43l-1.29-10.69c1.28-6.29,3.1-8.87,3.4-10.69,2.12-12.58,2.47-16.66,2.97-19.5,2.13-11.95,3.83-10.69,8.09-18.24,2.37-4.2,4.24-36.71,10.67-22.5,5.12,11.32-3.44,23.63,2.98,34.45,1.77,2.99,8.54,3.26,10.48,3.48-2.73-1.82-5.73-4.93-7.54-7.61-1.01-1.49-1.25-3.36-.66-5.06.84-2.41,1.46-3.87,1.61-8.35-.98-10.12-9.32-22.43-1.98-29.16-3.98,1.21-11.56,7.53-15.16,3.29-8.53-10.06-10.49-10.08-16.21-10.68-5.97-.63-9.01-3.91-10.67-12.57-.55-2.9-2.14-8.17-2.99-18.24l-1.53-15.47c.65-21.82-8.29-19.75-11.44-5.63-.95,4.28-4.09,11.05-8.35,14.19-4.97,3.67-9.74-8.42-14.09-30.81-2.28-11.72-6.41-31.44-17.5-31.44-8.28,0-19.18,7.56-15.77,1.9l2.7-3.19c1.02-1.21,1.83-2.77,2.36-4.54l1.38-4.67c.61-2.07,1.87-3.57,3.36-4.02,3.94-1.19,8.36-.09,15.33-15.04,5.97-12.79,10.25,24.52,12.81,35.21.8,3.35,3.43,26.41,5.99,33.96.85,2.49,3.11,3.6,5.54-5.03,2.16-7.65,3.44-11.42,6.52-17.89,1.37-2.87,3.74-4.33,6.08-3.75,7.12,1.75,13.29,8.53,16.19,18.29.44,1.49.8,3.03,1.05,4.6,3.42,21.38,2.69,26.92,3.43,30.19,1.28,5.66,3.89,5,8.95-1.89,3.07-4.19,5.13-4.01,7.93-10.59-3.06-4.89-.61-7.95.61-12.24-1.96,6.33-7.18,13.43-11.53,19.06-3.41,4.4-3.17-25.93-5.13-31.44-4.7-13.2-9.36-21.32-18.35-25.15-5.11-2.18-9.38,0-17.04,17.62-2.45,5.63-6.36-30.31-7.27-35.84-3.42-20.75-11.52-29.95-14.94-23.89-6.39,11.32-11.92,4.91-23.45,1.27-5.97-1.88-5.65-4.62-5.55-13.2.02-1.88,1.33-8.26,2.55-8.81l7.93-1.11c2.17-.57,4.21-1.91,5.95-3.91,1.72-1.97,8.4-11.87,10.35-15.72.86-1.71,6.12-5.51,8.56-7.34-1.8-1.41-6.91,1.54-9.52,1.3-.75-.07-1.5.16-2.04.7-2.21,2.23-4.03,5.84-5.78,8.98-3.67,6.58-8.88,12.32-14.65,11.75-3.59-.36-6.92,3.67-8.14,4.51-9.72,6.73-14.16,2.94-14.42-2.24-.26-5.17,2.97-6.75,7.03-12.71,2.87-4.21,4.66-11.89,4.08-17.8-.24-2.48,1.84-1.84,3.06-3.06-2.1-.21-4.7,3.67-6.73,3.06-8.4-2.52-14.68-11.62-17.74-10.4,2.75.68,2.52.87,4.89,2.45,1.84,1.22,2.85,2.24,4.89,4.28q1.22,1.22,4.28,3.67c4.35,3.48.44,10.94-2.05,15.77-2.49,4.83-5.48,10.26-4.67,16.21.63,4.66,3.59,8.08,6.75,9.02,3.16.94,6.44-.22,9.41-2.02,3.94-2.38,1.8,2.4,1.87,8.68.07,5.91-2.14,11.84,6.72,13.94,12.44,2.95,17.97,2.07,16.84,7.02-1.13,4.94-9.04,6-11.88,9.11-2.11,2.31-.82,12.86-7.76,11.62-13.3-7.29-15.57-14.49-32.47-3.74-.91.58-5.62,8.04-6.51,8.68-1,.72-6.01,8.51-7.05,9.07-5.14,2.73-7.56,1.51-10.12.88-3-.73-7.53-4.46-14.25-8.51-2.82-1.7-20.35-5.49-23.3-4.43-5.4,1.93-7.15,9-8.82,12.83-2.86,6.53-8.14,1.09-8.75-1.35-.83-3.32,1.84-14.07,1.22-16.52-.17-.68-4.42,1.69-5.51,1.84-1.22,3.06,11.48,28.25-9.79,29.98,4.66-3.86,10.49,1.51,19.85-5.18,5.11-3.65,8.12,30.81,11.95,22.01,5.39-12.39-9.39-16.35-3.85-30.19,5.91-14.77,41.31-4.58,39.89,14.13-.67,8.88-5.87,1.19-7.54,12.77-1.6,11.12-10.71,8.55-17.98,13.31-8.43,5.52-9.71,12.85-7.34,18.56,4.06,9.79,10.33,7.69,14.18,15.71,2.44,5.08,2.73,7.79-.39,14.58-2.96,6.44-9.91,6.13-12.69-1.13-2.15-5.62-5.48-10.07-9.61-12.19-4.87-2.5-8.58-4.06-15.02-.6-4.99,2.68-6.47,7.29-12.52,14.7-1.79,2.19-6.53,4.42-3.21-18.36,3.4-23.27,21.25-18.57,15.91-25.69-5.51-7.34-12.24-15.29-11.62-4.89-5.68,19.77-9.18,20.19-8.56,30.59.12.15-9.88,18.62-9.79,18.96,2.14,8.17,12.53,3.37,11.01,9.79-.45,1.88-4.97,8.76-6,14.89-.85,5.03-1.7,8.18-.42,11.95,1.4,4.11,12.78-.07,14.5,3.77,2.23,4.97,3.07,11.84,5.13,16.98,1.69,4.23,4.69,7.54,5.55,14.46,1.23,9.91-.87,21.05,2.15,29.56,1.07,3.01,14.92,4.39,17.91,10.68.85,1.78-8.53-1.25-10.66-1.88-4.65-1.37-11.33,1.68-13.21,3.15-4.52,3.54-1.46-7.43-3.42-11.95-2.46-5.68-4.27-5.03-7.25-5.66-4.34-.91-7.25.63-8.95,4.41-3.6,7.98-2.24,9.29-.84,18.87,1.28,8.8,5.98,14.46,5.13,20.12-.43,2.86-4.35,3.38-6.39,2.52-2.99-1.26-6.67-2.79-7.89-3.4M106.24,303.95c1.58-6.39,6.7-9.8,9.16-15.55,4.26-9.96,10.87-17.46,18.73-19.53,5.73-1.51,11.9,1.25,16.1,7.19,2.59,3.67,4.62,8.61,8.01,10.38,2.94,1.54,6.3.22,8.85-2.41,4.07-4.19,6.43-12.43,4.5-19.17-1.89-6.6-6.89-9.7-10.86-13.83-1.62-1.69-3.25-3.98-3.34-6.91-.46-14.4,16.48-11.17,20.56-18.08-1.24,2.11-1.25,5.33-.54,7.93.71,2.59,2.01,4.72,3.25,6.83,2.22,3.78,4.34,7.81,5.47,12.52s1.1,10.26-.79,14.4c-1.1,2.41-2.78,4.23-3.61,6.87-.83,2.64-.68,5.74-.12,8.53,1.93,9.53,8.03,15.58,12.78,22.64,2,2.98,3.95,7.44,1.92,11.08-.95,1.72-2.45,2.59-3.96,2.45-3.47-.31-6.91-1.47-10.13-3.42-4.23-2.56-8.87-6.52-13.05-3.76-2.52,1.66-4.07,5.38-6.12,8.09-4.65,6.13-7.05,9.4-12.11,2.96-4.48-5.7-8.17-13.6-11.06-21.14-1.26-3.3-2.54-6.94-4.86-8.58-.66-.46-1.36-.73-2.09-.85-1.12-.17-2.27.02-3.36.43-7.56,2.82-5.43,2.04-9.08,3.67-4.76,2.12-4.16,1.37-7.09,5.22-4.08,5.35-7.27,2.46-7.16,2.02ZM138.54,445.26c9.91-6.4,10.71-9.88,10.22-16.36-.43-5.66-4.2-9.8-8.11-13.83-4.27-4.4-21.42-15.55-11.95-20.75,4.32-2.37,15.77-3.15,22.95,1.63,6.61,4.41,3.67-10.38-16.16-16.98-6.8-2.26.86-26.17-5.11-36.86-2.38-4.26-7.81-11.07-7.69-21.38.15-12.45-20.41-3.85-16.63-9.42,4.26-6.29,22.17-2.07,22.17,2.5,0,11.32-2.87,7.69,5.55,18.86,4.27,5.66,3.82,25.78,3.85,25.78,27.28,1.57,25.63,38.71,38.81,23.88,8.95-10.07,25.32,1.17,27.29,5.64,4.7,10.69-1.87,22.06-8.94,27.68-5.54,4.41-19.8-1.29-27.71-2.5-9.17-1.4-8.32,5.02-6.81,11.32,2.99,12.58,8.11,19.49-.41,22.01-4.14,1.22-25.69,10.81-31.12,12.6-7.67,2.52,2.98-9.44,9.8-13.84ZM163.3,496.19c-.72-1.27-4.11-1.88-2.99-1.89-.33,0-2.69,0-5.97,0-3.84,0-5.12-.63-8.95,1.26-5.18,2.55-13.64.64-10.66-5.03,2.83-5.37,10.65-13.84,14.49-16.99,6.98-5.72,7.79-6.72,15.77-6.93,5.82-.15,10.82,8.96,14.33,15.82,2.16,4.23,3.64,9.58,6.79,12.12,2.74,2.21,6.19,1.69,9-.31,4.46-3.18,7.69-10.76,6.51-17.87-1.16-6.96-5.76-11.18-9.24-16.19-1.42-2.05-2.78-4.69-2.56-7.6,1.1-14.33,17.48-7.17,22.24-13.04-1.45,1.79-1.81,4.97-1.39,7.7.42,2.73,1.48,5.13,2.48,7.51,1.78,4.25,3.45,8.73,4.05,13.64.6,4.92-.01,10.39-2.33,14.03-1.35,2.12-3.2,3.53-4.3,5.94-1.1,2.41-1.29,5.51-1.03,8.4.88,9.86,6.26,17.26,10.19,25.34,1.66,3.41,3.1,8.27.71,11.39-1.13,1.47-2.7,1.98-4.17,1.5-3.4-1.12-6.67-3.07-9.64-5.74-3.9-3.52-8.06-8.51-12.48-6.77-2.66,1.05-4.3,5.83-6.1,8.92-4.29,7.39-9.33,9.44-13.64,1.89-3.81-6.68-3.51-10.11-5.55-18.24-.89-3.55-.43-2.52-2.14-9.43-.25-1.01-1.28-5.66-3.42-9.43ZM146.29,566.01l-.42,6.29c0,3.77-1.1,5.45-3.84,2.52-.01-.01-3.4-4.39-3.41-4.4-2.99-3.14-4.69-5.66-7.68-7.54l-2.83-8.47-.02-.04s-.16-.31-.6-1.83c-.79-2.72-6.38-2.51-5.09-5.38,1.31-2.91,14.49-17.62,14.48-23.28,0-1.63-1.12-4.28-1.71-5.66l-1.28-3.77c-.56-2.47-1.26-3.7.48-3.25,1.8.47,6.49,4.12,8.05,5.71,1.38,1.41,2.04,3.92,1.7,6.35l.02,4.31c0,.47.04.95.12,1.41.17.95,1.74,1.57,2.86,2.44,1.35,1.04,4.4,2.32,2.99,3.14l-20.88,11.96c-3.42,2.83-3.19,7.24.43,9.43,1.93,1.17,10.66,9.43,14.5,7.54,7.21-3.55-15.78-10.68-13.65-13.2l8.52-5.67c5.54-1.89,9.39-5.77,11.51-7.55,5.97-5.03-2.27-5.49-3.84-10.69,1.08-5.6-.92-11.48-4.61-13.58-5.89-3.36-10.49-3.81-7.54-7.14,2.48-2.79,4.69.63,14.07,3.77,7.5,2.51,0,11.32,3.85,16.35,7.59,9.95.79,20.76,5.76,28.27,2.48,3.75-3.68,6.28-8.52,7.55-.95.25-2.89,3.21-3.41,4.4ZM242.42,582.29c-2.37,4.77-6.55,7.53-.35,17.1,8.7,13.44,13.47,17.67,10.55,20.6-2.92,2.94-9.66-3.27-13.2-3.33-2.63-.04-9.35-5-14.37-12.17-7.61-17.65-19.94-22.41-33.96-19.33-.98.22-1.98.49-2.96.21-1.09-.32-2.04-1.31-2.87-2.41-4.22-5.6-6.2-14.45-10.91-19.12-2.52-2.51-5.57-3.53-8.38-5.24-2.81-1.71-5.62-4.52-6.49-8.82-.88-4.37.46-9.07.1-13.6-.4-4.94-2.75-9-5.07-12.6-2.32-3.6,2.01-9.43,1.16-14.24-.85-4.81-15.39-3.7-12.41-8.1,2.53-3.74,17.27-6.88,19.29,7.58,1.26,9.01,1.91,17.64,5.33,25.34,3.42,7.69,10.29,13.37,15.89,9.32,2.95-2.13,4.95-6.51,7.95-8.47,3.46-2.25,7.53-.81,10.91,1.67,3.38,2.48,6.43,5.96,9.93,8.03,3.51,2.08,7.82,2.51,10.81-.89,2.33-2.64,3.42-7.17,3.38-11.5-.03-4.33-1.05-8.52-2.27-12.46-2.08-6.69-4.81-12.94-8.08-18.51-.49-.84-1.02-1.72-1.16-2.8-.12-.89.03-1.81.22-2.68.77-3.4,2.3-6.43,4.29-8.5,1.18-1.23,2.55-2.17,3.46-3.82,1.99-3.61,1.08-9-.28-13.19-3.01-9.3-7.92-18.59-6.53-28.68.25-1.82.86-3.79,2.07-4.3.61-.26,1.27-.08,1.89.14,6.82,2.44,12.71,9.98,15.3,19.61s1.81,21.07-2.02,29.74c-1.54,3.48-3.61,6.87-3.64,11.02-.02,2.25.59,4.41,1.32,6.38,2.26,6.11,5.85,11.14,10.11,14.15,2.59,1.84,5.43,2.95,7.87,5.19,2.44,2.24,4.53,6.07,4.31,10.3-.31,6.05-4.83,9.43-8.79,11.06-3.96,1.62-8.57,3.29-10.36,8.75-1.41,4.27-.45,9.64,1.69,13.2,2.13,3.56,5.22,5.56,8.33,6.78,4.12,1.62.46,3.52-2.06,8.58ZM237.14,433.14c.41.41,4.74,2.46,5.2,2.75,2.26,1.46,3.43,2.29,5.25,3.7,6.5,5.04,12.22,6.48,19.48,8.09,7.26,1.61,15.14,6.1,18.03,16.06.89,3.06,1.22,6.54.63,9.76-1.32,7.25-6.57,11.05-11.27,13.94-4.69,2.89-9.95,6.7-11.26,13.95-1.15,6.35,1.36,13.1,4.82,17.25,1.62,1.94,3.86,3.54,5.74,2.19,2.41-1.72,3.5-2.65,3.64-6.6.11-3.12,1.65-7.16,2.34-10.12.44-1.87,2.7-5.61,3.81-6.72.83-.83,4.58-1.01,5.53-.54,4.04,2.03,8.47,4.27,10.87,11.46.54,1.61-.15,8.66-.59,10.34-.8,3.06-4.78,3.51-6.9,4.5-3.98,1.85-6.01,1.31-9.59,4.47-3.51,3.09-5.81,11.39-6.48,17.34-.7,6.17,2.35,12.64,6.46,14.19,4.11,1.55,10.83,2.36,12.83-3.15,1.63-4.48,1.05-12.85,3.72-16.07,3.45-4.17,7.34-2.76,10.88,1.24,6.38,7.22,11.14,17.52,13.36,28.92,1.01,5.19-.98,11.2-.98,11.81,0,.72-.64,1.31-1.22,1.22-.5-.07.61.61-.61-2.45-1.79-4.48-3.83-7.39-7.32-9.63-1.64-1.06-3.58-.33-5.15.93-4.34,3.5-6.72,10.47-9.66,16.34-1.24,2.47-3.14,5.05-5.13,4.13-.94-.44-1.65-1.6-2.19-2.82-1.85-4.14-2.5-9.62-5.2-12.59-3.47-3.82-8.31-1.55-12.51-.08-5.62,1.97-12.13,1.9-16.49-3.7-2.72-3.48-7.01-3.24-8.33-3.66-10.5-3.3-12.49-10.28-10.58-14.64,1.91-4.35,5.14-2.73,10.8-3.86,4.01-.8,8.33-4.21,10.29-9.43,2.41-6.4,3.7-15.41-.27-19.8-3.68-4.06-9.35-6.12-13.81-9.34-2.24-1.62-5.15-3.5-7.09-5.82-1.9-2.28-4.29-6.85-3.56-10.6.9-4.62,3.19-7.42,4.03-9.91,1.81-5.35,2.82-8.78,3.72-13.52.65-3.39,1.11-7.02,1.01-9.02-.25-4.76-.43-5.51-2.07-9.24l-2.45-4.55c-2-3.28-.93-1.71-4.15-5.9-1.41-1.83-2.34-2.71-4.48-4.83-2.14-2.12-5.56-4.48-4.46-7.92,1.31-4.1,10.6,1.11,11.4,1.91ZM220.84,414.59c-1.57,8.63-5.92-.2-8.82,10.84-2.78,10.61-11.5,5.93-19.19,8.94-8.91,3.48-10.97,10.42-9.25,16.6,2.96,10.62,9.38,10.01,12.31,18.83,1.86,5.59,1.86,8.33-1.96,14.3-3.62,5.67-10.44,3.73-12.4-4.08-1.52-6.05-4.33-11.22-8.18-14.28-4.54-3.61-8.04-6.01-14.77-4.11-5.22,1.48-7.17,5.69-13.94,11.58-2,1.74-8.24,10.39-12.21,15.78-9.71,13.19-10.77-1.25-4.12-21.08,3.07-9.15,43.87-13.42,40.92-22.66-6.83-21.38-5.34-24.43,5.1-23.9,18.65.94,20.1,11.06,30.26-10.71,9.91-21.23,19.56-14.3,16.23,3.96ZM224.86,361.66c-1.82,5.26-5.66,8.96,1.49,16.97,10.04,11.23,15.2,14.29,12.63,17.87-2.57,3.58-9.89-.97-13.39-.2-2.6.57-9.76-2.75-15.49-8.65-9.42-15.65-22.09-17.47-35.61-11.14-.95.44-1.91.95-2.9.9-1.11-.06-2.16-.81-3.09-1.71-4.77-4.54-7.68-12.82-12.83-16.33-2.76-1.88-5.88-2.18-8.84-3.22-2.96-1.03-6.03-3.14-7.35-7.19-1.34-4.11-.52-9.07-1.36-13.46-.92-4.78-3.68-8.24-6.36-11.26-2.68-3.01.97-9.78-.39-14.33-1.36-4.55-18.72-6.15-15.54-7.76,3.39-1.72,18.73-8.17,22.27,5.64,2.21,8.6,3.78,16.98,7.99,23.77,4.2,6.79,10.74,7.05,15.83,1.74,2.68-2.79,6.62-11.21,9.37-13.84,3.17-3.03,9.61,2.11,13.22,3.77,3.61,1.66,4.84,2.54,8.53,3.77,3.69,1.23,5.51,2.16,8.1-1.89,2.01-3.15,3.38-4.84,2.88-9.12-.5-4.27-1.95-8.17-3.58-11.77-2.77-6.12-6.14-11.66-9.97-16.39-.58-.71-1.19-1.46-1.45-2.5-.22-.85-.17-1.8-.07-2.69.4-3.54,1.58-6.88,3.32-9.39,1.04-1.49,2.28-2.74,3.01-4.58,1.58-4.03.1-9.13-1.69-12.96-3.97-8.47-9.81-16.5-9.53-26.79.05-1.85.44-3.95,1.58-4.73.58-.4,1.24-.37,1.88-.3,7,.81,13.62,6.88,17.21,15.78,3.59,8.9,4.06,20.38,1.2,29.84-1.14,3.8-2.83,7.63-2.41,11.74.22,2.22,1.05,4.21,1.99,5.99,2.89,5.51,6.97,9.63,11.5,11.6,2.76,1.21,5.68,1.64,8.33,3.28s5.12,4.94,5.36,9.17c.34,6.05-3.75,10.44-7.49,12.97-3.74,2.53-8.1,5.25-9.29,11.06-.93,4.54.6,9.63,3.08,12.64,2.49,3.01,5.75,4.27,8.95,4.75,4.24.64.83,3.37-1.11,8.96ZM323.53,364.65c-3.4,2.51-13.21,5.67-18.33,3.78-2.78-1.02-2.41-10.6-3.42-17.61-1.65-11.41-4.49-15.35-7.89-15.23-1.79.06-3.57.51-4.99,2.13-3.91,4.47-5.51,11.91-7.79,18.39-.96,2.73-2.55,5.72-4.62,5.27-.98-.21-1.8-1.19-2.47-2.27-2.27-3.66-3.51-8.92-6.49-11.22-3.83-2.96-8.37.41-12.36,2.85-5.34,3.26-11.77,4.71-16.68.21-3.05-2.8-7.27-1.56-8.62-1.66-10.72-.8-13.44-7.23-12.02-11.98,1.42-4.75,4.78-3.89,10.25-6.34,3.87-1.73,7.77-6.11,9.15-11.72,1.69-6.88,2-16.08-2.4-19.49-4.07-3.15-9.89-3.85-14.64-5.99-2.39-1.08-5.46-2.25-7.62-4.09-2.12-1.81-4.97-5.77-4.65-9.63.39-4.77,2.35-8.07,2.91-10.72,1.21-5.7,1.84-9.33,2.22-14.22.27-3.5.35-7.19.03-9.14-.75-4.64-1.02-5.34-3.04-8.64l-2.91-3.92c-2.32-2.78-1.1-1.47-4.74-4.86-1.59-1.48-2.6-2.13-4.94-3.72-2.34-1.59-5.97-3.12-5.25-6.77.85-4.36,10.59-1.39,11.46-.78.45.31,4.95,1.32,5.43,1.5,2.39.91,3.63,1.46,5.58,2.43,6.96,3.46,12.76,3.54,20.1,3.43,7.34-.11,15.61,2.48,19.52,11.64,1.2,2.82,1.9,6.18,1.67,9.49-.52,7.47-5.3,12.45-9.62,16.4-4.32,3.96-9.1,8.94-9.62,16.41-.45,6.54,2.75,12.62,6.61,15.9,1.81,1.54,4.19,2.59,5.9.82,2.2-2.27,3.17-3.44,2.88-7.37-.23-3.11.86-7.46,1.22-10.54.23-1.95,2.06-6.17,3.04-7.53.73-1.02,4.41-2.07,5.4-1.82,4.2,1.06,8.82,2.23,11.96,8.77.7,1.47.78,8.59.53,10.34-.47,3.21-4.34,4.59-6.33,6.06-3.73,2.76-5.79,2.7-8.99,6.66-3.13,3.87-4.51,12.61-4.53,18.64-.03,6.26,3.68,11.93,7.9,12.51,4.22.57,5.74-1.55,9.57-4.7,3.01-2.47,1.77-19.28,4.68-22.02,4.69-4.41,7.92,18.39,12.37,18.23,18.33-.64,16.64,19.49,19.2,34.58.89,5.24,19.61,4.39,15.35,7.54ZM241.23,181.47c7.36,4.54,16.59-2.81,23.48,3.12,3.02,2.6,4.91,7.28,6.51,11.86,3.05,8.72,5.56,17.85,7.47,27.25.97,4.75,1.85,9.74,4.06,13.48,6.32,10.71,14.98,18.87,22.35-8.37,4.25-15.73,5.08,7.63,5.98,25.78.57,11.47,5.4,21.69,7.69,24.52,4.63,5.71,9.76,4.46,15.7,6.05,4.08,1.09,8.02,4.55,9.79,10.16,1.59,5.01.82,10.89-1.66,15.03-2.48,4.13-2.76,8.17-6.11,11.06-4.12,3.56-7.68,44.6-10.42,38.83-2.99-6.29-10.45-3.46-12.79-6.91-2.13-3.14-3.57-10.58-3.84-13.83-.86-10.06-4.45-16.82-5.55-18.24-6.24-8.02-13.01-3.13-16.63-11.31-6.4-14.46-11.52-10.06-13.65-6.91-2.23,3.3-1.47,8.48-2.55,15.1-.26,1.62-.89,3.24-1.7,4.4-1.86,2.66-2.03,1.15-4.07,1.26-.95.05-2.17-.41-2.87-1.36l-1.89-2.39c-.7-1.45-1.51-2.88-1.25-4.14,1.98-9.65,3.66-13.46,8.78-16.63,2.83-1.75,8.96-4.66,10.23-9.44.53-2.01,1.35-7.7.45-11.12-1.76-6.67-4.32-8.53-7.46-14.01-3.14-5.48-8.54-4.71-15.42-1.35-4.97,2.43-7.45,8.32-8.47,20.83-.42,5.15-8,1.8-6.29-5.42,2.08-8.8,7.05-11.36,10.91-15.74,5.2-5.9,9.51-8.51,9.45-18.03-.05-7.03-3.04-14.81-5.69-18.03-.89-1.08-7.73-7.06-15.81-9.11-6.72-1.7-8.81,1.1-18.43-1.48s-9.52-3.69-14.56-4.96c-3.57-.9-12.91,1.15-17.02-2.4-3.15-2.71-3.54-10.47.74-13.85,4.48-3.53,8.9,1.62,16.83-13.14,3.81-7.09,10.58-9.46,16.66-10.7,2-.41,4.07-.55,6.02.27,4.17,1.73,7.05,7.43,11.05,9.89Z"/>
      <path class="e" d="M155.02,600.25c-2.14-2.49-10.76,6.59-13.46,7.34,17.74,3.06,16.47,4.78,16.52,9.79-3.67,15.29,7.34,1.84,4.89-5.51-1.58-4.73-5.14-8.34-7.95-11.62Z"/>
      <path class="e" d="M350.52,464.35c-3.39-.94-6.09-3.53-7.22-6.86l-2.36-6.95c-1.68-4.94-1.94-10.66-.74-15.89,1.69-7.4,3.4-17.48.17-19.06-3.47-1.7-4.12,4.41-5,10.09-.55,3.54-.96,8.15-5.65,5.01l-2.99-5.66c-1.28-4.4-2.53-7.87-2.99-10.06-1.49-7.05-1.67-11.8-2.14-15.09-1.86-13.1-14.99-11.52-26.02-17.6-2.76-1.52-11.79,2.54-9.8,5.67l21.29,8.73c3.38,2.43,11.37,11.84,11.97,17.13,2.73,23.82,9.1,24.82,12.81,29.09,1.05,1.21,1.68,2.73,1.9,4.32l1.09,7.99c2.99,11.95,1.78,15.91,7.68,18.23,6.04,2.39,19.53-2.33,22.93-2.28-1.84-3.67-3.67-6.12-4.89-7.34-1.3.5-5.13,1.89-10.05.52Z"/>
      <path class="e" d="M105.46,354.94c0-1.84-3.28-4.01-3.67-4.28-3.69-2.52-5.51-2.45-9.18-3.67,3.06,4.89,14.7,6.78-1.84,22.64,3.12-3.29,6.94-3.66,10.4-6.12,2.21-1.57,4.28-5.33,4.28-8.56Z"/>
      <path class="e" d="M363.02,359.22c-.61-1.84.39-4.78.61-4.89,1.84-2.45,1.48-3.1,1.35-6.25l-10.15,4.18c-1.98,3.13,9.18,9.95,8.19,6.96Z"/>
      <path class="e" d="M102.4,326.18c-3.06,3.06-7.9,5.24-6.12,6.73,3.97,3.33,10.18,11.47,14.64,9.98.65-.22,1.56-1,2-1.75,1.11-1.87.59-5.93-1.97-9.71-6.22-9.16-6.16-9.08-10.38-12.6l1.84,7.34Z"/>
      <path class="e" d="M288.54,117.09l9.32-3.88c.52-.21.39-.99-.17-1.02-6.93-.39-13.6.48-13.32-9.61l-2.12,2.14c-6.12,4.28.97,14.99,6.28,12.36Z"/>
      <path class="e" d="M311.66,164.68l11.59.61c-1.22-3.06-1.84-3.06-1.84-6.12-4.31-9.42-5.41-12.15-9.62-19.14-.44-.73-1.31-1.9-1.39-1.05-2.02,21.21-3.41,22.03,1.26,25.69Z"/>
    </g>
  </g>
  <g>
    <path class="b" d="M309.83,304.44c-4.59,11.51-14.8,16.65-15.88,24.62-1.4,10.32,10.25,21.68,13.16,31.61,4.54,15.47-2.21,21.39-7.61,37.69-7.23,21.81-.27,29.43,1.18,30.18,4.39,2.28,22.91-12.63,24.39-13.19,9.36-3.57,8.57-23.02,9.16-33.14.59-10.12,2.52-21.92,11.09-27.18,9.1-5.59,17.18-8.2,26.08-14.13,6.83-4.55,5.4-11.05,10.61-17.45,11.43-14.04,35.27-8.17,45.89,6.22,5.81,7.86,8.99,19.04,4.11,27.67-4.2,7.43-13.21,11.08-17.3,18.57-6.34,11.64,1.76,27.03-4.03,38.96-7.22,14.9-30.26,14.12-39.45,27.87-8.68,12.99-1.39,33.81-13.16,43.99-7.74,6.69-20.47,5.14-27.27,12.83-8.74,9.88-1.88,28.47-12.09,36.77-3.36,2.73-7.8,3.52-12.02,4.21-14.13,2.33-28.27,4.65-42.4,6.98-5.84.96-12.34,1.79-17.19-1.59-8.87-6.18-5.28-20.46.66-29.74,5.94-9.28,13.74-19.74,10.33-30.15-3.66-11.17-18.28-14.88-23.09-25.57-7.83-17.4,15.32-36.69,10.3-55.17-3.63-13.37-18.11-19.96-13.64-35.44,4.26-14.73,19.03-23.52,18.67-40.87-.54-25.56-22.4-29.88-3.6-63.29,4.75-8.43,19.87-11.59,32.66-2.7l16.05,7.51c4.78,2.24,13.99,5.88,11.99,10.02h0c-3.06,7.09.23,13.97,2.5,21.82.05.18.07.38.05.57l-.16,1.51Z"/>
    <path class="b" d="M213.52,219.11c7.85,18.41-9.45,32.38-5.01,51.44,3.94,16.93,19.76,29.82,19,47.28-.75,17.34-17.68,29.25-20.11,46.4-1.62,11.37,3.46,22.4,6.45,33.42,2.98,11.03,2.99,25.1-5.59,31.64-7.46,5.68-17.9,2.68-25.48-2.82-1.8-1.31-3.64-2.79-5.78-3.02-4.77-.51-8.13,5.36-8.68,10.62-.55,5.26.45,10.79-1.23,15.74-3.14,9.27-14.41,12.12-22.89,8.94-8.48-3.19-15.03-10.52-21.96-16.79-6.94-6.26-15.44-11.87-24.31-10.49-9.88,1.54-19.51,11.46-28.5,6.68-5.26-2.8-7.6-9.73-8.09-16.15-.49-6.42.36-12.96-.8-19.28-2.17-11.89-10.9-20.77-16.37-31.28-5.48-10.51-6.22-26.76,3.62-32.15,5.81-3.17,13.52-1.32,18.44-5.98,5.68-5.39,3.84-15.26,2.89-23.46s2.05-19.35,9.53-18.92c8.08.47,9.54,13.38,15.83,19,7.8,6.97,20.71.79,28.8,7.34,8.04,6.5,5.79,20.09,3.25,30.73s-2.99,25.06,6.18,29.38c3.37,1.59,7.22,1.22,10.81.43,4.69-1.02,9.75-3.14,11.8-7.91,4.33-10.08-8.09-22.1-3.66-32.12,2.24-5.07,8.12-7.36,10.06-12.58.93-2.51.8-5.35.38-8.03-2.54-16.36-14.82-31.05-11.91-47.33,1.38-7.72,6.1-14.43,6.88-22.25.93-9.26-3.79-17.89-6.42-26.75-2.63-8.85-2.1-20.74,5.49-24.83,4.88-2.62,10.72-.86,16.06-1.95,11.21-2.29,19-16.74,30.37-15.85,10.02.78,15.17,13.4,16.48,24.39.72,6.08-1.23,9.18-5.53,16.51"/>
  </g>
  <path class="c" d="M294.13,303.98c-4.54,11.34-14.71,16.38-15.75,24.24-1.35,10.18,10.33,21.45,13.28,31.26,4.6,15.3-2.12,21.11-7.44,37.17-7.13,21.5-.14,29.05,1.3,29.8,4.39,2.27,22.82-12.37,24.3-12.92,9.33-3.48,8.46-22.69,9.01-32.67.55-9.99,2.42-21.63,10.96-26.78,9.07-5.48,17.12-8.03,25.98-13.84,6.8-4.46,5.35-10.89,10.53-17.18,11.36-13.81,35.18-7.91,45.86,6.33,5.84,7.79,9.05,18.83,4.22,27.34-4.16,7.32-13.14,10.88-17.19,18.26-6.28,11.46,1.87,26.7-3.86,38.45-7.15,14.68-30.16,13.81-39.27,27.35-8.62,12.79-1.25,33.37-12.96,43.37-7.7,6.57-20.42,4.99-27.17,12.55-8.68,9.72-1.76,28.1-11.92,36.25-3.35,2.68-7.77,3.44-11.99,4.11-14.1,2.24-28.21,4.47-42.31,6.71-5.83.92-12.32,1.71-17.17-1.64-8.88-6.13-5.36-20.22.53-29.35s13.64-19.43,10.19-29.72c-3.7-11.04-18.32-14.77-23.17-25.34-7.9-17.21,15.14-36.16,10.06-54.43-3.68-13.22-18.17-19.79-13.77-35.05,4.19-14.53,18.91-23.14,18.47-40.27-.65-25.24-22.5-29.59-3.86-62.49,4.71-8.31,19.79-11.36,32.6-2.52l16.06,7.48c4.78,2.23,14,5.87,12.02,9.94h0c-3.03,6.99.29,13.79,2.59,21.55.05.18.07.37.05.56l-.15,1.49Z"/>
  <path class="c" d="M199.56,223.02c7.85,18.41-9.45,32.38-5.01,51.44,3.94,16.93,19.76,29.82,19,47.28-.75,17.34-17.68,29.25-20.11,46.4-1.62,11.37,3.46,22.4,6.45,33.42,2.98,11.03,2.99,25.1-5.59,31.64-7.46,5.68-17.9,2.68-25.48-2.82-1.8-1.31-3.64-2.79-5.78-3.02-4.77-.51-8.13,5.36-8.68,10.62-.55,5.26.45,10.79-1.23,15.74-3.14,9.27-14.41,12.12-22.89,8.94-8.48-3.19-15.03-10.52-21.96-16.79-6.94-6.26-15.44-11.87-24.31-10.49-9.88,1.54-19.51,11.46-28.5,6.68-5.26-2.8-7.6-9.73-8.09-16.15s.36-12.96-.8-19.28c-2.17-11.89-10.9-20.77-16.37-31.28-5.48-10.51-6.22-26.76,3.62-32.15,5.81-3.17,13.52-1.32,18.44-5.98,5.68-5.39,3.84-15.26,2.89-23.46-.95-8.2,2.05-19.35,9.53-18.92,8.08.47,9.54,13.38,15.83,19,7.8,6.97,20.71.79,28.8,7.34,8.04,6.5,5.79,20.09,3.25,30.73-2.55,10.64-2.99,25.06,6.18,29.38,3.37,1.59,7.22,1.22,10.81.43,4.69-1.02,9.75-3.14,11.8-7.91,4.33-10.08-8.09-22.1-3.66-32.12,2.24-5.07,8.12-7.36,10.06-12.58.93-2.51.8-5.35.38-8.03-2.54-16.36-14.82-31.05-11.91-47.33,1.38-7.72,6.1-14.43,6.88-22.25.93-9.26-3.79-17.89-6.42-26.75-2.63-8.85-2.1-20.74,5.49-24.83,4.88-2.62,10.72-.86,16.06-1.95,11.21-2.29,19-16.74,30.37-15.85,10.02.78,15.17,13.4,16.48,24.39.72,6.08-1.23,9.18-5.53,16.51"/>
  <ellipse cx="134.62" cy="447.04" rx="5.58" ry="5.25"/>
  <ellipse cx="266.86" cy="521.61" rx="5.58" ry="5.25"/>
  <ellipse cx="244.93" cy="277.07" rx="5.58" ry="5.25"/>
  <ellipse cx="41.96" cy="357.12" rx="5.58" ry="5.25"/>
  <ellipse cx="185.62" cy="202.5" rx="5.58" ry="5.25"/>
  <ellipse cx="392.97" cy="340.67" rx="5.58" ry="5.25"/>
</svg>