<?xml version="1.0" encoding="UTF-8"?>
<svg id="a" data-name="Layer 1" xmlns="http://www.w3.org/2000/svg" viewBox="0 0 961.58 660.84">
  <defs>
    <style>
      .b {
        fill: #7900c2;
      }

      .b, .c, .d, .e, .f {
        stroke: #000;
        stroke-miterlimit: 10;
        stroke-width: 2px;
      }

      .c {
        fill: #fbc710;
        opacity: .32;
      }

      .d {
        fill: #fff;
      }

      .e {
        fill: #32c39b;
        opacity: .69;
      }

      .f {
        fill: #790040;
      }
    </style>
  </defs>
  <ellipse class="b" cx="474.21" cy="328.39" rx="463.41" ry="313.76"/>
  <path class="e" d="M474.21,10.01C218.28,10.01,10.81,150.48,10.81,323.76s207.47,313.76,463.41,313.76,463.41-140.47,463.41-313.76S730.15,10.01,474.21,10.01ZM750.36,88.24c13.85,3.96,19.6,8.86,28.41,12.91l16.33,10.95c6.2,4.76,8.66,9.72,10.76,16.53,2.3,7.47,2.08,15.27.4,22.9-2.62,11.89-10.52,16.42-16.73,26.89-3.78,6.37-3.95,9.15-3.78,13.94.2,5.54,1.58,9.82,4.5,14.51,4.26,6.82,11.21,11.55,19.11,13.01,5.61,1.04,12.48,2.63,17.61,1.76,5.93-1,12.34-4.14,15.34-9.36,2.83-4.94,4.98-6.74,6.24-13.87.94-5.36,5.37-12.38,9.86-15.46,4.94-3.38,6.94-1.82,10.79,2.44,2.22,2.46,6.69,9.69,8.37,12.55,3.44,5.87,3.93,9.14,2.59,11.95-2.93,6.14-14.02,18.99-19.72,22.71-13.15,8.56-14.46,13.13-29.13,4.39-8.51-5.07-17.68-4.44-24.84-2.2-4.38,1.37-15.93,6.67-20.91,16.13-4.07,7.72-8.89,19.57-15.43,25.34-16.95,5.99,1.75-33.93-1.69-50.51-.98-4.72-5.3-11.95-8.66-15.41-5.53-5.69-12.49-9.59-19.32-15.73-3.98-3.59-1-13.34,8.56-21.11,9-7.31,10.99-11.47,18.82-20.16,7-7.77,15.36-15.04,13.96-22.28-2.07-10.78-4.24-15.03-12.47-22.29-1.47-1.29-16.32-11.71-22.41-16.17-5.98-4.38-3.98-6.47,3.45-4.35ZM726.25,145.12c1.77-3.57,10.02-17.24,15.81-21.78,2.18-1.71,9.62-.76,10.78,1.76,3.78,8.27-7.11,12.42-19.38,24.37-7.02,6.83-20.12,16.25-29.68,36.17-5.14,10.71-4.03,25.47,5.19,32.66,7.02,5.48,13.54,8.42,15.72,10.36,7.17,6.37,8.62,11.5,8.48,17.33-.45,17.97-6.02,22.71-6.29,34.85-.27,12.14,1.16,24.84,10.89,32.09,10.03,7.48,25.01,5.91,34.89-1.77,7.39-5.75,14.43-12.49,20.4-19.7,5.97-7.21,14.52-24.66,22.41-24.2,7.62.45,14.22,8.59,18.82,9.41,10.59,1.88,14.97.34,24.23-5.13,8.79-5.19,7.14-7.56,13.71-16.58,1.05-1.44,3.51-3.87,8.56-8.37,1.33-1.19,2.29-2.54,5.21-4.35l3.54-1.89c.72-.38,1.96-.81,2.77-.95,2.2-.37,4.1,2.37,4.19,2.9,1.28,8.07.59,13.99-2.91,20.02-2.67,4.6-4.77,8.27-8.56,12.75-8.58,10.14-21.02,13.86-34.26,14.94-7.46.61-16.09-4.28-23.57-4.48-12.21-.32-14.04,2.5-22.93,10.86-7.62,7.17-9.86,14.22-10.46,26.42-.19,3.96-2.96,14.95-3.73,18.84-.77,3.89-.88,8.53-2.83,11.98-3.45,6.1-8.68,4.51-11.07,3.71-6.76-2.26-11.83-14.4-16.58-19.72-2.73-3.06-9.51-9-13.44-10.16-7.49-2.21-13.84-2.78-17.63-1.2-2.28.95-9.72,4.85-11.22,6.81-7.14,9.32-5.42,17.21-6.6,28.89-.8,7.93,3.35,24.56-5.48,27.64-2.83.98-16.84-2.07-19.72-2.89-10.78-3.07-16.98-7.71-24-16.43-.69-.86-5.04-10.13-4.78-15.83.44-9.68,6.28-13.8,9.76-21.11,7.58-15.92,9.38-17.07,10.36-39.93.17-3.96-2.38-21.02-4.08-24.6-4.49-9.41-9.48-14.71-10.16-25.99-.13-2.24,6.09-11.23,7.07-13.24,2.9-5.98,6.27-6.37,9.71-11.91,5.3-8.55,5.99-17.68,5.43-27.72-.13-2.32-.4-5.43.42-11.3.71-5.06,5.29-10.32,10.22-11.68,12.37-3.39,23.06-6.27,30.79-21.84ZM526.57,442.17c25.54,0,36.02-4.26,55.27,7.47,10.17,6.2,11.33,9.52,15.83,17.33,2.18,3.78,4.74,15.68-7.17,11.05-25.39-9.86-53.33-20.78-74.39-13.74-25.38,8.48-43.12,25.18-69.38,36-20.59,8.48-66.35-.53-85.38-12.1-11.81-7.18-15.63-18.81-28.08-24.8-16.24-7.81-25.44-9.26-43.4-10.83-15.7-1.38-24.19-5.27-28.87-7.24-9.56-4.03-14.07-10.01-13.17-18.67.4-3.82,2.39-10.19,11.65-13.15,11.62-3.71,14.75-6,33.46-7.47l20.61.6c19.12.9,23.15,2.99,39.14,7.47,6.09,1.71,19.38,8.29,24.05,12.55,23.75,21.66,32.86,30.02,45.86,34.79,20.59,7.55,32.65-5.73,45.41-24.63,4.03-5.98,5.71-9.19,8.37-21.06,3.77-16.86,4.17-44-17.36-67.6-5.64-6.19-5.57-9.47,4.98-4.42,7.66,3.67,22.95,22.93,33.89,26.02,13.18,3.73,25.1-1.19,28.23-5.53,2.24-3.09,3.84-9.81,6.12-15.39,2.39-5.83.82-28.93,10.07-31.96,8.98-2.94,12.4,10.24,16.82,15.82,7.31,9.23,15.69,14.31,25.99,20.02,9.15,5.06,26.99,12.33,33.16,20.76,8.29,11.33,16.27,29.36,24.42,38.87,10.57,12.32,33.87,14.84,48.32,22.23,7.68,3.93,10.52,27.42,5.23,35.03-5.07,7.29-27.63,14.56-42.57,9.04-22.14-8.19-36.61-27.14-43.92-49.59-5.41-16.6-6.65-33.86-19.57-40.63-7.51-3.94-21.81-9.41-33.45-8.48-13.13,1.05-16.91,2.13-28.84,7.73-17.48,8.22-24.65,16.28-26.29,34.95-1.25,14.21,10.68,19.57,24.95,19.57ZM457.27,151.69c-2.12-7.25-16.13-17.8-15.98-25.24.13-6.56,5.98-6.09,10.01-5.08,23.53,5.9,17.88,37.41,44.07,42.12,14.94,2.69,27.04-2.54,34.06-7.17,12.17-8.03,9.18-13.36,23-17.02,2.92-.77,9.71,1.19,12.25,3.87,9.85,10.43,17.65,35.64,9.56,47.5-5.77,8.46-13.87,12.87-24.05,11.8-10.18-1.07-20.46-6.57-30.32-11.95-9.92-5.41-13.17-8.36-24.42-9.36-3.62-.32-13.03.78-16.06,2.78-4.79,3.16-8.51,12.73-9.23,18.42-1.17,9.27-2.4,19.37-5.26,28.26-2.02,6.27-4.03,9.04-10.9,10.53-11.64,2.53-24.3-3.84-34.73-9.59-20.24-11.17-45.78-8.78-55.49,16.54-5.9,15.38-10.5,34.1-25.84,42.5-6.15,3.36-17.48,4.63-25.99,1.72-11.59-3.97-21.21-15.41-27.04-25.92-5.75-10.38-12.77-15.83-20.46-18.37-5.17-1.71-14.94-2.57-20.54-1.87-9.63,1.22-27.69,10.82-37.27,12.36-10.01,1.61-23.64-9.26-24.35-17.96-1.15-14.04,10.83-17.08,17.03-17.93,21.96-2.99,25.1-9.69,39.89-10.01,3.43-.07,9.98,3.1,11.72,4.52l8.59,5.78c3.44,2.07,7.86,8.81,15.68,16.58,9.67,9.59,8.01,6.32,20.75,17.67,5.44,4.84,12.9,6.78,19.99,5.1,8.11-1.92,13.68-3.94,17.96-8.73,4.86-5.44,3.82-6.28,6.57-11.5,3.23-6.14,6.47-17.18,10.46-22.85,3.98-5.68,13.41-11.59,22.11-14.04,3.34-.94,13.61-.02,17.03.54,17.6,2.91,25.49,4.91,40.78,2.89,3.04-.4,8.59-.98,13.59-4.63,3.76-2.75,10.75-11.09,12.55-15.39,5.65-13.53,4.41-22.83.3-36.9ZM261.87,302.71c3.64-4.11,16.32-10.14,20.61-6.72l22.11,23.3c37.82,26.71,47.38,11.38,67.07-22.41,5.68-9.74,20.28-22.25,30.62-26.74,15.42-6.69,35.83,8.89,52.58,10.31,16.27,1.38,29.53-7.44,41.38-18.67,7.27-6.89,11.92-14.5,15.39-23.9,3.49-9.44,7.46-17.11,17.48-17.03,6.35.05,19.66,8.34,25.99,7.77,13.68-1.23,25.93-22.74,37.05-10.7,1.76,1.9,8.5,27.46,9.86,29.67,8.96,14.64,25.79,12.94,34.8,23.6,8.37,9.89,6.24,29.61-.15,41.23-3.29,5.98-15.07,14.18-23,13.15-14.79-1.93-19.58-8.48-28.98-20.32-7.02-8.83-7.56-11.93-17.26-36.92-2.4-6.18-12.99-17.4-19.33-19.36-10.95-3.39-22.64,5.15-29.88,14.04-7.24,8.89-7.89,25.84-9.51,37.19-1.5,10.55-5.12,24.52-16.63,23.3-1.72-.18-3.39-.73-4.93-1.51-12.94-6.59-24.04-16.17-36.56-23.47-11.67-6.8-28.76-13.58-42.02-11.01-13.26,2.57-11.48,13.47-10.36,26.93,1.17,13.93,5.55,21.51,14.14,32.53,6.85,8.78,17.36,21.31,20.32,33.46,1.75,7.18,2.1,19.03-10.76,21.11-12.2,1.98-22.99-4.03-24.3-5.18-14.56-12.83-19.05-28.72-35.05-39.83-23.5-16.33-62.47-.38-88.52-3.98-10.73-1.49-18.37-2.32-25.4-10.56-4.91-5.74-2.49-21.52,13.24-39.27ZM370.93,77.33c1.49-4.63,10.18-11.02,18.17-12.14,5.87-.82,16.78,2.25,22.11,4.13,31.44,11.13,48.51,19.68,63.01,23.3,4.51,1.13,12.24-5.48,12.98-11.01.36-2.66.07-5.88-2.49-7.51-10.28-6.54-24.76-9.84-30.88-19.92-4.5-7.4,1.33-10.21,4.32-10.74,10.37-1.84,24.44,1.22,32.94,5.23,10.66,5.03,24.13,13.45,33.76,20.24,17.43,12.29,16.27,22.61,36.6,29.05,3.29,1.04,9.43,2.85,12.85,2.39,3.42-.46,7.71-3.8,8.44-7.17.82-3.83.15-6.87-1.64-12.03-1-2.89-15.59-22.31,5.08-17.03,4.9,1.25,16.28,7.99,19.27,11.05,8.33,8.54,8.48,10.66,14.71,20.84,3.77,6.16,5.15,7.76,10.43,12.37,2.95,2.58,8.51,5.34,12.36,6.09,5.49,1.07,17.72,4.7,21.48-14.75,1.87-3.36,2.82-6.82,6.89-12.91l3.88-3.29c4.44-1.91,9.64-.92,15.25,1.47,4.73,2.02,4.41,1.73,8.36,5.03,3.21,2.69,5.41,6.19,6.12,8.07,3.36,8.89,4.65,13.97,3.81,19.04-1.42,8.59-2.43,9.26-6.42,9.86-5.73.86-16.14-2.71-21.42-.34-3.28,1.47-14.03,4.88-16.33,7.64-8.14,9.78-19.52,20.6-23.1,31.4-2.99,8.99-5.43,14.45-3.19,31.87,1.41,10.94-4.48,20.75-6.77,22.71-4.02,3.44-8.23-10.12-10.95-14.65-2.73-4.53-8.48-14.53-10.95-19.21-6.27-11.84-5.88-8.56-.8-35.45,1.34-7.12-1.6-13.87-6.59-19.17-3.49-3.71-7.68-6.69-12.26-8.93-10.83-5.3-21.92-10.94-33.89-13.03-9.93-1.73-20.66-.8-29.24,4.48-5.01,3.08-16.24,10.72-22.05,9.78-3.24-.52-12.95-9.27-15.14-11.7-17.2-19.09-48.88-34.16-85.18-17.99-16.81,7.49-27.97,1.65-31.26-2.46-3.85-4.81-4.46-7.76-2.25-14.63ZM114.44,193.6c.44-4.95-1.64-5.62,14.04-14.44,4.33-2.43,24.77-3.94,29.71-3.49,11.5,1.05,16.22-.85,23.99-4.18,5.16-2.21,9.73-4.98,15.7-11.35,1.48-1.57,5.76-9.58,5.78-12.75.04-7.66-2.77-6.77-2.44-15.52.21-5.66-.92-11.26,2.54-15.74,4.49-5.81,11.41-5.41,16.28-1.89,6.52,4.72,12.93,16.27,16.13,22.95,2.61,5.45,12.75,17.7,17.03,21.96,5.24,5.21,11.52,10.65,17.5,9.86,8.15-1.08,8.66-3.53,17-6.57,2.56-.93,6.64-.09,9.71,4.03,3.41,4.59,3.06,9.02,4.78,13,2.04,4.72,7.43,3.12,12.52,3.82,5.09.7,9.79-.13,13.03-4.12,2.14-2.63,3.44-4.68,4.58-7.87,1.7-4.75,3.25-5.91,3.39-10.95.2-7.57.96-5.83.4-9.56-.52-3.48-3.68-8.93-5.78-11.75-5.13-6.91-7.37-7-12.21-9.76-4.76-2.71-12.3-2.53-16.55-1.55-3.04.7-15.16,5.21-20.69,5.71-10.1.91-20.61-21.5-22.03-32.6-1.23-9.6,15.57-24.91,24.95-27.34,9.37-2.43,16.24,7.13,21.96,14.94,6.12,8.37,9.11,10.85,19.57,15.24,4.39,1.84,13.24,5.97,15.98,9.86,5.34,7.55,12.79,19.95,22.03,19.9,9.24-.05,17.08-.69,26.22.72,9.14,1.41,8.09,1.13,14.66,4.41l10.11,8.7c2.09,4.78,1.49,5.65,2.55,11.79,1.64,9.56-5.24,13.49-11.35,14.74-7.32,1.49-11.34-3.21-13.54-4.38-11.15-5.94-7.92-5.52-18.92-7.77-3.12-.64-12.3-.99-15.34,0-3.2,1.04-9.01,5.88-10.36,9.76-4.68,13.51-20.11,20.6-28.08,27.49-10.73,9.26-13.35,25.79-22.26,28.5-6.5,1.98-14.95-13.69-20.33-22.05-6.16-9.59-4.15-13.81-11.86-22.2-7.72-8.39-16.23-8.89-27.63-8.89-9.77,0-15.24.72-24.36,4.26-12.64,4.9-21.4,6.3-33.91,13.44-5.44,3.11-13.56,7.97-19.4,10.23-5.43,2.11-19.1,2.19-24.79,3.45-6.72,1.49-20.96-4.82-20.32-12.04ZM175.09,506.01c-12.22-38.32-13.8-58.93-26.59-94.53-3.78-10.53-3.3-21.27-10.76-27.95-5.13-4.6-13.57-1.1-19.12,2.99-7.45,5.49-9.28,9.93-16.73,15.42-3.29,2.43-12.2,22.08-21.81,22.82-7.77.6-10.28-8.13-10.76-9.56-2.36-7.18-1.26-20.03.6-27.49,6.41-25.68,56.76-28.33,63.31-57.56,2.83-12.62-2.23-25.56-7.65-37.3-2.13-4.63-4.56-9.48-8.91-12.14-4.63-2.83-2.26-9.82-14.19-11.61-5.37-.81-12.31,9.1-16.73,12.25-7.33,5.21-15.78,14.8-24.5,12.6-7.63-1.92-12-6.62-13.96-14.24-4.35-16.89.72-34.69,7.26-46.8,3.83-5.58,8.38-13.54,16.4-15.27,11.99-2.59,21.57,8.19,30.3,13.57,8.48,5.23,19.2,7.1,28.85,4.39,5.17-1.45,12.57-4.45,15.78-.15,5.5,7.36,2.92,13.15,5.17,21.91,3.66,14.22,23.17,22.92,37.71,24.91s38.33-7.12,44.69,2.09c3.95,5.71-8.76,19.16-16.88,23.73-15.18,8.53-27.32,29.44-10.09,48.25,4.69,5.12,11.42,7.83,18.01,10.03,10.98,3.67,22.27,6.41,33.7,8.17,5.63.87,12.94,3.38,12.49,9.06-.39,5.01-6.62,6.93-11.6,7.65-14.44,2.09-29.15,4.66-41.91,11.74-12.76,7.08-33.93,17.49-35.07,32.03-2.07,26.42,49.31,60.63,20.45,85.64-4.15,3.59-21.49,4.16-27.49-14.64ZM733.07,527.12c-14.07,8.56-32.51.47-47.16,8.01-13.17,6.78-23.84,20.57-35,30.62-11.01,9.92-32.71,23.75-54.07,20.76-18.67-2.61-39.98-14.38-57.66-20.91-21.46-7.93-38.37-7.4-60.35-1.05-21.97,6.35-45.63,21.66-67.97,26.59-9.97,2.2-23.06.04-32.86-2.84-8.32-2.44-15.98-10.68-23.15-15.54-21.79-14.75-49.73-13.52-75.96-11.35-15.96,1.32-28.31.3-44.44-.3-2.26-.08-22.42-5.68-24.05-7.24-2.43-2.32-8.81-5.38.19-11.39,2.79-1.87,7.85-4.42,10.83-5.98,9.77-5.12,10.48-3.94,16.02-11.17,6.02-7.85,5.3-11.02,6.12-15.01l.37-12.62c-.9-8.44-2.55-11.63-5.3-17.85-2.67-6.03-5.38-15.39-.67-19.12,2.69-2.14,22.08,7.36,25.32,8.51,34.86,12.41,69.48,42.22,105.56,60.98,38.44,19.98,86.83,9.53,131.35-16.16,19.33-11.16,36.24-21.39,56.46-11.95,8.13,3.8,22.11,12.55,33.76,12.25,14.5-.37,19.44-10.48,33.76-12.85,13.16-2.17,34.18,12.75,47.5,13.44,19.96,1.04,35.55-23.32,53.33-14.19,12.85,8.26,14.79,22.26,8.07,26.35ZM917.44,388c-1.4,2.86-11.29,9.52-14.38,10.28-3.15.77-14.62-4.15-17.49-5.69-6.59-3.53-7.12-3.43-12.36-8.76-3.42-3.48-7.64-10.88-12.53-14.55-2.97-2.22-13.9-6.86-17.61-6.72-13.69.53-16.41,1.61-24.42,7.51-11.03,8.14-14.84,25.05-10.76,33.66,4.02,8.48,10.34,7.39,19.72,6.97,7.09-.31,19.92-4.78,25.1-1.2,2.48,1.72,4.86,13.59,4.38,16.53-.55,3.33-2.6,11.97-3.78,15.14-.78,2.09-7.76,12.44-10.95,12.35-2.2-.07-10.2-2.28-11.59-3.99-9.77-11.97-27.93-31.24-43.17-34.07-14.25-2.65-12.18-2.05-22.56,8.08-3.76,3.66-4.46,11.18-4.48,16.43-.01,3.02,2.06,13.68,4.12,15.89,16.58,17.75,19.96,13.35,34.15,15.44,4.1.61,7.22,3.94,7.67,8.06,1.01,9.19,1.31,16.71.66,19.46-1.8,7.67-5.26,12.66-10.16,18.82-3.15,3.96-9.35,13.45-17.63,18.52-14.1,8.64-15.98,4.78-8.07-6.35,5.01-7.04,6.11-14.78,5.82-18.65-.54-7.13-9.61-16.39-16.43-19.41-9.47-4.19-18.08-4.73-24.84-5.98-8.2-1.51,2.98-9.46,12.94-17.52,6.48-5.25,4.62-9.08,2.5-19.03-1.76-8.27-2.22-8.53-7.17-15.24-2.41-3.26-8.84-14.89-10.61-18.53-2.89-5.97-4.16-12.95-2.69-17.2,3.58-10.36,7.21-14.19,12.85-17.9,3.73-2.45,8.63-1.21,13.11,1.7,4.09,2.66,2.97,3.6,6.44,6,3.91,2.71,9.38,6.96,14.09,7.53,5.56.67,11.18-.94,16.44-3.83,9.44-5.17,13.51-9.51,17.93-19.33,3.95-8.77,5.46-18.6,5.98-29.58.45-9.61,3.71-33.36,13.29-34.15,14.58-1.2,22.48,7.28,35.7,5.58,13.94-1.79,27.34-5.07,34.66-16.54,4.25-6.67,8.31-17.36,11.01-25.1,2.79-7.99,7.7-15.7,7.99-9.5,0,.04-1.72,25.75-1.72,25.79-1.65,17.68-3.34,15.09-5.13,36.6v22.71c.4,6.77,3.45,15.51,3.34,20.02-.22,9.08,3.34,14.18.64,19.72Z"/>
  <path class="c" d="M480.11,12.28C224.33,12.28,16.98,152.76,16.98,326.04s207.35,313.76,463.13,313.76,463.13-140.47,463.13-313.76S735.88,12.28,480.11,12.28ZM787.14,116.4c-1.29-1.14-17.96-14.1-23.32-18.02-5.26-3.86,7.83-.02,13.34,3.98,5.69,4.14,7.98,4.78,15.72,9.76l9.43,7.45c5.45,4.2,6.45,9.43,8.29,15.43,2.02,6.58.69,14.81-.8,21.54-2.31,10.47-10.85,14.29-16.32,23.5-3.33,5.61-4.33,13.1-4.18,17.33.17,4.88,4.59,15.19,7.17,19.32,3.75,6.01,10.36,8.47,17.32,9.76,4.94.91,17.87,3.85,22.39,3.09,5.22-.88,15.98-8.25,18.61-12.85,2.7-4.71,4.79-6.81,5.83-14.4.62-4.51,3.17-8.54,6.93-11.11,4.33-2.96,4.56-2.14,7.94,1.61,1.96,2.16,5.89,9.63,7.36,12.15,3.02,5.17.98,9.28-.2,11.75-2.58,5.41-13.49,13.06-18.51,16.33-11.57,7.54-13.59,8.67-26.51.97-7.49-4.46-20.13-.76-26.44,1.22-3.86,1.21-14.13,3.22-18.51,11.55-2.84,5.4-4.61,12.39-8.91,19.53-2.07,3.43-7.36,1.88-7.25-2.12.31-11.34,7.3-29.71,5.06-40.49-.86-4.16-4.67-10.53-7.63-13.57-4.87-5.01-10.99-8.44-17-13.86-3.51-3.16-.88-11.75,7.54-18.59,7.92-6.44,9.67-10.1,16.56-17.75,6.16-6.84,11.28-13.21,12.29-19.62,1.73-11.02,1.03-17.47-6.21-23.87ZM749.76,132.55c3.33-2.62,6.27-.87,7.27,2.54.81,2.77-9.3,8.48-10.92,9.95-6.11,5.53-12.11,11.02-17.81,16.84-.13.13-.25.26-.38.39-3.69,3.78-7.27,7.69-10.67,11.84-4.78,5.84-9.34,12.09-11.55,19.32-4.37,14.32,2.25,31.23,15.18,38.78,4.38,2.56,9.57,4.32,12.4,8.52,3.18,4.73,2.36,10.99,1.4,16.61-2.95,17.4-14.47,58.29,11.31,65.59,2.33.18,4.58.57,6.75,1.17,11.31,1.3,22.25.67,31.31-6.38,7.39-5.75,14.27-14.05,20.23-21.26,5.97-7.21,13.73-23.83,20.65-20.02,13.19,7.27,17.57,8.86,23.94,8.37,10.71-.84,8.89,1.02,18.14-4.45,8.79-5.19,9.04-9.19,15.6-18.2,1.05-1.44,2.87-4.02,7.91-8.51,1.33-1.19,2.41-3.17,5.32-4.98l2.39-1.29c.72-.38,2.11-.92,2.94.4,1,1.59.28,7.15.15,7.67-1.34,5.23-.78,6.07-4.28,12.1-2.67,4.6-2.88,4.56-6.66,9.03-16.28,19.25-39.82,10.26-60.89,9.45-9.68-.37-14.51,5.92-20.94,13.17-6.43,7.26-10.04,16.68-11.59,26.26-1.59,9.83,1.21,13.38-3.38,22.22-1.61,3.09-1.68,10.05-6.17,10.15-3.5.08-4.96-4.6-6.66-7.67-8.23-14.85-17.23-23.07-28-26.04-1.01-.12-2.03-.24-3.05-.39-1.31-.19-2.54-.45-3.7-.78-3.96-.31-8.15-.03-12.62.78-20.08,3.66-24.14,28.45-20.85,45.46,1.15,5.91,2.98,13.53-2.1,16.75-1.73,1.1-3.87,1.29-5.92,1.31-7.66.09-15.5-1.86-21.65-6.44-6.15-4.58-10.39-11.96-10.26-19.63.16-9.56,6.62-17.65,11.2-26.04,9.11-16.67,13.26-43.31,4.68-61.3-4.49-9.41-9.47-14.71-10.15-25.99-.13-2.24,6.09-11.23,7.07-13.24,2.9-5.98,5.62-7.48,9.06-13.02,5.3-8.55,3.15-15.26,2.59-25.29-.13-2.32.97-7.87,1.79-13.74.71-5.06,3.63-7.95,8.56-9.3,7.68-2.11,14.56-5.19,20.52-10.95.13-.13.26-.26.38-.39,3.47-3.45,6.64-7.83,9.46-13.51,1.77-3.56,6.23-11.26,12.01-15.81ZM514.83,449.55c20.07,6.97,27.87,2.39,47.37,2.39,9.91,0,19.51,2.73,26.27,5.98,11.53,5.54,13.54,20.91.8,15.14-24.17-10.94-53.74-15.36-71.26-9.5-21.11,7.05-46.73,24.19-68.56,33.19-17.13,7.06-54.82-.69-70.65-10.32-9.82-5.97-23.6-25.91-33.96-30.89-13.51-6.5-13.73-5.46-28.66-6.77-13.06-1.15-26.76-3.14-30.65-4.78-7.95-3.36-15.88-4.53-15.13-11.74.33-3.18,1.98-8.48,9.69-10.94,9.66-3.09,9.78-1.59,25.34-2.82h19.11c15.9.75,17.76,2.64,31.05,6.37,5.06,1.42,23.98,11.99,27.87,15.54,19.75,18.02,25.02,29.49,35.83,33.46,17.12,6.28,43.53-2.59,54.14-18.32,3.35-4.97,15.3-24.37,17.52-34.26,3.14-14.03,4.92-17.8.93-36.92-1.42-6.82-10.51-18.67-1.73-14.46,6.37,3.05,8.42,7.78,17.52,10.36,10.96,3.1,11.35.15,19.91-1.59,8.58-1.75,14.27-15.09,15.92-19.92,4.33-12.6,1.05-28.94,7.96-28.68,7.85.29,9.46,7.7,13.14,12.35,6.08,7.68,2.58,6.01,11.15,10.76,7.61,4.21,38.26,18.47,43.39,25.49,6.9,9.43,24.7,39.49,31.49,47.4,8.79,10.25,30.54,8.2,42.56,14.34,6.39,3.27,8.38,18.76,3.98,25.1-4.21,6.07-19.7,13.36-32.13,8.76-18.42-6.82-32.65-20.95-38.73-39.63-4.5-13.81-13.94-44.75-24.68-50.39-6.25-3.28-24.55-10.33-34.24-9.56-10.92.87-41.41,10.51-49.17,18.25-12.39,12.38-12.37,17.59-13.73,33.13-1.04,11.83,2.95,20.93,10.35,23.5ZM473.01,159.71c-2.12-7.25-14.15-20.31-17.02-27.19-2.18-5.23,1.79-5.98,6.27-2.99,20.17,13.45,11.15,36.22,37.32,40.93,14.93,2.69,32.69-1.05,39.71-5.68,12.17-8.03,8.59-12.47,22.39-16.13,2.92-.77,9.03,4.37,11.05,7.47,6.11,9.38,10.15,24.2,4.32,33.45-5.46,8.65-11.56,9.85-21.73,8.78-10.17-1.07-20.45-6.57-30.31-11.95-9.92-5.41-13.16-8.36-24.41-9.36-3.61-.32-13.02.78-16.05,2.78-4.78,3.16-8.51,12.73-9.22,18.42-1.17,9.27-2.4,19.37-5.26,28.26-2.02,6.27-4.03,9.04-10.9,10.53-11.63,2.53-24.29-3.84-34.71-9.59-20.23-11.17-45.76-8.78-55.46,16.54-5.89,15.38-13.66,35.18-23.49,44.19-5.17,4.73-13.02,4.38-21.52,1.46-11.58-3.97-17.74-8.58-23.56-19.09-5.75-10.38-22.45-22.26-30.14-24.8-5.17-1.71-14.73-.11-20.32.6-9.62,1.22-17.89,7.43-27.47,8.96-10,1.61-20.96-.57-25.06-7.93-3.91-7.01,4.25-13.84,10.43-14.78,12.69-1.93,24.33-9.84,39.11-10.16,3.42-.07,7.54,2.75,9.28,4.17l9.83,7.19c3.43,2.07,5.33,3.29,13.15,11.05,9.66,9.59,13.53,9.86,26.26,21.21,5.43,4.84,18.3,6.16,25.38,4.48,8.11-1.92,14.53-9.55,18.81-14.34,4.86-5.44,5.31-13.3,8.06-18.52,3.23-6.14,5.27-9.56,9.26-15.24,3.98-5.68,8.63-6.51,17.32-8.96,3.34-.94,19.27,1.53,22.69,2.09,17.59,2.91,20.1,3.82,35.38,1.81,3.04-.4,11.57-5.03,16.57-8.68,3.76-2.75,10.15-14.82,11.94-19.12,5.65-13.53,6.2-15.8,2.09-29.88ZM273.78,314.47c3.64-4.11,12.42-9.8,16.72-6.37l20.9,18.78c32.46,23.76,49.56,19.26,69.47-18.38,6.98-13.2,21.91-25.59,32.25-30.07,15.42-6.69,33.02,8.74,49.76,10.16,16.26,1.38,24.58-1.11,36.43-12.35,7.27-6.89,18.83-13.31,22.29-22.71,3.48-9.44,5.57-22.47,15.53-23.5,10.57-1.1,22.14,9.73,28.46,9.16,13.68-1.23,21.69-21.41,31.05-7.97,4.58,6.57,6.02,25.06,7.37,27.27,8.96,14.64,24.22,11.86,33.24,22.52,8.37,9.89,10.74,24.36,3.78,31.87-3.75,4.05-11.86,9.94-19.51,7.57-14.13-4.38-15.93-17.06-24.58-24.9-8.36-7.57-9.12-6.88-18.81-31.87-2.4-6.18-13.53-16.78-20.04-18.03-22.89-4.38-37.65,16.17-41.75,26.87-3.89,10.14-3.07,15.06-4.69,26.41-1.5,10.55-.06,24.2-11.35,21.71-4.98-1.1-14.58-7.58-16.12-8.36-12.93-6.59-21.33-12.82-33.84-20.12-11.66-6.8-22.98-7.35-36.23-4.78-13.25,2.57-15.33,18.98-11.82,35.47,3.09,14.48,8.66,23.34,17.24,34.36,6.84,8.78,11.13,11.84,14.08,23.99,1.75,7.18,4.59,17.14-8.26,19.22-12.19,1.98-24.17-17.17-25.38-18.42-13.99-14.58-22.65-28.23-31.65-30.87-18.31-5.38-35.63-4.38-61.31-.8-10.72,1.5-33.18,2.06-40.21-6.17-4.9-5.74-8.75-11.93,6.97-29.68ZM384,82.47c1.49-4.63,4.59-7.98,12.57-9.1,5.86-.82,15.29.57,20.45,2.86,11.29,5.01,23.37,9.09,34.72,12.54,7.28,1.13,13.86,3.19,19.89,5.74,9.95,2.79,18.22,5.12,23.25,7.29,4.26,1.84,5.44-10.28,6.19-15.8.36-2.66-1.76-10.57-4.31-12.19-10.28-6.54-20.67-4.89-26.79-14.98-4.49-7.4-1.58-9.08,5.29-8.18,10.44,1.36,11.35.2,19.84,4.21,10.65,5.03,25.01,14.59,34.63,21.38,17.42,12.29,10.14,18.78,30.45,25.22,3.28,1.04,19.72,6.62,25.75,5.98,5.6-.6,9.05-7.09,9.78-10.46.82-3.83-.15-8.09-1.94-13.24-1-2.89-13.9-18.28,6.42-9.76,4.66,1.95,12.54,8.37,16.12,14.94,5.71,10.48,3.03,7.15,9.26,17.33,3.77,6.16,4.58,5.55,9.85,10.16,2.95,2.58,11.34,6.75,15.18,7.5,5.49,1.07,20.46,5.68,24.23-13.77,1.87-3.36,2.61-5.4,6.87-12.85l2.56-4.85c.36-.75,1.01-1.33,1.81-1.55,3.93-1.07,7.67-.39,12.72,1.77,4.73,2.02,5.16,3.19,9.11,6.5,3.21,2.69,5.36,9.49,4.63,7.62-.08-.21,2.09,7.23,1.34,12.55-1.21,8.62-2.49.29-6.52.14-5.75-.22-10.09,2.34-16.66,3.61-3.53.68-15.21-.42-18.11,1.7-8.96,6.57-23.9,5.86-27.48,16.66-2.98,8.99-17.53,25.57-15.29,42.99,1.41,10.94,9.55,23.6,7.26,25.56-4.02,3.44-4.6-3.59-7.32-8.13s-4.09-7.87-6.57-12.55c-6.27-11.84-6.27-9.56-1.19-36.45,1.34-7.12-2.6-19.19-7.59-24.49-3.49-3.71-7.68-6.69-12.25-8.93-10.82-5.3-21.9-10.94-33.87-13.03-9.93-1.73-20.64-.8-29.23,4.48-5.01,3.08-16.23,10.72-22.03,9.78-3.24-.52-11.99-6.69-14.76-8.44-8.63-5.47-18.49-12.57-30.63-17.7-6.11-1.71-12.86-3.6-19.89-5.74-11.28-1.76-24.22-1.3-39.31,3.03-11.76,3.37-17.17,4.82-22.14,3.08-5.97-2.09-8.52-5.55-6.3-12.41ZM130.74,196.07c.44-4.95,2.11-6.89,7.9-9.23,10.55-4.27,20.4-4.57,25.34-4.12,11.5,1.05,15.28,1.34,23.05-1.99,5.16-2.21,8.51-2.77,16.16-6.97,10.15-5.58,9.36-5.78,11.94-13.54,2.42-7.27.27-10.96.6-19.72.21-5.66-3.2-17.47,1.99-19.72,5.97-2.59,8.19.93,12.03,4.03,6.27,5.04,10.45,17.57,13.65,24.26,2.61,5.45,8.94,12.97,13.22,17.23,5.23,5.21,11.38,7.7,17.02,9.86,7.41,2.84,6.81,2.05,15.14-1,2.56-.93,7.17-5.58,12.14-2.79,3.54,1.99,1.36,6.09,3.08,10.07,2.04,4.72,2.01,5.04,7.07,7.86,4.49,2.5,5.02,1.6,11.74,1.79,4.49.13,6.02.3,8.96-1.39,5.18-2.99,10.09-9.03,12.34-13.54,3.78-7.57,7.52-13.28,7.95-17.95.32-3.5-1.28-10.1-3.38-12.92-5.13-6.91-7.5-12.38-12.34-15.14-4.76-2.71-14.57-8.23-18.81-7.25-3.04.7-17.27,3.76-22.79,4.26-10.1.91-21.63-12.38-20.44-23.5.94-8.76,9.23-20.4,18.89-20.9,7.92-.41,9.65,6.92,15.37,14.73,6.12,8.37,9.11,10.85,19.56,15.24,4.38,1.84,15.03,3.78,17.78,7.67,5.33,7.55,5.41,11,15.72,16.93,8.01,4.61,15.95,2.18,25.08,3.59,9.13,1.41,14.33.1,20.9,3.39l8.54,6.49c1.42,1.08,2.55,2.48,3.32,4.09,1.56,3.25,2.65,5.24,2.12,7.48-1.63,6.83-3.23,7.2-7.61,8.83-4.28,1.59-10.15-3.68-14.15-5.87-11.08-6.05-5.11-4.63-16.11-6.88-3.12-.64-12.54-4.98-17.72-2.39-5.17,2.58-9.36,9.96-15.13,19.12-7.62,12.09-22.09,20.21-30.06,27.09-10.72,9.26-10.15,18.22-14.93,20.51-6.12,2.94-8.56-4.91-13.93-13.28-6.33-9.85-5.8-17.17-14.18-25.85-7.62-7.9-18.26-12.18-29.23-12.25-11.65-.07-18.92.04-29.04,3.97-12.63,4.9-18.95,6.6-31.45,13.74-5.44,3.11-11.88,5.9-17.72,8.17-5.43,2.11-16.21,3.91-21.9,5.18-6.72,1.49-18.36-.15-17.72-7.37ZM207.89,518.66c-3.48,3.44-16.31,1.01-21.5-16.43-10.57-35.55-14.98-64.7-26.04-97.73-3.27-9.77-7.28-26.26-16.95-26.55-5.96-.17-19.13-1.76-23.93,2.03-6.45,5.09-11.48,7.78-17.46,16.44-2.06,2.99-9.81,23.9-14.19,22.54-3.88-1.19-4.62-8.02-5.03-9.35-2.04-6.66,2.09-21.04,7.46-25.69,25.55-22.13,50.77-20.09,56.43-47.2,2.44-11.71.2-28.75-4.48-39.65-1.85-4.29-9.59-13.83-13.73-18.91-4.58-5.6-14.41-14.3-18.81-12.55-4.4,1.75-9.31,3.95-13.14,6.87-6.34,4.84-16.94,21.46-24.48,19.42-6.6-1.78-10.84-16.35-10.45-23.6.67-12.55,3.6-18.64,9.26-29.88,3.32-5.18,6.2-7.95,13.14-9.56,10.37-2.4,18.66,7.6,26.21,12.59,7.34,4.85,16.61,6.58,24.96,4.08,4.47-1.34,7.07.94,9.86,4.93,4.76,6.82,1.15,17.41,3.1,25.54,3.16,13.19,25.5,9.54,37.79,12.82,16.02,4.27,36.05-5.58,41.56,2.97,3.42,5.3-20.57,14.98-27.6,19.22-13.13,7.92-13.53,29.07,1.37,46.53,4.06,4.75,12,11.49,17.7,13.53,9.5,3.41,14.88,6.16,24.78,7.77,1.75.28,26.96,2.5,26.57,7.77-.34,4.65-22.57,3.51-26.87,4.18-12.49,1.94-22.4-.94-33.44,5.62-11.04,6.57-31.79,17.12-32.77,30.61-1.79,24.51,46.27,76.25,30.68,91.63ZM719.21,524.91c-14.88,7.05-13.39.95-28.03,8.49-13.16,6.78-26.95,8.16-38.1,18.21-11,9.92-23.43,33.68-44.7,30.19-17.64-2.9-36.3-12.47-55.73-19.92-21.76-8.33-46.36-14.2-69.22-3.29-20.63,9.85-40.03,24.35-62.35,29.28-9.97,2.2-20.06,0-29.86-2.89-8.31-2.44-17.2-10.62-23.89-16.13-25.69-21.21-52.5-18.29-76.73-12.85-15.61,3.51-25.72,4.47-41.84,3.87-2.26-.08-22.21-6.49-23.84-8.06q-2.43-2.32,5.27-4.68c3.08-.94,8.12-3.07,11.1-4.63,9.76-5.12,8.94-5.93,14.48-13.15,6.02-7.85,4.45-11.48,5.27-15.48l-.2-12.35c-.9-8.44-2.2-15.83-5.93-21.51-6.41-9.76-4.82-11.75,4.34-6.97,4.96,2.59,34.74,21.97,37.82,23.5,34.2,16.96,43.96,27.05,80.02,45.81,38.41,19.98,86.91,5.77,133.56-15.73,19.01-8.76,29.35-24.97,49.56-15.54,8.13,3.8,26.37,15.24,38.02,14.94,14.5-.37,21.82-13.67,36.13-16.03,13.15-2.17,28.59,14.94,41.9,15.64,16.74.88,19.67-7.31,31.35-11.44,3.88-1.37,8.31-2.48,11.6,0,9.9,7.45,5.88,7.93,0,10.72ZM913.57,356.44c.4,6.77,1.5,9.04,1.39,13.54-.22,9.08.46,9.16-1,14.14-.89,3.06-3.87,7.31-6.97,8.07-3.15.77-6.79,1.14-9.65-.4-6.58-3.53-8.54-3.88-11.64-6.67-10.03-9.03-16.67-24.42-32.74-23.8-12.86.5-29.32,3.93-34.06,12.1-.25.52-.51,1.06-.77,1.64h0c-6.57,18.19-12.74,26.14-8.66,34.76,6.01,12.69,17.98,8.76,28.36,8.1,1.12-.07,6-1.25,6.86-.54.63.53,4.35,3.78,4.57,4.57,2.68,9.73,2.12,9.94-2.07,19.12-.73,1.6-4.31,8.61-6.06,8.37-.94-.13-7.34-6.17-7.98-6.87-7.87-8.56-11.11-12.94-20.39-20.02-7.88-6-18.44-10.31-28.08-12.1-14.24-2.65-13.4,6.82-22.76,21.06-2.88,4.38-3.12,13.86.87,20.93,1.48,2.63,11.62,15.26,14.13,16.93,13.64,9.06,11.69,7.96,25.88,10.06,4.09.61,4.16,3.84,4.61,7.95,1.23,11.23-3.33,21.29-9.63,30.48-4.21,6.15-9.86,11.51-16.78,14.26,2.45-4.54,8.17-9.07,8.8-14.19,1.22-9.89-3.9-22.63-12.84-26.59-9.46-4.19-14.14-3.54-20.9-4.78-8.19-1.51-10.57-3.51-.62-11.58,6.47-5.25,4.37-4.01,5.99-9.93,2.24-8.18-3.55-22.73-6.27-27.49-2.01-3.51-6-11.89-7.76-15.54-3.01-6.24-4.49-6.87-5.36-13.68-.54-4.25,2.54-9.8,4.55-13.58,2.02-3.77,6.1-5.27,10.31-4.48,4.14.78,7.47,6.75,10.49,9.7,6.26,6.12,11.21,3.59,19.95,3.23,7.84-.32,15.66-3.65,21.24-9.19,5.22-5.18,6.62-12.44,9.55-18.96.2-.57.46-1.11.77-1.64,3.64-7.43,6.84-9.85,7.33-20.11.45-9.61.91-31.12,10.49-31.91,14.57-1.2,9.67-.84,25.39,1.06,13.95,1.68,19.46.38,27.78-7.47,5.74-5.41,11.9-9.26,13.89-18.22,1.84-8.26,15-30.52,15.29-24.32,0,.04-3.01,24.6-3.02,24.64-1.65,17.68-1.09,17.03-2.89,38.54l.4,20.81Z"/>
  <path class="f" d="M480.11,7.74C220.52,7.74,10.09,149.23,10.09,323.76s210.43,316.02,470.01,316.02,470.01-141.49,470.01-316.02S739.69,7.74,480.11,7.74ZM738.74,80.65c.58-1.43,2.6-1.42,4.12-1.13,10.4,1.97,20.6,5.01,30.38,9.05,17.54,7.26,34.73,19,41.19,36.8,4.71,12.98,2.81,28.14-4.95,39.57-4.79,7.05-11.82,13.14-13.28,21.52-1.27,7.28,2.18,14.77,7.4,20.03,8.29,8.36,22.34,11.66,32.28,5.32,9.74-6.21,12.64-18.73,17.6-29.13,2.03-4.25,5.01-8.67,9.64-9.68,22.71-4.98,24.39,35.49,37.01,43.13-3.85-2.33-8.98-1.48-12.82.88-3.84,2.36-6.69,5.98-9.55,9.45-5.11,6.2-10.67,12.27-17.71,16.17-7.04,3.9-15.87,5.36-23.2,2.05-4.27-1.93-7.85-5.34-12.37-6.56-4.53-1.22-9.41-.04-13.61,2.04-14.37,7.09-21.53,22.99-30.84,36-3.51,4.91-8.93,10.02-14.75,8.38-5.81-1.64-7.75-8.82-7.98-14.83-.24-6.45.35-12.92,1.75-19.22,2.36-10.58,6.79-22.5.73-31.5-3.66-5.43-10.19-8.05-15.33-12.11-11.62-9.19-17.78-13.91-9.57-27.49,7.26-12.02,18.32-22.78,29.16-31.57,4.74-3.85,10.01-7.82,11.67-13.68.47-1.67.61-3.39.5-5.11-.17-2.65-.94-5.3-2.03-7.74-7.52-16.89-28.04-20.53-35.18-38.26-.3-.75-.57-1.61-.26-2.36ZM737.97,118.13c6.69-4.41,17.32-3.98,21.18,3.03,4.09,7.45-1.65,16.46-7.88,22.25-10.86,10.07-24.2,17.59-33.31,29.26-9.11,11.67-12.49,30.03-2.01,40.49,5.51,5.5,13.75,7.72,19.04,13.43,6.1,6.58,7.02,16.46,5.84,25.34-1.19,8.88-4.15,17.51-4.62,26.45-.47,8.95,2.18,18.84,9.67,23.79,5.82,3.85,13.57,3.94,20.16,1.62,6.59-2.32,12.2-6.77,17.27-11.56,8.61-8.14,16.06-17.51,22.04-27.73.9-1.54,1.84-3.17,3.38-4.07,1.27-.73,2.79-.88,4.26-.88,5.79-.03,11.58,1.82,16.27,5.21,2.79,2.01,5.27,4.59,8.5,5.78,7.04,2.59,14.56-2.24,19.92-7.47,11.87-11.58,22.28-27.4,38.75-29.52,2.96-.38,6.45-.04,8.16,2.41.86,1.24,1.09,2.81,1.23,4.31,1.53,16.57-5.46,33.69-18.16,44.5-12.7,10.81-30.76,15-46.95,10.91-6.49-1.64-13.26-4.54-19.62-2.45-3.44,1.13-6.27,3.61-8.72,6.27-7.59,8.24-12.5,18.9-13.82,30.01-.81,6.77-.32,13.71-1.87,20.35-1.54,6.64-5.79,13.3-12.41,15.01-9.48,2.45-18.11-5.93-23.64-13.98-5.53-8.05-11.61-17.51-21.33-18.71-7.6-.94-15.06,4-18.85,10.63-3.79,6.63-4.47,14.6-3.95,22.21.69,10.07,2.41,22.39-5.85,28.25-6.48,4.59-15.4,2.16-22.85-.59-7.89-2.91-15.83-6.04-22.56-11.07-6.73-5.03-9.94-8.89-12.58-16.85-1.96-5.91-5.18-12.35,1.9-27.34,21.09-26.24,18.87-56.35,3.38-86.22-1.08-2.09-2.27-4.2-2.59-6.53-.36-2.62.43-5.26,1.47-7.69,5.3-12.38,17.28-21.41,20.8-34.4,1.88-6.96,1.11-14.32,1.56-21.52.45-7.19,2.57-14.95,8.46-19.13,5.99-4.25,14.21-3.67,20.84-6.84,7.23-3.46,11.62-10.83,15.33-17.92,3.71-7.09,7.47-14.63,14.16-19.04ZM506.02,424.62c3.41,8.38,13.2,12.43,22.25,13,9.06.57,18.11-1.44,27.18-1.05,23.42,1.01,44.87,19.99,48.39,43.14.18,1.15.08,2.35-.35,3.43-1.19,2.97-3.83,2.9-6.16,2.62-12.93-1.56-24.91-7.42-37.54-10.58-23.29-5.82-48.61-2.06-69.85,9.12-13.83,7.28-26.12,17.59-40.83,22.88-15.35,5.52-32.14,5.15-48.42,4.01-13.57-.95-27.42-2.48-39.7-8.32-21.39-10.18-35.83-32.43-58.33-39.87-13.1-4.34-27.38-3.06-40.95-5.6-13.57-2.54-27.96-11.11-29.62-24.77-1.41-11.56,7.27-22.46,17.83-27.46,10.56-5.01,22.63-5.43,34.32-5.76,23.95-.68,48.88-1.18,70.69,8.71,19.41,8.8,34.35,24.96,51.92,37,7.31,5.01,15.92,9.47,24.65,7.97,4.99-.86,9.46-3.61,13.41-6.77,25.34-20.23,31.29-60.66,12.84-87.29-3.62-5.22-9-11.71-11.34-18.2-1.39-3.86,1.86-7.89,5.91-7.27,7.33,1.13,15.11,5.09,20.29,9.46,6.88,5.81,11.66,14.86,19.55,19.21,7.89,4.35,20.3,3.63,26.96-2.44,3.69-3.37,5.02-10.83,6.42-15.62,1.95-6.67,2.59-12.08,3.48-18.97.97-7.51,1.92-13.74,9.6-16.04,3.24-.97,6.73-.32,9.64,1.4,7.02,4.15,9.89,11.57,14.53,17.65,14.87,19.49,44.63,21.88,60.81,40.3,10.4,11.84,12.7,29.77,24.56,40.16,7.31,6.4,11.98,7.74,29.92,15.07l5.15,1.91c1.12.32,2.97,1.79,7.94,4.6,5.1,2.89,10.21,6.1,13.68,10.81,7.9,10.74,4.88,26.99-4.62,36.35-9.5,9.36-23.85,12.5-37.14,11.11-22.4-2.35-43.08-17.15-52.46-37.56-8.36-18.18-8.92-41.04-24.06-54.16-13.99-12.13-35.19-10.88-52.99-5.7-7.87,2.29-15.81,5.37-21.63,11.13-5.82,5.76-9.03,14.78-5.95,22.35ZM441.04,141.64c-3.77-4.88-8.6-9.81-8.89-15.67-.25-5.12,3.4-9.48,8.08-10.99,4.68-1.51,10.13-.54,14.97,1.64,5.89,2.65,11.14,7.08,14.83,12.5,3.97,5.84,6.14,12.76,10.8,18.09,7.16,8.2,19.01,10.87,28.81,8.73,9.79-2.14,17.84-8.3,24.81-15.12,5.06-4.96,10.64-10.71,18.13-10.19,3.34.23,6.62,1.74,9.57,3.64,14.9,9.62,21.74,29.13,19.35,45.57-1.15,7.95-4.29,15.63-10.16,20.65-9.15,7.83-23.3,7.9-35.85,4.3-12.55-3.6-19.98-10.48-32.19-15.46-3.53-1.44-9.08-2.53-12.74-2.5-12.22.07-15.82,18.32-17.06,30.41-1.24,12.09-2.26,22.66-11.73,29.45-9.82,7.04-26.51.56-38.47-5.23-11.95-5.79-19.75-12.69-31.89-10.14-11.61,2.44-19.82,12.63-24.35,23.43-4.53,10.8-8.88,25.04-16.43,33.76-8.01,9.25-15.64,14.73-28.36,11.85-11.91-2.7-24.16-10.32-34.68-18.72-4.41-3.52-11.81-13.12-15.24-17.63-7.15-9.41-14.35-11.59-25.36-10.76-12.25.92-30.26,10.45-42.16,12.85-10.6,2.14-21.91-5.6-29.64-14.42-7.73-8.82-8.43-23.4-.02-29.69,9.33-6.98,24.81-6.58,35.99-9.89,6.42-1.9,12.31-5.57,19.39-5.34,25.89.83,39.84,28.6,58.92,42.9,4.35,3.17,9.23,5.78,14.33,6.49,13.25,1.84,23.28-9.26,28.98-20.57,5.7-11.31,9.85-24.43,20.38-31.3,22.78-14.87,59.23,8.56,83.16-4.58,9.24-5.07,14.91-15.3,15.5-26.29.59-10.98-3.65-22.52-10.8-31.77ZM259.81,286.72c1.11-1.43,5.28-4.15,6.98-4.78,1.65-.61,8.58-.67,10.18.06,16.9,7.71,33.46,33.65,54.1,35.79,11.9,1.24,15.52-6.61,23.45-15.54,7.93-8.92,14.23-19.12,23.3-26.89,9.9-8.48,20.23-15.39,33.28-14.99,10.93.34,28.93,7.15,39.65,9.31,10.72,2.16,33.91-8.29,41.2-16.43,13.22-14.77,13.17-38.93,27.19-43.02,11.2-3.27,19.46,7.67,36.15,7.67,8.5,0,24.63-14.2,32.95-12.42,8.06,1.72,12.53,10.3,14.72,18.21,2.18,7.92,3.47,16.65,9.25,22.51,7.73,7.84,20.81,7.76,29.23,14.85,10.97,9.23,9.79,26.26,6.41,40.16-3.22,13.21-8.76,27.56-21.17,33.24-14.56,6.66-31.73-1.86-43.29-12.91-8.98-8.58-16.36-18.81-21.67-30.03-5.15-10.88-10.66-24.56-22.65-25.9-10.19-1.14-18.83,8.29-21.66,18.11-2.83,9.82-1.75,20.31-3.13,30.44-1.37,10.13-6.35,21.01-16.07,24.26-8.42,2.82-15.62-7.33-22.98-12.28-10.33-6.94-20.23-13.19-30.32-20.46-10.09-7.28-22.43-14.08-34.66-11.74-2.93.56-5.66,8.02-5.53,11,.41,9.37,5.96,28.13,9.11,31.37,13.22,13.59,10.79,11.81,19.66,29.05,5.11,9.93,8.9,21.78,4.61,32.09-6.03,14.47-22.13,16.64-36.97,11.45-14.84-5.19-26.77-26.18-38.24-36.9-15.56-14.53-20.02-16.9-41.83-14.49-13.62,1.51-31.61,5.36-45.08,2.39-16.9-3.73-34.37-4.73-35.88-19.12-2.12-20.14,7.9-38.84,19.72-54.07ZM369.14,61.05c13.32-9.76,31.98-3.91,47.31,2.27,15.66,6.32,31.32,12.64,46.98,18.96,2.64,1.07,5.42,2.15,8.25,1.83,2.83-.32,5.66-2.59,5.54-5.42-.1-2.55-2.39-4.43-4.58-5.76-10.1-6.13-22.93-8.61-30.27-17.85-1.6-2.02-2.9-4.4-3.09-6.97-.6-8.44,10.03-12.85,18.52-13.16,30.95-1.14,59.38,17.04,81.89,38.23,7.49,7.05,15.18,14.84,25.24,17.02,1.57.34,3.24.53,4.75,0,5.39-1.88,4.17-9.97.97-14.67-3.21-4.71-7.58-10.23-5.17-15.39,2.03-4.34,7.73-5.38,12.53-5.17,14.83.64,29.23,8.15,38.21,19.93,7.18,9.41,11.11,21.38,20.11,29.07,2.91,2.48,6.55,4.5,10.37,4.21,6.13-.47,10.22-6.5,12.37-12.24,2.15-5.74,3.52-12.16,8.02-16.33,7.64-7.09,20.17-4.12,29.09,1.29,10.14,6.16,19.09,15.74,20.66,27.47,1.57,11.73-6.79,24.98-18.65,25.5-4.14.18-8.24-1.1-12.37-.88-7.73.42-14.14,5.92-19.62,11.38-10.53,10.48-20.65,23.15-21.07,37.97-.17,5.97,1.28,11.88,1.27,17.85,0,10.73-4.98,21.36-13.23,28.27-1.83,1.53-4,2.95-6.39,2.87-6.2-.21-7.39-8.61-9.16-14.53-4.04-13.59-19.72-21.42-23.23-35.16-3.12-12.22,1.41-30.47,1.63-37.48.07-2.08-2.58-5.13-5.83-8.69l-5.83-5.05c-5.69-3.86-7.2-6.57-16.92-10.08-14.53-5.25-30.99-6.32-44.8.59-8.02,4.01-15.91,10.33-24.8,9.08-10.48-1.48-16.27-12.41-23.12-20.44-13.55-15.86-37.01-22.49-56.89-16.06-12.51,4.04-24.3,12.81-37.34,11.17-9.59-1.21-18.08-8.65-20.51-17.97-2.43-9.32,1.35-19.94,9.14-25.64ZM96.29,188.07c6.34-9.77,16.49-17.03,27.81-19.88,12.26-3.09,25.22-1.13,37.76-2.73,12.54-1.6,26.12-8.69,28.41-21.08,1-5.42-.35-10.99-.25-16.5.18-10.06,6.38-20.52,16.17-23.03,10.56-2.7,21.35,4.38,27.87,13.09,6.51,8.71,10.34,19.18,16.85,27.89,6.51,8.71,17.3,15.79,27.86,13.11,7.95-2.02,16.27-9.24,22.93.72,1.47,2.2,2.19,4.77,2.5,7.39.7,5.92,8.69,13.51,13.39,7.61.63-.79,1.04-1.72,1.32-2.68,2.27-7.91,4.91-16.06,2.91-24.4-.98-4.09-3.23-7.84-6.71-10.22-12.84-8.81-29.37,6.82-44.26,3.52-11.96-2.65-17.71-15.99-21.24-27.67-2.03-6.73-3.95-13.93-2.03-20.69,1.78-6.27,6.59-11.17,11.37-15.6,5.19-4.81,10.71-9.52,17.34-12.02,6.63-2.5,14.63-2.43,20.28,1.83,6.59,4.97,5.78,9.22,11.54,15.13,5.1,5.23,4.59,8.22,11.21,11.32,6.17,2.89,10.27,3.9,15.49,5.76.78.28,1.53.66,2.22,1.11l5.92,3.85c4.35,3.54,3.94,4.98,9.87,11.7,8.57,9.7,23.42,11.23,36.31,12.69,3.84.43,7.74.7,11.38,1.99,5.31,1.88,9.64,5.82,13.27,10.12,4.71,5.59,8.55,12.19,9.38,19.44.83,7.25-1.86,15.18-7.93,19.25-7.24,4.85-17.04,3.2-25.09-.14-8.05-3.34-15.64-8.22-24.26-9.51-3.49-.52-7.29-.36-10.19,1.63-3.81,2.63-5.02,7.56-6.97,11.75-6.83,14.65-24.1,21.53-33.4,34.76-4.87,6.93-8.9,16.5-18.1,16-1.79-.1-3.51-.64-5.15-1.35-17.68-7.66-22.09-30.66-36.82-42.76-14.28-11.74-35.44-10.79-52.87-4.54-17.42,6.25-32.93,16.96-50.22,23.55-17.29,6.59-38.23,8.41-53.19-2.46-2.42-1.76-4.73-3.97-5.54-6.85-1.07-3.79.71-7.79,2.85-11.1ZM165.11,513.16c-4.94-12.1-5.41-25.45-7.44-38.35-3.26-20.76-10.75-40.85-21.87-58.7-2.2-3.53-4.68-7.11-8.32-9.13-8.34-4.63-18.94.78-25.19,7.98-6.25,7.2-10.39,16.27-17.83,22.23-2.21,1.77-4.89,3.28-7.71,3.05-2.19-.18-4.15-1.38-5.9-2.7-13.67-10.27-19.02-28.38-19.75-45.42-.29-6.73.12-13.85,3.78-19.5,5.43-8.39,16.17-11.13,25.34-15.14,19.91-8.7,36.37-28.84,33.96-50.37-.75-6.71-3.72-13.7-9.69-16.88-8.35-4.45-18.57.16-26.44,5.42s-16.36,11.52-25.75,10.29c-15-1.96-27.76-22.25-25.4-37.13,2.25-14.22,6.36-25.93,15.35-41.06,3.45-5.81,17.06-20.61,23.84-20.61,7.27,0,11.03-2.27,21.94,5.53l15.83,11.33c12.56,8.44,23.5-1.47,35.09-.35,7.94.77,14.32,12.8,15.7,18.57,2.02,8.46,1.82,16.18,6.77,21.79,6.01,6.81,10.81,11.27,26.99,12.57,15.68,1.26,14.56-2.45,32.01-4.56,33.02-3.99,27.06,16.86,9.81,33.24-6.8,6.45-29.66,18.52-25.79,35.55,3.84,16.9,25.51,24.02,42.55,26.89,9.84,1.65,31.39.92,28.76,17.55-1.99,12.5-22.58,10.44-31.49,15.19-17.75,9.48-56.95,20.34-57.04,40.39-.06,13.1,11.95,22.46,20.53,32.4,8.82,10.23,14.84,23.68,13.02,37.05-1.82,13.36-13.16,25.77-26.69,25.84-13.1.07-24.04-10.85-28.97-22.95ZM747.5,531.57c-10.62,13.65-32.26,6.62-49.28,9.9-29.55,5.68-42.52,42.44-69.99,54.69-21.22,9.46-45.95,2.2-67.37-6.8-21.42-9-43.54-19.92-66.65-17.42-12.42,1.34-24.05,6.52-35.41,11.7-24.99,11.4-51.49,23.47-78.77,20.2-5.95-.71-11.92-2.21-16.99-5.39-5.81-3.64-10.07-9.25-15.27-13.71-18.33-15.72-45.03-15.29-69.22-15.44-24.18-.15-71.14,4.96-85.29-14.58-1.51-2.09-1.39-5.92-.91-8.45.62-3.27,21.88-12.26,24.81-13.87,15.25-8.35,16.55-25.28,10.95-41.69-5.47-16.04-16.65-41.67,11.21-32.91,19.13,6.02,28.83,7.9,39.46,12.84l18.06,8.91c9.86,6.04,8.25,4.66,28.46,16.06,25.72,14.52,44.77,32.44,73.54,37.68,27.08,4.93,53.42-10.77,79.06-20.77,19.31-7.52,40.33-22.11,61.83-21.59,18.07.43,33.71,17.65,51.99,13.62,10.36-2.28,18.22-11.74,28.74-13.11,9.91-1.29,19.01,4.87,28.29,8.57,12.71,5.08,27.2,5.63,40.26,1.52,6.99-2.2,13.56-5.67,20.68-7.37,13.41-3.2,21.04,3.62,31.28,10.66,2.61,1.79,8.69,17.1,8.93,20.21.18,2.37-.94,4.66-2.4,6.54ZM914.61,397.34c-3.99,3.58-9.05,6.13-14.41,6.48-12.08.81-21.92-9.01-29.94-18.04-8.03-9.03-17.87-18.84-29.95-18.02-10.58.72-18.95,9.85-22.62,19.76-1.72,4.65-2.43,10.49,1.07,14.01,4.49,4.52,12,2.01,18.14.27,4.85-1.37,9.9-2.07,14.95-2.04,3.19.01,6.57.38,9.12,2.28,1.91,1.43,3.15,3.57,4.13,5.74,7.95,17.4,1.47,40.09-14.48,50.72-2.41,1.6-5.15,2.99-8.04,2.87-5.29-.22-8.95-5.12-12.09-9.37-5.89-7.98-12.71-15.27-20.28-21.67-7.41-6.27-16.65-11.96-26.24-10.38-9.95,1.64-17.49,11.83-16.7,21.85.79,10.02,9.32,18.72,19.28,20.35,8.09,1.33,17.15-1.32,24.12,2.98,9.02,5.57,8.52,18.84,5.13,28.86-6.11,18.06-18.17,34.08-33.86,44.99-7.15,4.97-16.76,8.9-24.28,4.53-1.21-.7-2.37-1.7-2.69-3.06-.28-1.17.12-2.4.67-3.47,4.12-8.03,16.3-11.25,17.04-20.24.35-4.24-2.24-8.21-5.39-11.08-8.68-7.92-21.15-9.65-32.37-13.2-4.72-1.49-10.12-4.42-10.24-9.36-.06-2.34,1.17-4.53,2.61-6.38,4.9-6.3,12.76-10.61,15.22-18.2,3.16-9.75-4.02-19.44-9.5-28.11-7.32-11.59-12.22-26.22-7.04-38.91,3.23-7.9,9.89-13.86,16.77-18.93,1.93-1.43,4.07-2.86,6.47-2.87,2.18,0,4.18,1.17,5.99,2.39,7.96,5.4,15.24,12.68,24.72,14.38,11.62,2.08,22.32-6.15,25.96-17.35,3.37-10.36,2.14-24.16,3.64-35.83.75-5.87,1.37-13.38,3.43-18.92,2.02-5.44,7.16-13.17,13.43-13.49,7.74-.39,13.77,3.3,18.22,3.89,9.55,1.27,15.57,1.77,23.5,1.34,5.67-.31,11.57-1.14,14.54-2.42,7.07-3.02,8.08-3.82,12.51-9.44l5.06-7.87c3.48-6.18,1.9-2.98,5.81-12.38,1.71-4.11,2.33-6.66,3.92-12.56,1.58-5.9,2.56-14.79,8.65-14.11,7.27.81,6.46,24.36,5.86,26.57-.31,1.13-.1,11.91-.2,13.08-.49,5.83-.86,8.88-1.62,13.69-2.69,17.19-.49,30.77,2.64,47.89,3.13,17.12,2.33,37.14-10.65,48.78Z"/>
  <path class="c" d="M480.11,10.01C224.33,10.01,16.98,150.48,16.98,323.76s207.35,313.76,463.13,313.76,463.13-140.47,463.13-313.76S735.88,10.01,480.11,10.01ZM787.14,114.12c-1.29-1.14-17.96-14.1-23.32-18.02-5.26-3.86,7.83-.02,13.34,3.98,5.69,4.14,7.98,4.78,15.72,9.76l9.43,7.45c5.45,4.2,6.45,9.43,8.29,15.43,2.02,6.58.69,14.81-.8,21.54-2.31,10.47-10.85,14.29-16.32,23.5-3.33,5.61-4.33,13.1-4.18,17.33.17,4.88,4.59,15.19,7.17,19.32,3.75,6.01,10.36,8.47,17.32,9.76,4.94.91,17.87,3.85,22.39,3.09,5.22-.88,15.98-8.25,18.61-12.85,2.7-4.71,4.79-6.81,5.83-14.4.62-4.51,3.17-8.54,6.93-11.11,4.33-2.96,4.56-2.14,7.94,1.61,1.96,2.16,5.89,9.63,7.36,12.15,3.02,5.17.98,9.28-.2,11.75-2.58,5.41-13.49,13.06-18.51,16.33-11.57,7.54-13.59,8.67-26.51.97-7.49-4.46-20.13-.76-26.44,1.22-3.86,1.21-14.13,3.22-18.51,11.55-2.84,5.4-4.61,12.39-8.91,19.53-2.07,3.43-7.36,1.88-7.25-2.12.31-11.34,7.3-29.71,5.06-40.49-.86-4.16-4.67-10.53-7.63-13.57-4.87-5.01-10.99-8.44-17-13.86-3.51-3.16-.88-11.75,7.54-18.59,7.92-6.44,9.67-10.1,16.56-17.75,6.16-6.84,11.28-13.21,12.29-19.62,1.73-11.02,1.03-17.47-6.21-23.87ZM749.76,130.27c3.33-2.62,6.27-.87,7.27,2.54.81,2.77-9.3,8.48-10.92,9.95-6.11,5.53-12.11,11.02-17.81,16.84-.13.13-.25.26-.38.39-3.69,3.78-7.27,7.69-10.67,11.84-4.78,5.84-9.34,12.09-11.55,19.32-4.37,14.32,2.25,31.23,15.18,38.78,4.38,2.56,9.57,4.32,12.4,8.52,3.18,4.73,2.36,10.99,1.4,16.61-2.95,17.4-14.47,58.29,11.31,65.59,2.33.18,4.58.57,6.75,1.17,11.31,1.3,22.25.67,31.31-6.38,7.39-5.75,14.27-14.05,20.23-21.26,5.97-7.21,13.73-23.83,20.65-20.02,13.19,7.27,17.57,8.86,23.94,8.37,10.71-.84,8.89,1.02,18.14-4.45,8.79-5.19,9.04-9.19,15.6-18.2,1.05-1.44,2.87-4.02,7.91-8.51,1.33-1.19,2.41-3.17,5.32-4.98l2.39-1.29c.72-.38,2.11-.92,2.94.4,1,1.59.28,7.15.15,7.67-1.34,5.23-.78,6.07-4.28,12.1-2.67,4.6-2.88,4.56-6.66,9.03-16.28,19.25-39.82,10.26-60.89,9.45-9.68-.37-14.51,5.92-20.94,13.17-6.43,7.26-10.04,16.68-11.59,26.26-1.59,9.83,1.21,13.38-3.38,22.22-1.61,3.09-1.68,10.05-6.17,10.15-3.5.08-4.96-4.6-6.66-7.67-8.23-14.85-17.23-23.07-28-26.04-1.01-.12-2.03-.24-3.05-.39-1.31-.19-2.54-.45-3.7-.78-3.96-.31-8.15-.03-12.62.78-20.08,3.66-24.14,28.45-20.85,45.46,1.15,5.91,2.98,13.53-2.1,16.75-1.73,1.1-3.87,1.29-5.92,1.31-7.66.09-15.5-1.86-21.65-6.44-6.15-4.58-10.39-11.96-10.26-19.63.16-9.56,6.62-17.65,11.2-26.04,9.11-16.67,13.26-43.31,4.68-61.3-4.49-9.41-9.47-14.71-10.15-25.99-.13-2.24,6.09-11.23,7.07-13.24,2.9-5.98,5.62-7.48,9.06-13.02,5.3-8.55,3.15-15.26,2.59-25.29-.13-2.32.97-7.87,1.79-13.74.71-5.06,3.63-7.95,8.56-9.3,7.68-2.11,14.56-5.19,20.52-10.95.13-.13.26-.26.38-.39,3.47-3.45,6.64-7.83,9.46-13.51,1.77-3.56,6.23-11.26,12.01-15.81ZM514.83,447.27c20.07,6.97,27.87,2.39,47.37,2.39,9.91,0,19.51,2.73,26.27,5.98,11.53,5.54,13.54,20.91.8,15.14-24.17-10.94-53.74-15.36-71.26-9.5-21.11,7.05-46.73,24.19-68.56,33.19-17.13,7.06-54.82-.69-70.65-10.32-9.82-5.97-23.6-25.91-33.96-30.89-13.51-6.5-13.73-5.46-28.66-6.77-13.06-1.15-26.76-3.14-30.65-4.78-7.95-3.36-15.88-4.53-15.13-11.74.33-3.18,1.98-8.48,9.69-10.94,9.66-3.09,9.78-1.59,25.34-2.82h19.11c15.9.75,17.76,2.64,31.05,6.37,5.06,1.42,23.98,11.99,27.87,15.54,19.75,18.02,25.02,29.49,35.83,33.46,17.12,6.28,43.53-2.59,54.14-18.32,3.35-4.97,15.3-24.37,17.52-34.26,3.14-14.03,4.92-17.8.93-36.92-1.42-6.82-10.51-18.67-1.73-14.46,6.37,3.05,8.42,7.78,17.52,10.36,10.96,3.1,11.35.15,19.91-1.59,8.58-1.75,14.27-15.09,15.92-19.92,4.33-12.6,1.05-28.94,7.96-28.68,7.85.29,9.46,7.7,13.14,12.35,6.08,7.68,2.58,6.01,11.15,10.76,7.61,4.21,38.26,18.47,43.39,25.49,6.9,9.43,24.7,39.49,31.49,47.4,8.79,10.25,30.54,8.2,42.56,14.34,6.39,3.27,8.38,18.76,3.98,25.1-4.21,6.07-19.7,13.36-32.13,8.76-18.42-6.82-32.65-20.95-38.73-39.63-4.5-13.81-13.94-44.75-24.68-50.39-6.25-3.28-24.55-10.33-34.24-9.56-10.92.87-41.41,10.51-49.17,18.25-12.39,12.38-12.37,17.59-13.73,33.13-1.04,11.83,2.95,20.93,10.35,23.5ZM473.01,157.44c-2.12-7.25-14.15-20.31-17.02-27.19-2.18-5.23,1.79-5.98,6.27-2.99,20.17,13.45,11.15,36.22,37.32,40.93,14.93,2.69,32.69-1.05,39.71-5.68,12.17-8.03,8.59-12.47,22.39-16.13,2.92-.77,9.03,4.37,11.05,7.47,6.11,9.38,10.15,24.2,4.32,33.45-5.46,8.65-11.56,9.85-21.73,8.78-10.17-1.07-20.45-6.57-30.31-11.95-9.92-5.41-13.16-8.36-24.41-9.36-3.61-.32-13.02.78-16.05,2.78-4.78,3.16-8.51,12.73-9.22,18.42-1.17,9.27-2.4,19.37-5.26,28.26-2.02,6.27-4.03,9.04-10.9,10.53-11.63,2.53-24.29-3.84-34.71-9.59-20.23-11.17-45.76-8.78-55.46,16.54-5.89,15.38-13.66,35.18-23.49,44.19-5.17,4.73-13.02,4.38-21.52,1.46-11.58-3.97-17.74-8.58-23.56-19.09-5.75-10.38-22.45-22.26-30.14-24.8-5.17-1.71-14.73-.11-20.32.6-9.62,1.22-17.89,7.43-27.47,8.96-10,1.61-20.96-.57-25.06-7.93-3.91-7.01,4.25-13.84,10.43-14.78,12.69-1.93,24.33-9.84,39.11-10.16,3.42-.07,7.54,2.75,9.28,4.17l9.83,7.19c3.43,2.07,5.33,3.29,13.15,11.05,9.66,9.59,13.53,9.86,26.26,21.21,5.43,4.84,18.3,6.16,25.38,4.48,8.11-1.92,14.53-9.55,18.81-14.34,4.86-5.44,5.31-13.3,8.06-18.52,3.23-6.14,5.27-9.56,9.26-15.24,3.98-5.68,8.63-6.51,17.32-8.96,3.34-.94,19.27,1.53,22.69,2.09,17.59,2.91,20.1,3.82,35.38,1.81,3.04-.4,11.57-5.03,16.57-8.68,3.76-2.75,10.15-14.82,11.94-19.12,5.65-13.53,6.2-15.8,2.09-29.88ZM273.78,312.19c3.64-4.11,12.42-9.8,16.72-6.37l20.9,18.78c32.46,23.76,49.56,19.26,69.47-18.38,6.98-13.2,21.91-25.59,32.25-30.07,15.42-6.69,33.02,8.74,49.76,10.16,16.26,1.38,24.58-1.11,36.43-12.35,7.27-6.89,18.83-13.31,22.29-22.71,3.48-9.44,5.57-22.47,15.53-23.5,10.57-1.1,22.14,9.73,28.46,9.16,13.68-1.23,21.69-21.41,31.05-7.97,4.58,6.57,6.02,25.06,7.37,27.27,8.96,14.64,24.22,11.86,33.24,22.52,8.37,9.89,10.74,24.36,3.78,31.87-3.75,4.05-11.86,9.94-19.51,7.57-14.13-4.38-15.93-17.06-24.58-24.9-8.36-7.57-9.12-6.88-18.81-31.87-2.4-6.18-13.53-16.78-20.04-18.03-22.89-4.38-37.65,16.17-41.75,26.87-3.89,10.14-3.07,15.06-4.69,26.41-1.5,10.55-.06,24.2-11.35,21.71-4.98-1.1-14.58-7.58-16.12-8.36-12.93-6.59-21.33-12.82-33.84-20.12-11.66-6.8-22.98-7.35-36.23-4.78-13.25,2.57-15.33,18.98-11.82,35.47,3.09,14.48,8.66,23.34,17.24,34.36,6.84,8.78,11.13,11.84,14.08,23.99,1.75,7.18,4.59,17.14-8.26,19.22-12.19,1.98-24.17-17.17-25.38-18.42-13.99-14.58-22.65-28.23-31.65-30.87-18.31-5.38-35.63-4.38-61.31-.8-10.72,1.5-33.18,2.06-40.21-6.17-4.9-5.74-8.75-11.93,6.97-29.68ZM384,80.19c1.49-4.63,4.59-7.98,12.57-9.1,5.86-.82,15.29.57,20.45,2.86,11.29,5.01,23.37,9.09,34.72,12.54,7.28,1.13,13.86,3.19,19.89,5.74,9.95,2.79,18.22,5.12,23.25,7.29,4.26,1.84,5.44-10.28,6.19-15.8.36-2.66-1.76-10.57-4.31-12.19-10.28-6.54-20.67-4.89-26.79-14.98-4.49-7.4-1.58-9.08,5.29-8.18,10.44,1.36,11.35.2,19.84,4.21,10.65,5.03,25.01,14.59,34.63,21.38,17.42,12.29,10.14,18.78,30.45,25.22,3.28,1.04,19.72,6.62,25.75,5.98,5.6-.6,9.05-7.09,9.78-10.46.82-3.83-.15-8.09-1.94-13.24-1-2.89-13.9-18.28,6.42-9.76,4.66,1.95,12.54,8.37,16.12,14.94,5.71,10.48,3.03,7.15,9.26,17.33,3.77,6.16,4.58,5.55,9.85,10.16,2.95,2.58,11.34,6.75,15.18,7.5,5.49,1.07,20.46,5.68,24.23-13.77,1.87-3.36,2.61-5.4,6.87-12.85l2.56-4.85c.36-.75,1.01-1.33,1.81-1.55,3.93-1.07,7.67-.39,12.72,1.77,4.73,2.02,5.16,3.19,9.11,6.5,3.21,2.69,5.36,9.49,4.63,7.62-.08-.21,2.09,7.23,1.34,12.55-1.21,8.62-2.49.29-6.52.14-5.75-.22-10.09,2.34-16.66,3.61-3.53.68-15.21-.42-18.11,1.7-8.96,6.57-23.9,5.86-27.48,16.66-2.98,8.99-17.53,25.57-15.29,42.99,1.41,10.94,9.55,23.6,7.26,25.56-4.02,3.44-4.6-3.59-7.32-8.13-2.73-4.53-4.09-7.87-6.57-12.55-6.27-11.84-6.27-9.56-1.19-36.45,1.34-7.12-2.6-19.19-7.59-24.49-3.49-3.71-7.68-6.69-12.25-8.93-10.82-5.3-21.9-10.94-33.87-13.03-9.93-1.73-20.64-.8-29.23,4.48-5.01,3.08-16.23,10.72-22.03,9.78-3.24-.52-11.99-6.69-14.76-8.44-8.63-5.47-18.49-12.57-30.63-17.7-6.11-1.71-12.86-3.6-19.89-5.74-11.28-1.76-24.22-1.3-39.31,3.03-11.76,3.37-17.17,4.82-22.14,3.08-5.97-2.09-8.52-5.55-6.3-12.41ZM130.74,193.79c.44-4.95,2.11-6.89,7.9-9.23,10.55-4.27,20.4-4.57,25.34-4.12,11.5,1.05,15.28,1.34,23.05-1.99,5.16-2.21,8.51-2.77,16.16-6.97,10.15-5.58,9.36-5.78,11.94-13.54,2.42-7.27.27-10.96.6-19.72.21-5.66-3.2-17.47,1.99-19.72,5.97-2.59,8.19.93,12.03,4.03,6.27,5.04,10.45,17.57,13.65,24.26,2.61,5.45,8.94,12.97,13.22,17.23,5.23,5.21,11.38,7.7,17.02,9.86,7.41,2.84,6.81,2.05,15.14-1,2.56-.93,7.17-5.58,12.14-2.79,3.54,1.99,1.36,6.09,3.08,10.07,2.04,4.72,2.01,5.04,7.07,7.86,4.49,2.5,5.02,1.6,11.74,1.79,4.49.13,6.02.3,8.96-1.39,5.18-2.99,10.09-9.03,12.34-13.54,3.78-7.57,7.52-13.28,7.95-17.95.32-3.5-1.28-10.1-3.38-12.92-5.13-6.91-7.5-12.38-12.34-15.14-4.76-2.71-14.57-8.23-18.81-7.25-3.04.7-17.27,3.76-22.79,4.26-10.1.91-21.63-12.38-20.44-23.5.94-8.76,9.23-20.4,18.89-20.9,7.92-.41,9.65,6.92,15.37,14.73,6.12,8.37,9.11,10.85,19.56,15.24,4.38,1.84,15.03,3.78,17.78,7.67,5.33,7.55,5.41,11,15.72,16.93,8.01,4.61,15.95,2.18,25.08,3.59,9.13,1.41,14.33.1,20.9,3.39l8.54,6.49c1.42,1.08,2.55,2.48,3.32,4.09,1.56,3.25,2.65,5.24,2.12,7.48-1.63,6.83-3.23,7.2-7.61,8.83-4.28,1.59-10.15-3.68-14.15-5.87-11.08-6.05-5.11-4.63-16.11-6.88-3.12-.64-12.54-4.98-17.72-2.39-5.17,2.58-9.36,9.96-15.13,19.12-7.62,12.09-22.09,20.21-30.06,27.09-10.72,9.26-10.15,18.22-14.93,20.51-6.12,2.94-8.56-4.91-13.93-13.28-6.33-9.85-5.8-17.17-14.18-25.85-7.62-7.9-18.26-12.18-29.23-12.25-11.65-.07-18.92.04-29.04,3.97-12.63,4.9-18.95,6.6-31.45,13.74-5.44,3.11-11.88,5.9-17.72,8.17-5.43,2.11-16.21,3.91-21.9,5.18-6.72,1.49-18.36-.15-17.72-7.37ZM207.89,516.38c-3.48,3.44-16.31,1.01-21.5-16.43-10.57-35.55-14.98-64.7-26.04-97.73-3.27-9.77-7.28-26.26-16.95-26.55-5.96-.17-19.13-1.76-23.93,2.03-6.45,5.09-11.48,7.78-17.46,16.44-2.06,2.99-9.81,23.9-14.19,22.54-3.88-1.19-4.62-8.02-5.03-9.35-2.04-6.66,2.09-21.04,7.46-25.69,25.55-22.13,50.77-20.09,56.43-47.2,2.44-11.71.2-28.75-4.48-39.65-1.85-4.29-9.59-13.83-13.73-18.91-4.58-5.6-14.41-14.3-18.81-12.55-4.4,1.75-9.31,3.95-13.14,6.87-6.34,4.84-16.94,21.46-24.48,19.42-6.6-1.78-10.84-16.35-10.45-23.6.67-12.55,3.6-18.64,9.26-29.88,3.32-5.18,6.2-7.95,13.14-9.56,10.37-2.4,18.66,7.6,26.21,12.59,7.34,4.85,16.61,6.58,24.96,4.08,4.47-1.34,7.07.94,9.86,4.93,4.76,6.82,1.15,17.41,3.1,25.54,3.16,13.19,25.5,9.54,37.79,12.82,16.02,4.27,36.05-5.58,41.56,2.97,3.42,5.3-20.57,14.98-27.6,19.22-13.13,7.92-13.53,29.07,1.37,46.53,4.06,4.75,12,11.49,17.7,13.53,9.5,3.41,14.88,6.16,24.78,7.77,1.75.28,26.96,2.5,26.57,7.77-.34,4.65-22.57,3.51-26.87,4.18-12.49,1.94-22.4-.94-33.44,5.62-11.04,6.57-31.79,17.12-32.77,30.61-1.79,24.51,46.27,76.25,30.68,91.63ZM719.21,522.63c-14.88,7.05-13.39.95-28.03,8.49-13.16,6.78-26.95,8.16-38.1,18.21-11,9.92-23.43,33.68-44.7,30.19-17.64-2.9-36.3-12.47-55.73-19.92-21.76-8.33-46.36-14.2-69.22-3.29-20.63,9.85-40.03,24.35-62.35,29.28-9.97,2.2-20.06,0-29.86-2.89-8.31-2.44-17.2-10.62-23.89-16.13-25.69-21.21-52.5-18.29-76.73-12.85-15.61,3.51-25.72,4.47-41.84,3.87-2.26-.08-22.21-6.49-23.84-8.06q-2.43-2.32,5.27-4.68c3.08-.94,8.12-3.07,11.1-4.63,9.76-5.12,8.94-5.93,14.48-13.15,6.02-7.85,4.45-11.48,5.27-15.48l-.2-12.35c-.9-8.44-2.2-15.83-5.93-21.51-6.41-9.76-4.82-11.75,4.34-6.97,4.96,2.59,34.74,21.97,37.82,23.5,34.2,16.96,43.96,27.05,80.02,45.81,38.41,19.98,86.91,5.77,133.56-15.73,19.01-8.76,29.35-24.97,49.56-15.54,8.13,3.8,26.37,15.24,38.02,14.94,14.5-.37,21.82-13.67,36.13-16.03,13.15-2.17,28.59,14.94,41.9,15.64,16.74.88,19.67-7.31,31.35-11.44,3.88-1.37,8.31-2.48,11.6,0,9.9,7.45,5.88,7.93,0,10.72ZM913.57,354.16c.4,6.77,1.5,9.04,1.39,13.54-.22,9.08.46,9.16-1,14.14-.89,3.06-3.87,7.31-6.97,8.07-3.15.77-6.79,1.14-9.65-.4-6.58-3.53-8.54-3.88-11.64-6.67-10.03-9.03-16.67-24.42-32.74-23.8-12.86.5-29.32,3.93-34.06,12.1-.25.52-.51,1.06-.77,1.64h0c-6.57,18.19-12.74,26.14-8.66,34.76,6.01,12.69,17.98,8.76,28.36,8.1,1.12-.07,6-1.25,6.86-.54.63.53,4.35,3.78,4.57,4.57,2.68,9.73,2.12,9.94-2.07,19.12-.73,1.6-4.31,8.61-6.06,8.37-.94-.13-7.34-6.17-7.98-6.87-7.87-8.56-11.11-12.94-20.39-20.02-7.88-6-18.44-10.31-28.08-12.1-14.24-2.65-13.4,6.82-22.76,21.06-2.88,4.38-3.12,13.86.87,20.93,1.48,2.63,11.62,15.26,14.13,16.93,13.64,9.06,11.69,7.96,25.88,10.06,4.09.61,4.16,3.84,4.61,7.95,1.23,11.23-3.33,21.29-9.63,30.48-4.21,6.15-9.86,11.51-16.78,14.26,2.45-4.54,8.17-9.07,8.8-14.19,1.22-9.89-3.9-22.63-12.84-26.59-9.46-4.19-14.14-3.54-20.9-4.78-8.19-1.51-10.57-3.51-.62-11.58,6.47-5.25,4.37-4.01,5.99-9.93,2.24-8.18-3.55-22.73-6.27-27.49-2.01-3.51-6-11.89-7.76-15.54-3.01-6.24-4.49-6.87-5.36-13.68-.54-4.25,2.54-9.8,4.55-13.58,2.02-3.77,6.1-5.27,10.31-4.48,4.14.78,7.47,6.75,10.49,9.7,6.26,6.12,11.21,3.59,19.95,3.23,7.84-.32,15.66-3.65,21.24-9.19,5.22-5.18,6.62-12.44,9.55-18.96.2-.57.46-1.11.77-1.64,3.64-7.43,6.84-9.85,7.33-20.11.45-9.61.91-31.12,10.49-31.91,14.57-1.2,9.67-.84,25.39,1.06,13.95,1.68,19.46.38,27.78-7.47,5.74-5.41,11.9-9.26,13.89-18.22,1.84-8.26,15-30.52,15.29-24.32,0,.04-3.01,24.6-3.02,24.64-1.65,17.68-1.09,17.03-2.89,38.54l.4,20.81Z"/>
  <g>
    <path class="d" d="M576.27,143.88c-1.21,20.22-14.4,33.45-11.98,46.37,3.14,16.73,27.05,28.38,36.68,42.28,15.01,21.67,7.57,34.33,7.57,62.39,0,37.55,14.72,45.8,17.35,46.22,7.98,1.28,29.05-31.37,31.06-33.01,12.68-10.35,1.46-40.12-2.82-56.12-4.28-16-7.37-35.3,3.23-47.87,11.25-13.35,22.44-21.56,33.2-35.33,8.26-10.57,2.7-19.92,7.49-32.54,10.52-27.67,50.52-30.81,74.41-13.95,13.06,9.22,23.73,24.92,20.6,40.83-2.69,13.7-14.8,23.98-17.28,37.71-3.86,21.32,16.63,41.04,13.79,62.53-3.54,26.83-39.69,37.47-46.87,63.53-6.79,24.63,15.23,53.18,2.2,75.02-8.57,14.36-29.12,18.51-35.71,33.92-8.48,19.83,11.72,45.15.15,63.26-3.81,5.97-10.29,9.47-16.49,12.72-20.74,10.88-41.47,21.75-62.21,32.63-8.57,4.5-18.23,9.12-27.48,6.38-16.94-5.02-18.72-29.02-14.27-46.48s11.17-37.7.53-52.09c-11.42-15.44-36.02-13.69-48.99-27.8-21.1-22.97,4.9-64.81-12.38-90.91-12.51-18.88-38.37-21.66-39.38-47.98-.97-25.05,17.44-46.28,7.95-73.02-13.98-39.39-50.13-34.83-38.13-96.34,3.03-15.53,24.87-28.2,49.29-20.98l28.76,3.4c8.57,1.01,24.73,1.94,23.76,9.38h0c-1.1,12.58,7.54,21.56,15.1,32.57.18.26.3.55.37.85l.53,2.42Z"/>
    <path class="d" d="M585.57,138.07c-1.21,19.93-14.4,32.98-11.98,45.72,3.14,16.49,27.05,27.97,36.68,41.68,15.01,21.37,7.57,33.84,7.57,61.51,0,37.02,14.72,45.15,17.35,45.57,7.98,1.27,29.05-30.93,31.06-32.55,12.68-10.2,1.46-39.55-2.82-55.33-4.28-15.78-7.37-34.8,3.23-47.19,11.25-13.16,22.44-21.26,33.2-34.83,8.26-10.42,2.7-19.64,7.49-32.08,10.52-27.27,50.52-30.37,74.41-13.75,13.06,9.08,23.73,24.56,20.6,40.25-2.69,13.5-14.8,23.64-17.28,37.18-3.86,21.02,16.63,40.46,13.79,61.64-3.54,26.45-39.69,36.94-46.87,62.63-6.79,24.28,15.23,52.42,2.2,73.96-8.57,14.16-29.12,18.25-35.71,33.44-8.48,19.55,11.72,44.51.15,62.37-3.81,5.88-10.29,9.33-16.49,12.54-20.74,10.72-41.47,21.45-62.21,32.17-8.57,4.43-18.23,8.99-27.48,6.29-16.94-4.95-18.72-28.61-14.27-45.82,4.45-17.21,11.17-37.17.53-51.35-11.42-15.22-36.02-13.5-48.99-27.41-21.1-22.64,4.9-63.9-12.38-89.62-12.51-18.62-38.37-21.36-39.38-47.3-.97-24.7,17.44-45.62,7.95-71.98-13.98-38.83-50.13-34.34-38.13-94.98,3.03-15.31,24.87-27.8,49.29-20.68l28.76,3.36c8.57,1,24.73,1.91,23.76,9.25h0c-1.1,12.4,7.54,21.25,15.1,32.11.18.25.3.54.37.84l.53,2.39Z"/>
    <g>
      <path class="d" d="M424.78,160.6c12.84,30.1-15.45,52.93-8.2,84.09,6.44,27.67,32.29,48.75,31.06,77.28-1.22,28.34-28.89,47.82-32.88,75.85-2.64,18.58,5.66,36.61,10.54,54.63,4.88,18.03,4.89,41.04-9.14,51.72-12.2,9.28-29.27,4.39-41.65-4.61-2.94-2.14-5.94-4.56-9.45-4.93-7.8-.83-13.3,8.76-14.19,17.35-.89,8.59.74,17.63-2.01,25.74-5.12,15.15-23.55,19.81-37.42,14.61-13.87-5.21-24.57-17.2-35.9-27.44-11.34-10.24-25.24-19.4-39.74-17.15-16.16,2.51-31.89,18.74-46.58,10.91-8.59-4.58-12.42-15.91-13.22-26.4-.8-10.49.58-21.19-1.31-31.51-3.55-19.43-17.81-33.95-26.76-51.14-8.95-17.18-10.17-43.75,5.92-52.55,9.49-5.19,22.11-2.16,30.14-9.78,9.28-8.8,6.27-24.95,4.73-38.35-1.55-13.4,3.36-31.63,15.58-30.93,13.21.76,15.6,21.88,25.88,31.06,12.75,11.4,33.85,1.29,47.08,12,13.15,10.63,9.47,32.84,5.31,50.24-4.16,17.4-4.89,40.96,10.1,48.02,5.5,2.59,11.8,1.99,17.67.71,7.66-1.67,15.94-5.14,19.28-12.93,7.07-16.47-13.22-36.13-5.98-52.51,3.67-8.29,13.27-12.03,16.45-20.57,1.53-4.11,1.31-8.75.63-13.13-4.15-26.74-24.23-50.75-19.47-77.37,2.25-12.61,9.98-23.59,11.25-36.37,1.51-15.14-6.2-29.25-10.5-43.72-4.3-14.47-3.42-33.91,8.98-40.58,7.97-4.29,17.53-1.41,26.25-3.19,18.32-3.74,31.06-27.36,49.64-25.91,16.38,1.28,24.8,21.9,26.94,39.87,1.18,9.93-2.01,15.01-9.04,26.99"/>
      <path class="d" d="M410.17,157.38c12.84,30.1-15.45,52.93-8.2,84.09,6.44,27.67,32.29,48.75,31.06,77.28-1.22,28.34-28.89,47.82-32.88,75.85-2.64,18.58,5.66,36.61,10.54,54.63s4.89,41.04-9.14,51.72c-12.2,9.28-29.27,4.39-41.65-4.61-2.94-2.14-5.94-4.56-9.45-4.93-7.8-.83-13.3,8.76-14.19,17.35s.74,17.63-2.01,25.74c-5.12,15.15-23.55,19.81-37.42,14.61-13.87-5.21-24.57-17.2-35.9-27.44s-25.24-19.4-39.74-17.15c-16.16,2.51-31.89,18.74-46.58,10.91-8.59-4.58-12.42-15.91-13.22-26.4-.8-10.49.58-21.19-1.31-31.51-3.55-19.43-17.81-33.95-26.76-51.14-8.95-17.18-10.17-43.75,5.92-52.55,9.49-5.19,22.11-2.16,30.14-9.78,9.28-8.8,6.27-24.95,4.73-38.35-1.55-13.4,3.36-31.63,15.58-30.93,13.21.76,15.6,21.88,25.88,31.06,12.75,11.4,33.85,1.29,47.08,12,13.15,10.63,9.47,32.84,5.31,50.24-4.16,17.4-4.89,40.96,10.1,48.02,5.5,2.59,11.8,1.99,17.67.71,7.66-1.67,15.94-5.14,19.28-12.93,7.07-16.47-13.22-36.13-5.98-52.51,3.67-8.29,13.27-12.03,16.45-20.57,1.53-4.11,1.31-8.75.63-13.13-4.15-26.74-24.23-50.75-19.47-77.37,2.25-12.61,9.98-23.59,11.25-36.37,1.51-15.14-6.2-29.25-10.5-43.72-4.3-14.47-3.42-33.91,8.98-40.58,7.97-4.29,17.53-1.41,26.25-3.19,18.32-3.74,31.06-27.36,49.64-25.91,16.38,1.28,24.8,21.9,26.94,39.87,1.18,9.93-2.01,15.01-9.04,26.99"/>
    </g>
  </g>
</svg>