<?xml version="1.0" encoding="UTF-8"?>
<svg id="a" data-name="Layer 1" xmlns="http://www.w3.org/2000/svg" viewBox="0 0 1313.93 164.91">
  <defs>
    <style>
      .b {
        fill: #809500;
      }

      .c {
        fill: #fb930c;
      }

      .d {
        fill: none;
      }

      .e {
        fill: #27121e;
      }

      .f {
        fill: olive;
      }

      .g {
        fill: #b66cc8;
      }

      .h {
        fill: #c0bec0;
      }

      .i {
        fill: #c8a2c8;
      }

      .j {
        fill: #fbc710;
      }

      .k {
        fill: #010001;
      }

      .l {
        fill: #fbb03b;
      }
    </style>
  </defs>
  <path class="h" d="M189.06,32.17v.02c-1.14.01-2.42.01-3.57,0v-.02h3.57Z"/>
  <path class="k" d="M185.49,32.18h4.37c.09,0,.09.01,0,.02h-5.16c-.09,0-.09-.01,0-.02h.79Z"/>
  <path class="e" d="M190.85,32.2h-.99v-.02h.8c.1,0,.2,0,.19.02Z"/>
  <path class="e" d="M184.7,32.18v.02h-.79c-.07,0-.13,0-.2,0,0-.01.09-.02.19-.02h.8Z"/>
  <rect class="j" x="11.4" y="19.88" width="1277.96" height="130.26"/>
  <path class="c" d="M128.71,150.12c-3.72-6.55-4.35-14.85,7.19-21.13,4.1-2.23,9.48-4.5,19.73-6.08,27.79-4.27,75.25-1.49,107.28-4.81,31.15-3.23,34.18-10.53,33.72-16.69-.76-10.26-1.52-20.52-2.28-30.78-.59-7.92.72-16.7,32.99-22.46,33.78-6.03,90.9-6.5,137.94-4.06,42.17,2.18,82.1,6.64,101.69,13.3,22.39,7.61,14.93,16.83-3.27,24.75-9.97,4.34-23,8.51-29.7,13.03-6.7,4.52-6.26,9.61,9.26,13.46,20.71,5.14,61.71,6.65,98.57,6.62,54.2-.04,108.26-2.52,155.1-7.11,64.76-6.35,115.21-16.56,183.79-21.65,18.01-1.34,37.73-2.3,57.24-1.87,32.33.73,57.33,5.1,75.88,9.62,41.14,10.03,63.79,21.84,85.88,33.45,12.85,6.75,34.41,15.8,49.53,22.42"/>
  <path class="g" d="M1289.36,119.67c-53.29-6.31-87.77-14.26-117.74-24.01-15.08-4.9-26.68-10.12-44.12-14.8-17.44-4.68-42.11-8.9-73.64-10.41-36.9-1.77-75.99.41-111.97,2.65-43.66,2.72-87.95,5.64-123.62,10.68-41.7,5.89-72.99,14.75-125.76,16.99-10.81.46-23.11.56-32.26-.51-4.78-.56-8.22-1.39-10.96-2.25-21.98-6.92-2.22-15.4,19.88-22.31,22.1-6.91,47.43-14.58,35.39-22.16-8.07-5.08-32.28-9.09-59.82-11.58-27.54-2.48-58.46-3.65-88.95-4.8,22.81-5.25,56.04-6.25,94.67-6.38s77.17,2.94,101.16,8.05c7.95,1.69,14.44,3.63,16.93,5.74,2.47,2.1.9,4.27,1.21,6.42.53,3.6,6.38,7.12,12.72,10.56,6.03,3.27,16.62,7.09,36.87,7.39,10.67.16,20.74-.78,29.8-1.75,52.06-5.54,101.85-13.31,163.41-13.47,62.31-.17,114.92,7.64,154.07,15.82,39.15,8.17,68.24,17.2,122.74,22.29"/>
  <path class="d" d="M1175.62,150.12c-30.07-4.14-59.71-12.4-69.64-18.73-9.93-6.33-14.63-12.89-27.16-19.08-6.71-3.32-16.23-6.64-32.76-8.76-26.42-3.4-65.12-2.87-94.2-.16-29.07,2.72-50.53,7.22-70.58,11.69-20.04,4.47-40.01,9.11-67.44,12.27-38.44,4.43-87.42,5.46-133.93,5.04-52.2-.48-105.33-2.76-146.66-8.15-41.33-5.39-68.79-14.29-61.13-23.01,3.22-3.66,12.24-7.11,17.39-10.71,11.53-8.05,3.41-16.48-4.75-24.64-2.71-2.72-6.07-5.64-18.04-7.52-13.14-2.06-34.05-2.25-50.46-1.03-16.41,1.22-28.81,3.63-37.91,6.23-25.17,7.21-28.09,15.94-30.38,24.3-1.84,6.71-3.67,13.43-5.51,20.14-1.66,6.06-1.84,13.24-29.9,17.03-34.77,4.7-53.51,2.8-88.66,4.86-5.59.33-23.9.16-35.94,4.53-2.53.92-5.31,6.17-4.63,7.18,2.61,3.87,3.41,4.66,6.02,8.53"/>
  <path class="f" d="M11.4,140.09c54.65-10.66,54.19-24.25,77.6-31.88,9.42-3.07,22.89-6.32,43.18-6.8,28.07-.67,60.29,4.14,81.61.99,5.66-.83,8.64-2.07,10.69-3.29,13-7.76-4.92-15.9-10.66-23.9-8.96-12.49,14.94-25.89,70.24-34.33,55.3-8.45,142.66-10.99,207.65-4.8-62.65-10.39-175.8-15.88-253.17-8.85-77.38,7.03-122.08,23.02-104.99,37.55,6.48,5.52,18.71,12.25-6.22,15.99-14.85,2.23-36.76,2.23-56.59,2.47s-42.6,1.24-50.53,4.31c-3.38,1.31-3.38,2.79-2.91,4.21,1.72,5.27,23.74,20.08-5.89,29.86"/>
  <path class="f" d="M1289.36,69.88c-63.95-8.01-89.4-18.53-154.73-26.22-14.77-1.74-31.4-3.21-49.37-3.41-14.41-.16-28.66.5-42.41,1.24-26.41,1.42-52.24,3.16-77.21,5.19-26.38,2.14-55.93,4.68-83.46,3-31.97-1.96-34.17-2.48-55.52-6.94-22.62-4.73-43.22-10.56-48.77-22.85h62.05c40.75,18.09,55.83,17.36,62.97,17.88,13.14.96,74.79-4.51,87.67-5.56,49.74-4.07,69-7.46,124.26-7.76,55.26-.29,106.73,4.07,147.43,10.37,9.23,1.43,18.37,3.31,27.11,5.96v29.11Z"/>
  <path class="d" d="M1084.87,150.15c-39.77-9.47-64.3-16.07-81.38-27.32-4.46-2.94-11.99-6.53-29.87-6.85-6.74-.12-13.41.3-19.48.81-50.41,4.21-74.1,13.97-114.04,20.65-52.63,8.8-133.95,11.76-206.37,9.09-72.42-2.68-135.86-10.45-182.43-20.17-10.49-2.19-20.34-4.52-26.09-7.16-5.32-2.45-6.93-5.09-6.68-7.69.56-5.68,9.75-11.23,14.23-16.87,4.48-5.63,3.72-11.7-13.79-16.56-37.11,7.84-43.74,18.51-46.25,28.53-2.51,10.02-3.05,20.52-31.34,29.35-4.9,1.53-11.08,3.06-20.45,3.78-13.97,1.07-31.26.07-45.18,1.16-16.86,1.32-20.7,6.14-21.36,9.27"/>
  <path class="c" d="M687.78,19.88c-56.05,1.69-110.63,4.76-164.27,7.98-22.41-2.28-48.02-3.48-73.26-4.66-13.66-.64-18.85-.7-36.98-1.35-1.92-.07-3.84-.13-5.79-.17-21.01-.45-47.25-1.94-62.07-1.81,111.06,0,250.04,0,342.37,0Z"/>
  <path class="l" d="M144.15,150.12c-3.63-6.55-1.59-10.53,9.68-16.82,4.01-2.23,9.26-4.5,19.27-6.08,27.13-4.27,73.48-1.49,104.75-4.81,30.42-3.23,33.38-10.53,32.93-16.69-.74-10.26-1.49-20.52-2.23-30.78-.57-7.92.71-16.7,32.21-22.46,32.99-6.03,88.76-6.5,134.68-4.06,41.18,2.18,80.17,6.64,99.29,13.3,21.86,7.61,14.57,16.83-3.19,24.75-9.73,4.34-22.46,8.51-29,13.03-6.54,4.52-6.12,9.61,9.04,13.46,20.22,5.14,60.25,6.65,96.24,6.62,52.92-.04,105.71-2.52,151.44-7.11,63.24-6.35,112.49-16.56,179.45-21.65,17.59-1.34,36.84-2.3,55.89-1.87,31.57.73,55.98,5.1,74.09,9.62,40.17,10.03,62.28,21.84,83.86,33.45,12.55,6.75,26.82,11.48,41.58,18.1"/>
  <path class="f" d="M1188.87,150.12c-30.07-4.14-59.71-12.4-69.64-18.73-9.93-6.33-14.63-12.89-27.16-19.08-6.71-3.32-16.23-6.64-32.76-8.76-26.42-3.4-65.12-2.87-94.2-.16-29.07,2.72-50.53,7.22-70.58,11.69-20.04,4.47-40.01,9.11-67.44,12.27-38.44,4.43-87.42,5.46-133.93,5.04-52.2-.48-105.33-2.76-146.66-8.15-41.33-5.39-68.79-14.29-61.13-23.01,3.22-3.66,12.24-7.11,17.39-10.71,11.53-8.05,3.41-16.48-4.75-24.64-2.71-2.72-6.07-5.64-18.04-7.52-13.14-2.06-34.05-2.25-50.46-1.03-16.41,1.22-28.81,3.63-37.91,6.23-25.17,7.21-28.09,15.94-30.38,24.3-1.84,6.71-3.67,13.43-5.51,20.14-1.66,6.06-1.84,13.24-29.9,17.03-34.77,4.7-53.51,2.8-88.66,4.86-5.59.33-23.9.16-35.94,4.53-2.53.92-5.31,6.17-4.63,7.18,2.61,3.87,3.41,4.66,6.02,8.53"/>
  <path class="i" d="M1289.36,115.53c-53.29-6.31-74.5-13.04-104.47-22.78-15.08-4.9-26.68-10.12-44.12-14.8-17.44-4.68-42.11-8.9-73.64-10.41-36.9-1.77-75.99.41-111.97,2.65-43.66,2.72-87.95,5.64-123.62,10.68-41.7,5.89-72.99,14.75-125.76,16.99-10.81.46-23.11.56-32.26-.51-4.78-.56-8.22-1.39-10.96-2.25-21.98-6.92-2.22-15.4,19.88-22.31,22.1-6.91,47.43-14.58,35.39-22.16-8.07-5.08-32.28-9.09-59.82-11.58-27.54-2.48-58.46-3.65-88.95-4.8,22.81-5.25,56.04-6.25,94.67-6.38s77.17,2.94,101.16,8.05c7.95,1.69,14.44,3.63,16.93,5.74,2.47,2.1.9,4.27,1.21,6.42.53,3.6,6.38,7.12,12.72,10.56,6.03,3.27,16.62,7.09,36.87,7.39,10.67.16,20.74-.78,29.8-1.75,52.06-5.54,101.85-13.31,163.41-13.47,62.31-.17,114.92,7.64,154.07,15.82,39.15,8.17,52.69,15.57,107.2,20.66"/>
  <path class="b" d="M1289.36,66.37c-48.46-5.77-65.01-15.02-130.35-22.7-14.77-1.74-31.4-3.21-49.37-3.41-14.41-.16-32.78-.37-46.54.37-26.41,1.42-44.48,2.03-69.45,4.06-26.38,2.14-54.3,3.75-83.35,3.12-34.73-.75-48.57-.61-69.92-5.07-22.62-4.73-56.95-10.56-62.51-22.85h51.86c40.75,18.09,54.37,16.34,61.51,16.86,13.14.96,73.17-3.49,86.05-4.54,49.74-4.07,69-7.46,124.26-7.76,55.26-.29,92.5,4.38,132.57,10.79,22.22,3.56,35.79,6.04,55.24,10.92v20.21Z"/>
  <path class="b" d="M11.4,134.89c43.54-10.56,36.71-20.73,60.12-28.35,9.42-3.07,22.89-6.32,43.18-6.8,28.07-.67,60.29,4.14,81.61.99,5.66-.83,8.64-2.07,10.69-3.29,13-7.76-4.92-15.9-10.66-23.9-8.96-12.49,14.94-25.89,70.24-34.33,55.3-8.45,142.66-10.99,207.65-4.8-62.65-10.39-175.8-15.88-253.17-8.85-77.38,7.03-122.08,23.02-104.99,37.55,6.48,5.52,18.71,12.25-6.22,15.99-14.85,2.23-36.76,2.23-56.59,2.47-19.83.24-33.92-.05-41.85,3.02"/>
  <path class="g" d="M208.54,19.88c-12.96,6.85-64.65,11.26-82.05,14.5-17.4,3.24-27.74,6.31-38.34,10.3-22.77,8.56-3.7,8.58-24.08,21.07-21.45,13.62-51.42,7.1-52.49,5.54v-9.99c21.47,3.66,19.33-2.22,19.15-4.73-.4-5.8-8.69-8.96-.92-13.74,7.77-4.78,22.43-9.49,47.15-12.17,10.89-1.18,46.49-3.93,61.77-10.78h69.8Z"/>
  <path class="l" d="M650.38,19.88c-53.07,1.69-73.36,3.29-124.14,6.51-21.22-2.28-45.46-3.48-69.36-4.66-12.94-.64-17.85-.7-35.01-1.35-1.81-.07-3.64-.13-5.48-.17-19.89-.45-31.02-.46-45.04-.34,105.15,0,191.62,0,279.04,0Z"/>
  <path class="b" d="M1175.62,150.12c-29.82-3.97-55.94-11.78-65.79-17.84-9.85-6.06-14.51-12.35-26.93-18.28-6.65-3.18-16.09-6.36-32.48-8.4-26.19-3.26-64.57-2.75-93.4-.15-28.83,2.6-50.11,6.92-69.99,11.2-19.88,4.28-32.74,7.67-59.94,10.7-38.12,4.25-93.2,7.94-139.32,7.53-51.76-.46-98.57-1.23-139.56-6.4-40.98-5.17-86.31-15.84-78.72-24.19,3.19-3.51,11.55-7.47,16.67-10.92,11.43-7.71,15.77-16.04,7.69-23.86-2.69-2.6-6.02-5.41-17.89-7.2-13.03-1.97-33.76-2.16-50.04-.99-16.28,1.17-28.57,3.47-37.59,5.97-24.96,6.91-27.86,15.27-30.12,23.28-1.82,6.43-3.64,12.86-5.46,19.3-1.64,5.8-1.83,12.68-29.65,16.32-34.48,4.51-53.06,2.68-87.92,4.65-5.54.31-19.9.6-22.96,1.96-10.99,4.88-2.48,11.35-1.81,12.31,2.59,3.71,1.7,1.33,4.29,5.03"/>
  <path class="g" d="M1094.67,150.15c-39.77-9.47-64.3-16.07-81.38-27.32-4.94-3.25-13.65-7.31-36-6.84-3,.06-5.92.22-8.69.42-53.65,3.98-77.56,14.14-118.71,21.02-52.63,8.8-133.95,11.76-206.37,9.09-72.42-2.68-135.86-10.45-182.43-20.17-10.49-2.19-20.34-4.52-26.09-7.16-5.32-2.45-6.93-5.09-6.68-7.69.56-5.68,9.75-11.23,14.23-16.87,3.45-4.34,10.99-11.52,2.99-15.62-3.33-1.7-24.13.65-29.54,2.19-25.97,7.42-31.3,16.66-33.49,25.4-2.51,10.02-3.05,20.52-31.34,29.35-4.9,1.53-11.08,3.06-20.45,3.78-13.97,1.07-31.26.07-45.18,1.16-16.86,1.32-20.7,6.14-21.36,9.27"/>
  <path class="i" d="M1084.87,150.15c-39.77-9.5-64.3-14.7-81.38-25.97-4.94-3.26-13.65-7.33-36-6.86-3,.06-5.91.22-8.68.43-53.66,3.99-77.56,14.17-118.72,21.07-52.63,8.82-133.95,11.8-206.37,9.11-72.42-2.68-135.86-10.48-182.43-20.23-10.49-2.2-20.34-4.53-26.09-7.18-5.32-2.45-6.93-5.1-6.68-7.72.56-5.7,9.75-11.26,14.23-16.91,3.51-4.43,6.61-11.83-1.85-15.99-3.23-1.59-12.77.74-17.89,2.18-26.57,7.48-23.73,18.83-25.94,27.68-2.51,10.05-8.13,19.4-36.43,28.25-4.9,1.53-16.25,2.92-25.62,3.64-13.97,1.08-20.35.15-34.26,1.25-16.86,1.33-18.48,4.11-19.14,7.25"/>
  <path class="i" d="M11.59,69.55c1.07,1.56,22.14,8.59,43.6-5.03,20.37-12.49,1.31-12.51,24.08-21.07,10.6-3.99,20.94-7.06,38.34-10.3,17.4-3.24,66.11-6.48,79.08-13.33l-47.78.08c-15.28,6.85-41.4,8.85-52.29,10.04-24.72,2.69-49.18,9.19-56.95,13.97-7.77,4.78,6.7,9.95,1.27,14.83-2.75,2.47-2.78,8.43-29.34,5.38v5.44Z"/>
</svg>