<?xml version="1.0" encoding="UTF-8"?>
<svg id="a" data-name="Layer 1" xmlns="http://www.w3.org/2000/svg" xmlns:xlink="http://www.w3.org/1999/xlink" viewBox="0 0 676.82 456.31">
  <defs>
    <style>
      .i {
        font-size: 13.43px;
      }

      .i, .j, .k, .l, .m, .n, .o, .p, .q, .r, .s, .t, .u {
        fill: #221f1f;
      }

      .i, .l, .r, .s, .t {
        font-family: CalistoMT, 'Calisto MT';
      }

      .k {
        font-size: 30.28px;
      }

      .k, .v, .m, .u {
        font-family: MaiandraGD-Regular, 'Maiandra GD';
      }

      .w {
        letter-spacing: -.04em;
      }

      .l {
        font-size: 18px;
      }

      .x {
        letter-spacing: -.02em;
      }

      .v {
        font-size: 6.99px;
      }

      .v, .y, .z {
        fill: #fff;
      }

      .aa {
        fill: url(#c);
      }

      .ab {
        fill: url(#d);
      }

      .ac {
        fill: url(#h);
      }

      .m {
        font-size: 29.16px;
      }

      .ad, .ae {
        fill: none;
      }

      .n {
        font-family: MinionVariableConcept-Roman, 'Minion Variable Concept';
        font-size: 52.83px;
        font-variation-settings: 'wght' 400, 'opsz' 11;
      }

      .af {
        letter-spacing: -.02em;
      }

      .o {
        font-size: 22.75px;
      }

      .o, .p {
        font-family: FreestyleScript-Regular, 'Freestyle Script';
      }

      .p {
        font-size: 41.67px;
      }

      .ag {
        letter-spacing: -.02em;
      }

      .q {
        font-family: MyriadPro-Regular, 'Myriad Pro';
        font-size: 12px;
      }

      .ah {
        fill: url(#e);
      }

      .ai {
        fill: url(#g);
      }

      .ai, .aj, .z, .ak, .ae {
        stroke: #221f1f;
        stroke-miterlimit: 10;
      }

      .ai, .ak, .ae {
        stroke-width: .56px;
      }

      .r {
        font-size: 10px;
      }

      .aj, .al {
        fill: url(#b);
      }

      .am {
        letter-spacing: -.08em;
      }

      .an {
        letter-spacing: -.03em;
      }

      .ak {
        fill: url(#f);
      }

      .ao {
        letter-spacing: -.05em;
      }

      .ap {
        letter-spacing: .03em;
      }

      .s {
        font-size: 14.58px;
      }

      .t {
        font-size: 5.69px;
      }

      .aq {
        letter-spacing: .03em;
      }

      .u {
        font-size: 28.89px;
      }
    </style>
    <linearGradient id="b" x1="9544.98" y1="229.23" x2="9627.44" y2="229.23" gradientTransform="translate(9638.77) rotate(-180) scale(1 -1)" gradientUnits="userSpaceOnUse">
      <stop offset="0" stop-color="#99d2ad"/>
      <stop offset="1" stop-color="#8e75b2"/>
    </linearGradient>
    <linearGradient id="c" x1="379.39" y1="231.75" x2="586.39" y2="231.75" gradientUnits="userSpaceOnUse">
      <stop offset="0" stop-color="#99d2ad"/>
      <stop offset=".03" stop-color="#97cca8"/>
      <stop offset="1" stop-color="#8e75b2"/>
    </linearGradient>
    <linearGradient id="d" x1="10121.78" y1="236.45" x2="10202.78" y2="236.45" gradientTransform="translate(10496.47) rotate(-180) scale(1 -1)" gradientUnits="userSpaceOnUse">
      <stop offset="0" stop-color="#99d2ad"/>
      <stop offset=".51" stop-color="#93a4af"/>
      <stop offset="1" stop-color="#8e75b2"/>
    </linearGradient>
    <linearGradient id="e" x1="92.45" y1="224.82" x2="299.45" y2="224.82" gradientTransform="matrix(1,0,0,1,0,0)" xlink:href="#b"/>
    <linearGradient id="f" x1="194.67" y1="371.94" x2="194.77" y2="371.94" gradientTransform="translate(52.25 -111.53) rotate(4.2)" gradientUnits="userSpaceOnUse">
      <stop offset="0" stop-color="#fff"/>
      <stop offset="1" stop-color="#221f1f"/>
    </linearGradient>
    <linearGradient id="g" x1="194.38" y1="360.82" x2="194.48" y2="360.82" xlink:href="#f"/>
    <linearGradient id="h" x1="8970.1" y1="239.63" x2="9052.55" y2="239.63" xlink:href="#b"/>
  </defs>
  <path class="aj" d="M11.33,419.31V23.5c15.68,11.46,31.79,18.6,48.8,14.25,11.41-2.4,21.64-9.98,32.2-17.52l1.45,403.85c-9.84,7.03-29.4,13.58-40.28,14.12s-25.84-6.95-42.17-18.9Z"/>
  <path class="aa" d="M545.58,446.83c14.45-2.27,27.43-9.41,40.81-16.55V34.48c-14.32,7.59-28.05,15.53-43.45,17.95-26.49,5.07-51.24-12.04-75.4-24.59-10.24-5.07-21.49-9.24-32.33-11.03-2.83-.47-5.63-.81-8.44-1.07-2.8.26-5.61.59-8.44,1.07-10.84,1.78-22.09,5.96-32.33,11.03-2.2,1.14-4.4,2.32-6.61,3.52v392.98c1.32-.71,2.65-1.41,3.97-2.1,10.22-5.06,21.45-9.23,32.28-11.02l2.47-.27c3.75.2,4.47-.17,8.11.11,3.64-.28,4.78-.48,7.49-.23l4.19.39c10.83,1.79,22.06,5.96,32.28,11.02,24.16,12.56,48.92,29.66,75.4,24.59Z"/>
  <path class="ab" d="M299.19,426.89l-.63-397.26c15.5,10.97,31.42,21.77,48.24,17.61,11.27-2.3,22.32-10.07,32.76-17.29v392.75c-9.72,6.73-20.18,17.25-30.71,19.39-17.56,4.35-33.51-3.76-49.66-15.2Z"/>
  <path class="ah" d="M258.64,444.36c14.45-2.32,27.43-9.6,40.81-16.89l-.6-397.35c-14.32,7.74-27.44,9.21-42.85,11.69-26.49,5.17-51.24-12.29-75.4-25.1-10.24-5.17-21.49-9.44-32.33-11.25-2.83-.48-5.63-.82-8.44-1.09-2.8.26-5.61.61-8.44,1.09-10.84,1.82-22.09,6.08-32.33,11.25-2.2,1.17-4.4,2.37-6.61,3.59l1.45,403.38c1.32-.72,6.14-3.81,7.46-4.51,10.22-5.16,16.5-9.33,27.33-11.15l4.47-.66c2.59-.31,4.17-.67,7.8-.38,2.81.1,3.66-.08,5.94.38l4.06.66c10.83,1.82,22.06,6.08,32.28,11.24,24.16,12.82,48.92,30.27,75.4,25.1Z"/>
  <path class="al" d="M11.33,419.31V23.5c15.68,11.46,31.79,18.6,48.8,14.25,11.41-2.4,21.64-9.98,32.2-17.52l1.45,403.85c-9.84,7.03-29.4,13.58-40.28,14.12s-25.84-6.95-42.17-18.9Z"/>
  <path class="j" d="M67.75,228.08c-10.75-3.67-21.76-8.32-30.52-15.71-5.62-4.74-10.63-11.14-10.73-18.81-.11-8.24,5.21-15.39,10.9-20.84,9.91-9.49,22.55-16.09,34.95-21.69,4.69-2.11,10.06-3.58,13.47-7.68,2.39-2.87,3.56-6.44,3.74-10.15.46-9.75-5.07-19.17-10.91-26.53-4.13-5.21-8.96-9.86-14.16-14-2.9-2.31-5.91-4.47-9.02-6.49-2.49-1.61-5.26-2.91-7.6-4.74s-3.76-4.15-3.47-6.99,2.31-5.92,4.19-8.26c6-7.46,13.86-13.42,21.15-19.56s15.36-12.7,20.97-20.77c1.08-1.56,2.05-3.2,2.82-4.94.64-1.46-1.51-2.73-2.16-1.26-1.68,3.84-4.32,7.18-7.13,10.25-3.42,3.74-7.19,7.16-11.02,10.48-7.7,6.69-15.92,12.89-23.01,20.23-4.3,4.45-10.48,11.4-7.65,18.13,1.71,4.06,5.82,5.97,9.35,8.14,6.33,3.89,12.31,8.37,17.66,13.53,7.72,7.43,15.16,16.9,17.14,27.71.65,3.55.59,7.46-.99,10.78s-4.57,5.65-8.03,7.1c-13.59,5.69-27.24,12.35-38.61,21.86-6.66,5.57-13.29,12.9-14.76,21.79-1.27,7.68,1.85,14.83,6.96,20.47,7.08,7.81,16.92,12.89,26.52,16.87,3.06,1.27,6.16,2.42,9.29,3.49,1.53.52,2.18-1.89.66-2.41h0Z"/>
  <path class="j" d="M207.7,81.91c-5.99-9.71-11.31-19.76-16.23-30.05-4.05-8.48-8.11-16.94-13.02-24.96-3.69-6.03-7.75-11.82-12-17.46-.96-1.27-3.13-.03-2.16,1.26,6.83,9.07,13.07,18.55,18.3,28.64,4.33,8.36,8.11,16.99,12.45,25.35,3.27,6.29,6.79,12.45,10.51,18.48.84,1.37,3.01.11,2.16-1.26h0Z"/>
  <g>
    <path class="j" d="M493.65,106.65c1.16-.52,2.49-.24,3.44.58,1.11.95,1.49,2.36,1.46,3.78-.06,2.86-1.48,5.87-.37,8.68.87,2.21,3,3.31,4.59,4.93.95.97,1.52,2.13,1.6,3.5.09,1.55-.24,3.09-.29,4.64-.04,1.34.16,2.67.91,3.81s1.76,1.89,2.6,2.88c2.06,2.43.97,5.7,1.79,8.53.24.83.24,1.35-.25,2.11s-1.2,1.4-1.88,2c-1.27,1.14-2.92,2.27-3.69,3.85-.55,1.12-.31,2.6,1.13,2.7,1.54.11,3.21-.6,4.65-1.05.76-.24,1.53-.49,2.31-.66.28-.06.57-.13.86-.14.1,0,.24,0,.31,0,.09.01.17.07.13.03.03.03,0-.02,0-.01,0,.2,0,.38.01.58.06.59.26,1.16.48,1.71.43,1.07.98,2.08,1.5,3.11.8,1.59,1.96,2.98,2.9,4.49.43.69.94,1.47,1.09,2.29.13.68-.24.85-.87.9-1.71.12-3.43.49-5.08.95-1.46.41-3.69.98-4.5,2.42-.26.47-.31,1.1.1,1.5s1.04.43,1.57.43c1.34,0,2.66-.42,4-.37.1,0,.18.03.27.03.13,0,.03.04.05,0,.04-.06-.1-.12-.06-.13-.02,0-.15.26-.19.3-.47.62-1.17,1.03-1.84,1.41-.87.5-1.77.94-2.67,1.38-.49.25-1.22.48-1.59.91-.45.52.14.89.64.83.56-.07.57-.95,0-.89-.05,0-.13,0-.18.02h-.05c-.25-.02-.16.18.27.59.02,0-.1.05.06-.01.3-.12.6-.33.89-.48.87-.44,1.75-.86,2.61-1.33.74-.4,1.53-.83,2.14-1.43.36-.35.92-.93.76-1.49-.29-1.04-2.27-.52-2.98-.43s-1.43.2-2.15.2c-.24,0-.52,0-.75-.08-.17-.06-.23-.11-.24-.18-.07-.59.82-1.06,1.23-1.29.86-.47,1.81-.78,2.75-1.05,1.67-.48,3.36-.79,5.09-.95,4.12-.37-1.01-6.49-1.88-7.84-.48-.74-.85-1.54-1.25-2.32-.53-1.04-1.24-2.26-1.28-3.46-.02-.54-.07-1.01-.67-1.19-.54-.16-1.16-.02-1.69.1-1.67.37-3.26,1.02-4.92,1.43-.92.23-2.75.76-2.33-.8.2-.73.81-1.34,1.33-1.86.68-.68,1.42-1.3,2.14-1.94,1.14-1.01,2.8-2.38,2.79-4.06,0-.45-.18-.85-.29-1.27-.21-.8-.25-1.63-.28-2.46-.06-1.48-.01-3.04-.56-4.44-.96-2.51-3.92-3.68-4.32-6.46s1.03-5.92-.45-8.66c-1.11-2.05-3.34-3.05-4.77-4.82-2-2.48-.77-5.69-.44-8.5.31-2.56-.34-5.41-3-6.44-1.04-.4-2.14-.33-3.15.12-.52.23-.07,1,.45.77h0Z"/>
    <path class="j" d="M493.24,105.78c-5.88,4.28-9.62,11.22-10.83,18.31-1.22,7.14.22,14.92,4.59,20.79,1.96,2.63,4.79,5.42,8.1,6.17,1.73.4,3.47.02,4.81-1.16,1.26-1.1,2.04-2.69,2.54-4.26.54-1.68.8-3.49.72-5.26-.07-1.62-.46-3.35-1.59-4.57s-2.94-1.65-4.51-1.26c-.81.2-.89,1.05-.87,1.76.03,1.1.27,2.2.44,3.28.16.97.42,2.07.27,3.06s-1.67,1.24-2.45,1.39c-1.34.27-2.73.27-4.09.38-2.24.18-4.61.7-5.44,3.07-.28.79-.44,1.62-.6,2.44-.54,2.77-.86,5.6-.94,8.43s0,5.83,1.1,8.44c.43,1.02,1.05,1.98,1.99,2.59s2.14.73,3.25.53c1.65-.3,3.18-1.21,4.54-2.17,2.27-1.59,4.29-3.53,6.2-5.52,1.28-1.34,2.52-2.73,3.72-4.15.37-.43-.26-1.06-.63-.63-2.12,2.49-4.32,4.92-6.75,7.11-1.55,1.4-3.22,2.76-5.1,3.71s-4.23,1.39-5.66-.48-1.66-4.59-1.76-6.86c-.12-2.8.09-5.62.49-8.39.16-1.08.34-2.16.58-3.23.2-.9.39-1.92,1.02-2.62.75-.84,1.92-1.12,2.99-1.27,1.26-.18,2.54-.18,3.81-.3,1.17-.12,2.37-.31,3.43-.87.82-.44,1.17-.93,1.21-1.86.1-2.04-.67-4.04-.73-6.07,0-.24-.06-.68.11-.88.03-.04,0,0-.02,0,.03-.03.27-.06.34-.07.45-.07.91-.08,1.36,0,1.81.28,2.83,1.75,3.21,3.44s.24,3.52-.12,5.21-.95,3.3-2.03,4.59c-1.22,1.45-2.96,2.03-4.8,1.55-1.67-.44-3.17-1.48-4.47-2.6-5.16-4.46-7.71-11.51-7.79-18.22s2.52-14.23,7.2-19.49c1.09-1.22,2.3-2.34,3.62-3.3.46-.33.02-1.1-.45-.77h0Z"/>
    <path class="j" d="M508.14,178.91c-.85.78-1.71,1.63-2.3,2.63-.33.55-.6,1.22-.45,1.87.32,1.3,1.98,1.53,3.09,1.61,1.88.13,3.8-.14,5.65-.46,1.67-.28,3.34-.64,4.97-1.13.75-.22,1.43-.53,2.14-.86,1.92-.88,3.84-1.75,5.69-2.75,1.41-.76,2.9-1.6,4.02-2.77.72-.75,1.31-1.77.87-2.82-.31-.75-1.15-.88-1.87-.95-1.08-.12-2.19-.05-3.27,0-1.03.06-2.05.16-3.08.18-.15,0-.3,0-.45,0-.12,0-.13-.01-.13,0-.03.05.13.52.12.52-.03,0,.33-.21.4-.26.41-.28.82-.58,1.2-.9,2.22-1.87,3.39-4.52,2.63-7.39-.27-1.01-.73-1.96-1.25-2.86-.34-.58-.68-1.29-1.13-1.79-.64-.71-1.61-1.13-2.47-1.49-1.12-.48-2.27-.87-3.43-1.27-.98-.34-1.99-.64-2.92-1.1-.21-.1-.57-.37-.67-.42-.09-.04-.01.11-.03.09,0,0-.02-.01.03-.03.14-.06.36-.23.52-.32,1.74-1.04,3.62-1.81,5.51-2.54.63-.24,1.26-.48,1.88-.76.38-.17.81-.37,1.09-.7,1.5-1.78-5.12-3.4-6.06-3.64-1.45-.37-2.97-.64-4.36-1.21-.45-.19-.97-.42-1.28-.82-.46-.59-.54-1.65-.62-2.37-.19-1.71.15-3.36.43-5.03.12-.72.23-1.45.21-2.19s-.22-1.38-.35-2.08c-.27-1.46.08-3.01.1-4.48.01-1.2-.13-2.27-1.11-3.05-1.07-.85-2.05-1.85-2.97-2.87-.44-.49-1.91-1.84-1.35-2.61.24-.34.76-.52,1.13-.67.5-.21,1.03-.4,1.5-.67,1.18-.66,1.47-1.64,1.25-2.94-.31-1.79-1.44-3.32-2.77-4.5-1.49-1.32-3.3-2.4-4.31-4.18-.9-1.59-1.11-3.73-.06-5.29.32-.48-.45-.92-.77-.45-.97,1.44-1.01,3.31-.49,4.93.58,1.8,1.92,3.11,3.36,4.27s2.97,2.34,3.76,4.09c.3.67.68,1.75.41,2.48-.17.45-.62.71-1.02.92-.85.43-1.94.63-2.61,1.36-.71.77-.31,1.76.21,2.5.81,1.15,1.82,2.16,2.83,3.12.74.7,1.84,1.28,2.03,2.34.26,1.44-.07,2.98-.09,4.43s.49,2.67.39,4.07c-.11,1.53-.55,3.02-.65,4.56-.06.92-.01,1.84.14,2.74.12.67.24,1.46.64,2.03.63.88,1.81,1.26,2.79,1.55,1.49.45,3.03.75,4.52,1.18.86.24,1.71.52,2.53.87.37.16.73.33,1.08.52.27.15.56.43.84.53.09.03-.01.15.03-.02.02-.07.03-.02,0,0-.12.06-.27.2-.4.28-.53.3-1.12.51-1.69.73-1.7.66-3.4,1.31-5.01,2.16-.6.32-1.44.64-1.9,1.16-.2.23-.27.52-.16.8.24.6,1.05.9,1.59,1.12,1.01.42,2.05.76,3.08,1.12,1.12.38,2.24.77,3.31,1.27.7.33,1.5.7,1.91,1.39.94,1.59,2,3.16,2.16,5.06.11,1.33-.25,2.6-.99,3.7-.5.74-1.15,1.37-1.85,1.93-.39.31-.81.56-1.21.85-.11.08-.22.16-.28.28-.39.72.6.84,1.05.84.95,0,1.9-.09,2.85-.15,1.1-.07,2.2-.13,3.3-.06.38.02.8.05,1.16.2.27.11.34.26.36.6.06,1.15-1.42,2.13-2.23,2.69-1.56,1.07-3.28,1.92-4.98,2.74-2.06.99-3.83,1.91-5.98,2.47-1.75.46-3.54.82-5.34,1.06-1.63.22-3.43.45-5.05.09-.46-.1-.99-.29-1.18-.63s0-.89.27-1.34c.56-.95,1.38-1.74,2.18-2.48.42-.39-.21-1.02-.63-.63h0Z"/>
    <path class="j" d="M524.51,161.63c1.79,3.52,5.17,8.22,9.69,6.02,2.62-1.28,4.64-4.18,5.6-6.87,1.13-3.17,1.1-6.64.97-9.96-.13-3.55-.45-7.12-1.36-10.56-.23-.88-.5-1.67-1.34-2.14-.73-.41-1.62-.49-2.45-.49-2.08,0-4.12.54-6.19.55-.77,0-1.69-.03-2.34-.51s-.87-1.36-.99-2.12c-.28-1.77.05-3.57-.21-5.34-.08-.54-.27-1.16-.84-1.35-.75-.25-1.6.45-2.14.87-2.19,1.72-3.56,4.43-3.93,7.16s.45,5.83,2.35,8.02,5.1,3.29,8.08,2.93c7.21-.87,5.56-10.53,4.05-15.26-2.03-6.39-4.78-12.8-8.63-18.32-3.46-4.95-8.14-9.42-14.01-11.26-1.36-.43-2.77-.69-4.2-.78-.56-.04-.56.84,0,.87,5.74.4,10.77,3.78,14.55,7.94,4.14,4.56,7.01,10.18,9.29,15.85,1.18,2.94,2.34,5.94,3.01,9.05.59,2.78.91,6.13-.53,8.72s-5.05,2.81-7.67,1.9c-2.76-.96-4.67-3.44-5.3-6.24s.1-5.7,1.69-7.99c.68-.98,1.6-1.97,2.69-2.51.42-.21.52-.15.63.31.16.68.11,1.44.11,2.13,0,.89-.02,1.79.06,2.68.13,1.46.51,3.12,1.99,3.76,1.55.67,3.46.32,5.08.12.98-.12,1.97-.26,2.96-.3.75-.03,1.58-.04,2.28.27.88.39,1.01,1.29,1.22,2.15.4,1.62.68,3.27.86,4.93.37,3.25.56,6.61.33,9.88-.25,3.66-1.43,7.05-4.07,9.65-1,.98-2.28,1.88-3.72,1.96-1.82.1-3.33-1.1-4.45-2.42-.96-1.13-1.71-2.43-2.38-3.75-.25-.5-1.01-.06-.75.44h0Z"/>
  </g>
  <g>
    <path class="j" d="M211.12,424.95c2.91.08,5.31,2,7.81,3.28s5.07,2.22,7.82,2.54c1.97.23,4.58.31,6.2-1.06,1.79-1.5,1.06-3.73.27-5.58-1.08-2.52-2.53-4.87-3.06-7.6-.48-2.46-.35-5.29,1.05-7.45,1.67-2.58,4.75-3.28,7.61-3.62,1.85-.22,4.74,0,5.44-2.21.33-1.06.03-2.27-.28-3.3-.46-1.52-.99-3.02-1.41-4.55-.93-3.46-1.33-6.97-.66-10.52.14-.74-1-1.06-1.14-.31-1.04,5.51.48,10.48,2.06,15.7.37,1.23.85,3.05-.75,3.59-1.3.43-2.89.36-4.25.55-2.24.31-4.46.92-6.21,2.42-3.28,2.8-3.41,7.82-2.2,11.65.78,2.49,2.25,4.69,3.12,7.15.48,1.35.58,2.74-.83,3.5-1.15.62-2.6.62-3.86.56-3.23-.15-6.33-1.37-9.14-2.9-2.42-1.32-4.74-2.92-7.59-3.01-.76-.02-.76,1.16,0,1.18h0Z"/>
    <path class="j" d="M174.89,328.03c1.79-1.91,4.48-2.62,6.98-1.8s3.96,3.1,4.76,5.55c1.43,4.32,1.58,9.71,5.83,12.39,4.02,2.53,9.75,1.33,13.25,4.81s2.78,9.62,6.83,12.84c2.02,1.6,4.61,1.96,6.97,2.82,2.7.99,4.23,2.88,5.53,5.36,1.15,2.18,2.13,4.57,3.97,6.28s4.03,2.35,6.33,2.79c2.61.5,5.41.68,7.78,1.98,2.57,1.41,4.08,4.04,5.18,6.66,1.01,2.42,1.54,5.23,3.23,7.31s3.96,2.37,6.39,2.24c1.59-.09,3.22-.36,4.81-.09s2.96,1.18,4.05,2.37c2.33,2.54,3.37,5.92,4.65,9.03,1.14,2.78,2.49,5.61,5,7.41,2.12,1.53,4.84,2.1,7.19.74.67-.39.06-1.43-.61-1.04-2.69,1.56-5.8-.11-7.6-2.28-2.02-2.45-2.97-5.63-4.16-8.52-1-2.43-2.2-4.9-4.14-6.73s-4.26-2.41-6.88-2.27c-2.85.15-6.04.79-7.97-1.89-1.65-2.28-2.15-5.3-3.33-7.83-1.07-2.3-2.54-4.51-4.73-5.88s-4.67-1.72-7.11-2.13c-2.67-.45-5.48-.96-7.46-2.96-1.77-1.79-2.67-4.26-3.87-6.42s-2.75-3.97-5.1-4.97-5-1.23-7.09-2.71c-4.31-3.06-3.39-9.68-7.24-13.19-3.61-3.29-8.93-2.26-12.97-4.6-5.12-2.96-4.08-10.2-6.85-14.75s-8.91-5.17-12.46-1.37c-.53.56.32,1.42.85.85h0Z"/>
    <path class="j" d="M173.93,327.14c-6.55,10.65-8.16,24.22-4.76,36.2,3.2,11.28,11.32,21.14,22.17,25.78,4.86,2.08,10.83,3.5,16.08,2.19,5.9-1.47,8.41-6.94,8.05-12.66-.31-5.01-2.36-11.81-7.39-14.02-6.13-2.69-11.34,3.27-14.02,8.01-7.03,12.41-8.34,30.45,3.18,40.76.57.51,1.43-.33.85-.85-9.43-8.44-9.93-22.78-5.58-33.88,2.02-5.16,5.64-12.81,11.95-13.43s8.88,6.83,9.62,11.66c.86,5.64-.87,11.71-6.99,13.24-4.95,1.23-10.64-.15-15.23-2.1-9.9-4.22-17.56-12.98-20.96-23.13-4.08-12.14-2.68-26.24,4.05-37.17.41-.66-.63-1.26-1.04-.61h0Z"/>
    <path class="j" d="M293.39,411.55c1.95-3.87,1.07-9.28-2.46-11.99-4.47-3.43-10.95-.03-15.23-3.64-3.52-2.96-3.94-8.23-6.44-11.9-1.29-1.9-3.06-3.17-5.3-3.72-2.69-.66-5.7-.33-8.2-1.67-2.3-1.23-3.37-3.76-4.49-5.98s-2.36-4.26-4.55-5.51c-2.36-1.35-5.15-1.59-7.56-2.81s-3.74-3.38-4.76-5.76c-1.9-4.4-3-9.48-7.6-11.91-2.49-1.32-5.22-1.6-7.96-2.04-1.48-.24-3.02-.61-4.13-1.7-.95-.94-1.41-2.23-1.72-3.49-.65-2.65-.67-5.51-2.03-7.94s-3.88-3.98-6.5-4.82c-3.3-1.07-6.89-1.05-10.08-2.49s-5.7-4.73-4.97-8.31c.15-.75-1-1.08-1.16-.32-.5,2.47.25,4.88,1.83,6.83,1.81,2.24,4.43,3.35,7.18,3.98s5.75.85,8.39,2.05,4.47,3.27,5.18,6.15c.6,2.4.64,4.97,1.68,7.24s3.05,3.44,5.45,3.89c2.8.53,5.65.65,8.23,2.01s3.95,3.58,5.04,6.1c1.81,4.21,2.88,9.31,7.32,11.57,2.41,1.22,5.2,1.48,7.56,2.81s3.53,3.95,4.75,6.33c1.03,2.02,2.23,4.04,4.29,5.15,2.38,1.29,5.17,1.14,7.76,1.64,2.73.52,4.6,1.96,5.94,4.35,1.09,1.95,1.79,4.08,2.68,6.11.97,2.21,2.22,4.45,4.34,5.75,2.52,1.54,5.56,1.33,8.39,1.41,3.12.09,6.06.78,7.73,3.66,1.45,2.5,1.67,5.75.36,8.35-.35.69.69,1.3,1.04.61h0Z"/>
    <path class="j" d="M278.29,384.29c7.11-1.4,8.6-10.36,7.45-16.28-.82-4.22-2.7-8.17-4.65-11.98s-4.04-7.46-6.54-10.88c-4.46-6.1-10.52-11.76-18.09-13.5-6.64-1.53-14.05.71-17.86,6.58s-3.53,13.93.79,19.26c5.05,6.24,13.67,6.82,20.44,3.16,3.1-1.68,5.47-4.19,5.87-7.81.42-3.81-1.13-7.64-3.11-10.81-2.15-3.43-4.95-6.39-7.87-9.16-3.1-2.94-6.31-5.76-9.67-8.4-12.78-10.05-29.1-18.15-45.78-14.7-2.06.43-4.06,1.04-6.01,1.83-.7.28-.39,1.43.31,1.14,14.54-5.86,30.49-.9,43.11,7.19,6.37,4.08,12.21,8.99,17.66,14.22,2.69,2.58,5.25,5.32,7.23,8.48s3.52,6.93,2.89,10.64-4.09,6.1-7.5,7.42-7.46,1.59-11,.19c-6.75-2.66-9.89-10-8.42-16.89,1.43-6.71,7.12-11.33,13.95-11.63s13.59,3.92,18.3,8.89c5.16,5.45,8.96,12.26,12.07,19.04,2.85,6.21,5.32,15.02-.02,20.7-1.06,1.12-2.35,1.87-3.87,2.17-.75.15-.43,1.29.31,1.14h0Z"/>
  </g>
  <path class="j" d="M324.04,103.14c-1.71,4.95-6.83,7.2-11.47,8.67-5.74,1.81-11.71,2.75-17.4,4.72s-10.5,5.08-13.66,10.4c-3.51,5.91-4.73,12.86-5.94,19.53s-2.33,13.79-5.95,19.69c-3.84,6.25-10.35,9.14-16.99,11.53s-13.5,4.61-18.23,9.96c-5.09,5.76-6.5,13.57-8.55,20.74-1.05,3.65-2.28,7.3-4.37,10.5s-4.83,5.52-7.88,7.55c-6.07,4.04-13.04,6.81-18.35,11.94-11.24,10.86-9.15,28.05-13.73,41.82-1.19,3.56-2.89,6.97-5.31,9.86-2.58,3.09-5.76,5.57-9.21,7.62s-7.16,3.69-10.92,5.14-7.35,2.69-10.7,4.71-6.09,4.77-7.67,8.34-1.98,7.47-1.98,11.33c-.01,7.96,1.66,16.47-1.99,23.92-3.43,7.01-10.1,11.78-16.9,15.2-3.72,1.87-7.94,2.8-11.96,4-8.16,2.43-20.34,6.12-22,15.96-.42,2.49-.09,5,.67,7.4.48,1.53,2.9.88,2.41-.66-1.43-4.55-.74-8.93,2.76-12.3s8.11-5.13,12.53-6.63,8.76-2.5,13.05-3.99c5.97-2.07,11.79-5.84,16.23-10.32,2.67-2.7,4.84-5.85,6.24-9.39s1.82-7.67,1.81-11.6c-.01-7.63-1.92-16.54,2.22-23.47s13.09-8.76,19.99-11.73c7.22-3.11,14.19-7.33,18.8-13.86,8.9-12.62,5.71-29.34,12.46-42.77,3.45-6.86,9.6-10.71,16.08-14.36s12.68-7.32,16.33-13.83,4.6-14.42,7.24-21.51c1.3-3.49,3.14-6.76,5.89-9.31,2.58-2.39,5.78-4.04,9.02-5.36,6.49-2.65,13.58-4.3,19.25-8.62s8.37-10.4,10.06-16.94c1.77-6.84,2.44-13.92,4.39-20.72,1.71-5.96,4.61-11.77,10.15-14.97,5.08-2.93,11.05-4.05,16.68-5.44,5.28-1.3,11.01-2.67,15.28-6.23,1.86-1.55,3.22-3.55,4.01-5.84.53-1.52-1.89-2.18-2.41-.66h0Z"/>
  <path class="j" d="M277.64,142.36c-13.34-13.82-29.91-24.77-48.54-29.89-16.85-4.63-34.93-4.17-51.36,1.9-15.51,5.74-28.78,16.26-38.98,29.18-11.16,14.13-18.83,30.86-23.1,48.31-2.27,9.27-3.69,18.86-3.94,28.4s.76,19.47,4.67,28.31c3.68,8.33,10.27,14.98,18.92,18.05,7.74,2.75,16.45,2.51,24.26.18s15.31-7.16,19.39-14.51c4.85-8.75,4.23-19.48,1.11-28.7-3.33-9.81-9.67-18.19-16.94-25.44-7.48-7.46-16.01-13.85-25.33-18.84-8.81-4.72-18.29-8.21-28.04-10.41-7.12-1.6-14.79-3.08-22.1-2.08-4.74.65-8.95,2.72-11.82,6.62-3.19,4.33-4.48,9.91-5.52,15.08-.71,3.55-1.27,7.13-1.81,10.71-.24,1.57,2.17,2.25,2.41.66.96-6.29,1.83-12.74,3.88-18.79,1.37-4.04,3.52-7.93,7.38-10.04,4.65-2.54,10.48-2.27,15.57-1.72,8.81.94,17.58,3.18,25.86,6.27,9.23,3.45,17.98,8.19,25.91,14.05,8.08,5.97,15.7,13.2,21.42,21.5,5.67,8.22,9.49,18.08,9.02,28.19-.41,8.85-4.96,16.56-12.49,21.21-13.56,8.38-33.27,7.66-43.92-5.04-5.94-7.09-8.35-16.58-9.09-25.62s.05-18.69,1.62-27.84c2.98-17.35,9.21-34.22,18.86-48.98,8.68-13.26,20.26-24.84,34.36-32.27s31.72-10.54,48.13-8.25c17.7,2.48,34.26,10.57,48,21.86,3.67,3.02,7.14,6.26,10.44,9.67,1.12,1.16,2.89-.61,1.77-1.77h0Z"/>
  <path class="j" d="M171.93,294.37c-16.73,2.78-33.69,4.72-50.68,4.33-13.14-.3-26.12-2.19-38.92-5.12-6.66-1.52-13.26-3.27-19.84-5.07s-13.83-2.27-20.89-1.45c-7,.81-14.37,2.57-20.28,6.57-4.73,3.2-7.53,8.46-9.48,13.69-2.28,6.12-3.47,12.72-3.71,19.25-.22,6.03.48,11.9,3.03,17.4,3.45,7.42,8.39,14.45,14.93,19.47,2.79,2.14,5.93,3.91,9.35,4.81,3.74.98,7.78.87,11.59.38,7.61-.98,15.38-3.79,21.52-8.48,5.48-4.18,8.22-10.74,10.49-17.06s4.1-13.23,5.25-20.01c.95-5.54.32-11.26-.57-16.76-2.35-14.64-7.01-28.82-10.5-43.21-1.64-6.77-3.15-13.63-3.78-20.57-.85-9.33-.4-18.87.23-28.2.33-4.92.78-9.83,1.28-14.74.16-1.6-2.34-1.59-2.5,0-1.76,17.17-3.3,34.91-.25,52.02,2.58,14.42,7.06,28.41,10.48,42.63,1.5,6.26,2.9,12.61,3.4,19.04.21,2.61.26,5.26-.02,7.87s-.95,5.29-1.55,7.88c-1.68,7.23-3.8,14.53-7.2,21.16-1.39,2.7-2.91,5.17-5.23,7.15-2.62,2.24-5.73,3.95-8.88,5.34-3.71,1.63-7.68,2.78-11.69,3.38-3.71.55-7.74.74-11.4-.22-7.17-1.89-12.99-7.66-17.2-13.52-3.94-5.49-7.31-11.67-8.05-18.47-.68-6.2-.1-12.56,1.27-18.63,1.28-5.67,3.27-11.68,7.02-16.23,3.93-4.77,10.3-6.97,16.14-8.32,6.89-1.59,14.31-2.1,21.31-.96,3.28.53,6.48,1.57,9.68,2.43s6.45,1.7,9.69,2.51c12.27,3.03,24.72,5.36,37.35,6.21,15.23,1.02,30.52-.01,45.63-2.02,4.57-.61,9.12-1.29,13.66-2.05,1.58-.26.91-2.67-.66-2.41h0Z"/>
  <g>
    <text class="s" transform="translate(174.27 139.34) rotate(.45)"><tspan x="0" y="0">P</tspan></text>
    <text class="s" transform="translate(190.73 139.54) rotate(.45)"><tspan x="0" y="0">I</tspan></text>
    <text class="s" transform="translate(201.56 139.55) rotate(.45)"><tspan x="0" y="0">G</tspan></text>
    <text class="s" transform="translate(217.43 139.67) rotate(.45)"><tspan x="0" y="0">M</tspan></text>
    <text class="s" transform="translate(235.96 139.82) rotate(.45)"><tspan x="0" y="0">A</tspan></text>
  </g>
  <text class="p" transform="translate(142.59 165.36) rotate(19.91)"><tspan x="0" y="0">M</tspan></text>
  <text class="p" transform="translate(166.92 173.34) rotate(13.67)"><tspan x="0" y="0">I</tspan></text>
  <text class="p" transform="translate(176.5 175.72) rotate(12.04)"><tspan x="0" y="0">C</tspan></text>
  <text class="p" transform="translate(195.42 179.95) rotate(5.89)"><tspan x="0" y="0">R</tspan></text>
  <text class="p" transform="translate(218.51 181.98) rotate(-9.17)"><tspan x="0" y="0">O</tspan></text>
  <text class="p" transform="translate(241.29 177.53) rotate(-23.72)"><tspan x="0" y="0">N</tspan></text>
  <text class="o" transform="translate(132.7 246.46)"><tspan x="0" y="0">PENS</tspan></text>
  <text class="t" transform="translate(122.47 248.86) rotate(61.49)"><tspan x="0" y="0">A</tspan></text>
  <text class="t" transform="translate(124.9 253.15) rotate(49.36)"><tspan x="0" y="0">R</tspan></text>
  <text class="t" transform="translate(127.69 256.37) rotate(39.53)"><tspan x="0" y="0">C</tspan></text>
  <text class="t" transform="translate(131.21 259.24) rotate(29.47)"><tspan x="0" y="0">H</tspan></text>
  <text class="t" transform="translate(135.52 261.56) rotate(22.17)"><tspan x="0" y="0">I</tspan></text>
  <text class="t" transform="translate(137.7 262.49) rotate(15.71)"><tspan x="0" y="0">V</tspan></text>
  <text class="t" transform="translate(141.26 263.52) rotate(8.02)"><tspan x="0" y="0">A</tspan></text>
  <text class="t" transform="translate(146.01 264.13) rotate(-.74)"><tspan x="0" y="0">L</tspan></text>
  <text class="t" transform="translate(149.97 264.02) rotate(-5.68)"><tspan x="0" y="0"> </tspan></text>
  <text class="t" transform="translate(151.54 263.87) rotate(-8.87)"><tspan x="0" y="0">I</tspan></text>
  <text class="t" transform="translate(153.84 263.56) rotate(-14.58)"><tspan x="0" y="0">N</tspan></text>
  <text class="t" transform="translate(158.62 262.28) rotate(-21.57)"><tspan x="0" y="0">K</tspan></text>
  <text class="n" transform="translate(122.35 224.74) rotate(16.88) scale(.96 1)"><tspan x="0" y="0">3</tspan></text>
  <g>
    <text class="u" transform="translate(250.42 202.81) rotate(.62) scale(1.15 1) skewX(-.46)"><tspan x="0" y="0">.01</tspan></text>
    <text class="i" transform="translate(250.94 213.98)"><tspan x="0" y="0">.25mm</tspan></text>
  </g>
  <g>
    <text class="m" transform="translate(245.03 250.79) rotate(.32) scale(1.11 1) skewX(-.47)"><tspan x="0" y="0">.03</tspan></text>
    <text class="i" transform="translate(249.54 264.39)"><tspan x="0" y="0">.35mm</tspan></text>
  </g>
  <g>
    <text class="k" transform="translate(244.42 304.3) rotate(.59) scale(1.02 1) skewX(-.51)"><tspan x="0" y="0">.05</tspan></text>
    <text class="i" transform="translate(246.18 315.71)"><tspan x="0" y="0">.45mm</tspan></text>
  </g>
  <g>
    <g>
      <path d="M239.09,291.12c-.02,1.84-.37,2.98-.71,4.46l-38.41-.25.32-48.61,39.21.36-.41,44.04Z"/>
      <path class="y" d="M219.68,280.69c-2.87,1.07-5.18,5.13-7.99,4.36-1.3-.36-3.4-2.7-4.89-2.98-.36-3.57,1.48-7.51,2.61-10.54-3.16-1.38-6.35-4.13-7.25-7.25,1.16-1.01,2.01-3.12,1.51-4.94,4.03-4.05,9.92.79,10.19-3.57.13-2.06,1.33-6.9,3.6-6.64,1.3.15,3.04.06,4.28.02,3.56-.12,2.9,6.51,4.51,8.26,2.6.93,7.13-1.14,9.38,1.78.67.87-2,2.63,1.46,5.09-.79,3.51-4.09,5.44-7.33,7.03,2.15,3.26,3.15,8.14,1.9,11.38-1.29.34-3.12,1.82-4.19,2.31-2.88,1.32-5.56-1.97-7.79-4.32Z"/>
      <path d="M215.26,276.91c-.93.22-1.45-.35-1.83-.73-.78-.78.31-1.4.66-1.83.69-.87,1.7-1.07,1.83.04.11.95.28,2.29-.66,2.51Z"/>
      <path d="M211.28,269.82c.82-.46,1.23.26,1.52.59.57.62.18,1.46-.25,2.03-.71.93-1.54.22-1.91-.6-.24-.54-.67-1.28.64-2.01Z"/>
      <path d="M225.6,275.51c.36.71-.95,1.72-1.4,1.42-.63-.42-1.53-1.21-1.16-2.64.31-1.19,1.75-.37,2.56,1.22Z"/>
      <path d="M219.15,260.07c-.44-.29-.43-1.96,0-2.67.58-.98,1.48.4,1.76.94.43.83-.69,2.43-1.75,1.73Z"/>
      <path d="M223.4,259.81c.58-.55,1.51-.36,1.8.19.2.38.12,1.59-.25,1.78s-1.03.79-1.45.68c-.65-.17-.53-2.26-.11-2.65Z"/>
      <path d="M226.82,263.64c.79-.57,2.02.56,1.87,1.15-.22.86-1.29,1.05-1.82,1.12-.85.11-1.63-1.13-.06-2.27Z"/>
      <path d="M211.33,264.27c.61-.27,1.54-.22,1.82.31.38.72-.42,1.17-.69,1.57-.38.56-.72.43-1.4-.04-.63-.43-1.12-1.22.27-1.84Z"/>
      <path d="M226.03,270.21c.5-.92,1.52-.45,1.85-.14.43.4,1.15.92.5,1.55-.52.51-.97.79-1.36.59-.45-.24-1.52-1.04-.99-2Z"/>
      <path d="M220.53,277.23c.05,1.44-1.22,1.53-1.8.8-.41-.51-.57-1.28.37-2.74.21.54,1.4.91,1.44,1.94Z"/>
      <path d="M214.11,260.05c.47-1.39,1.75-.58,1.91-.02.13.46.22,1.15-.36,1.75-.44.45-1.99-.43-1.55-1.73Z"/>
      <path d="M218.45,270.88c-1.7-1.05-2.01-4.68-.39-5.73,1.28-.83,2.87.12,3.63.94.72.78.93,2.09.14,3.44-.53.91-1.82,2.31-3.39,1.35Z"/>
      <path class="y" d="M219.1,265.94c.83-.46,1.75.55,1.81,1.19.07.71.27,2.51-.35,2.58-.85.09-2.3.3-2.42-.38-.21-1.21-.26-2.72.96-3.4Z"/>
      <line class="ae" x1="223.47" y1="274.1" x2="220.83" y2="270.32"/>
      <line class="ae" x1="226.34" y1="270.23" x2="221.68" y2="268.25"/>
      <line class="ae" x1="226.35" y1="265.22" x2="221.18" y2="266.84"/>
      <line class="ae" x1="223.56" y1="261.85" x2="220.89" y2="266.55"/>
      <line class="ae" x1="215.59" y1="274.02" x2="218.3" y2="270.3"/>
      <line class="ae" x1="212.36" y1="270.84" x2="217.54" y2="268.61"/>
      <line class="ae" x1="212.41" y1="264.98" x2="217.55" y2="266.69"/>
      <line class="ae" x1="215.27" y1="261" x2="217.85" y2="265.76"/>
      <line class="ak" x1="219.04" y1="276.45" x2="219.35" y2="270.91"/>
      <line class="ai" x1="219.56" y1="265.34" x2="219.87" y2="259.8"/>
    </g>
    <text class="v" transform="translate(202.03 292.18) rotate(.53) scale(1.34 1)"><tspan class="ag" x="0" y="0">S</tspan><tspan x="2.89" y="0">A</tspan><tspan class="w" x="7.55" y="0">K</tspan><tspan x="11.65" y="0">URA</tspan></text>
  </g>
  <path class="j" d="M370.14,170.82c20.01-3.31,40.62,1.84,57.93,12.05s31.87,26.55,41.66,44.8,16.02,39.6,18.54,60.56c1.3,10.84,1.56,21.93-.26,32.72-1.66,9.85-4.94,19.89-11.06,27.91-5.42,7.1-12.76,12.73-20.74,16.68-7.8,3.85-16.57,6.17-25.31,5.71-2.08-.11-4.14-.4-6.17-.86-1.57-.36-2.24,2.05-.66,2.41,17.79,4.04,37.24-4.32,49.84-16.75,15.3-15.09,18.86-38.08,17.68-58.7-.64-11.09-2.53-22.14-5.23-32.91-2.64-10.51-6.18-20.81-10.76-30.64-8.99-19.31-22.26-36.78-39.86-48.99-17.05-11.82-37.99-18.81-58.85-17.29-2.48.18-4.95.49-7.41.89-1.58.26-.91,2.67.66,2.41h0Z"/>
  <path class="j" d="M383.63,248.56c6.56,7.37,11.61,16.03,15.91,24.86,5.16,10.59,9.23,21.71,12.51,33.01,3.42,11.78,5.99,23.83,7.52,36,1.62,12.95,1.38,26.16,4.34,38.92,2.22,9.57,6.44,19.15,16.17,22.96,9.64,3.77,19.76.74,29.11-2.33,5.01-1.64,10-3.42,15.17-4.5,4.18-.88,8.52-1.24,12.6.26s7.69,4.19,11.09,6.81c4.21,3.25,8.25,6.72,12.45,9.98s8.97,6.67,13.93,9.24c5.37,2.78,11.05,4.37,17.08,4.76,5.5.35,10.98-.25,16.45-.79,4.05-.39,8.58-1.04,12.52.31,1.56.53,2.89,1.51,3.84,2.86s3.08.06,2.16-1.26c-2.25-3.23-5.74-4.51-9.56-4.78-4.75-.34-9.55.47-14.26.89-5.75.5-11.59.67-17.26-.56s-11.04-4.04-15.95-7.26c-8.8-5.78-16.28-13.34-25.08-19.1-3.38-2.21-7.04-4.07-11.11-4.51-4.74-.52-9.61.61-14.15,1.89-5.23,1.47-10.33,3.36-15.53,4.93-4.71,1.42-9.62,2.7-14.58,2.45-4.56-.23-9.13-1.45-12.8-4.25s-6.06-6.84-7.64-11.06c-4.71-12.6-4.55-26.31-5.79-39.52-1.14-12.18-3.35-24.26-6.41-36.11s-6.78-22.82-11.53-33.72c-4.12-9.45-8.98-18.71-15.2-26.96-1.34-1.78-2.74-3.51-4.23-5.18-1.07-1.2-2.84.57-1.77,1.77h0Z"/>
  <path class="j" d="M357.71,39.7c-5.35,8.27-10.38,16.75-15.18,25.35-6,10.76-11.67,21.75-16.46,33.1-3.88,9.18-7.84,19.11-8.36,29.18-.57,10.82,4.59,21.59,12.09,29.16,9.1,9.16,21.76,13.99,34.56,14.44,1.82.06,3.64.04,5.46-.06,1.6-.09,1.61-2.59,0-2.5-12.8.69-25.87-2.81-35.7-11.27-8.08-6.96-13.92-17.29-13.95-28.15-.01-4.15.87-8.28,1.94-12.27,1.39-5.13,3.21-10.15,5.21-15.07,4.51-11.11,9.97-21.83,15.73-32.34,4.85-8.84,9.96-17.55,15.37-26.06.48-.75.96-1.5,1.44-2.25.88-1.35-1.29-2.61-2.16-1.26h0Z"/>
  <path class="j" d="M372.93,436.36c-2.73-10.72-5.97-21.29-9.78-31.67-2.31-6.31-4.96-12.54-6.77-19.01-1.57-5.63-2.09-11.33-1.61-17.16.55-6.7,1.92-13.53,4.49-19.76,1.8-4.35,4.34-8.36,7.63-11.72,2.78-2.84,5.78-4.99,9.04-7.22s6.33-4.27,9.13-6.86c3.1-2.87,5.62-6.34,7.34-10.2,2.44-5.48,3.48-11.44,3.93-17.39.7-9.37-.04-18.84-1.17-28.15-.36-2.97-.77-5.93-1.22-8.89-.24-1.59-2.65-.91-2.41.66,1.56,10.32,2.73,20.8,2.53,31.25-.13,6.41-.77,12.93-2.93,19.01-1.44,4.05-3.65,7.7-6.59,10.73-2.68,2.75-5.56,4.74-8.73,6.9s-6.55,4.47-9.45,7.18c-3.37,3.15-6.14,6.91-8.17,11.05-2.87,5.84-4.45,12.23-5.37,18.65s-1.05,12.45.19,18.62,3.55,11.82,5.72,17.58c3.42,9.08,6.58,18.24,9.24,27.58.9,3.15,1.74,6.32,2.55,9.49.4,1.56,2.81.9,2.41-.66h0Z"/>
  <path class="j" d="M273.6,159.4c10.45,9.08,18.65,20.36,24.77,32.74s10.33,26.17,13.11,39.92c1.41,6.94,2.47,13.94,3.27,20.97.87,7.68,1.29,15.39,1.93,23.09,1.24,14.98,4.09,30.75,15,41.93s27.88,12.91,42.42,9.96c2.09-.42,4.15-.94,6.21-1.51,1.55-.43.89-2.84-.66-2.41-7.85,2.19-15.96,3.38-24.1,2.31-7.36-.97-14.61-3.34-20.23-8.33-11.57-10.28-14.75-26.06-16.04-40.78-.67-7.63-1.05-15.28-1.88-22.9-.75-6.93-1.75-13.84-3.06-20.69-2.59-13.52-6.44-26.85-12.19-39.39s-13.24-23.77-23-33.19c-1.23-1.19-2.5-2.35-3.8-3.47-1.21-1.05-2.99.71-1.77,1.77h0Z"/>
  <path class="j" d="M328.38,154.73c6.42,11.38,12.27,23.09,18.41,34.62,7.48,14.04,15.13,28.04,23.77,41.41,3.99,6.18,8.2,12.28,13.07,17.8,1.07,1.21,2.83-.57,1.77-1.77-4.24-4.8-7.93-10.07-11.45-15.41-4.24-6.44-8.21-13.07-12.05-19.77-7.72-13.45-14.91-27.2-22.13-40.93-3.03-5.76-6.03-11.54-9.23-17.22-.79-1.4-2.95-.14-2.16,1.26h0Z"/>
  <g>
    <path class="j" d="M68.85,128.02c-.33,1.27-.45,2.6-.48,3.91s.16,2.7.26,4.06c.12,1.53.13,3.07-.06,4.59-.16,1.37-.42,3.23-1.35,4.31-.62.72-1.26.24-1.77-.34-.54-.61-1.01-1.28-1.48-1.94-.8-1.11-1.62-2.2-2.73-3.02-1.96-1.45-4.51-1.75-6.23.22-.88,1.01-1.41,2.26-1.87,3.5-.27.73-.51,1.47-.79,2.19-.13.34-.27.79-.6.79-.57,0-1.28-.42-1.79-.65-.8-.36-1.58-.76-2.35-1.18-1.14-.61-2.44-1.22-3.39-2.1-1.12-1.04-2.63-1.59-4.05-2.07-3.86-1.31-7.9-2.01-11.9-2.76-.48-.09-.69.65-.2.74,3.62.68,7.26,1.33,10.8,2.41,1.55.47,3.39.98,4.64,2.07.99.86,2.1,1.5,3.25,2.13,1.42.78,2.94,1.67,4.52,2.1.57.15.99.15,1.37-.36s.59-1.26.81-1.88c.29-.8.56-1.62.91-2.4.56-1.25,1.39-2.66,2.79-3.07,1.3-.39,2.68.22,3.71,1,1.26.95,2.11,2.3,3.04,3.56.63.86,1.54,2.38,2.8,2.24,1.38-.16,1.91-2.02,2.21-3.13.44-1.63.59-3.33.58-5.01s-.29-3.32-.34-4.98c-.04-1.57.05-3.18.45-4.71.12-.48-.62-.68-.74-.2h0Z"/>
    <path class="j" d="M28.46,138.18c1.68-1.66,4.39-1.88,6.62-2.01s4.46.08,6.55-.53c2.91-.84,5.16-3.13,8.17-3.71,3.32-.64,6.69.43,10.02.43,3.64,0,6.76-1.73,9.59-3.9.39-.3,0-.98-.39-.67-2.6,2-5.5,3.72-8.86,3.79s-6.75-.98-10.14-.47c-1.51.23-2.89.84-4.21,1.59s-2.58,1.59-4.01,2.08c-2.13.72-4.51.49-6.73.62-2.45.14-5.33.42-7.17,2.24-.36.35.19.9.55.55h0Z"/>
    <path class="j" d="M45.02,119.23c-3.59.3-7.84.12-10.62-2.5-.77-.72-1.36-1.59-1.8-2.54-.49-1.05-.97-2.22-.64-3.38.7-2.41,3.44-4.04,5.61-4.93,2.58-1.05,5.59-1.35,8.14-.03,1.15.59,2.15,1.45,2.81,2.56.71,1.19.98,2.56,1.06,3.93.15,2.59-.42,5.18-1.74,7.42-2.96,5.05-9.01,7.56-14.64,7.97-.5.04-.5.82,0,.78,5.35-.39,10.97-2.55,14.32-6.91,1.73-2.25,2.72-4.98,2.84-7.81s-.47-5.65-2.65-7.52-5.17-2.42-7.98-1.86-5.56,1.97-7.35,4.1c-.74.88-1.32,1.93-1.35,3.1-.02.7.21,1.35.46,1.99.38.99.86,1.94,1.52,2.78,2.81,3.57,7.8,3.98,11.99,3.63.5-.04.5-.82,0-.78h0Z"/>
    <path class="j" d="M57.42,120.01c3.89.32,8.44.03,11.36-2.91.81-.82,1.43-1.8,1.89-2.86.6-1.4.99-2.76.33-4.24-1.09-2.44-3.81-4.06-6.2-4.97-2.75-1.05-5.89-1.21-8.55.2s-3.87,3.76-4.14,6.56.26,5.53,1.57,7.96c3,5.57,9.49,8.33,15.54,8.78.5.04.5-.74,0-.78-4.98-.37-10.22-2.34-13.46-6.29-1.69-2.06-2.72-4.63-2.9-7.28s.26-5.45,2.34-7.28,5.1-2.26,7.78-1.61c2.48.6,5.16,1.97,6.72,4.05.7.94,1.13,2.1.77,3.26-.11.36-.25.72-.4,1.08-.36.88-.83,1.73-1.44,2.45-2.71,3.18-7.34,3.44-11.21,3.12-.5-.04-.5.74,0,.78h0Z"/>
    <path class="j" d="M51.43,112.72c-.6-.09-.8-.77-.66-1.29.1-.36.33-.67.51-.99.27-.49.38-.97.21-1.52-.1-.3-.25-.58-.35-.89-.14-.46-.07-.87.13-1.3.25-.54.5-.99.35-1.6-.11-.46-.32-.84-.23-1.33.07-.37.24-.7.32-1.06.13-.6-.09-1.09-.32-1.63-.22-.5-.29-.96-.13-1.49.11-.39.34-.72.46-1.1.21-.61-.07-.94-.39-1.43-.63-.96.21-1.92.45-2.85.13-.49.12-1.16-.37-1.44-.08-.05-.16.08-.08.13.9.52.01,1.94-.22,2.59-.22.6-.24,1.16.13,1.7.26.38.52.68.36,1.19-.11.38-.34.72-.46,1.09-.22.67-.09,1.21.18,1.83.18.4.33.78.27,1.23-.06.42-.27.79-.35,1.21-.14.74.43,1.4.23,2.12-.17.62-.64,1.11-.58,1.79s.58,1.23.51,1.94c-.07.75-.75,1.27-.84,2.02-.06.54.22,1.15.81,1.24.1.01.14-.13.04-.15h0Z"/>
    <path class="j" d="M65.92,132.4c-2.42,2.13-5.62,3.32-8.84,3.41-1.77.05-3.45-.4-5.2-.55-1.58-.14-2.98.23-4.36.97-1.48.79-2.9,1.87-4.63,1.95-.49.02-.49.79,0,.77,1.49-.07,2.78-.77,4.04-1.5,1.52-.88,2.93-1.56,4.74-1.44s3.57.62,5.41.57c1.63-.05,3.26-.35,4.79-.92,1.69-.62,3.24-1.53,4.59-2.72.37-.33-.17-.87-.54-.54h0Z"/>
    <path class="j" d="M51.74,124.83l1.32,1.39c.2.21.4.41.59.62.13.14.33.37.32.58-.02.39-.62-.04-.73-.14-.39-.36-.65-.87-.94-1.31-.34-.51-.66-1.04-1.01-1.53-.15-.21-.32-.37-.58-.42-.29-.05-.55.08-.8.2-.97.51-1.79,1.25-2.7,1.84-.97.63-2.18,1.09-3.33.67-.46-.17-.67.57-.2.74,1.14.41,2.39.09,3.43-.46s1.94-1.43,3-2.02c.12-.07.25-.15.38-.2.11-.04.1-.02.17.06.23.26.4.61.59.9.37.56.71,1.14,1.11,1.67.29.39.7.76,1.18.88s1.03-.11,1.18-.62c.19-.66-.37-1.24-.78-1.67l-1.64-1.73c-.34-.36-.88.18-.54.54h0Z"/>
    <path class="j" d="M41.85,110.44l1.04,1.68c.08.13.16.26.23.4.03.05-.01,0,0-.01,0,0,.01.03.01.04.01.03.02.07.03.1.01.04,0-.03,0-.04,0,.01,0,.04,0,.05,0,.02,0,.04,0,.05,0,.08.01-.04,0-.01,0,.02-.02.05-.02.07,0,.03.02-.05.02-.05,0,0-.01.02-.02.03-.01.02-.03.04-.04.06,0,0,.07-.08.03-.03-.01.01-.02.02-.03.03-.02.02-.03.03-.05.04-.04.04.03-.02.03-.02-.01,0-.02.02-.03.02-.04.03-.09.05-.14.08-.05.03.03-.01.04-.01-.01,0-.03.01-.04.01-.02,0-.05.02-.07.02-.06.02-.12.03-.18.04-.02,0-.05,0-.07.01-.05,0,.09-.01.04,0-.01,0-.03,0-.04,0-.06,0-.11,0-.17,0-.12,0-.23-.01-.35-.02.12.01.02,0-.01,0s-.06-.01-.09-.02c-.06-.01-.12-.03-.18-.05-.06-.02-.11-.03-.17-.06-.01,0-.03-.01-.04-.02-.05-.02.07.03.03.01-.03-.01-.06-.03-.09-.04-.05-.03-.1-.05-.15-.08-.02-.01-.04-.03-.06-.04-.05-.04.02.01.03.02,0-.01-.03-.02-.04-.04-.04-.04-.08-.07-.12-.12,0,0-.02-.03-.03-.03,0,0,.05.08.02.03-.02-.02-.03-.05-.05-.07-.01-.02-.02-.04-.04-.07-.03-.05.03.1,0,0,0-.02-.05-.12-.04-.14,0,0,.01.11,0,.05,0-.02,0-.03,0-.05,0-.03,0-.05,0-.08,0-.02,0-.05,0-.07,0,.13,0,.04,0,0,0-.03.01-.05.02-.08,0-.02.04-.11.01-.04s.01-.02.02-.04c.01-.02.02-.04.04-.06,0-.01.01-.02.02-.03.04-.06-.05.06-.02.03.02-.02.03-.04.05-.06s.04-.04.06-.05c.03-.03-.07.05-.04.03.01,0,.02-.02.04-.02.02-.01.04-.02.06-.03.05-.03-.04.02-.04.02,0,0,.04-.02.05-.02.02,0,.05-.01.07-.02.06-.02-.05,0-.05,0,.01,0,.04,0,.06,0,.2,0,.39-.17.38-.38,0-.2-.17-.39-.38-.38-.3.01-.59.13-.79.36s-.31.5-.34.8c-.06.61.39,1.13.92,1.38s1.2.34,1.79.18c.3-.08.58-.24.77-.5.23-.32.19-.72.04-1.07-.08-.18-.19-.34-.29-.51l-.33-.53-.66-1.07c-.11-.17-.35-.25-.52-.14s-.25.34-.14.52h0Z"/>
    <path class="j" d="M59.32,112.8s.02.04.03.06c.03.06-.02-.07,0,0,0,.02.01.04.02.06,0,.01,0,.02,0,.03.01.04,0-.08,0-.04s0,.09,0,.13c0,.04,0-.05,0-.05,0,0,0,.02,0,.03,0,.03-.01.05-.02.07s-.02.05-.03.07c-.01.04.02-.04.02-.04,0,0-.01.02-.01.03-.02.04-.05.09-.08.13,0,0-.01.02-.02.03-.02.03.02-.03.02-.03,0,0-.04.05-.05.05-.04.04-.07.08-.11.11,0,0-.02.02-.03.02-.03.02-.02,0,0,0,.02,0,.03-.02,0,0-.01,0-.02.01-.03.02-.04.03-.09.06-.14.08,0,0-.07.03-.07.03,0,0,.07-.03.03-.01-.01,0-.02,0-.04.01-.05.02-.1.03-.16.05-.02,0-.08,0-.09.02,0,0,.08,0,.04,0-.01,0-.03,0-.04,0-.05,0-.11,0-.16,0,0,0-.03,0-.04,0,0,0,.08.02.04,0-.03,0-.05-.01-.08-.02-.06-.01-.11-.03-.16-.05-.07-.02.06.03,0,0-.02-.01-.05-.02-.07-.03-.05-.03-.09-.06-.14-.09,0,0-.03-.02-.03-.02,0,0,.06.05.03.02-.02-.02-.04-.03-.06-.05-.04-.04-.08-.07-.12-.12-.02-.02-.04-.05-.06-.07-.03-.03.02.03.02.03,0,0-.02-.03-.02-.03-.03-.05-.06-.09-.09-.14-.03-.04-.05-.09-.07-.13,0-.01-.01-.02-.02-.03-.02-.04.02.03.01.03-.01,0-.03-.07-.03-.08-.03-.1-.06-.2-.08-.31-.01-.07,0,.07,0,0,0-.03,0-.05,0-.08,0-.05,0-.11,0-.16,0-.02,0-.05,0-.07,0-.02,0-.03,0-.05,0-.04,0,.03,0,.04,0,0,.01-.08.02-.09,0-.03.01-.07.02-.1.01-.06.03-.12.05-.17,0-.03.02-.06.03-.08,0-.01,0-.03.02-.04-.02.02-.02.05,0,0,.06-.13.13-.25.2-.37.04-.06.08-.12.12-.18,0-.01.02-.02.03-.04.03-.05-.04.05,0,0,.02-.03.05-.06.07-.09.2-.24.41-.45.65-.65.15-.13.15-.41,0-.54-.16-.15-.38-.14-.54,0-.88.77-1.73,1.93-1.32,3.16.18.54.56,1.01,1.09,1.23s1.17.14,1.64-.22c.51-.39.8-1.08.45-1.67-.1-.17-.35-.25-.52-.14s-.25.34-.14.52h0Z"/>
    <path class="j" d="M51.47,112.85c.33-.3.56-.68.65-1.13.17-.83-.09-1.63.62-2.27.43-.39.97-.65,1.23-1.19.34-.7.06-1.53.64-2.15.45-.48.89-.77,1.07-1.43.1-.36.14-.74.32-1.07.19-.35.51-.58.82-.81.48-.35.89-.71,1.08-1.29.25-.78.02-1.69.89-2.12.65-.32,1.05-.6,1.25-1.33.12-.41.14-.84.22-1.25.1-.52.38-1.32,1.03-1.34.1,0,.1-.15,0-.15-.54.01-.89.52-1.05.99-.28.79-.11,1.84-.74,2.49-.42.44-1.13.45-1.42,1.04-.13.27-.14.58-.18.88-.06.51-.18,1.04-.53,1.43-.42.47-1.04.71-1.41,1.23-.45.64-.31,1.49-.87,2.08-.46.49-.92.76-1.04,1.48-.06.38-.04.77-.17,1.13-.16.44-.53.71-.88.98-.52.39-.89.79-.97,1.46-.05.49.03.99-.15,1.47-.11.3-.29.55-.53.77-.07.07.04.17.11.11h0Z"/>
    <path class="j" d="M51.49,112.81c.09-.49.07-1.03-.21-1.45-.35-.52-.98-.71-1.48-1.05-.78-.52-.67-1.28-.95-2.06-.21-.6-.71-.88-1.21-1.21-.39-.26-.66-.55-.8-1.01-.1-.32-.15-.66-.34-.95-.4-.63-1.19-.89-1.47-1.62-.25-.66-.15-1.38-.61-1.96-.19-.24-.42-.44-.67-.61-.4-.29-.96-.53-1.08-1.06-.09-.41.08-.83-.07-1.24-.11-.3-.34-.56-.57-.77-.33-.3-.71-.52-1.06-.79-.39-.3-1.08-.93-.76-1.49.05-.08-.08-.16-.13-.08-.28.48.1,1.05.44,1.39.57.56,1.41.86,1.82,1.57.25.43.1.83.15,1.29.03.32.18.57.42.78.62.54,1.42.82,1.68,1.69.21.68.15,1.38.66,1.93.24.25.53.45.78.68.35.33.48.7.6,1.15.17.63.52.98,1.06,1.32.34.22.68.44.89.8s.21.77.3,1.15c.16.73.61,1.12,1.25,1.46.38.21.8.41,1.03.79s.24.85.16,1.28c-.02.1.13.14.15.04h0Z"/>
  </g>
  <g>
    <path class="j" d="M444.21,34.04c2.01-.36,3.66.72,4.47,2.53.88,1.95.57,3.86-.2,5.78s-1.8,3.73-1.7,5.77c.1,1.81,1.1,3.33,2.31,4.61s2.62,2.43,3.22,4.13c.73,2.07.21,4.42.13,6.56-.04,1.04-.01,2.12.26,3.13s.78,2.05,1.24,3.01c.6,1.26,1.33,2.41,2.41,3.31,2,1.67,4.32,2.76,6.67,3.85,2.94,1.37,5.93,2.66,8.77,4.24,1.01.56,2.08,1.14,2.9,1.96.46.45.71.9.33,1.48-.49.77-1.48,1.24-2.29,1.6-1.25.55-2.59.92-3.92,1.19-2.97.61-6.2.83-9.19.18-1.19-.26-2.47-.67-3.41-1.49s-.7-2.48-.43-3.58c.06-.24.13-.48.21-.71.02-.05.07-.17.07-.19,0-.12.3-.08-.19.1l-.43-.11c-.2-.16-.02-.44-.14-.21-.05.1-.07.25-.1.35-.16.54.69.78.85.23.1-.36.34-1.12-.31-1.12-.41,0-.54.52-.65.83-.41,1.23-.67,2.78-.21,4.03s1.9,1.92,3.09,2.34c1.48.52,3.08.72,4.64.78,3.25.12,6.67-.34,9.72-1.51,1.41-.54,4.54-1.93,3.58-3.98-.42-.9-1.42-1.52-2.23-2.04-1.35-.87-2.79-1.59-4.22-2.29-3.1-1.52-6.3-2.84-9.36-4.45-1.15-.61-2.25-1.31-3.24-2.16-1.27-1.08-1.98-2.55-2.64-4.05-.53-1.22-.9-2.35-.93-3.7-.03-1.26.11-2.51.19-3.77.13-2.19-.07-4.23-1.44-6.02-1.14-1.49-2.74-2.6-3.68-4.24-1.24-2.15-.56-4.28.35-6.4s1.7-4,1.25-6.23c-.37-1.8-1.42-3.6-3.17-4.34-.91-.38-1.87-.41-2.83-.24-.55.1-.32.95.23.85h0Z"/>
    <path class="j" d="M443.97,33.19c-2.37.82-3.72,2.85-5.72,4.21-2.25,1.54-5.01,1.36-7.6,1.16s-5.55-.59-8.11.45c-1.12.46-2.13,1.15-3,1.99-.79.75-1.37,1.68-2.13,2.44-1.92,1.92-4.93,2.65-7.53,2.01-.55-.13-.78.71-.23.85,2.47.6,5.07.12,7.19-1.28.75-.5,1.32-1.08,1.88-1.78.8-1.02,1.71-2,2.81-2.71,4.85-3.14,10.86.55,15.94-1.68,2.58-1.13,4.04-3.88,6.74-4.81.53-.18.3-1.03-.23-.85h0Z"/>
    <path class="j" d="M453.2,121.51c1.63-.35,3.48-.09,5.12.07,1.81.18,3.57.58,5.37.79,2.62.31,5.31-.07,7.84-.81,1-.29,1.98-.62,2.8-1.29.53-.43,1.2-1.22.97-1.97-.16-.53-.78-.94-1.18-1.26-.62-.49-1.26-.95-1.88-1.44-.72-.57-1.31-1.31-1.98-1.94-.95-.89-1.96-1.76-2.73-2.82-1.27-1.74-2.26-4.28-1.05-6.3,1.39-2.33,4.49-2.77,6.81-3.67,1.11-.43,1.72-1.3,1.25-2.48s-1.55-2.2-2.34-3.21c-1.71-2.21-3.21-4.65-3.57-7.47-.07-.54-.93-.55-.87,0,.29,2.3,1.23,4.39,2.52,6.3.65.97,1.38,1.89,2.11,2.8.64.78,2.33,2.46.79,3.17-1.22.57-2.58.84-3.83,1.36-.99.41-1.95.92-2.73,1.66-1.53,1.45-1.85,3.53-1.26,5.5.68,2.26,2.27,3.91,3.95,5.48.72.67,1.36,1.46,2.12,2.09.56.47,1.17.88,1.74,1.33.28.21.55.43.81.66.13.12.44.34.49.5.11.38-.47.88-.71,1.07-.4.32-.87.58-1.36.75-2.43.88-5.11,1.34-7.69,1.21-1.12-.06-2.2-.31-3.3-.48-.97-.15-1.95-.28-2.93-.38-1.78-.18-3.75-.44-5.51-.06-.54.12-.31.95.23.83h0Z"/>
    <path class="j" d="M438.34,110.72c1.04-1.76,3.44-2.43,5.28-2.96s3.92-.81,5.63-1.77c2.4-1.34,3.85-3.84,6.51-4.79s5.63-.85,8.4-1.46c3.12-.69,5.44-2.66,7.39-5.11.27-.34-.21-.83-.48-.48-1.83,2.29-3.98,4.2-6.89,4.89s-5.84.51-8.6,1.51c-1.21.44-2.25,1.12-3.21,1.97-1.03.92-1.95,1.96-3.13,2.7-1.72,1.08-3.88,1.34-5.8,1.89-2.03.58-4.54,1.34-5.69,3.27-.22.38.37.72.59.35h0Z"/>
    <path class="j" d="M442.75,74.5c1.66-3.06,2.61-6.83.29-9.81-.67-.86-1.51-1.54-2.4-2.15-1.65-1.14-3.49-1.22-5.37-.59-4.01,1.35-8.39,5.58-6.26,10.12,1.02,2.17,3.21,3.34,5.38,4.09,2.45.85,5.09,1.18,7.67.87,5.17-.63,9.81-3.89,12.25-8.48.21-.39-.38-.73-.59-.35-1.93,3.63-5.32,6.47-9.28,7.64-2.3.68-4.74.79-7.1.38-2.18-.38-4.59-1.12-6.29-2.59s-2.43-3.92-1.49-6.07c.84-1.93,2.62-3.38,4.44-4.34s4.13-1.52,5.97-.31c.71.47,1.4.98,2,1.6.94.96,1.58,2.17,1.75,3.51.27,2.15-.57,4.27-1.57,6.13-.21.39.38.73.59.35h0Z"/>
    <path class="j" d="M473.93,99.53c-2.31,1.06-4.84,1.71-7.29,2.32-1.39.35-2.8.66-4.21.91-.91.16-1.82.2-2.69.5-2.11.72-4.15,1.78-6.08,2.89-1.32.77-2.43,1.81-3.78,2.54-2.8,1.52-6.01,2.12-9.16,2.4-.43.04-.43.71,0,.67,2.91-.25,5.83-.78,8.51-1.99.85-.39,1.66-.85,2.42-1.38.55-.39,1.06-.85,1.63-1.22,1.85-1.2,3.92-2.21,5.98-3.02.87-.35,1.68-.49,2.61-.63,1.37-.2,2.73-.49,4.08-.82,2.81-.67,5.7-1.4,8.33-2.6.39-.18.05-.76-.34-.58h0Z"/>
    <path class="j" d="M465.6,91.72l1.3.72c.4.22.83.41,1.2.68.11.08.2.18.26.28.03.05,0,.05,0,.02,0,0-.02.05-.03.06.03-.05-.03,0,0,0,.05-.02-.1.05-.02.01,0,0-.11.03-.04.02-.03,0-.06,0-.09,0-.08,0-.08,0-.16-.02-.15-.03-.3-.08-.44-.15-.34-.17-.63-.44-.94-.67-.4-.31-.79-.62-1.19-.93-.18-.14-.35-.3-.54-.41-.15-.08-.38-.15-.56-.1-.15.04-.29.2-.4.3-.15.14-.28.28-.41.43-.58.66-1.05,1.41-1.67,2.03-.31.31.17.79.48.48.42-.43.78-.92,1.15-1.39.19-.24.38-.48.59-.71.09-.1.19-.21.29-.3.05-.05.1-.1.16-.14.03-.02.06-.05.09-.07.04-.03.07-.03,0,0l-.17.05c.1,0,.16.03.24.09.15.11.29.22.43.33.29.23.59.46.88.68.5.39.97.83,1.57,1.05.45.17,1.07.22,1.36-.25.38-.63-.29-1.18-.78-1.45-.73-.41-1.47-.81-2.21-1.22-.38-.21-.72.37-.34.58h0Z"/>
    <path class="j" d="M438.36,67.35l1.36,1.12c.1.08.21.17.3.26.04.04.08.08.12.13.02.03,0,.02-.02-.02,0,0,.02.03.02.03.02.03.03.06.05.08,0,0-.03-.08-.01-.03,0,.01,0,.02.01.04,0,0,0,.03,0,.04-.03-.06,0-.07,0-.04,0,.02,0,.1,0,.03s0,.01,0,.03c0,.01-.02.06,0,0,.02-.05,0-.02,0,0-.01.02-.02.04-.04.06-.03.04.06-.07,0,0-.02.02-.04.04-.06.06-.02.02-.08.06,0,0-.02.01-.04.03-.06.04-.05.03-.09.06-.14.08-.01,0-.02.01-.03.02-.06.03.06-.02.02,0-.02,0-.05.02-.07.03-.06.02-.11.04-.17.05-.05.01-.1.02-.15.03-.03,0-.05,0-.08.01.11-.02,0,0-.03,0-.11.01-.23.02-.34.01-.06,0-.11,0-.17-.01-.01,0-.03,0-.04,0,.1,0,.05,0,.03,0-.03,0-.06-.01-.1-.02-.05-.01-.11-.02-.16-.04-.02,0-.05-.02-.07-.02-.01,0-.03-.01-.04-.02-.05-.02.06.03.02,0-.05-.02-.09-.05-.14-.07-.02-.01-.04-.03-.06-.04-.01,0-.02-.01-.03-.02-.06-.04.06.05.01,0-.03-.03-.06-.06-.09-.09-.06-.06.04.06,0,0-.01-.02-.02-.04-.04-.06-.01-.02-.02-.04-.03-.06.05.1.01.04,0,0,0-.02-.01-.05-.02-.07,0-.04,0-.11,0,0,0-.04,0-.09,0-.13,0-.01,0-.02,0-.03,0,0-.02.1,0,.04,0-.02,0-.04.02-.07,0,0,0-.02,0-.03.02-.05-.01.03-.02.04.01-.01.02-.04.03-.06.01-.02.02-.04.04-.06-.06.09-.02.03,0,0s.09-.06,0,0c.02-.01.04-.03.06-.04.01,0,.09-.04.03-.02s0,0,0,0c.01,0,.03,0,.05-.01.17-.05.29-.24.24-.41s-.23-.29-.41-.24c-.25.07-.47.23-.59.46s-.14.49-.08.74c.14.54.68.84,1.19.93.3.05.59.05.89,0,.26-.04.53-.11.76-.25s.46-.35.51-.63c.03-.18,0-.35-.08-.52-.07-.14-.17-.25-.28-.36-.26-.24-.54-.45-.81-.67l-.86-.7c-.07-.06-.14-.1-.24-.1-.08,0-.18.04-.24.1-.11.12-.15.36,0,.48h0Z"/>
    <path class="j" d="M468.51,60.9s.06.06.09.08c.02.02-.03-.03-.03-.03,0,0,.01.01.02.02.01.02.02.04.04.06,0,.01.03.07,0,.01s0,0,0,.01c0,.02.01.04.01.05,0,0,0,.02,0,.02.01.04,0-.08,0-.04,0,.03,0,.07,0,.1,0,.06,0,0,0-.02,0,.02,0,.04-.01.06,0,.03-.02.06-.03.1-.02.05.04-.07,0,0,0,.02-.02.04-.03.05-.02.03-.04.07-.06.1,0,0-.01.01-.02.02,0,0,.05-.06.03-.03-.02.02-.03.04-.05.05-.03.03-.05.05-.08.08,0,0-.01.01-.02.02-.04.04.02-.02.02-.02-.02,0-.04.03-.05.04-.03.02-.07.04-.11.06-.02,0-.04.01-.05.02,0,0,.07-.03.04-.02-.02,0-.03.01-.05.02-.04.01-.07.02-.11.03-.02,0-.09.01-.03,0s-.02,0-.04,0c-.05,0-.1,0-.15,0-.02,0-.05,0-.07,0-.01,0-.02,0-.03,0,.08,0,.03,0,0,0-.1-.02-.19-.05-.29-.08-.04-.01.03.01.03.01-.01,0-.03-.01-.04-.02-.02,0-.04-.02-.06-.03-.05-.02-.09-.05-.14-.08-.02-.01-.04-.03-.06-.04,0,0-.02-.01-.03-.02-.03-.02.02.02.02.02-.04-.02-.09-.07-.12-.1s-.07-.07-.1-.1c-.01-.02-.03-.03-.04-.05,0,0-.01-.02-.02-.03.05.05.02.03,0,0-.06-.08-.1-.16-.15-.24-.01-.02-.03-.1,0,0,0-.02-.02-.04-.02-.06-.02-.05-.03-.09-.04-.14,0-.02,0-.04-.01-.07,0-.01,0-.03,0-.04,0-.04,0,.02,0,.02-.01-.02,0-.07,0-.09,0-.03,0-.06,0-.09,0-.07,0-.13.01-.2,0-.04,0,.02,0,.02,0-.02,0-.04,0-.05,0-.04.01-.07.02-.11.03-.13.06-.27.12-.39-.03.06,0-.01.02-.03.01-.03.03-.06.04-.09.03-.06.06-.12.1-.18.07-.13.15-.25.23-.37.1-.15.03-.38-.12-.46-.17-.09-.35-.03-.46.12-.33.48-.6,1.03-.63,1.63-.03.53.17,1.04.54,1.42s.87.61,1.39.6c.48,0,.92-.25,1.19-.65.28-.43.26-1.02-.14-1.36-.13-.11-.35-.14-.48,0-.12.13-.14.35,0,.48h0Z"/>
    <path class="j" d="M468.78,66.89c-3.05-.89-6.81-2.35-8.17-5.51-.34-.79-.48-1.64-.47-2.5,0-.33.02-.65.05-.98.07-.81.45-1.45,1.09-1.95,1.69-1.32,4.19-1.62,6.26-1.6,2.37.02,4.9.6,6.66,2.27.77.73,1.39,1.65,1.65,2.69.32,1.31,0,2.65-.52,3.87-.79,1.85-2.09,3.47-3.72,4.66-4.55,3.34-10.91,3.33-16.11,1.77-.42-.13-.6.53-.18.66,5.06,1.52,11.1,1.59,15.74-1.23,1.89-1.15,3.48-2.79,4.51-4.75,1.14-2.18,1.6-4.7.18-6.87s-3.78-3.22-6.22-3.58-4.93-.17-7.14.73c-.9.37-1.77.89-2.34,1.7-.4.57-.52,1.2-.56,1.88-.06.88-.03,1.76.19,2.62,1.03,3.94,5.4,5.78,8.92,6.8.42.12.6-.54.18-.66h0Z"/>
    <path class="j" d="M463.04,90.84c-.72.65-1.48,1.37-1.83,2.3-.1.25-.17.52-.21.79s-.07.64.16.85c.39.35.89-.05,1.2-.3.14-.11.13-.36,0-.48-.14-.13-.33-.12-.48,0-.04.03-.08.06-.12.1.07-.07.01-.01,0,0-.02.01-.04.03-.06.04-.03.02-.06.04-.09.06-.01,0-.03.02-.04.02-.02,0-.08.03-.01,0s-.02,0-.04.01c0,0-.02,0-.03,0-.03.01.11,0,.04,0-.08,0,.08.02.03,0s.09.05.03.01c.11.07.07.06.05.03-.04-.04.03.04.03.05,0,0-.01-.02-.01-.02-.03-.05.02.04.02.05,0,0-.02-.05-.02-.05,0,0,0-.02,0-.03-.01-.05,0,.1,0,.04,0-.05,0-.1,0-.15,0-.03,0-.05,0-.08,0-.01,0-.03,0-.04,0,0-.02.1,0,.05,0,0,0-.02,0-.02.04-.25.11-.49.2-.73.02-.05.04-.1.06-.15.02-.04-.04.09-.02.04,0,0,0-.02.01-.03,0-.02.02-.04.03-.06.04-.09.1-.18.15-.26.03-.05.06-.1.1-.15.02-.02.03-.05.05-.07.01-.01.02-.03.03-.04,0,0,.05-.07.02-.03-.03.03,0,0,0,0,.01-.02.03-.04.04-.05.02-.03.05-.06.07-.08.05-.06.1-.12.15-.18.1-.11.21-.22.31-.33.21-.21.43-.41.65-.61.13-.12.13-.36,0-.48-.14-.13-.34-.13-.48,0h0Z"/>
    <path class="j" d="M467.12,110.7c-1.63.06-3.23.58-4.78,1.04-1.75.52-3.49,1.11-5.29,1.45-1.9.36-3.77.05-5.6-.47-2-.57-3.9-1.08-6-.98-2.51.12-4.99-.63-7.31-1.52-.41-.16-.59.5-.18.66,2.02.77,4.14,1.42,6.31,1.54,1.19.07,2.36-.08,3.55.09.95.14,1.87.4,2.78.67,1.85.54,3.78,1.05,5.72.82,1.74-.21,3.44-.77,5.12-1.27,1.83-.55,3.76-1.27,5.69-1.34.44-.02.44-.7,0-.68h0Z"/>
    <path class="j" d="M442.36,112.15c3.13.88,6.4-.8,9.22-1.98,1.26-.53,2.46-.95,3.84-1.01,1.61-.07,3.23.04,4.84-.01,1.82-.06,3.69-.29,5.29-1.22.38-.22.04-.81-.35-.59-2.81,1.63-6.34,1.05-9.43,1.13-1.29.03-2.45.27-3.65.75-1.44.57-2.85,1.23-4.31,1.74-1.67.58-3.52,1.04-5.27.54-.42-.12-.61.54-.18.66h0Z"/>
    <path class="j" d="M409.34,45.99c.54,1.79,1.94,3.06,3.17,4.39.64.7,1.27,1.45,1.63,2.34.39.97.4,2.04.25,3.07-.31,2.05-1.16,3.97-1.4,6.04s.4,3.86,1.7,5.44c.7.85,1.54,1.59,2.4,2.28s1.7,1.26,2.39,2.06c1.54,1.78.54,3.71-.44,5.48s-1.81,3.56-1.19,5.6,2.32,3.7,3.95,5.09,4.06,3.06,4.36,5.38c.25,1.95-.55,4.18-2.11,5.4-.45.35.18.96.62.62,1.4-1.09,2.17-2.88,2.36-4.61.22-1.94-.5-3.44-1.79-4.84-1.56-1.7-3.56-2.95-5.06-4.71-.76-.9-1.41-1.95-1.63-3.12s.13-2.21.63-3.22c.8-1.64,2.14-3.34,2-5.26-.15-2.16-2.12-3.38-3.64-4.61-1.7-1.38-3.49-3.11-3.72-5.42-.21-2.14.69-4.21,1.17-6.26.52-2.22.48-4.34-.93-6.23-1.27-1.7-3.26-3.03-3.9-5.14-.16-.54-1.01-.31-.85.23h0Z"/>
    <path class="j" d="M424.06,98.56c-1.76,1.97-3.64,4.63-3.38,7.43.2,2.15,1.77,3.56,3.66,4.38,2.1.91,4.37,1.27,6.58,1.82.9.22,1.86.45,2.68.92s.81,1.38.75,2.19c-.16,2.03-1.18,3.93-1.25,5.96-.03.94.17,1.91.37,2.82.24,1.08.54,2.18,1.05,3.17.28.53.62,1.03,1.23,1.19.53.13,1.11.04,1.63-.08,1.59-.37,3.11-1.13,4.57-1.84,2.08-1.01,4.12-2.12,6.2-3.13,1.52-.74,3.24-1.69,4.96-1.84.56-.05.56-.93,0-.88-1.43.13-2.8.75-4.09,1.34-1.78.81-3.51,1.72-5.25,2.61-1.63.83-3.26,1.69-4.96,2.35-.73.28-2.31,1.02-3.05.53-.57-.39-.88-1.62-1.08-2.28-.31-1.04-.55-2.13-.65-3.21-.17-1.84.69-3.66,1.04-5.45.31-1.6.44-3.51-1.25-4.33-1.81-.87-3.89-1.14-5.83-1.62-2.1-.51-4.85-1.17-5.97-3.24-1.51-2.79.92-6.19,2.7-8.19.38-.42-.24-1.04-.62-.62h0Z"/>
  </g>
  <path class="j" d="M332.91,81.19c-5.5,1.98-11.25,2.14-16.83.35s-10.21-4.93-14.61-8.4-8.72-7.56-13.07-11.36c-3.72-3.25-7.62-6.61-12.13-8.72s-8.71-2.18-13.31-1.09c-5.77,1.37-11.19,4.17-16.32,7.07-11.74,6.64-22.6,14.98-34.94,20.54-2.58,1.16-5.24,2.16-7.99,2.82-1.91.46-4.44.88-6.16.65-3.49-.47-6.74-2.62-9.63-4.48-9.26-5.95-17.85-12.82-27.79-17.66-11.59-5.64-24.48-8.24-37.15-4.86-5.94,1.58-12.26,4.16-16.59,8.68-3.31,3.45-5.09,7.91-5.39,12.66-.32,5.15.98,10.34,2.77,15.13,2.13,5.7,5.01,11.1,8.15,16.3,6.36,10.5,13.91,20.2,21.2,30.06,1.41,1.91,2.81,3.83,4.16,5.78.91,1.32,3.08.07,2.16-1.26-6.46-9.36-13.66-18.19-20.05-27.6-3.51-5.17-6.84-10.47-9.68-16.04-2.53-4.95-4.72-10.18-5.75-15.67-.83-4.42-.79-9.22,1.22-13.33,2.34-4.77,6.75-7.75,11.49-9.85,6.3-2.78,13.16-4.17,20.05-3.9,6.18.24,12.23,1.83,17.94,4.16,10.45,4.28,19.52,11.08,28.77,17.41,3.35,2.29,6.79,4.64,10.61,6.1s8.02.85,11.95-.29c5.87-1.71,11.36-4.63,16.62-7.69,5.9-3.42,11.61-7.17,17.41-10.77,5.46-3.39,11.01-6.77,16.94-9.29,4.27-1.82,9.38-3.58,14.09-2.71,4.35.8,8.19,3.55,11.58,6.26,4.35,3.47,8.37,7.34,12.57,10.98,8.31,7.21,18.18,14.6,29.77,14.16,2.94-.11,5.84-.72,8.6-1.72,1.5-.54.85-2.96-.66-2.41h0Z"/>
  <path class="j" d="M12.25,422.19c.26-.12-.27.08.12-.05.14-.05.28-.09.42-.14.33-.1.67-.17,1.01-.23.96-.18,1.36-.22,2.44-.31,2.41-.21,4.84-.28,7.26-.34,6.56-.16,13.12-.2,19.68-.55,7.16-.38,14.37-1.04,21.37-2.64,5.86-1.34,11.96-3.39,16.51-7.48,5.05-4.53,6.31-11.01,4.88-17.46-.35-1.57-2.76-.91-2.41.66,1.17,5.28.32,10.58-3.63,14.46-4.07,4-9.86,5.93-15.28,7.23-13.11,3.15-26.82,2.95-40.21,3.25-2.72.06-5.45.12-8.16.36-1.76.15-3.64.31-5.26,1.07-1.45.69-.19,2.84,1.26,2.16h0Z"/>
  <g>
    <path class="j" d="M555.66,281.8c-5.08-.65-5.43,6.56-4.33,9.86.82,2.46,2.3,4.64,3.13,7.1s.57,4.68-.53,6.89c-.94,1.88-2.17,3.6-2.54,5.71-.45,2.56.24,5.16.75,7.66.28,1.38.56,2.77.61,4.18s-.21,2.67-.46,3.98c-.3,1.59-.66,3.18-1.57,4.55-1.77,2.66-4.42,4.54-6.91,6.48-1.59,1.24-3.19,2.48-4.72,3.79-1.27,1.08-2.54,2.2-3.56,3.53-.65.85-1.21,1.85-.91,2.95s1.25,1.88,2.19,2.44c2.75,1.63,6.31,2.1,9.46,1.97s6.64-.88,8.44-3.53c.87-1.28.51-3.1.14-4.49-.18-.66-.4-1.31-.67-1.94-.15-.33-.34-.86-.81-.73-.62.17-.26.92-.11,1.29.22.57,1.15.32.93-.26-.06-.15-.11-.31-.17-.46-.08-.2,0-.17-.05.02l-.34.34h0c-.12-.02-.25-.03-.37-.05-.27-.14-.13-.19-.08-.04.02.06.06.13.09.19.1.22.19.45.27.67.25.67.45,1.36.59,2.06s.23,1.42.1,2.1c-.13.64-.55,1.14-1.02,1.58-2.15,2.02-5.58,2.37-8.38,2.29s-5.95-.57-8.16-2.28c-.62-.48-1.26-1.2-1.14-2.03.15-1.06,1.18-2.04,1.89-2.76,2.49-2.54,5.42-4.64,8.21-6.84,2.22-1.75,4.44-3.5,6-5.89.79-1.22,1.19-2.61,1.48-4.02.23-1.12.46-2.27.58-3.41s.02-2.34-.15-3.5c-.36-2.47-1.13-4.9-1.29-7.4-.14-2.21.54-4.08,1.61-5.98.98-1.74,1.88-3.46,2.06-5.48.21-2.28-.62-4.39-1.59-6.41s-2.28-4.22-2.52-6.57c-.2-1.92-.03-4.47,1.44-5.9.67-.65,1.53-.82,2.43-.7.61.08.61-.89,0-.96h0Z"/>
    <path class="j" d="M534.78,347.52c.11,1.05.08,2.12-.03,3.17-.11,1.12-.39,2.2-.6,3.3-.44,2.29-.71,4.81-.13,7.1.17.68.53,1.64,1.34,1.73.99.11,1.85-1.12,2.41-1.76.75-.85,1.48-1.73,2.47-2.31.85-.49,1.94-.78,2.85-.29.99.53,1.45,1.73,1.74,2.74.32,1.11.45,2.27.72,3.39.12.51.32,1.14.94,1.09.44-.03.88-.26,1.27-.44,1.23-.57,2.41-1.29,3.55-2.02.83-.53,1.57-1.03,2.1-1.89.9-1.47,1.23-3.3,1.22-5,0-2.08-.57-4.17-1.81-5.86-.23-.32-.77-.01-.53.31,1.94,2.66,2.3,6.57.93,9.57-.43.94-1,1.53-1.83,2.08-1.03.68-2.08,1.31-3.17,1.89-.46.24-.93.49-1.43.66-.13.04-.28.11-.42.1-.07,0-.01,0,0,0,.08.03.07.14-.05-.1s-.18-.5-.23-.77c-.41-1.92-.56-4.28-2.01-5.76-1.32-1.33-3.27-.91-4.65.08-.85.61-1.52,1.43-2.21,2.21-.32.35-.63.71-.99,1.03-.2.18-.49.46-.78.44-.27-.02-.44-.27-.55-.48-.56-1.02-.58-2.42-.58-3.56,0-1.32.15-2.64.4-3.93.22-1.14.5-2.24.62-3.4s.16-2.22.04-3.32c-.04-.39-.66-.39-.62,0h0Z"/>
    <path class="j" d="M555.66,282.64c2.95-.36,5.93-.02,8.68,1.12,2.57,1.07,4.84,2.76,6.75,4.78,3.57,3.77,6.08,8.72,7.08,13.8,1.16,5.93-.98,12.37-4.91,16.88-2.23,2.55-5.21,4.62-8.54,5.37-2,.45-4.15.23-5.69-1.23-1.38-1.3-2.06-3.19-2.37-5.02-.55-3.22-.13-9.82,4.72-8.79.49.11,1.43.2,1.49.82.04.46-.12.97-.25,1.41-.35,1.19-.83,2.35-1.18,3.54-.22.77-.57,1.87-.08,2.61.66,1.01,2.02,1.64,3.09,2.1,1.31.55,2.69.94,4.03,1.43,1.18.43,2.44.96,3.3,1.92s.93,2.23,1.02,3.45c.09,1.36.11,2.72.08,4.08-.07,3.22-.36,6.55-1.39,9.62-.7,2.1-2.12,4.74-4.75,4.26-1.68-.31-3.15-1.5-4.37-2.63-2.3-2.14-4.2-4.69-5.97-7.27-1.23-1.79-2.38-3.62-3.5-5.48-.24-.39-.85-.03-.62.36,2.14,3.56,4.42,7.07,7.1,10.25,1.52,1.8,3.24,3.65,5.35,4.78,1.19.64,2.61,1.02,3.93.53,1.2-.45,2.06-1.48,2.65-2.58,1.59-2.92,1.98-6.51,2.19-9.78.17-2.62.29-5.43-.2-8.03s-3.16-3.68-5.43-4.45c-1.44-.49-2.92-.91-4.25-1.65-.56-.31-1.31-.74-1.66-1.29-.2-.33-.11-.81-.05-1.16.24-1.28.77-2.5,1.18-3.73.26-.79.81-2.08.34-2.9-.32-.57-1.28-.77-1.86-.89-.95-.21-1.96-.18-2.85.24-1.66.77-2.43,2.62-2.75,4.32-.65,3.49-.09,8.16,2.75,10.62,3.01,2.61,7.36,1.31,10.43-.48s5.62-4.59,7.32-7.75c1.59-2.94,2.72-6.43,2.77-9.8.08-5.07-2.06-10.3-4.84-14.45-3.26-4.86-8.13-8.81-14.06-9.61-1.56-.21-3.13-.21-4.68-.02-.45.06-.45.77,0,.71h0Z"/>
    <path class="j" d="M539.67,341.7c-2.79,3.22-7.46,3.64-11.36,2.59-1.44-.39-3.03-.98-4.1-2.07-.65-.66-.86-1.61-1.07-2.48-.38-1.52-.52-3.08-.55-4.65-.06-3.19.15-6.45.64-9.6.24-1.5.47-3.15,1.04-4.57.24-.61.77-.91,1.4-1.02,1.7-.31,3.57.25,5.24.54,1.43.24,3.26.63,4.62-.1s1.54-2.41,1.63-3.74c.05-.83.04-1.65.05-2.48,0-.59-.06-1.32.17-1.88.5-1.23,3.27,2.38,3.55,2.84,1.4,2.3,1.98,5.15,1.26,7.77s-2.84,4.93-5.65,5.56c-1.4.32-2.97.29-4.35-.13-1.45-.45-2.47-1.54-3.01-2.93-1.06-2.71-.66-5.81.05-8.55.78-2.98,1.97-5.89,3.22-8.7s2.56-5.38,4.15-7.89c.81-1.27,1.68-2.51,2.63-3.69.76-.94,1.59-1.83,2.34-2.78,1.54-1.92,2.95-3.94,4.53-5.82,1.46-1.73,3.09-3.47,5.14-4.49.91-.45,1.9-.71,2.92-.73.43,0,.43-.68,0-.67-4.92.1-8.3,4.99-10.98,8.51-.83,1.09-1.65,2.19-2.52,3.25s-1.78,2.06-2.61,3.14c-1.95,2.55-3.57,5.35-4.98,8.23s-2.72,5.99-3.78,9.1c-1,2.95-1.75,6.14-1.28,9.26.2,1.32.63,2.66,1.47,3.72s2.12,1.7,3.48,1.92c2.83.47,5.84-.26,7.83-2.41,3.8-4.1,2.78-11.04-1.4-14.5-.48-.4-1.28-1.12-1.99-.92-.49.14-.67.65-.76,1.1-.31,1.66,0,3.38-.24,5.05-.11.76-.33,1.66-.98,2.15-.6.45-1.46.46-2.18.43-1.98-.08-3.9-.67-5.87-.84-1.42-.12-3.18-.01-3.74,1.54s-.85,3.28-1.09,4.91-.41,3.41-.5,5.12c-.19,3.28-.31,6.7.67,9.88.25.82.51,1.53,1.13,2.12.54.52,1.2.92,1.88,1.25,3.58,1.76,8.35,2.09,11.93.16.96-.51,1.8-1.2,2.51-2.02.28-.33-.19-.8-.48-.48h0Z"/>
    <path class="j" d="M543.05,373.68c-1.93-.07-3.93-.06-5.8-.61-1.59-.47-2.95-1.48-3.83-2.89-1.26-1.98-.66-4.44.58-6.28.28-.41.88-1.24,1.44-.8.48.38.68,1.29.86,1.84.39,1.15.71,2.33,1.3,3.4.87,1.55,2.55,3.13,4.44,2.32.99-.42,1.72-1.3,2.34-2.15.36-.5.68-1.02,1.02-1.53.19-.28.36-.59.59-.85.05-.05.19-.2.24-.22.06-.02-.05,0,.02,0,.32.02.78.51,1.02.71.53.45,1.04.94,1.53,1.44s.98,1.03,1.43,1.58c.26.32.63.71.76,1.12s-.43.99-.8,1.25c-.69.49-1.51.79-2.32,1.02-1.71.49-3.54.73-5.32.65-.4-.02-.4.6,0,.62,1.72.08,3.5-.15,5.17-.59,1.3-.34,3.16-.9,3.75-2.26.21-.47.16-.84-.09-1.26-.32-.54-.75-1.03-1.17-1.5-.96-1.08-2-2.18-3.19-3.02-.37-.26-.74-.5-1.17-.23-.51.32-.83.97-1.14,1.46-.39.6-.78,1.22-1.23,1.78-.72.89-1.77,1.87-3.01,1.55-1.11-.29-1.91-1.34-2.42-2.3-.66-1.22-.94-2.6-1.45-3.89-.35-.89-.98-2.13-2.13-1.48-.96.55-1.56,1.83-1.94,2.82-.41,1.06-.57,2.22-.37,3.35.34,1.88,1.86,3.57,3.54,4.43s3.62,1,5.47,1.09c.62.03,1.24.05,1.85.07.4.01.4-.6,0-.62h0Z"/>
    <path class="j" d="M535.56,321.98c-.76.75-.21,2.14.7,2.46.55.19,1.16-.05,1.55-.44.45-.44.67-1.05.69-1.66.03-.78-.23-1.54-.56-2.24-.08-.18-.35-.23-.51-.13-.18.12-.22.32-.13.51.03.06.06.12.09.19.01.03.03.06.04.1-.03-.07.01.03.02.04.06.14.11.28.15.43.04.13.08.27.11.4.01.07.03.14.04.2.02.11,0-.07,0,.04,0,.05,0,.09.01.14.01.14.01.27,0,.41,0,.03,0,.07,0,.1,0,.11.01-.07,0,.04-.01.07-.02.14-.04.21-.01.05-.03.11-.05.16,0,.03-.02.06-.03.08.05-.08,0,0,0,.01-.05.11-.12.21-.18.31-.05.08.05-.06,0,.01-.02.02-.03.04-.05.06-.04.04-.07.08-.11.12-.02.02-.04.04-.06.05l-.02.02s-.03.02.01,0c-.03.04-.11.07-.15.1-.02.01-.05.02-.07.04-.08.04.08-.03,0,0-.05.02-.09.03-.14.04-.02,0-.05.01-.07.02-.08.02.09,0,0,0-.06,0-.12,0-.18,0-.09,0,.07.02,0,0-.02,0-.04,0-.06-.01s-.04-.01-.06-.02c-.07-.02.08.04.01,0-.04-.02-.07-.04-.11-.06-.02-.01-.03-.02-.05-.04-.05-.04.07.06,0,0-.03-.03-.06-.06-.09-.09-.01-.02-.03-.03-.04-.05-.05-.06.05.07,0,0-.06-.08-.1-.16-.15-.25-.04-.07.03.08,0,0-.01-.03-.02-.06-.03-.08-.02-.05-.03-.1-.04-.15,0-.02,0-.04-.01-.06-.01-.07,0,.1,0,0,0-.05,0-.1,0-.15,0-.02,0-.04,0-.06,0,.11,0,.04,0,0,.01-.05.03-.09.04-.14-.02.09-.02.05,0,.02.01-.02.03-.05.04-.07.03-.04.05-.03,0,0,.02-.01.04-.04.06-.06.14-.14.15-.39,0-.52s-.38-.15-.52,0h0Z"/>
    <path class="j" d="M560.61,319.63s.04.05.04.07l-.02-.04s.01.03.02.05c0,.02.01.05.02.07,0,0,.02.09,0,.03-.02-.06,0,.01,0,.03,0,.03,0,.05,0,.08,0,0,0,.07,0,.08,0-.06,0-.06,0-.02,0,.01,0,.02,0,.04,0,.05-.02.09-.04.13v.02s-.02.03,0-.02c0,.02-.03.05-.03.07-.02.04-.04.07-.07.11-.01.02-.05.09,0,0-.01.02-.04.05-.06.07-.03.03-.06.07-.1.1l-.02.02s-.03.02.02-.01c0,.01-.05.03-.06.04-.03.02-.07.04-.11.06-.07.04.08-.02,0,0-.03,0-.06.02-.09.03-.02,0-.03,0-.05.01-.08.02.09,0,0,0-.01,0-.15,0-.15,0,0-.01.08.02.02,0-.02,0-.05-.01-.08-.02s-.05-.01-.07-.02c-.02,0-.03-.01-.05-.02.05.02.06.02.02,0-.04-.02-.08-.04-.11-.06-.02-.01-.04-.03-.06-.04-.07-.05.06.05,0,0-.08-.07-.15-.15-.22-.23.06.08-.03-.04-.04-.06-.03-.05-.06-.09-.09-.14-.02-.04-.04-.08-.06-.13-.04-.09.03.07,0-.02-.01-.04-.03-.07-.04-.11-.03-.1-.06-.2-.08-.31,0-.03-.01-.06-.01-.09,0,.01,0,.08,0,.01,0-.07-.01-.13-.01-.2,0-.05,0-.09,0-.14,0-.03,0-.07,0-.1,0-.01.02-.12,0-.04.02-.13.05-.26.09-.39.02-.06.04-.13.06-.19,0,0,.04-.11.01-.03.02-.04.04-.08.05-.12.06-.13.13-.26.21-.38s.16-.24.24-.35c0-.01.04-.06,0,0,.03-.03.05-.07.08-.1.05-.06.1-.12.15-.17.13-.15.15-.38,0-.52-.14-.13-.39-.16-.52,0-.79.9-1.41,2.1-1.01,3.31.17.51.5,1.02,1,1.25.27.13.56.18.86.12.26-.05.5-.2.69-.38.46-.44.62-1.15.31-1.72-.09-.17-.34-.24-.51-.13s-.23.33-.13.51h0Z"/>
  </g>
  <g>
    <path class="j" d="M34.66,311.74l1.46.57c.06.02.11.04.17.07.02,0,.05.02.07.03,0,0,.02,0,.03.01-.02-.01-.07-.03-.02,0,.04.02.08.04.12.06.02.01.04.03.07.04,0,0,.02.01.03.02.04.03-.05-.04-.02-.01.02.01.03.03.05.04,0,0,.02.02.03.03.02.02,0,.03-.02-.02,0,.02.03.04.04.06,0,0,.02.03.02.03,0,0-.03-.08-.01-.02,0,.02.02.05.02.07,0,0,0-.09,0-.04,0,.01,0,.02,0,.03s0,.06,0,.06c0,0,.02-.08,0-.04,0,.01,0,.03,0,.04,0,.02-.01.05-.02.07,0,0,0,.03-.01.03,0,0,.04-.08.01-.03s-.05.09-.08.14c-.01.02-.03.04-.04.06,0,0,.05-.06.02-.02,0,0-.02.02-.02.03-.04.04-.07.08-.11.12-.02.02-.04.03-.05.05,0,0-.02.01-.03.02,0,0,.06-.05.02-.02-.05.03-.09.06-.14.09-.04.03-.09.05-.13.07-.02.01-.05.02-.07.03,0,0-.03,0-.03.02.04-.02.05-.02.03-.01,0,0-.02,0-.03.01-.1.04-.2.07-.31.08-.03,0-.04,0,.03,0-.01,0-.03,0-.04,0-.02,0-.05,0-.07,0-.05,0-.12.01-.16,0,0,0,.08.01.03,0-.01,0-.02,0-.04,0-.02,0-.05-.01-.07-.02s-.05-.02-.07-.02c-.05-.02.03.01.03.01-.01,0-.03-.01-.04-.02-.03-.02-.06-.04-.09-.06.08.05.03.03.01,0-.02-.02-.03-.03-.05-.05,0,0-.05-.04-.05-.05,0,0,.05.07.02.03,0,0-.01-.02-.02-.03-.02-.04-.04-.08-.06-.12-.02-.04.02.04.02.04,0,0-.01-.04-.01-.04,0-.02-.01-.04-.02-.07,0-.02,0-.04-.01-.06,0,0,0-.02,0-.03,0-.04,0,.09,0,.04,0-.04,0-.09,0-.13,0-.02.02-.05,0,.05,0-.01,0-.02,0-.03,0-.02.01-.04.02-.06,0,0,0-.02,0-.02.01-.03-.04.08-.01.03.01-.02.02-.04.03-.06,0,0,.01-.01.01-.02-.04.07-.04.05-.02.02.02-.02.03-.03.05-.05.12-.11.12-.34,0-.45-.13-.12-.31-.12-.45,0-.36.32-.34.87-.1,1.25.13.21.32.37.56.46.26.1.55.1.82.04.25-.06.5-.17.71-.32s.42-.34.55-.58c.07-.14.12-.27.13-.43s-.02-.29-.08-.43c-.11-.24-.34-.4-.57-.5-.31-.13-.62-.25-.93-.37l-.92-.36c-.07-.03-.18,0-.24.03s-.13.11-.15.19c-.04.18.06.32.22.39h0Z"/>
    <g>
      <path class="j" d="M53.77,345.57l1.01.88.5.44c.14.13.3.25.42.4.07.09.16.23.15.33,0-.03-.01.04,0,.03,0,0-.06.09-.03.05-.01.01-.04.03,0,.01-.03.02-.03.02,0,0-.02,0-.04.01-.06.02.06-.01-.03,0-.04,0-.09,0,.05.02-.05,0-.06-.02-.12-.04-.16-.06-.13-.06-.25-.15-.35-.24-.3-.27-.53-.63-.79-.94-.28-.35-.57-.7-.85-1.06-.13-.16-.25-.31-.45-.37-.06-.02-.14-.04-.2-.04-.04,0-.07,0-.11.01-.03,0-.06.02-.09.04-.07.05-.08.07-.05.04-.28.21-.54.44-.78.69-.56.57-1.05,1.21-1.65,1.74-.13.11-.12.33,0,.45.13.13.32.11.45,0,.56-.49,1.02-1.09,1.54-1.63.23-.24.48-.5.75-.69.07-.05.21-.11,0-.06s-.1.02-.05.04c.05.02.1.09.14.13.15.18.3.37.44.55.3.37.59.73.89,1.1.24.3.48.58.82.76.29.16.67.25.98.06.37-.23.43-.69.26-1.06-.2-.43-.62-.73-.97-1.03l-1.2-1.05c-.13-.11-.32-.13-.45,0-.11.11-.13.33,0,.45h0Z"/>
      <path class="j" d="M51.7,344.49c-.73.57-1.49,1.21-1.91,2.05-.13.26-.25.54-.34.83-.08.26-.15.58.03.81.29.38.79.07,1.07-.15.13-.1.21-.28.11-.43-.08-.13-.29-.22-.43-.11-.08.06-.15.11-.23.16-.03.02-.06.03-.09.05-.02,0-.03.01-.05.02.03-.02.08-.03.02-.01-.02,0-.04.01-.07.02-.05.01.07,0,.04,0,0,0-.02,0-.03,0-.04,0,.1.02.05,0,0,0-.01,0-.02,0,.08,0,.08.04.05.02,0,0,.08.07.04.03-.03-.03.06.08.03.04,0,0,0-.01-.01-.02.06.11.03.05.01.02-.01-.03,0,.1,0,.05,0,0,0-.02,0-.03,0-.02,0-.05,0-.07,0-.01,0-.02,0-.03,0-.05-.01.09,0,.04,0-.03,0-.06.02-.08.01-.06.03-.12.05-.17.04-.12.08-.25.13-.37.02-.06-.02.04,0,.02,0-.01.01-.03.02-.04.01-.03.03-.06.04-.09.03-.06.05-.11.08-.17.04-.09.09-.18.14-.27s.11-.16.16-.24c0,0,.04-.05.01-.02-.02.03,0,0,0,0,.02-.02.04-.05.06-.07.04-.05.09-.11.13-.16.39-.44.84-.82,1.3-1.18.13-.1.12-.34,0-.45-.14-.13-.31-.11-.45,0h0Z"/>
    </g>
    <path class="j" d="M25.59,308.5c.6.64.84,1.58,1.04,2.41.26,1.09.42,2.21.56,3.33.12.93.21,1.87.36,2.8.12.77.32,1.44,0,2.19s-.9,1.38-1.34,2.06c-.62.95-1.09,1.98-1.36,3.08-.56,2.26.49,4.29,2,5.93.95,1.03,2.07,1.91,3.25,2.68.4.26.81.34.9.76.13.6-.06,1.31-.15,1.9-.23,1.67-.42,3.58.71,4.99.79.99,2.05,1.43,3.26,1.62,2.36.36,4.82-.02,7.14-.48.3-.06.17-.52-.13-.46-2.15.42-4.41.77-6.61.52-1.15-.14-2.4-.48-3.2-1.38-1.16-1.31-.91-3.25-.69-4.84.09-.61.24-1.29.13-1.91-.04-.22-.11-.41-.27-.57-.33-.32-.84-.53-1.22-.79-.62-.43-1.22-.89-1.79-1.39-1.92-1.7-3.55-3.97-2.82-6.63.29-1.08.79-2.07,1.41-3,.43-.64.94-1.24,1.24-1.95s.18-1.39.05-2.16c-.19-1.08-.28-2.18-.42-3.27-.15-1.15-.31-2.3-.6-3.43-.22-.82-.5-1.71-1.1-2.34-.21-.22-.55.11-.34.34h0Z"/>
    <path class="j" d="M37.74,317.59c-2.47.2-5.39.08-7.29-1.73-.52-.5-.93-1.1-1.23-1.76-.34-.75-.66-1.56-.39-2.37.56-1.65,2.46-2.76,3.99-3.34,1.79-.68,3.84-.82,5.56.14,3.26,1.82,2.97,6.5,1.34,9.35-1.9,3.33-5.58,5.19-9.31,5.47-.34.03-.34.56,0,.53,3.58-.26,6.93-1.85,9.12-4.75,1.15-1.52,1.79-3.37,1.87-5.27s-.31-3.79-1.75-5.07-3.43-1.69-5.32-1.37-3.83,1.28-5.11,2.7c-.54.6-.98,1.33-1.04,2.15-.04.51.12.97.3,1.43.26.68.58,1.33,1.03,1.91,1.92,2.46,5.34,2.75,8.22,2.51.34-.03.34-.56,0-.53h0Z"/>
    <path class="j" d="M49.08,319.45c2.66.22,5.78.02,7.77-1.99.56-.56.98-1.23,1.29-1.96.41-.96.68-1.89.23-2.9-.74-1.67-2.6-2.78-4.24-3.4-1.88-.72-4.03-.83-5.85.13s-2.65,2.57-2.83,4.49.18,3.79,1.07,5.44c2.05,3.81,6.49,5.7,10.63,6,.34.03.34-.51,0-.53-3.41-.25-6.99-1.6-9.21-4.3-1.16-1.41-1.86-3.16-1.99-4.98s.18-3.73,1.6-4.98,3.49-1.54,5.33-1.1c1.7.41,3.53,1.35,4.6,2.77.48.64.77,1.43.53,2.23-.08.25-.17.49-.27.74-.24.6-.56,1.18-.99,1.68-1.86,2.17-5.02,2.35-7.67,2.14-.34-.03-.34.5,0,.53h0Z"/>
    <path class="j" d="M25.99,308.22c-1.21-1.25-2.13-2.97-.99-4.57.99-1.39,2.81-2.13,4.39-2.59,1.76-.51,3.65-.76,5.48-.56.99.11,2.03.39,2.71,1.18.72.83.76,1.86,1.13,2.84.67,1.78,2.47,2.74,3.68,4.11.79.89,1.16,1.92,1.03,3.11-.14,1.26-.65,2.45-.81,3.71-.14,1.08.04,2.08.66,2.98s1.58,1.64,2.19,2.61c.74,1.18.58,2.54.45,3.86-.06.63-.13,1.27-.1,1.9.02.44.21.89.19,1.32-.03.59-.55,1.06-.97,1.4-.59.49-1.26.88-1.92,1.26-1.17.69-2.63,1.34-3.48,2.45-.51.66-.61,1.74.35,2.02,1.2.36,2.7-.03,3.89-.22.75-.12,1.5-.25,2.26-.34.56-.07,1.19-.18,1.75-.09s.26.53.32,1.01c.12.97.55,1.89.93,2.77.34.76.68,1.52,1.06,2.26.46.9.58,1.75.12,2.69s-1.08,1.64-2.07,2.02c-.82.32-1.7.49-2.56.67-1.03.21-3.17.37-3.61,1.56-.37.98.94,1.17,1.61,1.22,1.17.09,2.36-.09,3.52.06.42.05.52.03.21.32-.76.7-1.85.99-2.82,1.23s-1.97.38-2.89.78c-.28.12-.04.53.24.41,1.88-.8,4.27-.61,5.83-2.1.81-.77-.15-1.09-.86-1.13-1.24-.07-2.51.13-3.74-.1-.37-.07-.89-.19-.59-.65.36-.55,1.32-.71,1.9-.85,1.62-.39,3.65-.49,5.01-1.55.74-.58,1.36-1.63,1.54-2.56.16-.81-.09-1.53-.45-2.25-.39-.77-.74-1.54-1.09-2.33-.45-1.02-.89-2.04-.83-3.17.06-1.01-1.4-.81-2.05-.75-1.57.16-3.12.51-4.69.67-.73.07-2.85.32-2.1-1.06.31-.58.95-.99,1.48-1.34.7-.46,1.45-.87,2.17-1.3,1.02-.6,2.57-1.39,2.91-2.64.06-.23.06-.47.02-.71-.13-.7-.19-1.34-.14-2.06.09-1.29.39-2.64.02-3.91-.32-1.11-1.17-1.92-1.92-2.74-.91-.99-1.49-2-1.34-3.39.25-2.37,1.67-4.67.07-6.88-1.17-1.61-3.34-2.57-4-4.53-.32-.94-.41-1.87-1.02-2.69-.51-.68-1.25-1.1-2.06-1.33-1.81-.5-3.84-.3-5.65.09-2.63.56-7.42,2.41-6.24,5.97.29.87.87,1.61,1.5,2.27.21.22.55-.12.34-.34h0Z"/>
    <path class="j" d="M41.66,351.12c-.8.49-1.98,1.18-2.24,2.17-.2.74.36,1.27.97,1.56.98.48,2.13.62,3.2.75,1.53.18,3.07.23,4.61.24,3.19.03,6.39-.12,9.56-.4.96-.08,1.92-.17,2.87-.33.67-.11,1.84-.38,1.97-1.19.15-.93-1.2-1.61-1.85-1.96-1.24-.68-2.57-1.2-3.87-1.74-.56-.23-1.13-.46-1.68-.72-.17-.08-.33-.16-.49-.25-.03-.02-.13-.07-.11-.07-.01,0-.05-.05-.05-.05.09-.03-.02.3-.02.3.03.13-.1-.08.04.01.12.08.74-.09.92-.11.76-.1,1.51-.22,2.26-.36,1.06-.21,2.12-.47,3.11-.92.71-.32,1.91-1.04,1.47-2s-1.97-1.01-2.86-1.11c-.98-.11-2.01-.18-2.94-.55-.99-.39-1.66-1.19-2.17-2.09s-.91-1.81-1.47-2.67c-.6-.92-1.23-1.82-1.76-2.78-.29-.53-1.08-1.77-.62-2.4.11-.16.3-.21.47-.28.42-.17.85-.32,1.29-.46.82-.27,1.65-.5,2.49-.7,1.24-.3,2.5-.51,3.73-.85.44-.12,1.38-.34,1.27-.98-.04-.24-.24-.4-.43-.54-.51-.39-1.1-.7-1.68-.98-1.14-.55-2.35-.96-3.55-1.35s-2.33-.69-3.44-1.17c-.76-.33-1.41-.67-1.56-1.53-.21-1.22-.37-2.65-.16-3.89.06-.38-.52-.55-.59-.16-.19,1.17-.08,2.43.07,3.6.11.86.23,1.48.96,2s1.61.79,2.44,1.07c1.18.4,2.38.74,3.55,1.16s2.4.92,3.45,1.65c.06.04.33.18.34.27,0-.1-.03-.02-.12.02-.37.19-.81.28-1.21.38-1.35.32-2.7.57-4.04.93-.75.2-1.49.42-2.22.68-.47.16-1.08.29-1.44.66-.49.5-.35,1.27-.14,1.86.33.93.87,1.79,1.4,2.61s1.13,1.67,1.63,2.54c.52.93.89,1.92,1.59,2.74,1.24,1.46,3.08,1.63,4.86,1.83.45.05,2.42.11,2.35.95-.03.37-.55.66-.84.83-.78.44-1.68.68-2.55.88-.65.15-1.3.27-1.96.38s-1.44.09-2.09.28c-.29.09-.5.32-.32.62.15.25.53.4.78.52.51.24,1.04.46,1.56.67,1.29.53,2.59,1.04,3.82,1.69.38.2,2.03.99,1.75,1.53s-1.43.63-1.98.7c-2.6.35-5.25.49-7.87.58-3.04.11-6.16.19-9.17-.27-.86-.13-1.97-.26-2.68-.82-.53-.42-.23-.9.22-1.35s.95-.77,1.47-1.09c.33-.2.03-.73-.31-.52h0Z"/>
    <path class="j" d="M51.73,312.33c-.54.21-1.08.42-1.62.63-.24.09-.5.19-.67.39-.2.23-.26.54-.16.83.17.52.67.89,1.17,1.06.47.17,1.08.12,1.43-.28.18-.21.28-.45.3-.73.01-.25-.08-.52-.28-.69-.12-.11-.33-.13-.45,0-.11.12-.13.33,0,.45.01.01.03.02.04.04,0,0,.01.01.02.02.04.04-.04-.06-.02-.03,0,.01.02.03.03.04,0,0,0,.02.01.02.03.05-.02-.03-.01-.03,0,0,.01.04.02.05,0,.02,0,.04.01.06.01.06,0-.09,0-.02,0,.02,0,.04,0,.06s0,.04,0,.06c0,.07.02-.08,0-.02,0,.04-.02.08-.03.12,0,.02-.01.03-.02.05-.01.03.03-.07.02-.04,0,0,0,.02-.01.03-.02.04-.04.07-.06.11,0,0-.01.02-.02.02-.02.03.05-.06.02-.03-.01.01-.02.03-.04.04-.01.02-.03.03-.04.04-.01.01-.07.06-.02.02s0,0-.02.01c-.02,0-.03.02-.05.03-.01,0-.02.01-.03.02-.02.01-.03,0,.03-.01-.03,0-.05.02-.08.03-.02,0-.05.01-.07.02-.01,0-.03,0-.04,0-.03,0-.04,0,.03,0-.05,0-.1,0-.15,0-.03,0-.05,0-.08,0-.01,0-.03,0-.04,0,0,0,.08.01.03,0s-.1-.02-.15-.03-.1-.03-.15-.05c-.01,0-.02,0-.04-.01,0,0,.07.03.02,0-.03-.01-.06-.03-.09-.04-.1-.05-.19-.11-.27-.17-.02-.01-.04-.04.02.02,0,0-.02-.01-.03-.02-.02-.02-.04-.03-.05-.05-.04-.04-.08-.08-.11-.12-.02-.02-.05-.08,0,0-.01-.02-.03-.04-.04-.06-.03-.04-.05-.09-.08-.14-.01-.02,0-.04.01.03,0-.01,0-.02-.01-.03,0-.02-.01-.04-.02-.06s0-.04-.01-.06c.02.08,0,.06,0,.04,0-.02,0-.03,0-.05,0-.04.02-.09,0,0,0-.02,0-.04.01-.06,0,0,0-.02.01-.03,0,.05-.03.06-.01.03,0-.01.03-.07.04-.07,0,0-.05.06-.02.02,0,0,.01-.02.02-.02.02-.02.03-.03.05-.05.04-.04-.02.02-.02.02,0,0,.02-.02.03-.02.02-.02.05-.03.07-.04.04-.02.08-.04.12-.06.01,0,.02,0,.03-.01-.08.04-.05.02-.03.01.03-.01.05-.02.08-.03.55-.21,1.1-.43,1.65-.64.08-.03.14-.07.19-.15.04-.07.06-.17.03-.24-.05-.15-.22-.28-.39-.22h0Z"/>
    <path class="j" d="M69.5,324.02c-.84-.24-1.52-.93-2.12-1.54-.72-.74-1.36-1.55-2-2.37s-1.21-1.6-1.84-2.38c-.49-.61-1.06-1.11-1.16-1.93s.07-1.7.11-2.54c.05-1.18-.08-2.35-.44-3.48-.6-1.92-2.26-3.07-4.09-3.73-1.09-.39-2.23-.62-3.38-.75-.67-.08-1.35-.11-2.03-.13-.18,0-.24.02-.37-.07-.44-.29-.66-1.11-.85-1.58-.65-1.57-1.4-3.39-3.07-4.12-1.18-.52-2.51-.31-3.68.14-2.27.87-4.23,2.48-6.03,4.07-.23.2.11.54.34.34,1.67-1.48,3.47-2.96,5.54-3.84,1.09-.46,2.37-.77,3.52-.33,1.68.65,2.38,2.56,3.02,4.09.22.52.43,1.19.88,1.56.33.27.71.21,1.12.22,1.29.05,2.58.2,3.83.53,2.15.57,4.21,1.68,4.86,3.94.33,1.15.42,2.32.34,3.51-.05.77-.19,1.56-.06,2.33.13.83.65,1.33,1.16,1.95.68.82,1.3,1.68,1.95,2.52.69.89,1.4,1.78,2.21,2.58.6.6,1.29,1.21,2.11,1.45.3.09.42-.38.13-.46h0Z"/>
    <path class="j" d="M69.28,324.46c1.25.34,2.25,1.19,2.77,2.38s.53,2.7.24,4.02c-.74,3.35-3.27,6.17-6.47,7.36-2.37.88-4.94.87-7.38.31-.3-.07-.43.39-.13.46,2.31.53,4.74.6,7.02-.1,1.84-.56,3.52-1.61,4.82-3.02,2.09-2.26,3.54-5.81,2.47-8.87-.52-1.5-1.68-2.6-3.21-3.01-.3-.08-.42.38-.13.46h0Z"/>
  </g>
  <g>
    <path class="ad" d="M569.5,87.72l.56,1.9,3.32-10.78-2.29,2.39c-1.65,1.72-2.25,4.2-1.59,6.49Z"/>
    <path class="z" d="M542.29,70.46l-3.99,12.96.3.23c.62.48,1.12,1.05,1.53,1.69l5.1-16.53c-.81.78-1.82,1.36-2.94,1.65Z"/>
    <path class="z" d="M550.6,59.52l-9.57,31.09-.45,3.33c-.18,1.31.11,2.5.68,3.49l11.94-38.71c-.91.05-1.8.32-2.6.8Z"/>
    <path class="z" d="M548.29,62.36l-1.4,3.9c-.35.98-.93,1.84-1.66,2.55l-5.1,16.53c.84,1.31,1.22,2.9,1,4.49l-.11.78,9.57-31.09c-1.01.61-1.85,1.55-2.31,2.84Z"/>
    <path class="z" d="M555.48,59.08l-12.4,40.26c.65.41,1.38.69,2.15.81l12.26-39.72c-.58-.62-1.27-1.07-2.01-1.35Z"/>
    <path class="z" d="M534.41,73.28l-1.21,3.91c.08,1.13.51,2.23,1.32,3.16l2.74-8.91c-1.2.32-2.17.98-2.86,1.84Z"/>
    <path class="z" d="M541.8,70.58l-2.08.38-3.38,10.94,1.96,1.52,3.99-12.96c-.16.04-.32.09-.49.12Z"/>
    <path class="z" d="M558.35,61.61c-.24-.45-.54-.84-.86-1.18l-12.26,39.72c.77.12,1.57.08,2.36-.16l11.43-37.13-.67-1.25Z"/>
    <path class="z" d="M533.2,77.18l1.21-3.91c-.88,1.1-1.31,2.51-1.21,3.91Z"/>
    <path class="z" d="M537.72,71.32c-.16.03-.3.08-.45.12l-2.74,8.91c.24.27.5.53.8.77l1.02.79,3.38-10.94-2,.36Z"/>
    <path class="z" d="M553.19,58.72l-11.94,38.71c.45.78,1.08,1.44,1.83,1.91l12.4-40.26c-.73-.28-1.51-.4-2.29-.36Z"/>
    <path class="z" d="M570.14,68.9l-.95-.03-8.69,28.15,2.12,1.02,8.91-28.92c-.44-.12-.89-.21-1.38-.23Z"/>
    <path class="z" d="M571.52,69.13l-8.91,28.92.36.17c.61.3,1.24.46,1.85.52l8.78-28.47c-.58-.52-1.28-.91-2.09-1.14Z"/>
    <path class="z" d="M573.96,78.24c1.52-1.58,1.83-3.64,1.28-5.43l-1.86,6.03.58-.6Z"/>
    <path class="z" d="M569.5,87.72c-.67-2.29-.06-4.76,1.59-6.49l2.29-2.39,1.86-6.03c-.3-.97-.86-1.86-1.63-2.54l-8.78,28.47c.89.09,1.75-.04,2.54-.35l2.7-8.77-.56-1.9Z"/>
    <path class="z" d="M560.31,65.27l-1.29-2.4-11.43,37.13c.53-.16,1.06-.4,1.56-.75l1.21-.83,10.14-32.86c-.06-.1-.13-.19-.19-.3Z"/>
    <path class="z" d="M570.06,89.62l-2.7,8.77c2.48-.98,4.18-3.7,3.31-6.69l-.61-2.08Z"/>
    <path class="z" d="M562.31,67.52l-8.91,28.91c.83-.4,1.72-.62,2.62-.66l8.4-27.23c-.77-.21-1.48-.56-2.12-1.02Z"/>
    <path class="z" d="M560.5,65.57l-10.14,32.86,2.21-1.51c.27-.18.55-.34.83-.48l8.91-28.91c-.72-.52-1.34-1.18-1.81-1.96Z"/>
    <path class="z" d="M566.77,68.8l-8.4,27.27c.29.09.58.21.87.34l1.26.61,8.69-28.15-2.41-.07Z"/>
    <path class="z" d="M565.99,68.78c-.53-.02-1.05-.1-1.56-.24l-8.4,27.23c.78-.04,1.58.06,2.34.3l8.4-27.27-.78-.02Z"/>
  </g>
  <text class="l" transform="translate(351.95 43.75) rotate(48.91)"><tspan x="0" y="0">	</tspan></text>
  <text class="l" transform="translate(373.89 71.85) rotate(54.82)"><tspan x="0" y="0"> </tspan></text>
  <text class="l" transform="translate(376.52 75.59) rotate(55.21)"><tspan x="0" y="0"> </tspan></text>
  <text class="l" transform="translate(379.13 79.34) rotate(55.54)"><tspan x="0" y="0"> </tspan></text>
  <text class="l" transform="translate(381.72 83.1) rotate(56.01)"><tspan x="0" y="0">T</tspan></text>
  <text class="l" transform="translate(388.32 92.88) rotate(56.47)"><tspan x="0" y="0">H</tspan></text>
  <text class="l" transform="translate(396.28 104.92) rotate(56.6)"><tspan x="0" y="0">E</tspan></text>
  <text class="l" transform="translate(402.87 114.91) rotate(56.5)"><tspan x="0" y="0"> </tspan></text>
  <text class="l" transform="translate(405.38 118.74) rotate(56.13)"><tspan x="0" y="0">M</tspan></text>
  <text class="l" transform="translate(415.08 133.19) rotate(54.98)"><tspan x="0" y="0">A</tspan></text>
  <text class="l" transform="translate(422.78 144.28) rotate(52.89)"><tspan x="0" y="0">G</tspan></text>
  <text class="l" transform="translate(432 156.29) rotate(50.04)"><tspan x="0" y="0">I</tspan></text>
  <text class="l" transform="translate(436.41 161.66) rotate(47.21)"><tspan x="0" y="0">C</tspan></text>
  <text class="l" transform="translate(445.55 171.38) rotate(44.4)"><tspan x="0" y="0"> </tspan></text>
  <text class="l" transform="translate(448.99 174.77) rotate(42.45)"><tspan x="0" y="0">I</tspan></text>
  <text class="l" transform="translate(454.14 179.53) rotate(39.25)"><tspan x="0" y="0">S</tspan></text>
  <text class="l" transform="translate(462.22 186.03) rotate(36.07)"><tspan x="0" y="0"> </tspan></text>
  <text class="l" transform="translate(466.19 188.94) rotate(33.38)"><tspan x="0" y="0">I</tspan></text>
  <text class="l" transform="translate(472.26 193.16) rotate(27.43)"><tspan x="0" y="0">N</tspan></text>
  <text class="l" transform="translate(486.16 200.01) rotate(20.94)"><tspan x="0" y="0"> </tspan></text>
  <text class="l" transform="translate(491.21 202.13) rotate(14.48)"><tspan x="0" y="0">T</tspan></text>
  <text class="l" transform="translate(504.23 205.49) rotate(2.49)"><tspan x="0" y="0">H</tspan></text>
  <text class="l" transform="translate(520.38 205.86) rotate(-10.35)"><tspan x="0" y="0">E</tspan></text>
  <text class="l" transform="translate(533.86 202.86) rotate(-23.59)"><tspan x="0" y="0"> </tspan></text>
  <text class="l" transform="translate(539.89 200.12) rotate(-38.29)"><tspan x="0" y="0">I</tspan></text>
  <text class="l" transform="translate(547.36 193.96) rotate(-60.5)"><tspan x="0" y="0">N</tspan></text>
  <text class="l" transform="translate(555.14 180.16) rotate(-69.25)"><tspan x="0" y="0">K</tspan></text>
  <text class="q" transform="translate(560 167.26) rotate(-68.4)"><tspan x="0" y="0"> </tspan></text>
  <path class="ac" d="M586.22,429.7V33.9c15.68,11.46,31.79,18.6,48.8,14.25,11.41-2.4,21.64-9.98,32.2-17.52l1.45,403.85c-9.84,7.03-29.4,13.58-40.28,14.12s-25.84-6.95-42.17-18.9Z"/>
  <path class="j" d="M586.37,137.89c-16.14,11.45-23.91,30.02-32.05,47.31-1.39,2.95-2.8,5.95-4.64,8.66-2.45,3.62-6.47,6.11-10.34,7.98-10.75,5.17-23.77,6.15-35.47,4.55-23.84-3.25-44.84-17.64-61.28-34.55-8.1-8.34-15.07-17.57-21.72-27.08s-13.65-20.14-20.35-30.29c-13.46-20.41-26.78-41.13-42.51-59.9-1.65-1.97-3.33-3.91-5.05-5.82-1.08-1.2-2.84.58-1.77,1.77,16.3,18.07,29.67,38.71,43.05,58.96,6.9,10.45,13.75,20.94,20.83,31.27,6.52,9.51,13.18,18.96,20.86,27.58,15.89,17.83,36.24,33.42,59.83,39.06,11.56,2.77,23.8,2.94,35.36.01,5.97-1.51,11.74-3.99,16.58-7.85,2.57-2.05,4.35-4.49,5.92-7.35,3.98-7.25,6.98-15.01,10.74-22.38,4.58-9,9.98-17.77,17.32-24.81,1.87-1.79,3.86-3.46,5.98-4.96,1.3-.92.05-3.09-1.26-2.16h0Z"/>
  <path class="j" d="M587.88,138.09c-7.85-9.08-17.06-16.71-27.72-22.27-8.7-4.54-18-7.79-26.76-12.2-4.93-2.48-9.68-5.31-14.15-8.56-5.52-4.01-10.47-8.65-15.24-13.52-7.71-7.86-15.02-16.12-21.42-25.09-7.51-10.52-13.82-21.84-19.96-33.2-.77-1.42-2.92-.15-2.16,1.26,5.56,10.28,11.25,20.53,17.86,30.19,6.12,8.95,13.08,17.27,20.55,25.12,4.56,4.8,9.22,9.53,14.35,13.72,4.6,3.75,9.5,7.1,14.69,9.99,8.76,4.88,18.21,8.25,27.23,12.56,5.28,2.52,10.38,5.42,15.11,8.88,5.87,4.28,11.1,9.38,15.85,14.87,1.05,1.22,2.82-.56,1.77-1.77h0Z"/>
  <path class="j" d="M559.16,180.35c9.55,9.15,16.21,20.44,21.44,32.49,4.5,10.39,7.98,21.31,13.66,31.15,3.02,5.24,6.75,10.09,11.37,14.03,1.22,1.04,2.99-.72,1.77-1.77-8.37-7.14-13.3-17.05-17.43-27.04-4.58-11.07-8.61-22.4-14.81-32.71-3.94-6.56-8.69-12.62-14.22-17.92-1.16-1.11-2.93.65-1.77,1.77h0Z"/>
  <path class="j" d="M589.28,226.64c-18.51,11.56-37.78,22.12-54.17,36.7-8.34,7.42-15.87,15.9-21.38,25.65-5.5,9.72-9.07,20.51-10.61,31.56-1.63,11.62-1.1,23.48,1.58,34.92,1.43,6.09,3.47,12.03,6.05,17.73,2.52,5.58,5.5,11.1,9.28,15.93s8.75,8.73,14.92,9.98c3.14.64,6.35.67,9.54.39,2.41-.21,4.96-.43,7.29-1.09,6.55-1.85,11.11-7.79,14.6-13.27,4.36-6.82,7.73-14.21,11.6-21.31,3.28-6.02,7.01-12.92,12.92-16.77,1.19-.77,2.44-1.38,3.81-1.77,1.54-.45.89-2.86-.66-2.41-6.34,1.84-10.74,7.47-14.17,12.79-4.32,6.71-7.66,14-11.46,21.01-3.24,6-6.84,12.65-12.41,16.82-2.99,2.24-6.17,2.89-9.82,3.32-6.26.74-12.63.41-18-3.23-4.89-3.32-8.25-8.5-11.13-13.54-3.1-5.42-5.66-11.14-7.63-17.07-3.68-11.1-5.25-22.84-4.58-34.52s3.3-22.16,8-32.25,11.17-18.6,18.9-26.26c15.44-15.31,34.43-26.27,52.87-37.5,1.99-1.21,3.97-2.43,5.94-3.66,1.36-.85.11-3.01-1.26-2.16h0Z"/>
  <g>
    <text class="r" transform="translate(382.84 209.44)"><tspan x="0" y="0">PIGMA ink </tspan><tspan x="14.89" y="12">is arch</tspan><tspan class="x" x="42.54" y="12">i</tspan><tspan class="an" x="45.2" y="12">v</tspan><tspan x="49.91" y="12">al </tspan><tspan x="8.69" y="24">quality on pape</tspan><tspan class="am" x="74.08" y="24">r</tspan><tspan x="76.83" y="24">.</tspan><tspan class="af" x="26.13" y="36">w</tspan><tspan x="33.51" y="36">ate</tspan><tspan class="aq" x="46.01" y="36">r</tspan><tspan x="49.84" y="36">proof, </tspan><tspan x="17.2" y="48">chemical resistant, </tspan><tspan x="52.35" y="60">fade</tspan><tspan x="46.74" y="72">resistant,</tspan><tspan x="34" y="84" xml:space="preserve"> bleed fre</tspan><tspan class="ao" x="72.62" y="84">e</tspan><tspan x="76.7" y="84">, quick </tspan><tspan x="54.12" y="96">d</tspan><tspan class="ap" x="59.54" y="96">r</tspan><tspan x="63.35" y="96">ying &amp; </tspan><tspan x="69.04" y="108">PH</tspan><tspan x="61.07" y="120" xml:space="preserve"> neutral.</tspan></text>
    <path class="j" d="M384.19,248.03c6.56,7.37,11.61,16.03,15.91,24.86,5.16,10.59,9.23,21.71,12.51,33.01,3.42,11.78,5.99,23.83,7.52,36,1.62,12.95,1.38,26.16,4.34,38.92,2.22,9.57,6.44,19.15,16.17,22.96,9.64,3.77,19.76.74,29.11-2.33,5.01-1.64,10-3.42,15.17-4.5,4.18-.88,8.52-1.24,12.6.26s7.69,4.19,11.09,6.81c4.21,3.25,8.25,6.72,12.45,9.98s8.97,6.67,13.93,9.24c5.37,2.78,11.05,4.37,17.08,4.76,5.5.35,10.98-.25,16.45-.79,4.05-.39,8.58-1.04,12.52.31,1.56.53,2.89,1.51,3.84,2.86s3.08.06,2.16-1.26c-2.25-3.23-5.74-4.51-9.56-4.78-4.75-.34-9.55.47-14.26.89-5.75.5-11.59.67-17.26-.56s-11.04-4.04-15.95-7.26c-8.8-5.78-16.28-13.34-25.08-19.1-3.38-2.21-7.04-4.07-11.11-4.51-4.74-.52-9.61.61-14.15,1.89-5.23,1.47-10.33,3.36-15.53,4.93-4.71,1.42-9.62,2.7-14.58,2.45-4.56-.23-9.13-1.45-12.8-4.25s-6.06-6.84-7.64-11.06c-4.71-12.6-4.55-26.31-5.79-39.52-1.14-12.18-3.35-24.26-6.41-36.11-2.98-11.51-6.78-22.82-11.53-33.72-4.12-9.45-8.98-18.71-15.2-26.96-1.34-1.78-2.74-3.51-4.23-5.18-1.07-1.2-2.84.57-1.77,1.77h0Z"/>
    <path class="j" d="M358.27,39.17c-5.35,8.27-10.38,16.75-15.18,25.35-6,10.76-11.67,21.75-16.46,33.1-3.88,9.18-7.84,19.11-8.36,29.18-.57,10.82,4.59,21.59,12.09,29.16,9.1,9.16,21.76,13.99,34.56,14.44,1.82.06,3.64.04,5.46-.06,1.6-.09,1.61-2.59,0-2.5-12.8.69-25.87-2.81-35.7-11.27-8.08-6.96-13.92-17.29-13.95-28.15-.01-4.15.87-8.28,1.94-12.27,1.39-5.13,3.21-10.15,5.21-15.07,4.51-11.11,9.97-21.83,15.73-32.34,4.85-8.84,9.96-17.55,15.37-26.06.48-.75.96-1.5,1.44-2.25.88-1.35-1.29-2.61-2.16-1.26h0Z"/>
    <path class="j" d="M328.94,154.2c6.42,11.38,12.27,23.09,18.41,34.62,7.48,14.04,15.13,28.04,23.77,41.41,3.99,6.18,8.2,12.28,13.07,17.8,1.07,1.21,2.83-.57,1.77-1.77-4.24-4.8-7.93-10.07-11.45-15.41-4.24-6.44-8.21-13.07-12.05-19.77-7.72-13.45-14.91-27.2-22.13-40.93-3.03-5.76-6.03-11.54-9.23-17.22-.79-1.4-2.95-.14-2.16,1.26h0Z"/>
  </g>
</svg>