<?xml version="1.0" encoding="UTF-8"?>
<svg id="a" data-name="Layer 1" xmlns="http://www.w3.org/2000/svg" viewBox="0 0 1313.93 774.37">
  <defs>
    <style>
      .b {
        fill: #809500;
      }

      .c {
        fill: #632433;
      }

      .d {
        fill: none;
      }

      .e {
        fill: #27121e;
      }

      .f {
        fill: #992433;
      }

      .g {
        fill: olive;
      }

      .h {
        fill: #b66cc8;
      }

      .i {
        fill: #c0bec0;
      }

      .j {
        fill: #c8a2c8;
      }

      .k {
        fill: #010001;
      }

      .l {
        fill: #990074;
      }
    </style>
  </defs>
  <path class="i" d="M193.57,80.86v.1c-1.14.08-2.42.08-3.58,0v-.1h3.58Z"/>
  <path class="k" d="M190,80.95h4.37c.09.03.09.06,0,.1h-5.16c-.09-.03-.09-.06,0-.1h.79Z"/>
  <path class="e" d="M195.36,81.05h-.99v-.1h.8c.1,0,.2.02.19.1Z"/>
  <path class="e" d="M189.2,80.95v.1h-.79c-.07,0-.13,0-.2,0,0-.08.09-.1.19-.1h.8Z"/>
  <rect class="l" x="15.81" y="10.3" width="1278.67" height="748.08"/>
  <path class="c" d="M133.19,758.27c-3.72-37.59-4.35-85.3,7.19-121.37,4.11-12.83,9.49-25.87,19.74-34.92,27.8-24.53,75.29-8.53,107.34-27.61,31.17-18.55,34.2-60.46,33.74-95.86-.76-58.92-1.52-117.84-2.29-176.76-.59-45.47.72-95.92,33.01-128.98,33.8-34.62,90.95-37.31,138.01-23.33,42.2,12.53,82.15,38.11,101.75,76.37,22.4,43.73,14.93,96.64-3.27,142.16-9.97,24.94-23.01,48.86-29.71,74.8s-6.27,55.2,9.27,77.32c20.72,29.51,61.74,38.19,98.62,38.03,54.23-.23,108.32-14.47,155.19-40.85,64.8-36.48,115.27-95.12,183.89-124.35,18.02-7.68,37.75-13.23,57.27-10.72,32.35,4.17,57.36,29.29,75.92,55.26,41.17,57.62,63.82,125.4,85.93,192.09,12.86,38.78,34.43,90.72,49.56,128.73"/>
  <path class="h" d="M1294.48,583.37c-53.32-36.24-87.82-81.91-117.81-137.88-15.09-28.17-26.69-58.14-44.15-85-17.45-26.86-42.14-51.12-73.68-59.81-36.92-10.17-76.03,2.38-112.04,15.25-43.68,15.61-88,32.37-123.69,61.31-41.72,33.83-73.03,84.73-125.83,97.58-10.81,2.63-23.12,3.21-32.28-2.95-4.78-3.21-8.23-7.97-10.97-12.93-21.99-39.75-2.22-88.46,19.89-128.15,22.11-39.69,47.46-83.71,35.41-127.26-8.08-29.2-32.3-52.23-59.85-66.49-27.55-14.27-58.49-20.98-89-27.54,22.83-30.18,56.07-35.91,94.72-36.62,38.65-.71,77.22,16.9,101.21,46.21,7.95,9.72,14.45,20.83,16.93,32.99,2.47,12.08.9,24.54,1.21,36.85.53,20.68,6.38,40.86,12.73,60.62,6.03,18.78,16.63,40.73,36.89,42.42,10.68.89,20.75-4.49,29.82-10.03,52.09-31.81,101.91-76.43,163.5-77.38,62.34-.96,114.98,43.9,154.15,90.83,39.17,46.93,68.28,98.78,122.81,128.02"/>
  <path class="d" d="M1180.68,758.27c-30.09-23.78-59.74-71.22-69.68-107.56-9.93-36.34-14.64-74.01-27.18-109.59-6.71-19.05-16.24-38.11-32.78-50.32-26.43-19.52-65.16-16.5-94.25-.9-29.09,15.59-50.56,41.47-70.62,67.13-20.06,25.66-40.03,52.3-67.48,70.46-38.46,25.46-87.47,31.36-134.01,28.92-52.23-2.74-105.38-15.82-146.74-46.8-41.35-30.98-68.83-82.08-61.16-132.12,3.22-21.04,12.24-40.82,17.4-61.5,11.53-46.21,3.41-94.64-4.75-141.52-2.72-15.6-6.07-32.4-18.05-43.18-13.15-11.83-34.07-12.93-50.49-5.91-16.42,7.02-28.82,20.83-37.93,35.79-25.18,41.4-28.11,91.54-30.4,139.52-1.84,38.56-3.68,77.11-5.51,115.67-1.66,34.77-1.85,76.02-29.91,97.8-34.79,27-53.54,16.07-88.71,27.9-5.59,1.88-23.91.9-35.96,25.99-2.53,5.27-5.31,35.45-4.63,41.23,2.61,22.23,3.41,26.75,6.02,48.97"/>
  <path class="g" d="M15.81,700.63c54.68-61.24,54.22-139.27,77.64-183.05,9.43-17.62,22.9-36.27,43.21-39.06,28.08-3.87,60.32,23.79,81.66,5.71,5.66-4.8,8.65-11.87,10.69-18.88,13.01-44.55-4.92-91.31-10.67-137.27-8.96-71.72,14.95-148.66,70.28-197.17,55.33-48.52,142.74-63.11,207.76-27.58-62.69-59.68-175.9-91.2-253.32-50.82-77.42,40.37-122.14,132.17-105.05,215.63,6.49,31.68,18.72,70.34-6.22,91.82-14.86,12.79-36.78,12.81-56.62,14.21-19.84,1.4-42.62,7.1-50.56,24.75-3.38,7.51-3.38,16.01-2.91,24.19,1.72,30.28,23.75,115.31-5.9,171.47"/>
  <path class="g" d="M1294.48,297.46c-63.99-45.99-89.45-106.42-154.82-150.55-14.78-9.98-31.42-18.44-49.4-19.61-14.41-.94-28.68,2.87-42.44,7.12-26.43,8.16-52.27,18.12-77.26,29.78-26.39,12.31-55.96,26.88-83.5,17.2-31.98-11.24-34.19-14.26-55.55-39.88-22.63-27.14-43.24-60.66-48.8-131.22h62.08c40.77,103.87,55.86,99.69,63.01,102.68,13.15,5.49,74.83-25.88,87.72-31.93,49.77-23.36,69.04-42.87,124.33-44.55,55.29-1.69,106.79,23.35,147.51,59.56,9.23,8.21,18.38,18.99,27.12,34.25v167.15Z"/>
  <path class="d" d="M1089.87,758.39c-39.79-54.41-64.34-92.32-81.42-156.88-4.46-16.86-12-37.51-29.89-39.37-6.75-.7-13.42,1.72-19.5,4.63-50.44,24.18-74.15,80.23-114.11,118.59-52.66,50.54-134.03,67.56-206.49,52.2-72.46-15.36-135.94-60.02-182.53-115.86-10.49-12.58-20.35-25.96-26.1-41.13-5.32-14.06-6.94-29.22-6.68-44.19.56-32.64,9.76-64.51,14.24-96.87s3.72-67.2-13.8-95.1c-37.13,45.05-43.76,106.29-46.27,163.85-2.51,57.56-3.05,117.83-31.36,168.52-4.9,8.77-11.09,17.57-20.47,21.71-13.98,6.16-31.28.39-45.2,6.66-16.87,7.6-20.71,35.24-21.37,53.23"/>
  <path class="c" d="M692.56,10.3c-56.08,9.71-110.7,27.33-164.36,45.83-22.43-13.11-48.05-20.01-73.3-26.76-13.67-3.65-18.87-4.05-37-7.73-1.92-.39-3.85-.72-5.79-.96-21.02-2.56-47.28-11.12-62.1-10.39,111.12-.05,250.17,0,342.56,0Z"/>
  <path class="f" d="M148.63,758.27c-3.64-37.59-1.59-60.49,9.68-96.57,4.01-12.83,9.26-25.87,19.28-34.92,27.15-24.53,73.52-8.53,104.81-27.61,30.43-18.55,33.39-60.46,32.95-95.86-.74-58.92-1.49-117.84-2.23-176.76-.57-45.47.71-95.92,32.23-128.98,33-34.62,88.8-37.31,134.76-23.33,41.2,12.53,80.21,38.11,99.35,76.37,21.87,43.73,14.58,96.64-3.2,142.16-9.74,24.94-22.47,48.86-29.01,74.8-6.54,25.94-6.12,55.2,9.05,77.32,20.23,29.51,60.28,38.19,96.29,38.03,52.95-.23,105.77-14.47,151.53-40.85,63.27-36.48,112.55-95.12,179.55-124.35,17.6-7.68,36.86-13.23,55.92-10.72,31.59,4.17,56.01,29.29,74.13,55.26,40.2,57.62,62.32,125.4,83.91,192.09,12.55,38.78,26.83,65.92,41.6,103.92"/>
  <path class="g" d="M1193.93,758.27c-30.09-23.78-59.74-71.22-69.68-107.56-9.93-36.34-14.64-74.01-27.18-109.59-6.71-19.05-16.24-38.11-32.78-50.32-26.43-19.52-65.16-16.5-94.25-.9-29.09,15.59-50.56,41.47-70.62,67.13-20.06,25.66-40.03,52.3-67.48,70.46-38.46,25.46-87.47,31.36-134.01,28.92-52.23-2.74-105.38-15.82-146.74-46.8-41.35-30.98-68.83-82.08-61.16-132.12,3.22-21.04,12.24-40.82,17.4-61.5,11.53-46.21,3.41-94.64-4.75-141.52-2.72-15.6-6.07-32.4-18.05-43.18-13.15-11.83-34.07-12.93-50.49-5.91-16.42,7.02-28.82,20.83-37.93,35.79-25.18,41.4-28.11,91.54-30.4,139.52-1.84,38.56-3.68,77.11-5.51,115.67-1.66,34.77-1.85,76.02-29.91,97.8-34.79,27-53.54,16.07-88.71,27.9-5.59,1.88-23.91.9-35.96,25.99-2.53,5.27-5.31,35.45-4.63,41.23,2.61,22.23,3.41,26.75,6.02,48.97"/>
  <path class="j" d="M1294.48,559.62c-53.32-36.24-74.54-74.87-104.53-130.83-15.09-28.17-26.69-58.14-44.15-85-17.45-26.86-42.14-51.12-73.68-59.81-36.92-10.17-76.03,2.38-112.04,15.25-43.68,15.61-88,32.37-123.69,61.31-41.72,33.83-73.03,84.73-125.83,97.58-10.81,2.63-23.12,3.21-32.28-2.95-4.78-3.21-8.23-7.97-10.97-12.93-21.99-39.75-2.22-88.46,19.89-128.15,22.11-39.69,47.46-83.71,35.41-127.26-8.08-29.2-32.3-52.23-59.85-66.49-27.55-14.27-58.49-20.98-89-27.54,22.83-30.18,56.07-35.91,94.72-36.62,38.65-.71,77.22,16.9,101.21,46.21,7.95,9.72,14.45,20.83,16.93,32.99,2.47,12.08.9,24.54,1.21,36.85.53,20.68,6.38,40.86,12.73,60.62,6.03,18.78,16.63,40.73,36.89,42.42,10.68.89,20.75-4.49,29.82-10.03,52.09-31.81,101.91-76.43,163.5-77.38,62.34-.96,114.98,43.9,154.15,90.83,39.17,46.93,52.72,89.41,107.26,118.65"/>
  <path class="b" d="M1294.48,277.3c-48.48-33.16-65.05-86.26-130.42-130.39-14.78-9.98-31.42-18.44-49.4-19.61-14.41-.94-32.8-2.14-46.56,2.11-26.43,8.16-44.5,11.65-69.49,23.3-26.39,12.31-54.33,21.53-83.39,17.93-34.75-4.31-48.59-3.5-69.96-29.12-22.63-27.14-56.98-60.66-62.54-131.22h51.89c40.77,103.87,54.4,93.85,61.54,96.84,13.15,5.49,73.21-20.05,86.09-26.09,49.77-23.36,69.04-42.87,124.33-44.55,55.29-1.69,92.55,25.13,132.64,61.99,22.23,20.45,35.81,34.68,55.27,62.74v116.07Z"/>
  <path class="b" d="M15.81,670.76c43.56-60.65,36.73-119.04,60.15-162.82,9.43-17.62,22.9-36.27,43.21-39.06,28.08-3.87,60.32,23.79,81.66,5.71,5.66-4.8,8.65-11.87,10.69-18.88,13.01-44.55-4.92-91.31-10.67-137.27-8.96-71.72,14.95-148.66,70.28-197.17,55.33-48.52,142.74-63.11,207.76-27.58C416.2,34.01,302.99,2.49,225.57,42.87c-77.42,40.37-122.14,132.17-105.05,215.63,6.49,31.68,18.72,70.34-6.22,91.82-14.86,12.79-36.78,12.81-56.62,14.21-19.84,1.4-33.94-.31-41.88,17.34"/>
  <path class="h" d="M213.06,10.3c-12.97,39.34-64.68,64.65-82.09,83.26-17.41,18.61-27.75,36.25-38.36,59.15-22.78,49.17-3.71,49.29-24.09,121-21.47,78.21-51.45,40.8-52.52,31.82v-57.36c21.48,20.99,19.34-12.72,19.16-27.14-.4-33.3-8.69-51.45-.92-78.9,7.78-27.45,22.44-54.49,47.18-69.91,10.9-6.79,46.51-22.56,61.8-61.9h69.84Z"/>
  <path class="f" d="M655.14,10.3c-53.1,9.71-73.4,18.88-124.21,37.38-21.23-13.11-45.49-20.01-69.4-26.76-12.94-3.65-17.86-4.05-35.03-7.73-1.81-.39-3.64-.72-5.48-.96-19.9-2.56-31.03-2.67-45.07-1.93,105.2-.05,191.73,0,279.19,0Z"/>
  <path class="b" d="M1180.68,758.27c-29.83-22.79-55.97-67.64-65.82-102.46-9.85-34.81-14.52-70.91-26.95-104.99-6.66-18.25-16.1-36.51-32.5-48.22-26.21-18.71-64.61-15.8-93.45-.86s-50.14,39.73-70.02,64.32c-19.89,24.59-32.76,44.03-59.97,61.43-38.14,24.39-93.25,45.61-139.39,43.27-51.79-2.63-98.63-7.07-139.64-36.75-41.01-29.68-86.36-90.97-78.76-138.92,3.2-20.16,11.56-42.93,16.68-62.74,11.44-44.28,15.78-92.09,7.69-137.01-2.69-14.95-6.02-31.04-17.9-41.37-13.03-11.34-33.78-12.39-50.07-5.66-16.29,6.73-28.58,19.95-37.61,34.29-24.97,39.66-27.87,87.71-30.14,133.68-1.82,36.94-3.65,73.88-5.47,110.82-1.64,33.32-1.83,72.83-29.66,93.7-34.5,25.87-53.09,15.39-87.96,26.73-5.55,1.8-19.92,3.45-22.97,11.24-11,28.05-2.48,65.17-1.81,70.7,2.59,21.29,1.7,7.62,4.29,28.91"/>
  <path class="h" d="M1099.68,758.39c-39.79-54.41-64.34-92.32-81.42-156.88-4.94-18.67-13.65-41.98-36.02-39.29-3.01.36-5.92,1.26-8.69,2.44-53.68,22.87-77.61,81.18-118.78,120.7-52.66,50.54-134.03,67.56-206.49,52.2-72.46-15.36-135.94-60.02-182.53-115.86-10.49-12.58-20.35-25.96-26.1-41.13-5.32-14.06-6.94-29.22-6.68-44.19.56-32.64,9.76-64.51,14.24-96.87,3.45-24.9,11-66.16,2.99-89.71-3.33-9.79-24.14,3.7-29.56,12.58-25.99,42.63-31.32,95.65-33.51,145.88-2.51,57.56-3.05,117.83-31.36,168.52-4.9,8.77-11.09,17.57-20.47,21.71-13.98,6.16-31.28.39-45.2,6.66-16.87,7.6-20.71,35.24-21.37,53.23"/>
  <path class="j" d="M1089.87,758.39c-39.79-54.56-64.34-84.4-81.42-149.13-4.94-18.72-13.65-42.1-36.02-39.39-3.01.36-5.92,1.26-8.69,2.44-53.69,22.93-77.61,81.4-118.78,121.02-52.66,50.67-134.03,67.74-206.49,52.34-72.46-15.4-135.94-60.18-182.53-116.17-10.49-12.61-20.35-26.03-26.1-41.24-5.32-14.1-6.94-29.3-6.68-44.31.56-32.73,9.76-64.69,14.24-97.13,3.51-25.42,6.61-67.92-1.85-91.85-3.23-9.13-12.77,4.25-17.9,12.53-26.58,42.93-23.75,108.15-25.96,158.95-2.51,57.72-8.13,111.4-36.45,162.22-4.9,8.8-16.25,16.77-25.64,20.91-13.98,6.18-20.36.88-34.28,7.17-16.87,7.62-18.49,23.58-19.15,41.62"/>
  <path class="j" d="M15.99,295.52c1.07,8.98,22.15,49.3,43.62-28.91,20.38-71.7,1.31-71.83,24.09-121,10.61-22.9,20.95-40.54,38.36-59.15,17.41-18.61,66.15-37.21,79.12-76.55l-47.81.47c-15.29,39.34-41.42,50.85-52.32,57.64-24.74,15.42-49.21,52.76-56.98,80.22s6.71,57.17,1.27,85.15c-2.75,14.17-2.78,48.4-29.35,30.92v31.22Z"/>
</svg>